<?xml version="1.0" standalone="no"?>
<!DOCTYPE svg PUBLIC "-//W3C//DTD SVG 1.1//EN" "http://www.w3.org/Graphics/SVG/1.1/DTD/svg11.dtd" >
<svg>
<metadata>
Created by FontForge 20110222 at Wed Sep  4 02:23:26 2013
 By Orthosie Webhosting
Copyright (c) 2003 by Sharif FarsiWeb, Inc. All Rights Reserved.
Copyright (c) 2003 by Bitstream, Inc. All Rights Reserved.
</metadata>
<defs>
<font id="Terafik-Bold" horiz-adv-x="531" >
  <font-face 
    font-family="Terafik"
    font-weight="700"
    font-stretch="normal"
    units-per-em="2048"
    panose-1="1 0 5 0 0 0 0 0 0 0"
    ascent="1638"
    descent="-410"
    x-height="984"
    cap-height="1319"
    bbox="-282 -1385 2644 2301"
    underline-thickness="60"
    underline-position="-390"
    unicode-range="U+0020-FEFC"
  />
<missing-glyph horiz-adv-x="1024" 
d="M128 0v1480h768v-1480h-768zM256 128h512v1224h-512v-1224z" />
    <glyph glyph-name="afii57457_afii57451" unicode="&#x651;&#x64b;" 
d="M596 1610q0 -67 -36 -114q-39 -50 -105 -50q-107 0 -164 80q-62 -146 -191 -146q-142 0 -142 163q0 72 62 206l90 -46q-38 -96 -38 -114q0 -70 49 -70q71 0 92 73q11 39 9 132q35 19 114 60q0 -199 91 -199q49 0 45 60q-2 35 -52 113l90 67q38 -50 64 -122q22 -61 22 -93
zM563 2170l-560 -139l-31 114l563 143zM569 1959l-559 -139l-31 115l562 143z" />
    <glyph glyph-name="afii57457_afii57452" unicode="&#x651;&#x64c;" arabic-form="isolated" 
d="M587 1610q0 -67 -37 -114q-39 -50 -105 -50q-107 0 -163 80q-62 -146 -191 -146q-143 0 -143 163q0 72 63 206l89 -46q-37 -96 -37 -114q0 -70 48 -70q71 0 92 73q12 41 9 132q35 19 114 60q0 -199 91 -199q49 0 45 60q-2 34 -19 62l-33 51l90 67q37 -49 64 -122
q23 -62 23 -93zM603 2120q0 -159 -194 -205l-410 -97l-39 105l39 17q62 27 62 86q0 34 -25 34q-22 0 -58 -26l-45 65q54 76 118 74q105 -2 105 -106q0 -58 -31 -107l110 42q-31 51 -31 115q0 79 69 135q60 49 122 49q78 0 141 -51q67 -54 67 -130zM492 2120q0 63 -90 63
q-30 0 -57 -20t-27 -49q0 -34 26.5 -58.5t60.5 -21.5q87 7 87 86z" />
    <glyph glyph-name="afii57457_afii57453" unicode="&#x651;&#x64d;" arabic-form="isolated" 
d="M589 2062q0 -67 -37 -114q-39 -50 -105 -50q-107 0 -163 81q-62 -146 -191 -146q-143 0 -143 163q0 71 63 205l89 -45q-37 -97 -37 -115q0 -69 48 -69q70 0 92 73q12 41 9 131q35 20 114 60q0 -199 91 -199q49 0 45 60q-2 32 -19 63q-17 25 -33 51l90 67q37 -49 64 -122
q23 -63 23 -94zM563 1726l-560 -139l-31 115l563 142zM569 1515l-559 -139l-31 115l562 143z" />
    <glyph glyph-name="afii57457_afii57454" unicode="&#x651;&#x64e;" arabic-form="isolated" 
d="M542 1961l-559 -139l-31 115l562 143zM587 1610q0 -67 -37 -114q-39 -50 -105 -50q-107 0 -163 80q-62 -146 -191 -146q-143 0 -143 163q0 72 63 206l89 -46q-37 -96 -37 -114q0 -70 48 -70q71 0 92 73q12 41 9 132q35 19 114 60q0 -199 91 -199q49 0 45 60q-2 34 -19 62
l-33 51l90 67q37 -49 64 -122q23 -62 23 -93z" />
    <glyph glyph-name="afii57457_afii57455" unicode="&#x651;&#x64f;" arabic-form="isolated" 
d="M587 1610q0 -67 -37 -114q-39 -50 -105 -50q-107 0 -163 80q-62 -146 -191 -146q-143 0 -143 163q0 72 63 206l89 -46q-37 -96 -37 -114q0 -70 48 -70q71 0 92 73q12 41 9 132q35 19 114 60q0 -199 91 -199q49 0 45 60q-2 34 -19 62l-33 51l90 67q37 -49 64 -122
q23 -62 23 -93zM470 2116q0 61 -91 61q-31 0 -59 -21t-28 -51q0 -34 28.5 -56.5t62.5 -19.5q87 7 87 87zM213 2001q-32 51 -32 107q0 79 70 137q61 51 122 51q78 0 141 -50q67 -54 67 -130q0 -160 -194 -206l-400 -94l-28 108q97 28 254 77z" />
    <glyph glyph-name="afii57457_afii57456" unicode="&#x651;&#x650;" arabic-form="isolated" 
d="M566 1517l-560 -139l-31 115l563 143zM587 1848q0 -67 -37 -114q-39 -50 -105 -50q-107 0 -163 80q-62 -145 -191 -145q-143 0 -143 163q0 71 63 205l89 -45q-37 -97 -37 -115q0 -70 48 -70q70 0 92 74q12 41 9 131q35 19 114 60q0 -199 91 -199q49 0 45 60q-2 34 -19 62
q-11 17 -33 52l90 66q37 -47 64 -122q23 -63 23 -93z" />
    <glyph glyph-name="uni0644064406510647" unicode="&#xfedf;&#xfee0;&#x651;&#x670;&#xfeea;" horiz-adv-x="1798" 
d="M1796 403q0 -99 -17.5 -174.5t-55.5 -126.5t-98 -76.5t-145 -25.5q-43 0 -83.5 12t-74.5 33.5t-60 51.5t-39 66q-13 -41 -38 -73t-59.5 -54.5t-76 -34.5t-87.5 -12q-216 0 -288 213q-86 -18 -150 -18q-71 0 -132.5 16.5t-108.5 47t-76.5 74.5t-36.5 99q-4 12 -4 30
q0 30 26.5 64t76.5 71.5t120.5 78t159.5 82.5l-21 122l184 58l87 -493q29 -167 163 -167q115 0 115 191v550h237v-407q0 -323 128 -323q79 0 105 45q19 34 19 135v550h230v-605zM615 396l-39 191q-51 -20 -105.5 -44t-112.5 -53q-14 -20 -14 -34q0 -32 43.5 -51.5
t142.5 -19.5q47 0 85 11zM1240 1647l-28 -219h-37l-22 219h87zM1195 1181q-10 -23 -27.5 -40t-38 -28t-42.5 -16.5t-42 -5.5q-31 0 -56 11t-42.5 30.5t-27 46t-9.5 58.5q0 106 63 166l72 -48q-13 -27 -25 -49.5t-12 -58.5q0 -38 41 -38q31 0 39 3q65 24 65 154h80
q0 -127 66 -154q7 -3 42 -3t35 36q0 49 -45 103l83 55q42 -60 48 -72q18 -36 18 -94q0 -146 -139 -146q-35 0 -77.5 22t-68.5 68z" />
    <glyph glyph-name="afii57444_afii57410.isol" unicode="&#xfedf;&#xfe82;" horiz-adv-x="1211" arabic-form="isolated" 
d="M1206 632q0 -286 -166 -459t-452 -173q-159 0 -344 111v156h459l-428 849l195 121l420 -837q29 28 55 104q25 72 25 118v611h236v-601zM923 1526q-212 -128 -466 -128q-63 0 -173.5 31.5t-110.5 37.5q-16 0 -49 -63q-37 20 -139 77l52 124q39 74 84 74q21 0 60 -22
q52 -29 95 -42q77 -23 188 -23q203 0 459 125v-191z" />
    <glyph glyph-name="afii57444_afii57410.fina" unicode="&#xfee0;&#xfe82;" horiz-adv-x="1433" arabic-form="final" 
d="M1433 268v-267h-30q-250 0 -311 261q-163 -261 -504 -261q-159 0 -344 111v156h459l-428 849l195 121l428 -855q36 36 59 120q20 73 20 134v597h236v-601q0 -231 65 -311q44 -54 147 -54h8zM923 1526q-212 -128 -466 -128q-63 0 -173.5 31.5t-110.5 37.5q-16 0 -49 -63
q-37 20 -139 77l52 124q39 74 84 74q21 0 60 -22q52 -29 95 -42q77 -23 188 -23q203 0 459 125v-191z" />
    <glyph glyph-name="afii57444_afii57411.isol" unicode="&#xfedf;&#xfe84;" horiz-adv-x="1130" arabic-form="isolated" 
d="M1129 632q0 -286 -166 -459t-452 -173q-160 0 -344 111v156h458l-427 849l195 121l420 -837q29 29 55 105q25 71 25 117v611h236v-601zM623 1438l-515 -125l-31 111l181 45q-59 68 -59 135q0 76 68 122q59 41 139 41q57 0 102 -24v-96q-45 10 -89 10q-116 0 -116 -66
q0 -36 30 -59q27 -22 64 -22q30 0 195 46z" />
    <glyph glyph-name="afii57444_afii57411.fina" unicode="&#xfee0;&#xfe84;" horiz-adv-x="1355" arabic-form="final" 
d="M1355 268v-267h-29q-250 0 -312 261q-162 -261 -503 -261q-160 0 -344 111v156h458l-427 849l195 121l427 -855q36 35 59 120q20 72 20 134v597h237v-601q0 -231 65 -311q44 -54 146 -54h8zM623 1438l-515 -125l-31 111l181 45q-59 68 -59 135q0 76 68 122q59 41 139 41
q57 0 102 -24v-96q-45 10 -89 10q-116 0 -116 -66q0 -36 30 -59q27 -22 64 -22q30 0 195 46z" />
    <glyph glyph-name="afii57444_afii57413.isol" unicode="&#xfedf;&#xfe88;" horiz-adv-x="1130" arabic-form="isolated" 
d="M1129 632q0 -286 -166 -459t-452 -173q-160 0 -344 111v156h458l-427 849l195 121l420 -837q29 29 55 105q25 71 25 117v611h236v-601zM738 -434l-514 -126l-31 111l181 46q-59 68 -59 135q0 76 68 122q59 41 139 41q57 0 101 -24v-97q-44 11 -88 11q-116 0 -116 -67
q0 -35 30 -58q27 -22 63 -22q30 0 195 45z" />
    <glyph glyph-name="afii57444_afii57413.fina" unicode="&#xfee0;&#xfe88;" horiz-adv-x="1355" arabic-form="final" 
d="M1355 268v-267h-29q-250 0 -312 261q-162 -261 -503 -261q-160 0 -344 111v156h458l-427 849l195 121l427 -855q36 35 59 120q20 72 20 134v597h237v-601q0 -231 65 -311q44 -54 146 -54h8zM738 -434l-514 -126l-31 111l181 46q-59 68 -59 135q0 76 68 122q59 41 139 41
q57 0 101 -24v-97q-44 11 -88 11q-116 0 -116 -67q0 -35 30 -58q27 -22 63 -22q30 0 195 45z" />
    <glyph glyph-name="afii57444_afii57415.isol" unicode="&#xfedf;&#xfe8e;" horiz-adv-x="1130" arabic-form="isolated" 
d="M1129 632q0 -286 -166 -459t-452 -173q-160 0 -344 111v156h458l-427 849l195 121l420 -837q29 29 55 105q25 71 25 117v611h236v-601z" />
    <glyph glyph-name="afii57444_afii57415.fina" unicode="&#xfee0;&#xfe8e;" horiz-adv-x="1355" arabic-form="final" 
d="M1355 268v-267h-29q-250 0 -312 261q-162 -261 -503 -261q-160 0 -344 111v156h458l-427 849l195 121l427 -855q36 35 59 120q20 72 20 134v597h237v-601q0 -231 65 -311q44 -54 146 -54h8z" />
    <glyph glyph-name="afii57409" unicode="&#x621;" horiz-adv-x="1042" arabic-form="isolated" 
d="M1038 34l-830 -212l-45 163l289 69q-83 83 -83 212q0 116 78 184q75 66 192 66q38 0 205 -34q-7 -44 -17 -150l-146 21q-47 0 -90 -28q-49 -31 -49 -76q0 -54 47 -91q43 -34 99 -34q42 0 320 73z" />
    <glyph glyph-name="afii57410.isol" unicode="&#x622;" horiz-adv-x="878" arabic-form="isolated" 
d="M645 1h-237v1183h237v-1183zM984 1402q-212 -128 -465 -128q-63 0 -173.5 31.5t-110.5 37.5q-17 0 -50 -62q-36 19 -139 76l53 124q39 75 83 75q21 0 61 -23q51 -29 95 -42q76 -22 188 -22q203 0 458 124v-191z" />
    <glyph glyph-name="afii57411.isol" unicode="&#x623;" horiz-adv-x="618" arabic-form="isolated" 
d="M519 1h-236v1233h236v-1233zM661 1380l-514 -125l-31 111l180 45q-59 68 -59 135q0 75 68 122q60 41 139 41q58 0 102 -24v-96q-44 10 -88 10q-116 0 -116 -66q0 -41 35 -63q27 -17 58 -17q30 0 195 45z" />
    <glyph glyph-name="afii57412.isol" unicode="&#x624;" horiz-adv-x="901" arabic-form="isolated" 
d="M686 932l-514 -125l-31 111l180 45q-58 68 -58 135q0 75 67 122q61 42 139 42q58 0 102 -25v-96q-44 11 -88 11q-116 0 -116 -67q0 -35 30 -58q27 -22 63 -22q30 0 195 45zM899 222q0 -270 -262 -502q-196 -173 -477 -283l-108 212q242 117 302 155q258 163 289 331
q-70 -23 -138 -23q-154 0 -246 102q-89 99 -89 255q0 124 83 217q87 96 209 96q136 0 267 -124q170 -160 170 -436zM636 372q-3 81 -66 132q-50 41 -97 41q-29 0 -58 -27.5t-29 -55.5q0 -85 90 -97q87 -12 160 7z" />
    <glyph glyph-name="afii57413.isol" unicode="&#x625;" horiz-adv-x="618" arabic-form="isolated" 
d="M500 1h-237v1233h237v-1233zM661 -434l-514 -126l-31 111l180 46q-59 68 -59 135q0 75 68 122q60 41 139 41q58 0 102 -24v-97q-44 11 -88 11q-116 0 -116 -67q0 -35 30 -58q27 -22 63 -22q30 0 195 45z" />
    <glyph glyph-name="afii57414.isol" unicode="&#x626;" horiz-adv-x="1515" arabic-form="isolated" 
d="M1508 730l-105 -188q-133 59 -159 59q-155 0 -267 -160q-6 -9 -7 -23q-1 -15 7 -18q47 -20 135 -26l177 -13q101 -7 162 -63q64 -60 64 -159q0 -186 -206 -347q-236 -185 -597 -185q-293 0 -433 183q-112 147 -112 384q0 129 59 306l212 -63q-8 -34 -23 -103
q-12 -55 -12 -119q0 -201 112 -275q73 -48 221 -48q144 0 294 47q212 66 249 189q-338 11 -426 46q-113 45 -113 207q0 178 178 330q162 139 309 139q143 0 281 -100zM661 753l-514 -126l-31 111l180 46q-59 68 -59 135q0 75 68 122q60 41 139 41q58 0 102 -24v-97
q-44 11 -88 11q-116 0 -116 -67q0 -35 30 -58q27 -22 63 -22q30 0 195 46z" />
    <glyph glyph-name="afii57415.isol" unicode="&#x627;" horiz-adv-x="404" arabic-form="isolated" 
d="M403 1h-236v1233h236v-1233z" />
    <glyph glyph-name="afii57416.isol" unicode="&#x628;" horiz-adv-x="2000" arabic-form="isolated" 
d="M1136 -417h-237v237h237v-237zM514 1q-347 0 -347 361v150h236v-111q0 -77 41 -107q35 -26 116 -26h1104q82 0 82 55q0 27 -19 63l-108 206l205 141q174 -285 174 -406q0 -146 -70 -232q-76 -94 -219 -94h-1195z" />
    <glyph glyph-name="afii57417.isol" unicode="&#x629;" horiz-adv-x="1028" arabic-form="isolated" 
d="M1025 313q0 -167 -143 -249q-112 -64 -281 -64q-205 0 -319.5 110.5t-114.5 313.5q0 140 83 250q90 121 226 121q157 0 346 -150q203 -161 203 -332zM761 334q0 74 -108 147q-95 64 -156 64q-41 0 -71 -45q-26 -39 -26 -83q0 -77 62 -122q55 -41 135 -41q164 0 164 80z
M756 955h-211v212h211v-212zM471 955h-211v212h211v-212z" />
    <glyph glyph-name="afii57418.isol" unicode="&#x62a;" horiz-adv-x="1999" arabic-form="isolated" 
d="M1274 675h-211v212h211v-212zM989 675h-211v212h211v-212zM514 1q-347 0 -347 361v150h236v-111q0 -77 41 -107q35 -26 116 -26h1104q82 0 82 55q0 27 -19 63l-108 206l205 141q174 -285 174 -406q0 -146 -70 -232q-76 -94 -219 -94h-1195z" />
    <glyph glyph-name="afii57419.isol" unicode="&#x62b;" horiz-adv-x="1999" arabic-form="isolated" 
d="M1238 637h-211v215h211v-215zM975 637h-209v215h209v-215zM1103 891h-215v212h215v-212zM514 1q-347 0 -347 361v150h236v-111q0 -77 41 -107q35 -26 116 -26h1104q82 0 82 55q0 27 -19 63l-108 206l205 141q174 -285 174 -406q0 -146 -70 -232q-76 -94 -219 -94h-1195z
" />
    <glyph glyph-name="afii57420.isol" unicode="&#x62c;" horiz-adv-x="1430" arabic-form="isolated" 
d="M977 -183h-237v236h237v-236zM793 349q-373 -274 -373 -476q0 -73 30.5 -136.5t84.5 -110.5t129.5 -74t165.5 -27q154 0 267 39l72.5 27.5t102.5 37.5l114 -219q-280 -152 -548 -152q-160 0 -284.5 39.5t-210.5 115.5t-131 187.5t-45 254.5q0 267 262 499
q172 152 369 236q-1 0 -61 3.5t-167 3.5q-86 0 -148.5 -19t-107.5 -47l-120 196q124 132 266 132h9l959 -35l-25 -254h-89q-220 0 -521 -221z" />
    <glyph glyph-name="afii57421.isol" unicode="&#x62d;" horiz-adv-x="1428" arabic-form="isolated" 
d="M793 349q-373 -274 -373 -476q0 -73 30.5 -136.5t84.5 -110.5t129.5 -74t165.5 -27q154 0 267 39l72.5 27.5t102.5 37.5l114 -219q-280 -152 -548 -152q-160 0 -284.5 39.5t-210.5 115.5t-131 187.5t-45 254.5q0 267 262 499q172 152 369 236q-1 0 -61 3.5t-167 3.5
q-86 0 -148.5 -19t-107.5 -47l-120 196q124 132 266 132h9l959 -35l-25 -254h-89q-220 0 -521 -221z" />
    <glyph glyph-name="afii57422.isol" unicode="&#x62e;" horiz-adv-x="1430" arabic-form="isolated" 
d="M846 996h-236v236h236v-236zM793 349q-373 -275 -373 -476q0 -135 101 -235q115 -113 309 -113q155 0 267 39q58 22 175 65l114 -219q-279 -152 -548 -152q-263 0 -433 108q-238 151 -238 489q0 266 262 499q171 152 369 236q-5 0 -154 5q-113 4 -152 -3
q-110 -19 -178 -61l-120 196q129 137 275 132l959 -35l-25 -254h-89q-221 0 -521 -221z" />
    <glyph glyph-name="afii57423.isol" unicode="&#x62f;" horiz-adv-x="1181" arabic-form="isolated" 
d="M930 338q0 39 -28 73l-382 459l181 173l386 -465q93 -112 93 -236q0 -341 -386 -341h-256q-204 0 -376 219l163 163q0 -11 60 -59q70 -56 125 -56h295q125 0 125 70z" />
    <glyph glyph-name="afii57424.isol" unicode="&#x630;" horiz-adv-x="1183" arabic-form="isolated" 
d="M693 1094h-236v237h236v-237zM930 338q0 39 -28 73l-382 459l181 173l386 -465q93 -112 93 -236q0 -341 -386 -341h-256q-204 0 -376 219l163 163q0 -11 60 -59q70 -56 125 -56h295q125 0 125 70z" />
    <glyph glyph-name="afii57425.isol" unicode="&#x631;" horiz-adv-x="952" arabic-form="isolated" 
d="M865 97q-111 -189 -691 -525l-118 220q149 79 264 153q278 179 354 305q26 43 26 105q0 48 -19 86q-28 77 -125 258l219 128l132 -264q46 -92 46 -187q0 -130 -88 -279z" />
    <glyph glyph-name="afii57426.isol" unicode="&#x632;" horiz-adv-x="953" arabic-form="isolated" 
d="M727 903h-237v237h237v-237zM865 97q-111 -189 -691 -525l-118 220q149 79 264 153q278 179 354 305q26 43 26 105q0 48 -19 86q-28 77 -125 258l219 128l132 -264q46 -92 46 -187q0 -130 -88 -279z" />
    <glyph glyph-name="afii57427.isol" unicode="&#x633;" horiz-adv-x="2463" arabic-form="isolated" 
d="M2141 1q-168 0 -289 167q-56 -82 -84 -107q-63 -56 -156 -56q-85 0 -142 44q0 -190 -56 -319q-156 -361 -615 -361q-330 0 -498 216q-134 172 -134 420q0 39 20 132q23 109 52 173l206 -73q-52 -127 -52 -236q0 -194 141 -285q107 -69 272 -69q424 0 424 389
q0 199 -194 517l201 129q39 -74 122 -220q108 -179 208 -179q118 0 118 156v250h219q0 -190 20 -261q41 -145 174 -145q115 0 115 111q0 45 -111 243l202 124q29 -51 97 -187q59 -128 59 -208q0 -152 -82 -254q-88 -111 -237 -111z" />
    <glyph glyph-name="afii57428.isol" unicode="&#x634;" horiz-adv-x="2464" arabic-form="isolated" 
d="M2029 812h-212v215h212v-215zM1765 812h-208v215h208v-215zM1894 1066h-216v212h216v-212zM2141 1q-168 0 -289 167q-56 -82 -84 -107q-63 -56 -156 -56q-85 0 -142 44q0 -190 -56 -319q-156 -361 -615 -361q-330 0 -498 216q-134 172 -134 420q0 39 20 132
q23 109 52 173l206 -73q-52 -127 -52 -236q0 -194 141 -285q107 -69 272 -69q424 0 424 389q0 199 -194 517l201 129q39 -74 122 -220q108 -179 208 -179q118 0 118 156v250h219q0 -190 20 -261q41 -145 174 -145q115 0 115 111q0 45 -111 243l202 124q29 -51 97 -187
q59 -128 59 -208q0 -152 -82 -254q-88 -111 -237 -111z" />
    <glyph glyph-name="afii57429.isol" unicode="&#x635;" horiz-adv-x="2464" arabic-form="isolated" 
d="M2026 268q208 0 208 174q0 62 -45 100.5t-108 38.5q-91 0 -195 -90q-73 -64 -201 -223h341zM2050 1h-434q-107 0 -135 45q0 -366 -284 -551q-179 -116 -405 -116q-333 0 -497 223q-128 174 -128 427q0 39 20 133q23 110 52 173l206 -73q-52 -127 -52 -237
q0 -194 141 -285q107 -69 272 -69q199 0 310 96q117 102 117 297q0 107 -62 266q-52 133 -125 248l215 131q156 -347 229 -374q317 493 626 493q139 0 243 -119q101 -115 101 -256q0 -228 -133 -350q-112 -102 -277 -102z" />
    <glyph glyph-name="afii57430.isol" unicode="&#x636;" horiz-adv-x="2464" arabic-form="isolated" 
d="M2195 1000h-237v236h237v-236zM2026 268q208 0 208 174q0 62 -45 100.5t-108 38.5q-91 0 -195 -90q-73 -64 -201 -223h341zM2050 1h-434q-107 0 -135 45q0 -366 -284 -551q-179 -116 -405 -116q-333 0 -497 223q-128 174 -128 427q0 39 20 133q23 110 52 173l206 -73
q-52 -127 -52 -237q0 -194 141 -285q107 -69 272 -69q199 0 310 96q117 102 117 297q0 107 -62 266q-52 133 -125 248l215 131q156 -347 229 -374q317 493 626 493q139 0 243 -119q101 -115 101 -256q0 -228 -133 -350q-112 -102 -277 -102z" />
    <glyph glyph-name="afii57431.isol" unicode="&#x637;" horiz-adv-x="1609" arabic-form="isolated" 
d="M514 394v840h237v-736q103 135 221 222q152 112 289 111q146 -1 249 -126q99 -118 99 -266q0 -227 -160 -349q-117 -89 -237 -89h-698q-164 0 -347 128v139h271q76 0 76 126zM1390 442q0 62 -49 100q-45 36 -108 36q-154 0 -403 -310h373q83 0 135 46.5t52 127.5z" />
    <glyph glyph-name="afii57432.isol" unicode="&#x638;" horiz-adv-x="1612" arabic-form="isolated" 
d="M1309 998h-237v236h237v-236zM514 394v840h237v-736q103 135 221 222q152 112 289 111q146 -1 249 -126q99 -118 99 -266q0 -227 -160 -349q-117 -89 -237 -89h-698q-164 0 -347 128v139h271q76 0 76 126zM1390 442q0 62 -49 100q-45 36 -108 36q-154 0 -403 -310h373
q83 0 135 46.5t52 127.5z" />
    <glyph glyph-name="afii57433.isol" unicode="&#x639;" horiz-adv-x="1175" arabic-form="isolated" 
d="M1292 -601q-77 -53 -202 -93q-168 -53 -336 -53q-241 0 -406 129q-181 141 -181 375q0 271 289 493q-165 163 -165 330q0 69 27.5 129.5t75.5 108t114.5 79.5t144.5 44q27 4 57 6t62 2q55 0 118 -6v-221q-48 6 -90 6q-77 0 -129 -20q-154 -57 -154 -166q0 -30 14 -55
t37.5 -43t55 -28t67.5 -10q61 0 386 143l94 -195l-264 -110q-107 -45 -190.5 -92.5t-146.5 -96.5q-167 -132 -167 -274q0 -64 27 -114t78 -84t124.5 -51.5t166.5 -17.5q101 0 200 28q7 2 54 18t135 47z" />
    <glyph glyph-name="afii57434.isol" unicode="&#x63a;" horiz-adv-x="1172" arabic-form="isolated" 
d="M895 1037h-237v236h237v-236zM1292 -601q-76 -53 -202 -93q-166 -53 -336 -53q-241 0 -406 129q-181 141 -181 375q0 271 289 493q-165 164 -165 330q0 145 111 246q101 93 251 115q101 15 237 2v-221q-139 16 -219 -14q-154 -57 -154 -166q0 -64 57 -102q50 -34 117 -34
q62 0 386 143l94 -195l-264 -110q-212 -90 -337 -189q-167 -132 -167 -274q0 -146 133 -214q102 -53 263 -53q99 0 200 28q13 3 189 65z" />
    <glyph glyph-name="afii57441.isol" unicode="&#x641;" horiz-adv-x="2013" arabic-form="isolated" 
d="M1765 592q-10 59 -46 101q-41 48 -97 48q-97 0 -97 -76q0 -98 136 -98q80 0 104 25zM167 512h236v-101q0 -143 166 -143h1050q39 0 75 15q76 31 78 111q-53 -24 -150 -24q-126 0 -201.5 76t-78.5 202q-3 120 60 216q72 110 186 110q205 0 322 -198q98 -167 98 -386
q0 -201 -95 -295t-297 -94h-1112q-337 0 -337 382v129zM1713 1041h-236v237h236v-237z" />
    <glyph glyph-name="afii57442.isol" unicode="&#x642;" horiz-adv-x="1513" arabic-form="isolated" 
d="M1511 334q0 -298 -202 -478q-195 -173 -496 -173q-303 0 -473 162q-173 165 -173 464q0 81 41 230l220 -59q-25 -90 -25 -167q0 -355 392 -355q179 0 300 73q139 85 163 251q-102 -28 -150 -28q-160 0 -245 93q-81 90 -81 254q0 120 86 213t205 93q198 0 326 -194
q112 -171 112 -379zM1255 504q-12 58 -58 109q-51 58 -106 58q-97 0 -97 -84q0 -111 149 -111q79 0 112 28zM1293 1018h-211v213h211v-213zM1009 1018h-212v213h212v-213z" />
    <glyph glyph-name="afii57443.isol" unicode="&#x643;" horiz-adv-x="1574" arabic-form="isolated" 
d="M167 383v129h236v-111q0 -133 153 -133h676q127 0 127 68v22v875h215v-862v-51q0 -152 -115 -240q-105 -79 -261 -79h-698q-333 0 -333 382zM1137 734l-514 -125l-31 111l180 45q-59 68 -59 135q0 75 68 122q60 41 139 41q58 0 102 -24v-97q-44 11 -88 11
q-116 0 -116 -67q0 -35 30 -58q27 -22 63 -22q30 0 195 46z" />
    <glyph glyph-name="afii57444.isol" unicode="&#x644;" horiz-adv-x="1277" arabic-form="isolated" 
d="M1275 187q0 -238 -129 -389q-153 -180 -455 -180q-247 0 -389 162q-135 154 -135 404q0 52 20 147q22 106 52 166q72 -25 185 -67q-46 -200 -46 -232q0 -316 341 -316q123 0 213 51q128 72 128 223v1077h215v-1046z" />
    <glyph glyph-name="afii57445.isol" unicode="&#x645;" horiz-adv-x="1183" arabic-form="isolated" 
d="M1181 334q0 -145 -104 -235q-99 -85 -247 -85q-61 0 -180 18.5t-178 18.5q-90 0 -90 -72v-790h-215v755q0 345 298 345q23 110 85 201q102 149 266 149q141 0 248 -80q117 -88 117 -225zM980 334q0 57 -54 88q-45 26 -106 26q-48 0 -97 -36q-64 -46 -87 -130
q121 -28 194 -28q150 0 150 80z" />
    <glyph glyph-name="afii57446.isol" unicode="&#x646;" horiz-adv-x="1386" arabic-form="isolated" 
d="M1386 267q0 -207 -121 -386q-175 -259 -529 -259q-250 0 -409.5 162.5t-159.5 413.5q0 70 41 243l209 -52q-17 -81 -17 -177q0 -145 104 -236q100 -87 247 -87q178 0 288.5 106t110.5 283q0 110 -97 319l205 133q128 -181 128 -463zM825 535h-236v236h236v-236z" />
    <glyph glyph-name="afii57448.isol" unicode="&#x648;" horiz-adv-x="903" arabic-form="isolated" 
d="M899 222q0 -270 -262 -502q-196 -173 -477 -283l-108 212q242 117 302 155q258 163 289 331q-70 -23 -138 -23q-154 0 -246 102q-89 99 -89 255q0 124 83 217q87 96 209 96q136 0 267 -124q170 -160 170 -436zM636 372q-3 81 -66 132q-50 41 -97 41q-29 0 -58 -27.5
t-29 -55.5q0 -85 90 -97q87 -12 160 7z" />
    <glyph glyph-name="uni0671.isol" unicode="&#x671;" horiz-adv-x="656" arabic-form="isolated" 
d="M684 1448q0 -121 -97 -154q-47 -16 -202 -16q-158 0 -267 52v66h132q44 84 106 143q78 73 157 73q171 0 171 -164zM597 1441q0 56 -97 56q-72 0 -150 -104h161q86 0 86 48zM529 1h-237v1233h237v-1233z" />
    <glyph glyph-name="afii57506.isol" unicode="&#x67e;" horiz-adv-x="2001" arabic-form="isolated" 
d="M1260 -346h-211v215h211v-215zM997 -346h-208v215h208v-215zM1125 -597h-215v212h215v-212zM514 1q-347 0 -347 361v150h236v-111q0 -77 41 -107q35 -26 116 -26h1104q82 0 82 55q0 27 -19 63l-108 206l205 141q174 -285 174 -406q0 -146 -70 -232q-76 -94 -219 -94
h-1195z" />
    <glyph glyph-name="afii57507.isol" unicode="&#x686;" horiz-adv-x="1430" arabic-form="isolated" 
d="M1090 -122h-212v216h212v-216zM826 -122h-208v216h208v-216zM955 -373h-216v213h216v-213zM793 349q-373 -274 -373 -476q0 -73 30.5 -136.5t84.5 -110.5t129.5 -74t165.5 -27q154 0 267 39q29 11 72 28t103 37l114 -219q-281 -152 -548 -152q-160 0 -284.5 39.5
t-210.5 115.5t-131 187.5t-45 254.5q0 267 262 499q174 152 369 236q-1 0 -60.5 3.5t-167.5 3.5q-87 0 -149 -19t-107 -47l-120 196q124 132 266 132l968 -35l-25 -254h-89q-219 0 -521 -221z" />
    <glyph glyph-name="afii57508.isol" unicode="&#x698;" horiz-adv-x="952" arabic-form="isolated" 
d="M876 873h-211v216h211v-216zM613 873h-209v216h209v-216zM741 1127h-215v213h215v-213zM865 97q-111 -189 -691 -525l-118 220q149 79 264 153q278 179 354 305q26 43 26 105q0 48 -19 86q-28 77 -125 258l219 128l132 -264q46 -92 46 -187q0 -130 -88 -279z" />
    <glyph glyph-name="uni06A9.isol" unicode="&#x6a9;" horiz-adv-x="2210" arabic-form="isolated" 
d="M167 383v129h236v-111q0 -133 153 -133h955q127 0 127 68q0 35 -26 86l-181 357q-37 73 -37 138q0 124 139 165l652 194l95 -202l-578 -148q-53 -14 -53 -46q0 -17 15 -45l181 -341q42 -79 42 -174q0 -152 -115 -240q-105 -79 -261 -79h-1011q-333 0 -333 382z" />
    <glyph glyph-name="afii57509.isol" unicode="&#x6af;" horiz-adv-x="2210" arabic-form="isolated" 
d="M1426 1251l671 187l55 -125l-663 -188zM167 383v129h236v-111q0 -133 153 -133h955q127 0 127 70q0 33 -26 84l-181 357q-39 77 -39 137q0 116 141 156l652 185l95 -183l-578 -148q-53 -14 -53 -46q0 -17 15 -45l181 -341q42 -79 42 -174q0 -152 -115 -240
q-105 -79 -261 -79h-1011q-333 0 -333 382z" />
    <glyph glyph-name="uni0671.fina" unicode="&#x671;" horiz-adv-x="782" arabic-form="final" 
d="M782 1h-178q-158 0 -238 140q-64 113 -64 284v810h237v-726q0 -119 26 -169q37 -72 143 -72h74v-267zM684 1496q0 -121 -97 -154q-47 -16 -202 -16q-158 0 -267 52v66h132q44 84 106 143q78 73 157 73q171 0 171 -164zM597 1489q0 56 -97 56q-72 0 -150 -104h161
q86 0 86 48z" />
    <glyph glyph-name="afii57506.fina" unicode="&#x67e;" horiz-adv-x="2293" arabic-form="final" 
d="M1260 -346h-211v215h211v-215zM997 -346h-208v215h208v-215zM1125 -597h-215v212h215v-212zM1699 1h-1185q-347 0 -347 361v150h236v-111q0 -77 41 -107q35 -26 116 -26h1104q82 0 82 55q0 27 -19 63l-108 206l201 135q13 -21 91 -170q152 -289 365 -289h17v-267h-21
q-197 0 -330 187q-34 -187 -243 -187z" />
    <glyph glyph-name="afii57506.init" unicode="&#x67e;" horiz-adv-x="487" arabic-form="initial" 
d="M488 -346h-211v215h211v-215zM225 -346h-209v215h209v-215zM353 -597h-215v212h215v-212zM150 268q85 0 85 64q0 25 -16 54l-115 206l213 141q169 -281 169 -406q0 -326 -284 -326h-272v267h220z" />
    <glyph glyph-name="afii57506.medi" unicode="&#x67e;" horiz-adv-x="622" arabic-form="medial" 
d="M546 -346h-211v215h211v-215zM283 -346h-209v215h209v-215zM411 -597h-215v212h215v-212zM622 1h-27q-76 0 -145.5 44t-102.5 112q-40 -86 -97.5 -121t-152.5 -35h-167v267h87q143 0 143 161v263h236v-135q0 -289 208 -289h18v-267z" />
    <glyph glyph-name="afii57507.fina" unicode="&#x686;" horiz-adv-x="1467" arabic-form="final" 
d="M1010 -149h-212v216h212v-216zM746 -149h-208v216h208v-216zM874 -400h-215v213h215v-213zM424 -131q0 -79 30 -142.5t83.5 -108.5t128 -69t164.5 -24q154 0 267 39q29 11 72 28t103 37l114 -219q-281 -152 -548 -152q-160 0 -284.5 39.5t-210.5 115.5t-131 187.5
t-45 254.5q0 269 270 505q78 67 167 124.5t195 107.5q-43 2 -84.5 3t-83.5 1q-69 0 -136 -3q-80 -3 -180 -61l-120 195q21 27 52 51t67 42t73.5 28.5t71.5 10.5l969 -35l-25 -254h-89q-35 0 -77 -8t-83.5 -21.5t-79 -31t-63.5 -35.5q64 -94 106 -128q93 -78 225 -78h125
v-267h-168q-175 0 -276 89q-77 68 -193 280q-142 -87 -256 -209q-150 -161 -150 -292z" />
    <glyph glyph-name="afii57507.init" unicode="&#x686;" horiz-adv-x="988" arabic-form="initial" 
d="M546 -346h-211v215h211v-215zM283 -346h-209v215h209v-215zM411 -597h-215v212h215v-212zM986 185l-135 -184h-921v267h647l-247 244q-53 52 -122 52h-160v243h206q111 0 184 -73z" />
    <glyph glyph-name="afii57507.medi" unicode="&#x686;" horiz-adv-x="1286" arabic-form="medial" 
d="M778 -346h-211v215h211v-215zM514 -346h-208v215h208v-215zM643 -597h-215v212h215v-212zM851 431q34 -38 65 -65t59 -44q91 -54 217 -54h94v-267h-198q-143 0 -233 87q-43 40 -153 215q-85 -73 -145.5 -123t-102.5 -76q-158 -103 -294 -103h-230v267h96q158 0 271 43
q47 17 94.5 44.5t96.5 65.5q20 16 69 53.5t128 100.5q-210 6 -308 6q-37 0 -63 -1.5t-52 -7.5t-57 -18.5t-78 -34.5l-114 195q114 131 274 131l957 -34l-28 -255h-87q-81 0 -154 -40q-19 -11 -49 -32t-75 -53z" />
    <glyph glyph-name="afii57508.fina" unicode="&#x698;" horiz-adv-x="1210" arabic-form="final" 
d="M876 787h-211v215h211v-215zM613 787h-209v215h209v-215zM741 1040h-215v213h215v-213zM925 129q-8 -33 -63 -128q-111 -190 -695 -521l-119 215q142 77 264 155q281 180 355 303q26 43 26 103q0 49 -19 89q-28 76 -125 257l215 129l135 -265q47 -93 81 -126
q73 -72 209 -72h21v-267h-20q-166 0 -265 128z" />
    <glyph glyph-name="uni06A9.fina" unicode="&#x6a9;" horiz-adv-x="2228" arabic-form="final" 
d="M1855 175q-91 -174 -344 -174h-1011q-333 0 -333 382v129h236v-111q0 -133 153 -133h955q40 0 75 14q47 19 47 53q0 46 -21 87l-182 357q-33 65 -33 126q0 134 136 177l611 194l93 -205l-535 -153q-52 -15 -52 -46q0 -18 14 -44l177 -334q120 -226 379 -226h8v-267h-30
q-99 0 -193 46q-98 48 -150 128z" />
    <glyph glyph-name="uni06A9.init" unicode="&#x6a9;" horiz-adv-x="898" arabic-form="initial" 
d="M-70 0v267h265q124 0 124 66q0 31 -28 88l-176 357q-38 77 -38 139q0 123 138 164l654 194l93 -202l-576 -148q-53 -14 -53 -46q0 -18 14 -45l178 -341q44 -84 44 -174q0 -152 -114 -239q-104 -80 -260 -80h-265z" />
    <glyph glyph-name="uni06A9.medi" unicode="&#x6a9;" horiz-adv-x="903" arabic-form="medial" 
d="M-70 1v267h257q119 0 119 78q0 34 -21 76l-177 357q-39 79 -39 138q0 121 139 165l612 194l94 -202l-536 -152q-51 -14 -51 -47q0 -17 14 -44l173 -337q46 -90 133 -151q107 -75 242 -75h14v-267h-31q-234 0 -344 174q-87 -174 -341 -174h-257z" />
    <glyph glyph-name="afii57509.fina" unicode="&#x6af;" horiz-adv-x="2228" arabic-form="final" 
d="M1855 175q-91 -174 -344 -174h-1011q-333 0 -333 382v129h236v-111q0 -133 153 -133h955q40 0 75 14q47 19 47 53q0 46 -21 87l-182 357q-37 73 -37 133q0 120 140 160l613 175l91 -181l-535 -141q-53 -14 -53 -51q0 -18 15 -46l177 -334q120 -226 379 -226h8v-267h-7
q-124 0 -237 59q-101 53 -129 115zM1398 1241l670 187l55 -125l-663 -187z" />
    <glyph glyph-name="afii57509.init" unicode="&#x6af;" horiz-adv-x="907" arabic-form="initial" 
d="M-70 1v267h269q126 0 126 70q0 32 -26 84l-180 357q-39 77 -39 137q0 116 140 156l652 185l95 -183l-577 -148q-53 -14 -53 -46q0 -19 14 -45l182 -341q41 -77 41 -174q0 -152 -114 -240q-104 -79 -261 -79h-269zM114 1251l671 187l55 -125l-663 -188z" />
    <glyph glyph-name="afii57509.medi" unicode="&#x6af;" horiz-adv-x="915" arabic-form="medial" 
d="M189 268q40 0 75 14q47 19 47 53q0 46 -21 87l-182 357q-37 73 -37 133q0 120 139 160l614 175l91 -181l-535 -141q-53 -14 -53 -51q0 -18 15 -46l177 -334q120 -226 369 -226h27v-267h-28q-105 0 -202 42q-113 48 -152 132q-91 -174 -344 -174h-259v267h259zM75 1241
l671 187l55 -125l-663 -187z" />
    <glyph glyph-name="uni06CC.isol" unicode="&#x6cc;" horiz-adv-x="1515" arabic-form="isolated" 
d="M1508 730l-105 -188q-133 59 -159 59q-155 0 -267 -160q-6 -9 -7 -23q-1 -15 7 -18q47 -20 135 -26l177 -13q101 -7 162 -63q64 -60 64 -159q0 -186 -206 -347q-236 -185 -597 -185q-293 0 -433 183q-112 147 -112 384q0 129 59 306l212 -63q-8 -34 -23 -103
q-12 -55 -12 -119q0 -201 112 -275q73 -48 221 -48q144 0 294 47q212 66 249 189q-338 11 -426 46q-113 45 -113 207q0 178 178 330q162 139 309 139q143 0 281 -100z" />
    <glyph glyph-name="uni06CC.fina" unicode="&#x6cc;" horiz-adv-x="1553" arabic-form="final" 
d="M1553 1h-38q0 -100 -33 -170q-87 -184 -334 -287q-209 -88 -440 -88q-541 0 -541 576q0 131 63 306l208 -66q-35 -117 -35 -223q0 -333 340 -333q370 0 508 162q12 14 12 30q0 21 -26 30q-83 30 -427 111l62 219h681v-267z" />
    <glyph glyph-name="afii57415_afii57451.fina" unicode="&#xfd3c;" horiz-adv-x="797" arabic-form="final" 
d="M797 1h-183q-159 0 -238 140q-64 112 -64 284v810h236v-726q0 -118 26 -169q38 -72 121 -72h102v-267zM678 1629l-559 -139l-31 115l563 143zM685 1419l-560 -139l-30 115l562 142z" />
    <glyph glyph-name="afii57415_afii57451.isol" unicode="&#xfd3d;" horiz-adv-x="694" arabic-form="isolated" 
d="M529 1h-237v1233h237v-1233zM678 1629l-559 -139l-31 115l563 143zM685 1419l-560 -139l-30 115l562 142z" />
    <glyph glyph-name="afii57410.fina" unicode="&#x622;" horiz-adv-x="849" arabic-form="final" 
d="M978 1403q-212 -128 -466 -128q-63 0 -173.5 31.5t-110.5 37.5q-16 0 -49 -62q-37 19 -139 76l52 124q39 75 84 75q20 0 60 -23q51 -29 95 -42q76 -22 188 -22q203 0 459 124v-191zM849 1h-177q-158 0 -238 140q-64 113 -64 284v760h236v-676q0 -118 26 -169
q38 -72 144 -72h73v-267z" />
    <glyph glyph-name="afii57411.fina" unicode="&#x623;" horiz-adv-x="724" arabic-form="final" 
d="M630 1381l-514 -125l-31 111l180 45q-58 68 -58 135q0 76 67 122q60 41 139 41q58 0 102 -24v-96q-44 10 -88 10q-116 0 -116 -66q0 -36 28.5 -58.5t64.5 -22.5q30 0 195 46zM724 1h-178q-157 0 -237 141q-65 113 -65 283v810h237v-726q0 -119 26 -169q37 -72 143 -72h74
v-267z" />
    <glyph glyph-name="afii57412.fina" unicode="&#x624;" horiz-adv-x="1084" arabic-form="final" 
d="M709 859l-514 -126l-31 111l181 46q-59 68 -59 135q0 76 68 122q59 41 139 41q57 0 102 -24v-97q-45 11 -89 11q-116 0 -116 -67q0 -35 29 -57.5t65 -22.5q30 0 194 46zM170 376q0 125 84 219t208 94q125 0 239 -87q148 -113 192 -334h191v-267h-191q-42 -177 -224 -350
q-202 -192 -513 -310l-108 219q63 28 188.5 85.5t213.5 133.5q116 100 175 239q-30 -3 -61 -3q-161 0 -269 84q-125 98 -125 277zM636 279q-3 81 -66 132q-51 42 -97 42q-28 0 -57.5 -27.5t-29.5 -55.5q0 -86 90 -98q87 -12 160 7z" />
    <glyph glyph-name="afii57413.fina" unicode="&#x625;" horiz-adv-x="772" arabic-form="final" 
d="M772 1h-177q-158 0 -238 140q-65 114 -65 284v810h237v-726q0 -118 27 -169q37 -72 143 -72h73v-267zM729 -434l-515 -126l-31 111l181 46q-59 68 -59 135q0 76 68 122q59 41 139 41q58 0 102 -24v-97q-44 11 -89 11q-116 0 -116 -67q0 -35 29 -57.5t65 -22.5
q30 0 195 45z" />
    <glyph glyph-name="afii57414.fina" unicode="&#x626;" horiz-adv-x="1553" arabic-form="final" 
d="M1553 1h-38q0 -100 -33 -170q-87 -184 -334 -287q-209 -88 -440 -88q-541 0 -541 576q0 131 63 306l208 -66q-35 -117 -35 -223q0 -333 340 -333q370 0 508 162q12 14 12 30q0 21 -26 30q-83 30 -427 111l62 219h681v-267zM661 627l-514 -125l-31 111l180 45
q-59 69 -59 135q0 75 68 122q61 42 139 42q58 0 102 -25v-96q-44 11 -88 11q-116 0 -116 -67q0 -35 30 -58q27 -22 63 -22q30 0 195 45z" />
    <glyph glyph-name="afii57414.init" unicode="&#x626;" horiz-adv-x="517" arabic-form="initial" 
d="M561 890l-515 -126l-31 111l181 46q-59 68 -59 135q0 75 68 122q60 41 139 41q58 0 102 -24v-97q-44 11 -89 11q-116 0 -116 -67q0 -35 29 -57.5t65 -22.5q30 0 195 46zM150 268q85 0 85 64q0 25 -16 54l-115 206l213 141q169 -281 169 -406q0 -326 -284 -326h-272v267
h220z" />
    <glyph glyph-name="afii57414.medi" unicode="&#x626;" horiz-adv-x="622" arabic-form="medial" 
d="M576 882l-514 -125l-31 111l180 45q-59 68 -59 135q0 75 68 122q60 41 139 41q58 0 102 -24v-96q-44 10 -88 10q-116 0 -116 -66q0 -41 35 -63q27 -17 58 -17q30 0 195 45zM622 1h-27q-76 0 -145.5 44t-102.5 112q-40 -86 -97.5 -121t-152.5 -35h-167v267h86
q144 0 144 161v263h236v-135q0 -289 208 -289h18v-267z" />
    <glyph glyph-name="afii57415.fina" unicode="&#x627;" horiz-adv-x="647" arabic-form="final" 
d="M647 1h-178q-158 0 -238 140q-64 113 -64 284v810h236v-726q0 -118 26 -169q38 -72 144 -72h74v-267z" />
    <glyph glyph-name="afii57416.fina" unicode="&#x628;" horiz-adv-x="2293" arabic-form="final" 
d="M1136 -417h-237v237h237v-237zM1699 1h-1185q-347 0 -347 361v150h236v-111q0 -77 41 -107q35 -26 116 -26h1104q82 0 82 55q0 27 -19 63l-108 206l201 135q13 -21 91 -170q152 -289 365 -289h17v-267h-21q-197 0 -330 187q-34 -187 -243 -187z" />
    <glyph glyph-name="afii57416.init" unicode="&#x628;" horiz-adv-x="488" arabic-form="initial" 
d="M359 -413h-236v236h236v-236zM150 268q85 0 85 64q0 25 -16 54l-115 206l213 141q169 -281 169 -406q0 -326 -284 -326h-272v267h220z" />
    <glyph glyph-name="afii57416.medi" unicode="&#x628;" horiz-adv-x="622" arabic-form="medial" 
d="M402 -412h-236v236h236v-236zM622 1h-27q-76 0 -145.5 44t-102.5 112q-40 -86 -97.5 -121t-152.5 -35h-167v267h87q143 0 143 161v263h236v-135q0 -289 208 -289h18v-267z" />
    <glyph glyph-name="uni06470654.isol" unicode="&#x6c0;" horiz-adv-x="1028" arabic-form="isolated" 
d="M1025 313q0 -167 -143 -249q-112 -64 -281 -64q-205 0 -319.5 110.5t-114.5 313.5q0 140 83 250q90 121 226 121q157 0 346 -150q203 -161 203 -332zM761 334q0 74 -108 147q-95 64 -156 64q-41 0 -71 -45q-26 -39 -26 -83q0 -77 62 -122q55 -41 135 -41q164 0 164 80z
M777 1015l-514 -125l-31 111l180 45q-59 68 -59 135q0 75 68 122q60 41 139 41q58 0 102 -24v-97q-44 11 -88 11q-116 0 -116 -67q0 -35 30 -58q27 -22 63 -22q30 0 195 46z" />
    <glyph glyph-name="uni06470654.fina" unicode="&#x6c0;" horiz-adv-x="1259" arabic-form="final" 
d="M1259 1h-31q-216 0 -370 173q-107 -35 -278 -35q-241 0 -346 132q-67 85 -67 198q0 91 90 179q69 67 177 124q41 21 122 62l-52 128l202 122l219 -576q47 -123 102 -173q74 -67 208 -67h24v-267zM733 382q-56 143 -104 247q-181 -90 -233 -146q-3 -8 -3 -45
q17 -63 198 -63q56 0 142 7zM717 1195l-514 -125l-31 111l180 45q-59 68 -59 135q0 75 68 122q60 41 139 41q58 0 102 -24v-97q-44 11 -88 11q-116 0 -116 -67q0 -35 30 -58q27 -22 63 -22q30 0 195 46z" />
    <glyph glyph-name="afii57418.fina" unicode="&#x62a;" horiz-adv-x="2293" arabic-form="final" 
d="M1274 675h-211v212h211v-212zM989 675h-211v212h211v-212zM1699 1h-1185q-347 0 -347 361v150h236v-111q0 -77 41 -107q35 -26 116 -26h1104q82 0 82 55q0 27 -19 63l-108 206l201 135q13 -21 91 -170q152 -289 365 -289h17v-267h-21q-197 0 -330 187q-34 -187 -243 -187
z" />
    <glyph glyph-name="afii57418.init" unicode="&#x62a;" horiz-adv-x="540" arabic-form="initial" 
d="M537 852h-212v213h212v-213zM252 852h-211v213h211v-213zM150 268q85 0 85 64q0 25 -16 54l-115 206l213 141q169 -281 169 -406q0 -326 -284 -326h-272v267h220z" />
    <glyph glyph-name="afii57418.medi" unicode="&#x62a;" horiz-adv-x="622" arabic-form="medial" 
d="M550 852h-211v213h211v-213zM265 852h-211v213h211v-213zM622 1h-27q-76 0 -145.5 44t-102.5 112q-40 -86 -97.5 -121t-152.5 -35h-167v267h87q143 0 143 161v263h236v-135q0 -289 208 -289h18v-267z" />
    <glyph glyph-name="afii57419.fina" unicode="&#x62b;" horiz-adv-x="2293" arabic-form="final" 
d="M1238 637h-211v215h211v-215zM975 637h-209v215h209v-215zM1103 891h-215v212h215v-212zM1699 1h-1185q-347 0 -347 361v150h236v-111q0 -77 41 -107q35 -26 116 -26h1104q82 0 82 55q0 27 -19 63l-108 206l201 135q13 -21 91 -170q152 -289 365 -289h17v-267h-21
q-197 0 -330 187q-34 -187 -243 -187z" />
    <glyph glyph-name="afii57419.init" unicode="&#x62b;" horiz-adv-x="489" arabic-form="initial" 
d="M489 785h-211v215h211v-215zM226 785h-209v215h209v-215zM354 1038h-215v213h215v-213zM150 268q85 0 85 64q0 25 -16 54l-115 206l213 141q169 -281 169 -406q0 -326 -284 -326h-272v267h220z" />
    <glyph glyph-name="afii57419.medi" unicode="&#x62b;" horiz-adv-x="622" arabic-form="medial" 
d="M545 781h-211v215h211v-215zM282 781h-209v215h209v-215zM410 1035h-215v212h215v-212zM622 1h-27q-76 0 -145.5 44t-102.5 112q-40 -86 -97.5 -121t-152.5 -35h-167v267h87q143 0 143 161v263h236v-135q0 -289 208 -289h18v-267z" />
    <glyph glyph-name="afii57420.fina" unicode="&#x62c;" horiz-adv-x="1467" arabic-form="final" 
d="M898 -250h-237v236h237v-236zM424 -131q0 -79 30 -142.5t83.5 -108.5t128 -69t164.5 -24q154 0 267 39q29 11 72 28t103 37l114 -219q-281 -152 -548 -152q-160 0 -284.5 39.5t-210.5 115.5t-131 187.5t-45 254.5q0 269 270 505q78 67 167 124.5t195 107.5q-43 2 -84.5 3
t-83.5 1q-69 0 -136 -3q-80 -3 -180 -61l-120 195q21 27 52 51t67 42t73.5 28.5t71.5 10.5l969 -35l-25 -254h-89q-35 0 -77 -8t-83.5 -21.5t-79 -31t-63.5 -35.5q64 -94 106 -128q93 -78 225 -78h125v-267h-168q-175 0 -276 89q-77 68 -193 280q-142 -87 -256 -209
q-150 -161 -150 -292z" />
    <glyph glyph-name="afii57420.init" unicode="&#x62c;" horiz-adv-x="988" arabic-form="initial" 
d="M402 -417h-236v237h236v-237zM986 185l-135 -184h-921v267h647l-247 244q-53 52 -122 52h-160v243h206q111 0 184 -73z" />
    <glyph glyph-name="afii57420.medi" unicode="&#x62c;" horiz-adv-x="1286" arabic-form="medial" 
d="M653 -417h-236v237h236v-237zM851 431q34 -38 65 -65t59 -44q91 -54 217 -54h94v-267h-198q-143 0 -233 87q-43 40 -153 215q-85 -73 -145.5 -123t-102.5 -76q-158 -103 -294 -103h-230v267h96q158 0 271 43q47 17 94.5 44.5t96.5 65.5q20 16 69 53.5t128 100.5
q-210 6 -308 6q-37 0 -63 -1.5t-52 -7.5t-57 -18.5t-78 -34.5l-114 195q114 131 274 131l957 -34l-28 -255h-87q-81 0 -154 -40q-19 -11 -49 -32t-75 -53z" />
    <glyph glyph-name="afii57421.fina" unicode="&#x62d;" horiz-adv-x="1466" arabic-form="final" 
d="M424 -131q0 -79 30 -142.5t83.5 -108.5t128 -69t164.5 -24q154 0 267 39q29 11 72 28t103 37l114 -219q-281 -152 -548 -152q-160 0 -284.5 39.5t-210.5 115.5t-131 187.5t-45 254.5q0 269 270 505q78 67 167 124.5t195 107.5q-43 2 -84.5 3t-83.5 1q-69 0 -136 -3
q-80 -3 -180 -61l-120 195q21 27 52 51t67 42t73.5 28.5t71.5 10.5l969 -35l-25 -254h-89q-35 0 -77 -8t-83.5 -21.5t-79 -31t-63.5 -35.5q64 -94 106 -128q93 -78 225 -78h124v-267h-167q-175 0 -276 89q-77 68 -193 280q-142 -87 -256 -209q-150 -161 -150 -292z" />
    <glyph glyph-name="afii57421.init" unicode="&#x62d;" horiz-adv-x="986" arabic-form="initial" 
d="M986 185l-135 -184h-921v267h647l-247 244q-53 52 -122 52h-160v243h206q111 0 184 -73z" />
    <glyph glyph-name="afii57421.medi" unicode="&#x62d;" horiz-adv-x="1286" arabic-form="medial" 
d="M851 431q34 -38 65 -65t59 -44q91 -54 217 -54h94v-267h-198q-143 0 -233 87q-43 40 -153 215q-85 -73 -145.5 -123t-102.5 -76q-158 -103 -294 -103h-230v267h96q158 0 271 43q47 17 94.5 44.5t96.5 65.5q20 16 69 53.5t128 100.5q-210 6 -308 6q-37 0 -63 -1.5
t-52 -7.5t-57 -18.5t-78 -34.5l-114 195q114 131 274 131l957 -34l-28 -255h-87q-81 0 -154 -40q-19 -11 -49 -32t-75 -53z" />
    <glyph glyph-name="afii57422.fina" unicode="&#x62e;" horiz-adv-x="1467" arabic-form="final" 
d="M846 996h-236v236h236v-236zM424 -131q0 -165 123 -259q112 -85 283 -85q155 0 267 39q58 22 175 65l114 -219q-279 -152 -548 -152q-263 0 -433 108q-238 151 -238 489q0 270 270 505q154 134 362 232q-154 8 -304 1q-78 -3 -180 -61l-120 195q39 49 107 87
q85 48 167 45l959 -35l-25 -254h-89q-82 0 -179 -35q-78 -28 -124 -61q61 -90 106 -128q93 -78 225 -78h125v-267h-168q-175 0 -276 89q-77 68 -193 280q-143 -89 -256 -209q-150 -160 -150 -292z" />
    <glyph glyph-name="afii57422.init" unicode="&#x62e;" horiz-adv-x="986" arabic-form="initial" 
d="M287 996h-237v236h237v-236zM986 185l-135 -184h-921v267h647l-247 244q-53 52 -122 52h-160v243h206q111 0 184 -73z" />
    <glyph glyph-name="afii57422.medi" unicode="&#x62e;" horiz-adv-x="1286" arabic-form="medial" 
d="M692 996h-236v236h236v-236zM851 431q68 -76 124 -109q91 -54 217 -54h94v-267h-198q-143 0 -233 87q-44 42 -153 215q-166 -146 -248 -199q-158 -103 -294 -103h-230v267h96q156 0 271 43q93 35 191 110q40 31 197 154q-327 9 -384 4q-58 -5 -174 -60l-114 195
q118 137 288 131l943 -34l-28 -255h-87q-79 0 -154 -40q-37 -20 -124 -85z" />
    <glyph glyph-name="afii57423.fina" unicode="&#x62f;" horiz-adv-x="1524" arabic-form="final" 
d="M855 1h-316q-188 0 -376 219l163 163q104 -115 185 -115h316q141 0 141 58q0 24 -19 61l-268 521l209 135l281 -556q58 -115 129 -165q79 -54 202 -54h22v-267h-30q-182 0 -319 156q-71 -90 -108 -113q-70 -43 -212 -43z" />
    <glyph glyph-name="afii57424.fina" unicode="&#x630;" horiz-adv-x="1518" arabic-form="final" 
d="M876 1094h-236v237h236v-237zM855 1h-316q-188 0 -376 219l163 163q104 -115 185 -115h316q141 0 141 58q0 24 -19 61l-268 521l209 135l281 -556q58 -115 129 -165q79 -54 202 -54h16v-267h-24q-182 0 -319 156q-71 -90 -108 -113q-70 -43 -212 -43z" />
    <glyph glyph-name="afii57425.fina" unicode="&#x631;" horiz-adv-x="1219" arabic-form="final" 
d="M925 129q-8 -33 -63 -128q-111 -190 -695 -521l-119 215q142 77 264 155q281 180 355 303q26 43 26 103q0 49 -19 89q-28 76 -125 257l215 129l135 -265q47 -93 81 -126q73 -72 209 -72h30v-267h-29q-166 0 -265 128z" />
    <glyph glyph-name="afii57426.fina" unicode="&#x632;" horiz-adv-x="1210" arabic-form="final" 
d="M727 807h-237v236h237v-236zM925 129q-8 -33 -63 -128q-111 -190 -695 -521l-119 215q142 77 264 155q281 180 355 303q26 43 26 103q0 49 -19 89q-28 76 -125 257l215 129l135 -265q47 -93 81 -126q73 -72 209 -72h21v-267h-20q-166 0 -265 128z" />
    <glyph glyph-name="afii57427.fina" unicode="&#x633;" horiz-adv-x="2644" arabic-form="final" 
d="M1685 684h239q0 -420 167 -420q102 0 102 153v271h235q0 -265 49 -352q38 -68 142 -68h25v-267h-28q-99 0 -156 33q-53 32 -108 118q-97 -159 -261 -159q-133 0 -246 146q-73 -139 -216 -139q-97 0 -159 48q0 -190 -56 -319q-72 -167 -195 -251q-156 -107 -427 -107
q-330 0 -495 215q-130 169 -130 418q0 39 20 132q23 109 52 173l206 -73q-52 -127 -52 -236q0 -195 140 -287q108 -71 270 -71q196 0 308 98q119 103 119 295q0 199 -194 517l201 129q39 -74 122 -220q108 -179 208 -179q118 0 118 156v246z" />
    <glyph glyph-name="afii57427.init" unicode="&#x633;" horiz-adv-x="1431" arabic-form="initial" 
d="M890 685q0 -406 187 -406q111 0 111 95q0 92 -104 274l195 117q152 -247 152 -395q0 -159 -77 -254q-84 -104 -238 -104q-192 0 -293 152q-85 -163 -260 -163q-75 0 -146 44.5t-108 111.5q-41 -73 -117.5 -114.5t-162.5 -41.5h-99v267h79q69 0 98 22q43 33 43 132v267
h236q0 -209 30 -298q38 -112 140 -112q56 0 88 55q27 46 27 105v246h219z" />
    <glyph glyph-name="afii57427.medi" unicode="&#x633;" horiz-adv-x="1639" arabic-form="medial" 
d="M309 157q-85 -156 -280 -156h-99v267h81q69 0 97 22q42 33 42 132v267h236q0 -417 177 -417q108 0 108 167v250h243q0 -177 15 -253q34 -171 144 -171q102 0 102 153v271h236q0 -264 54 -353q41 -68 148 -68h26v-267h-28q-164 0 -267 152q-86 -152 -236 -152
q-168 0 -281 139q-32 -66 -112 -105q-71 -34 -152 -34q-79 0 -150 42q-74 44 -104 114z" />
    <glyph glyph-name="afii57428.fina" unicode="&#x634;" horiz-adv-x="2644" arabic-form="final" 
d="M2029 812h-212v215h212v-215zM1765 812h-208v215h208v-215zM1894 1066h-216v212h216v-212zM1685 684h239q0 -420 167 -420q102 0 102 153v271h235q0 -265 49 -352q38 -68 142 -68h25v-267h-28q-99 0 -156 33q-53 32 -108 118q-97 -159 -261 -159q-133 0 -246 146
q-73 -139 -216 -139q-97 0 -159 48q0 -190 -56 -319q-72 -167 -195 -251q-156 -107 -427 -107q-330 0 -495 215q-130 169 -130 418q0 39 20 132q23 109 52 173l206 -73q-52 -127 -52 -236q0 -195 140 -287q108 -71 270 -71q196 0 308 98q119 103 119 295q0 199 -194 517
l201 129q39 -74 122 -220q108 -179 208 -179q118 0 118 156v246z" />
    <glyph glyph-name="afii57428.init" unicode="&#x634;" horiz-adv-x="1433" arabic-form="initial" 
d="M1025 812h-211v215h211v-215zM761 812h-208v215h208v-215zM890 1066h-215v212h215v-212zM890 685q0 -406 187 -406q111 0 111 95q0 92 -104 274l195 117q152 -247 152 -395q0 -159 -77 -254q-84 -104 -238 -104q-192 0 -293 152q-85 -163 -260 -163q-75 0 -146 44.5
t-108 111.5q-41 -73 -117.5 -114.5t-162.5 -41.5h-99v267h79q69 0 98 22q43 33 43 132v267h236q0 -209 30 -298q38 -112 140 -112q56 0 88 55q27 46 27 105v246h219z" />
    <glyph glyph-name="afii57428.medi" unicode="&#x634;" horiz-adv-x="1629" arabic-form="medial" 
d="M1044 812h-211v215h211v-215zM781 812h-209v215h209v-215zM909 1066h-215v212h215v-212zM309 157q-85 -156 -280 -156h-99v267h81q69 0 97 22q42 33 42 132v267h236q0 -417 177 -417q108 0 108 167v250h243q0 -177 15 -253q34 -171 144 -171q102 0 102 153v271h236
q0 -264 54 -353q41 -68 148 -68h16v-267h-18q-164 0 -267 152q-86 -152 -236 -152q-168 0 -281 139q-32 -66 -112 -105q-71 -34 -152 -34q-79 0 -150 42q-74 44 -104 114z" />
    <glyph glyph-name="afii57429.fina" unicode="&#x635;" horiz-adv-x="2641" arabic-form="final" 
d="M2026 268q208 0 208 174q0 62 -45 100.5t-108 38.5q-91 0 -195 -90q-73 -64 -201 -223h341zM1481 46q0 -366 -284 -551q-179 -116 -405 -116q-333 0 -497 223q-128 174 -128 427q0 39 20 133q23 110 52 173l206 -73q-52 -127 -52 -237q0 -194 141 -285q107 -69 272 -69
q199 0 310 96q117 102 117 297q0 107 -62 266q-52 133 -125 248l215 131q156 -347 229 -374q317 493 626 493q135 0 248 -116q107 -109 107 -225q0 -135 -22 -184q47 -35 167 -35h25v-267h-30q-71 0 -145 33q-81 36 -114 92q-84 -125 -302 -125h-434q-107 0 -135 45z" />
    <glyph glyph-name="afii57429.init" unicode="&#x635;" horiz-adv-x="1491" arabic-form="initial" 
d="M485 309q351 524 658 524q141 0 245 -119q101 -115 101 -258q0 -230 -134 -352q-113 -103 -279 -103h-440q-225 0 -304 157q-39 -78 -87 -110q-71 -47 -215 -47h-100v267h84q133 0 133 117v280h241v-203q0 -41 29.5 -88t67.5 -65zM1052 270q209 0 209 175q0 62 -48 102
q-45 37 -109 37q-90 0 -193 -90q-75 -65 -202 -224h343z" />
    <glyph glyph-name="afii57429.medi" unicode="&#x635;" horiz-adv-x="1640" arabic-form="medial" 
d="M1046 268q209 0 209 174q0 62 -48 102q-45 37 -109 37q-90 0 -192 -90q-74 -65 -200 -223h340zM1459 303q53 -35 154 -35h27v-267h-29q-164 0 -256 115q-104 -115 -285 -115h-438q-223 0 -302 156q-54 -83 -74 -99q-72 -57 -225 -57h-101v267h89q127 0 127 115v278h240
v-202q0 -106 90 -149q347 518 660 518q145 0 247 -116q98 -112 98 -259q0 -56 -22 -150z" />
    <glyph glyph-name="afii57430.fina" unicode="&#x636;" horiz-adv-x="2641" arabic-form="final" 
d="M2195 1000h-237v236h237v-236zM2026 268q208 0 208 174q0 62 -45 100.5t-108 38.5q-91 0 -195 -90q-73 -64 -201 -223h341zM1481 46q0 -366 -284 -551q-179 -116 -405 -116q-333 0 -497 223q-128 174 -128 427q0 39 20 133q23 110 52 173l206 -73q-52 -127 -52 -237
q0 -194 141 -285q107 -69 272 -69q199 0 310 96q117 102 117 297q0 107 -62 266q-52 133 -125 248l215 131q156 -347 229 -374q317 493 626 493q135 0 248 -116q107 -109 107 -225q0 -135 -22 -184q47 -35 167 -35h25v-267h-30q-71 0 -145 33q-81 36 -114 92
q-84 -125 -302 -125h-434q-107 0 -135 45z" />
    <glyph glyph-name="afii57430.init" unicode="&#x636;" horiz-adv-x="1491" arabic-form="initial" 
d="M1230 1000h-237v236h237v-236zM485 309q351 524 658 524q141 0 245 -119q101 -115 101 -258q0 -230 -134 -352q-113 -103 -279 -103h-440q-225 0 -304 157q-39 -78 -87 -110q-71 -47 -215 -47h-100v267h84q133 0 133 117v280h241v-203q0 -41 29.5 -88t67.5 -65zM1052 270
q209 0 209 175q0 62 -48 102q-45 37 -109 37q-90 0 -193 -90q-75 -65 -202 -224h343z" />
    <glyph glyph-name="afii57430.medi" unicode="&#x636;" horiz-adv-x="1640" arabic-form="medial" 
d="M1230 1000h-237v236h237v-236zM1046 268q209 0 209 174q0 62 -48 102q-45 37 -109 37q-90 0 -192 -90q-74 -65 -200 -223h340zM1459 303q53 -35 154 -35h27v-267h-29q-164 0 -256 115q-104 -115 -285 -115h-438q-223 0 -302 156q-54 -83 -74 -99q-72 -57 -225 -57h-101
v267h89q127 0 127 115v278h240v-202q0 -106 90 -149q347 518 660 518q145 0 247 -116q98 -112 98 -259q0 -56 -22 -150z" />
    <glyph glyph-name="afii57431.fina" unicode="&#x637;" horiz-adv-x="1789" arabic-form="final" 
d="M1397 442q0 60 -45.5 98t-107.5 38q-159 0 -406 -310h371q83 0 135.5 46t52.5 128zM167 123v152h243q46 0 78.5 36t32.5 83v840h237v-736q102 134 221 222q152 112 289 111q147 -1 254 -116t107 -263q0 -68 -17 -149q41 -35 152 -35h25v-267h-29q-96 0 -171 43
q-56 32 -81 72q-109 -115 -288 -115h-695q-68 0 -186 43q-100 37 -172 79z" />
    <glyph glyph-name="afii57431.init" unicode="&#x637;" horiz-adv-x="1270" arabic-form="initial" 
d="M1049 442q0 60 -47 99q-43 37 -105 37q-159 0 -407 -310h372q84 0 135.5 46t51.5 128zM872 1h-942v267h82q162 0 162 126v840h236v-736q103 135 221 222q152 112 290 111q145 -1 249 -126q98 -118 98 -266q0 -227 -160 -349q-116 -89 -236 -89z" />
    <glyph glyph-name="afii57431.medi" unicode="&#x637;" horiz-adv-x="1442" arabic-form="medial" 
d="M1442 1h-29q-181 0 -253 115q-108 -115 -288 -115h-942v267h82q81 0 117 23q45 28 45 103v840h236v-736q103 135 221 222q152 112 290 111q145 -1 253 -116.5t108 -261.5q0 -69 -18 -150q41 -35 163 -35h15v-267zM1049 442q0 60 -47 99q-43 37 -105 37q-159 0 -407 -310
h372q84 0 135.5 46t51.5 128z" />
    <glyph glyph-name="afii57432.fina" unicode="&#x638;" horiz-adv-x="1789" arabic-form="final" 
d="M1309 998h-237v236h237v-236zM1397 442q0 60 -45.5 98t-107.5 38q-159 0 -406 -310h371q83 0 135.5 46t52.5 128zM167 123v152h243q46 0 78.5 36t32.5 83v840h237v-736q102 134 221 222q152 112 289 111q147 -1 254 -116t107 -263q0 -68 -17 -149q41 -35 152 -35h25v-267
h-29q-96 0 -171 43q-56 32 -81 72q-109 -115 -288 -115h-695q-68 0 -186 43q-100 37 -172 79z" />
    <glyph glyph-name="afii57432.init" unicode="&#x638;" horiz-adv-x="1270" arabic-form="initial" 
d="M963 998h-236v236h236v-236zM1049 442q0 60 -47 99q-43 37 -105 37q-159 0 -407 -310h372q84 0 135.5 46t51.5 128zM872 1h-942v267h82q162 0 162 126v840h236v-736q103 135 221 222q152 112 290 111q145 -1 249 -126q98 -118 98 -266q0 -227 -160 -349
q-116 -89 -236 -89z" />
    <glyph glyph-name="afii57432.medi" unicode="&#x638;" horiz-adv-x="1442" arabic-form="medial" 
d="M963 998h-236v236h236v-236zM1442 1h-29q-181 0 -253 115q-108 -115 -288 -115h-942v267h82q81 0 117 23q45 28 45 103v840h236v-736q103 135 221 222q152 112 290 111q145 -1 253 -116.5t108 -261.5q0 -69 -18 -150q41 -35 163 -35h15v-267zM1049 442q0 60 -47 99
q-43 37 -105 37q-159 0 -407 -310h372q84 0 135.5 46t51.5 128z" />
    <glyph glyph-name="afii57433.fina" unicode="&#x639;" horiz-adv-x="1210" arabic-form="final" 
d="M1227 -655q-244 -98 -466 -98q-240 0 -408 126q-186 139 -186 371q0 159 114 299q87 107 223 191l156 90q-41 39 -122 119q-90 90 -90 155q0 67 90 125q108 70 285 70q105 0 203 -56q107 -61 107 -142q0 -122 -139 -271q40 -32 64 -41q39 -15 120 -15h32v-267h-31
q-173 0 -349 170q-17 0 -117 -60q-310 -185 -310 -353q0 -140 139 -203q102 -47 261 -47q153 0 347 59z" />
    <glyph glyph-name="afii57433.init" unicode="&#x639;" horiz-adv-x="932" arabic-form="initial" 
d="M931 1h-1001v267h188q-52 84 -52 219q0 133 102 229q114 108 305 108q213 0 424 -135q-34 -54 -98 -180q-54 35 -152 59q-82 20 -133 20q-71 0 -126 -40q-60 -44 -62 -113q-2 -66 56 -113q66 -54 185 -54h364v-267z" />
    <glyph glyph-name="afii57433.medi" unicode="&#x639;" horiz-adv-x="838" arabic-form="medial" 
d="M838 1h-53q-96 0 -212 69q-74 44 -111 81q-140 -150 -319 -150h-213v267h116q150 0 225 32q-46 38 -134.5 118.5t-88.5 151.5q0 90 162 146q125 43 235 43q109 0 189 -42q99 -53 99 -153q0 -57 -19 -96q-21 -44 -106 -154q51 -46 153 -46h77v-267z" />
    <glyph glyph-name="afii57434.fina" unicode="&#x63a;" horiz-adv-x="1211" arabic-form="final" 
d="M927 900h-237v237h237v-237zM1227 -655q-244 -98 -466 -98q-240 0 -408 126q-186 139 -186 371q0 159 114 299q87 107 223 191l156 90q-41 39 -122 119q-90 90 -90 155q0 67 90 125q108 70 285 70q105 0 203 -56q107 -61 107 -142q0 -122 -139 -271q40 -32 64 -41
q39 -15 120 -15h33v-267h-32q-173 0 -349 170q-17 0 -117 -60q-310 -185 -310 -353q0 -140 139 -203q102 -47 261 -47q153 0 347 59z" />
    <glyph glyph-name="afii57434.init" unicode="&#x63a;" horiz-adv-x="935" arabic-form="initial" 
d="M589 935h-237v237h237v-237zM931 1h-1001v267h188q-52 84 -52 219q0 133 102 229q114 108 305 108q213 0 424 -135q-34 -54 -98 -180q-54 35 -152 59q-82 20 -133 20q-71 0 -126 -40q-60 -44 -62 -113q-2 -66 56 -113q66 -54 185 -54h364v-267z" />
    <glyph glyph-name="afii57434.medi" unicode="&#x63a;" horiz-adv-x="838" arabic-form="medial" 
d="M525 862h-236v236h236v-236zM838 1h-53q-96 0 -212 69q-74 44 -111 81q-140 -150 -319 -150h-213v267h116q150 0 225 32q-46 38 -134.5 118.5t-88.5 151.5q0 90 162 146q125 43 235 43q109 0 189 -42q99 -53 99 -153q0 -57 -19 -96q-21 -44 -106 -154q51 -46 153 -46h77
v-267z" />
    <glyph glyph-name="afii57441.fina" unicode="&#x641;" horiz-adv-x="2150" arabic-form="final" 
d="M1835 498q0 42 -38 68q-33 22 -77 22q-115 0 -115 -90q0 -48 43 -93q35 -36 72 -50q34 11 70 48q45 46 45 95zM504 1q-163 0 -253 112q-84 103 -84 270v129h236v-101q0 -143 166 -143h942q-114 96 -114 237q0 144 89 223q85 76 230 76q327 0 327 -299q0 -77 -47 -155
q-40 -65 -74 -82h228v-267h-131q-71 0 -176 46q-91 40 -123 72q-151 -118 -317 -118h-899zM1834 911h-237v237h237v-237z" />
    <glyph glyph-name="afii57441.init" unicode="&#x641;" horiz-adv-x="821" arabic-form="initial" 
d="M580 591q-10 58 -46 101q-41 48 -96 48q-97 0 -97 -76q0 -97 135 -97q81 0 104 24zM-70 0v267h504q39 0 75 15q76 31 78 111q-52 -24 -149 -24q-127 0 -202.5 75.5t-79.5 202.5q-3 117 61 216q72 110 186 110q205 0 321 -198q96 -166 96 -386q0 -171 -81 -275
q-90 -114 -256 -114h-553zM521 1041h-236v237h236v-237z" />
    <glyph glyph-name="afii57441.medi" unicode="&#x641;" horiz-adv-x="872" arabic-form="medial" 
d="M556 498q0 42 -38 68q-33 22 -77 22q-115 0 -115 -90q0 -48 44 -93q35 -36 71 -50q35 11 71 48q44 45 44 95zM-70 1v267h303q-115 106 -115 237q0 144 89 223q85 76 231 76q326 0 326 -299q0 -78 -46 -155q-39 -66 -75 -82h229v-267h-132q-70 0 -175 46q-92 40 -124 72
q-48 -39 -128 -73q-104 -45 -188 -45h-195zM555 911h-237v237h237v-237z" />
    <glyph glyph-name="afii57442.fina" unicode="&#x642;" horiz-adv-x="1634" arabic-form="final" 
d="M1634 1h-133q-38 -273 -238 -425q-189 -144 -471 -144q-187 0 -329 66q-165 77 -234 230q-62 139 -62 325q0 92 41 230l220 -56q-25 -95 -25 -178q0 -347 383 -347q406 0 461 299h-118q-161 0 -250.5 88t-89.5 249q0 127 77 219q82 97 207 97q189 0 312 -176
q62 -89 98 -210h151v-267zM1255 244q-15 84 -72 135q-48 43 -95 43q-38 0 -66 -21.5t-28 -58.5q0 -98 135 -98h126zM1297 794h-211v213h211v-213zM1012 794h-211v213h211v-213z" />
    <glyph glyph-name="afii57442.init" unicode="&#x642;" horiz-adv-x="822" arabic-form="initial" 
d="M652 1074h-211v213h211v-213zM368 1074h-212v213h212v-213zM580 591q-10 58 -46 101q-41 48 -96 48q-97 0 -97 -76q0 -97 135 -97q81 0 104 24zM-70 0v267h504q39 0 75 15q76 31 78 111q-52 -24 -149 -24q-127 0 -202.5 75.5t-79.5 202.5q-3 117 61 216q72 110 186 110
q205 0 321 -198q96 -166 96 -386q0 -171 -81 -275q-90 -114 -256 -114h-553z" />
    <glyph glyph-name="afii57442.medi" unicode="&#x642;" horiz-adv-x="872" arabic-form="medial" 
d="M683 906h-211v213h211v-213zM399 906h-212v213h212v-213zM556 498q0 42 -38 68q-33 22 -77 22q-115 0 -115 -90q0 -48 44 -93q35 -36 71 -50q35 11 71 48q44 45 44 95zM-70 1v267h303q-115 106 -115 237q0 144 89 223q85 76 231 76q326 0 326 -299q0 -78 -46 -155
q-39 -66 -75 -82h229v-267h-132q-70 0 -175 46q-92 40 -124 72q-48 -39 -128 -73q-104 -45 -188 -45h-195z" />
    <glyph glyph-name="afii57443.fina" unicode="&#x643;" horiz-adv-x="1824" arabic-form="final" 
d="M1824 1h-54l1 1q-176 8 -241 147q-96 -148 -329 -148h-701q-333 0 -333 382v129h236v-111q0 -133 153 -133h629h16q21 1 38 3q19 4 37 11q6 2 14 3q7 3 12 7q39 28 39 108v833h236v-719q0 -127 54 -185q56 -61 181 -61h12v-267zM1137 734l-514 -125l-31 111l180 45
q-59 68 -59 135q0 75 68 122q60 41 139 41q58 0 102 -24v-97q-44 11 -88 11q-116 0 -116 -67q0 -35 30 -58q27 -22 63 -22q30 0 195 46z" />
    <glyph glyph-name="afii57444.fina" unicode="&#x644;" horiz-adv-x="1522" arabic-form="final" 
d="M1275 5q0 -215 -129 -366q-157 -183 -455 -183q-247 0 -389 162q-135 154 -135 404q0 55 20 150q22 106 52 166q72 -26 185 -70q-46 -194 -46 -232q0 -313 341 -313q123 0 213 51q128 72 128 223v1237h219v-688q0 -138 37 -199q48 -79 177 -79h29v-267h-29q-65 0 -125 26
q-69 30 -93 82v-104z" />
    <glyph glyph-name="afii57444.init" unicode="&#x644;" horiz-adv-x="409" arabic-form="initial" 
d="M406 365q0 -364 -337 -364h-139v267h103q85 0 114 40q23 32 23 116v809h236v-868z" />
    <glyph glyph-name="afii57444.medi" unicode="&#x644;" horiz-adv-x="653" arabic-form="medial" 
d="M653 1h-28q-198 0 -267 151q-64 -151 -328 -151h-100v267h84q84 0 117 24q39 28 39 108v833h236v-719q0 -127 54 -185q56 -61 181 -61h12v-267z" />
    <glyph glyph-name="afii57445.fina" unicode="&#x645;" horiz-adv-x="1366" arabic-form="final" 
d="M980 334q0 57 -54 88q-45 26 -106 26q-48 0 -97 -36q-64 -46 -87 -130q121 -28 194 -28q150 0 150 80zM1098 115q-49 -101 -268 -101q-61 0 -180 18.5t-178 18.5q-90 0 -90 -72v-790h-215v755q0 345 298 345q23 110 85 201q102 149 266 149q240 0 332 -153
q47 -78 47 -177q59 -41 163 -41h8v-267h-29q-54 0 -131 36t-108 78z" />
    <glyph glyph-name="afii57445.init" unicode="&#x645;" horiz-adv-x="897" arabic-form="initial" 
d="M671 279q0 53 -67 113.5t-121 60.5q-27 0 -69 -55q-26 -40 -53 -80q141 -109 226 -109q84 0 84 70zM587 -30q-104 0 -200 49q-41 21 -137 90q-104 -108 -221 -108h-99v267h80q75 0 148 107q28 41 132 197q87 106 190 106q130 0 268 -118q149 -128 149 -277
q0 -131 -90 -222t-220 -91z" />
    <glyph glyph-name="afii57445.medi" unicode="&#x645;" horiz-adv-x="1081" arabic-form="medial" 
d="M667 272q0 44 -17 70q-12 19 -53 52q-67 55 -114 55q-29 0 -71 -56q-27 -42 -54 -83q140 -107 229 -107q80 0 80 69zM834 88q-82 -122 -233 -122q-113 0 -213 55l-138 80q-94 -100 -220 -100h-100v267h89q72 0 118 67q25 48 75 142q111 201 261 201q158 0 295 -134
q124 -122 135 -244q57 -32 165 -32h13v-267h-28q-132 0 -219 87z" />
    <glyph glyph-name="afii57446.fina" unicode="&#x646;" horiz-adv-x="1650" arabic-form="final" 
d="M1622 1q-100 0 -152 48q0 -190 -56 -319q-156 -361 -615 -361q-330 0 -498 216q-134 172 -134 420q0 39 20 132q23 109 52 173l206 -73q-52 -127 -52 -236q0 -194 141 -285q107 -69 272 -69q424 0 424 389q0 178 -194 514l219 132l93 -198q66 -141 137 -186
q47 -30 136 -30h29v-267h-28zM825 395h-236v236h236v-236z" />
    <glyph glyph-name="afii57446.init" unicode="&#x646;" horiz-adv-x="488" arabic-form="initial" 
d="M340 800h-237v237h237v-237zM150 268q85 0 85 64q0 25 -16 54l-115 206l213 141q169 -281 169 -406q0 -326 -284 -326h-272v267h220z" />
    <glyph glyph-name="afii57446.medi" unicode="&#x646;" horiz-adv-x="622" arabic-form="medial" 
d="M398 800h-237v237h237v-237zM622 1h-27q-76 0 -145.5 44t-102.5 112q-40 -86 -97.5 -121t-152.5 -35h-167v267h87q143 0 143 161v263h236v-135q0 -289 208 -289h18v-267z" />
    <glyph glyph-name="afii57470.isol" unicode="&#x647;" horiz-adv-x="1027" arabic-form="isolated" 
d="M1025 313q0 -167 -143 -249q-112 -64 -281 -64q-205 0 -319.5 110.5t-114.5 313.5q0 140 83 250q90 121 226 121q157 0 346 -150q203 -161 203 -332zM761 334q0 74 -108 147q-95 64 -156 64q-41 0 -71 -45q-26 -39 -26 -83q0 -77 62 -122q55 -41 135 -41q164 0 164 80z
" />
    <glyph glyph-name="afii57470.fina" unicode="&#x647;" horiz-adv-x="1258" arabic-form="final" 
d="M1258 1h-30q-216 0 -370 173q-107 -35 -278 -35q-241 0 -346 132q-67 85 -67 198q0 91 90 179q69 67 177 124q41 21 122 62l-52 128l202 122l219 -576q47 -123 102 -173q74 -67 208 -67h23v-267zM733 382q-56 143 -104 247q-181 -90 -233 -146q-3 -8 -3 -45
q17 -63 198 -63q56 0 142 7z" />
    <glyph glyph-name="afii57470.init" unicode="&#x647;" horiz-adv-x="1103" arabic-form="initial" 
d="M1101 222q0 -138 -78 -224q-80 -89 -217 -89q-103 0 -222 64q-23 12 -128 83q-97 -56 -226 -56h-300v268h93q150 0 199 17q-51 42 -84.5 113.5t-33.5 136.5q0 155 215 285q-28 25 -83 62l146 174q63 -45 133 -100q161 -128 315 -275q132 -126 183 -200q88 -127 88 -259z
M897 236q0 52 -74 125q-40 33 -80 67q-9 -142 -121 -206q29 -15 85 -43.5t96 -28.5q35 0 64.5 26t29.5 60zM580 521q0 48 -38 83t-86 35q-46 0 -84 -28q-42 -31 -42 -76q0 -53 33 -113q35 -64 82 -81q56 6 97 66q38 56 38 114z" />
    <glyph glyph-name="afii57470.medi" unicode="&#x647;" horiz-adv-x="841" arabic-form="medial" 
d="M841 1h-29q-80 0 -149 -23q-96 -33 -96 -98q0 -46 58 -81q51 -30 178 -76l-77 -236q-207 56 -357 195q-131 122 -195 360q-42 -41 -143 -41h-101v267h82q144 0 144 126v315h237v-454q0 -127 32 -203q47 99 142.5 157.5t205.5 58.5h68v-267z" />
    <glyph glyph-name="afii57448.fina" unicode="&#x648;" horiz-adv-x="1084" arabic-form="final" 
d="M170 376q0 125 84 219t208 94q125 0 239 -87q148 -113 192 -334h191v-267h-191q-42 -177 -224 -350q-202 -192 -513 -310l-108 219q63 28 188.5 85.5t213.5 133.5q116 100 175 239q-30 -3 -61 -3q-161 0 -269 84q-125 98 -125 277zM636 279q-3 81 -66 132q-51 42 -97 42
q-28 0 -57.5 -27.5t-29.5 -55.5q0 -86 90 -98q87 -12 160 7z" />
    <glyph glyph-name="afii57450.fina" unicode="&#x64a;" horiz-adv-x="1553" arabic-form="final" 
d="M1553 1h-38q0 -100 -33 -170q-87 -184 -334 -287q-209 -88 -440 -88q-541 0 -541 576q0 131 63 306l208 -66q-35 -117 -35 -223q0 -333 340 -333q370 0 508 162q12 14 12 30q0 21 -26 30q-83 30 -427 111l62 219h681v-267zM953 -906h-211v212h211v-212zM668 -906h-211
v212h211v-212z" />
    <glyph glyph-name="uni06CC.init" unicode="&#x6cc;" horiz-adv-x="506" arabic-form="initial" 
d="M502 -397h-211v213h211v-213zM217 -397h-211v213h211v-213zM150 268q85 0 85 64q0 25 -16 54l-115 206l213 141q169 -281 169 -406q0 -326 -284 -326h-272v267h220z" />
    <glyph glyph-name="uni06CC.medi" unicode="&#x6cc;" horiz-adv-x="622" arabic-form="medial" 
d="M550 -397h-211v213h211v-213zM265 -397h-211v213h211v-213zM622 1h-27q-76 0 -145.5 44t-102.5 112q-40 -86 -97.5 -121t-152.5 -35h-167v267h87q143 0 143 161v263h236v-135q0 -289 208 -289h18v-267z" />
    <glyph glyph-name="afii57450.isol" unicode="&#x64a;" horiz-adv-x="1515" arabic-form="isolated" 
d="M1508 730l-105 -188q-133 59 -159 59q-155 0 -267 -160q-6 -9 -7 -23q-1 -15 7 -18q47 -20 135 -26l177 -13q101 -7 162 -63q64 -60 64 -159q0 -186 -206 -347q-236 -185 -597 -185q-293 0 -433 183q-112 147 -112 384q0 129 59 306l212 -63q-8 -34 -23 -103
q-12 -55 -12 -119q0 -201 112 -275q73 -48 221 -48q144 0 294 47q212 66 249 189q-338 11 -426 46q-113 45 -113 207q0 178 178 330q162 139 309 139q143 0 281 -100zM963 -746h-211v212h211v-212zM678 -746h-211v212h211v-212z" />
    <glyph glyph-name="afii57449.isol" unicode="&#x649;" horiz-adv-x="1515" arabic-form="isolated" 
d="M1508 730l-105 -188q-133 59 -159 59q-155 0 -267 -160q-6 -9 -7 -23q-1 -15 7 -18q47 -20 135 -26l177 -13q101 -7 162 -63q64 -60 64 -159q0 -186 -206 -347q-236 -185 -597 -185q-293 0 -433 183q-112 147 -112 384q0 129 59 306l212 -63q-8 -34 -23 -103
q-12 -55 -12 -119q0 -201 112 -275q73 -48 221 -48q144 0 294 47q212 66 249 189q-338 11 -426 46q-113 45 -113 207q0 178 178 330q162 139 309 139q143 0 281 -100z" />
    <glyph glyph-name="afii57449.init" unicode="&#x649;" horiz-adv-x="487" arabic-form="initial" 
d="M150 268q85 0 85 64q0 25 -16 54l-115 206l213 141q169 -281 169 -406q0 -326 -284 -326h-272v267h220z" />
    <glyph glyph-name="afii57449.medi" unicode="&#x649;" horiz-adv-x="622" arabic-form="medial" 
d="M622 1h-27q-76 0 -145.5 44t-102.5 112q-40 -86 -97.5 -121t-152.5 -35h-167v267h87q143 0 143 161v263h236v-135q0 -289 208 -289h18v-267z" />
    <glyph glyph-name="afii57417.fina" unicode="&#x629;" horiz-adv-x="1259" arabic-form="final" 
d="M1259 1h-31q-216 0 -370 173q-107 -35 -278 -35q-241 0 -346 132q-67 85 -67 198q0 91 90 179q69 67 177 124q41 21 122 62l-52 128l202 122l219 -576q47 -123 102 -173q74 -67 208 -67h24v-267zM733 382q-56 143 -104 247q-181 -90 -233 -146q-3 -8 -3 -45
q17 -63 198 -63q56 0 142 7zM704 1155h-211v212h211v-212zM419 1155h-211v212h211v-212z" />
    <glyph glyph-name="uniFDFC" unicode="&#xfdfc;" horiz-adv-x="2288" arabic-form="isolated" 
d="M2189 692q19 -34 28 -70.5t9 -73.5q0 -48 -19.5 -101t-51.5 -104q-72 -105 -224.5 -219.5t-383.5 -231.5l-92 169q427 228 549 399v-1q15 23 22.5 43t7.5 42q0 31 -26 81l-98 177l168 104zM1339 341q-279 0 -279 331v653h198v-640q0 -79 19 -105q11 -16 31.5 -24t53.5 -8
h89q62 0 62 38q0 9 -5.5 23.5t-10.5 25.5q-14 21 -27.5 46t-27.5 48q-2 4 -4.5 8t-5.5 9q-7 11 -15.5 26.5t-13.5 21.5l158 112q38 -63 64 -112.5t36 -70.5q19 -41 29.5 -79t10.5 -65q0 -89 -53 -155q-35 -42 -84 -62.5t-111 -20.5h-114zM936 307q6 -183 -101 -308
q-129 -150 -363 -150q-97 0 -171 28t-128 82q-54 55 -82.5 130t-28.5 171q0 118 61 270l164 -46q-48 -126 -48 -218q0 -53 16.5 -92.5t48.5 -68.5q33 -28 78 -41.5t99 -13.5q53 0 99 12.5t84 39.5q45 32 68 77t21 104l-35 1050h198zM1488 145h-137v138h137v-138zM1301 145
h-137v138h137v-138z" />
    <glyph glyph-name=".notdef" horiz-adv-x="1024" 
d="M128 0v1480h768v-1480h-768zM256 128h512v1224h-512v-1224z" />
    <glyph glyph-name="NULL" horiz-adv-x="0" 
 />
    <glyph glyph-name="nonmarkingreturn" horiz-adv-x="434" 
 />
    <glyph glyph-name="space" unicode=" " horiz-adv-x="434" 
 />
    <glyph glyph-name="space" unicode="&#xa0;" horiz-adv-x="434" 
 />
    <glyph glyph-name="exclam" unicode="!" horiz-adv-x="426" 
d="M422 1202l-67 -901h-128l-60 901h255zM408 -29h-225v225h225v-225z" />
    <glyph glyph-name="parenleft" unicode="(" horiz-adv-x="681" 
d="M354 612q0 -465 327 -796l-118 -118q-396 396 -396 903q0 525 393 917l121 -124q-327 -399 -327 -782z" />
    <glyph glyph-name="parenright" unicode=")" horiz-adv-x="681" 
d="M493 612q0 383 -327 782l122 124q392 -392 392 -917q0 -507 -395 -903l-119 118q327 331 327 796z" />
    <glyph glyph-name="plus" unicode="+" horiz-adv-x="1086" 
d="M1010 400h-382v-400h-132v400h-399v139h399v395h132v-395h382v-139z" />
    <glyph glyph-name="comma" unicode="," horiz-adv-x="444" 
d="M156 -258q107 21 141 107q18 46 18 147h-148v254h263v-219q0 -311 -274 -333v44z" />
    <glyph glyph-name="hyphen" unicode="-" horiz-adv-x="727" 
d="M668 409h-610v126h610v-126z" />
    <glyph glyph-name="period" unicode="." horiz-adv-x="432" 
d="M430 0h-263v261h263v-261z" />
    <glyph glyph-name="colon" unicode=":" horiz-adv-x="430" 
d="M430 0h-263v261h263v-261zM430 479h-263v260h263v-260z" />
    <glyph glyph-name="equal" unicode="=" horiz-adv-x="1081" 
d="M83 517v139h910v-139h-910zM83 264v139h910v-139h-910z" />
    <glyph glyph-name="afii57388" unicode="&#x60c;" horiz-adv-x="444" 
d="M441 508q-107 -21 -141 -107q-18 -46 -18 -147h148v-254h-263v219q0 311 274 333v-44z" />
    <glyph glyph-name="afii57403" unicode="&#x61b;" horiz-adv-x="441" 
d="M430 0h-263v261h263v-261zM441 916q-108 -21 -141 -106q-18 -46 -18 -148h148v-254h-263v219q0 311 274 333v-44z" />
    <glyph glyph-name="afii57407" unicode="&#x61f;" horiz-adv-x="955" 
d="M955 834h-236q0 74 -54 117q-50 39 -126 39q-129 0 -129 -108q0 -38 39 -74q29 -25 86 -75q76 -67 103 -106q53 -75 53 -169v-111h-235q0 92 -39 155q-25 40 -87 93q-93 80 -110 102q-53 71 -53 185q0 131 86 228q104 117 289 117q204 0 320 -142q93 -114 93 -251z
M688 -24h-236v229h236v-229z" />
    <glyph glyph-name="afii57440" unicode="&#x640;" horiz-adv-x="909" 
d="M935 1h-964v267h964v-267z" />
    <glyph glyph-name="afii57451" unicode="&#x64b;" 
d="M563 1726l-560 -139l-31 115l563 142zM569 1515l-559 -139l-31 115l562 143z" />
    <glyph glyph-name="afii57452" unicode="&#x64c;" 
d="M604 1686q0 -159 -194 -205l-410 -97l-39 104l39 18q62 29 62 86q0 34 -25 34q-22 0 -58 -27l-45 66q54 75 118 73q105 -2 105 -105q0 -58 -32 -107l111 41q-31 52 -31 115q0 79 69 135q61 50 122 50q78 0 141 -51q67 -54 67 -130zM493 1686q0 63 -90 63q-30 0 -56 -19
q-28 -22 -28 -51q0 -33 27 -57.5t60 -22.5q87 6 87 87z" />
    <glyph glyph-name="afii57453" unicode="&#x64d;" 
d="M619 -1036l-560 -139l-31 115l563 143zM625 -1246l-559 -139l-31 115l562 143z" />
    <glyph glyph-name="afii57454" unicode="&#x64e;" 
d="M567 1515l-560 -139l-31 115l563 143z" />
    <glyph glyph-name="afii57455" unicode="&#x64f;" 
d="M469 1679q0 62 -91 62q-31 0 -59 -21t-28 -51q0 -33 28.5 -56.5t62.5 -20.5q87 7 87 87zM212 1564q-32 52 -32 108q0 79 70 137q61 51 122 51q78 0 141 -51q67 -54 67 -130q0 -159 -194 -205l-400 -94l-28 108q97 28 254 76z" />
    <glyph glyph-name="afii57456" unicode="&#x650;" 
d="M603 -1037l-560 -139l-30 115l562 143z" />
    <glyph glyph-name="afii57457" unicode="&#x651;" 
d="M587 1610q0 -67 -37 -114q-39 -50 -105 -50q-107 0 -163 80q-62 -146 -191 -146q-143 0 -143 163q0 72 63 206l89 -46q-37 -96 -37 -114q0 -70 48 -70q71 0 92 73q12 41 9 132q35 19 114 60q0 -199 91 -199q49 0 45 60q-2 34 -19 62l-33 51l90 67q37 -49 64 -122
q23 -62 23 -93z" />
    <glyph glyph-name="afii57458" unicode="&#x652;" 
d="M508 1617q0 -99 -69 -168t-168 -69q-96 0 -166 70.5t-70 166.5q0 92 72 164t164 72t164.5 -72t72.5 -164zM372 1619q0 42 -31 70t-74 28q-37 0 -67 -31.5t-30 -68.5q0 -45 28 -73.5t73 -28.5q101 0 101 104z" />
    <glyph glyph-name="uni06F0" unicode="&#x660;" horiz-adv-x="1320" 
d="M849 275h-379v378h379v-378z" />
    <glyph glyph-name="uni06F0" unicode="&#x6f0;" horiz-adv-x="1320" 
d="M849 275h-379v378h379v-378z" />
    <glyph glyph-name="uni06F1" unicode="&#x661;" horiz-adv-x="1320" 
d="M935 -112h-257q0 81 -4.5 167t-12.5 180q-34 378 -147 647q-31 75 -61.5 127t-59.5 84l-1 1q0 17 178 260q87 -81 157 -239q84 -188 134.5 -426t66.5 -527q2 -45 4 -113t3 -161z" />
    <glyph glyph-name="uni06F1" unicode="&#x6f1;" horiz-adv-x="1320" 
d="M935 -112h-257q0 81 -4.5 167t-12.5 180q-34 378 -147 647q-31 75 -61.5 127t-59.5 84l-1 1q0 17 178 260q87 -81 157 -239q84 -188 134.5 -426t66.5 -527q2 -45 4 -113t3 -161z" />
    <glyph glyph-name="uni06F2" unicode="&#x662;" horiz-adv-x="1320" 
d="M1060 1358q68 -170 68 -338q0 -181 -102 -291q-42 -34 -62 -46q-38 -23 -77 -31q-98 -19 -222 11q28 -107 48 -261q17 -132 20 -414l1 -100h-257q-3 88 -14 309q-26 381 -150 671q-23 54 -121 240l180 253q30 -46 77.5 -149.5t76.5 -145.5q16 -33 55 -66q64 -53 198 -59
q111 -5 111 83q0 38 -45 180z" />
    <glyph glyph-name="uni06F2" unicode="&#x6f2;" horiz-adv-x="1320" 
d="M1060 1358q68 -170 68 -338q0 -181 -102 -291q-42 -34 -62 -46q-38 -23 -77 -31q-98 -19 -222 11q28 -107 48 -261q17 -132 20 -414l1 -100h-257q-3 88 -14 309q-26 381 -150 671q-23 54 -121 240l180 253q30 -46 77.5 -149.5t76.5 -145.5q16 -33 55 -66q64 -53 198 -59
q111 -5 111 83q0 38 -45 180z" />
    <glyph glyph-name="uni06F3" unicode="&#x663;" horiz-adv-x="1320" 
d="M1174 1378q38 -115 38 -232q0 -351 -278 -351q-69 0 -146 77q-28 -52 -43 -68q-40 -43 -102 -51q-23 -3 -77 -3q29 -90 49 -215q26 -162 34 -432q4 -130 4 -215h-257q0 110 -14 313q-25 368 -171 698q-32 73 -104 209q26 38 184 250q48 -50 88 -130q50 -100 62 -117
q44 -63 122 -63q56 0 76 45q14 32 14 111v126h170q0 -153 4 -181q17 -118 111 -118q103 0 111 101q4 53 -31 142z" />
    <glyph glyph-name="uni06F3" unicode="&#x6f3;" horiz-adv-x="1320" 
d="M1174 1378q38 -115 38 -232q0 -351 -278 -351q-69 0 -146 77q-28 -52 -43 -68q-40 -43 -102 -51q-23 -3 -77 -3q29 -90 49 -215q26 -162 34 -432q4 -130 4 -215h-257q0 110 -14 313q-25 368 -171 698q-32 73 -104 209q26 38 184 250q48 -50 88 -130q50 -100 62 -117
q44 -63 122 -63q56 0 76 45q14 32 14 111v126h170q0 -153 4 -181q17 -118 111 -118q103 0 111 101q4 53 -31 142z" />
    <glyph glyph-name="afii57396" unicode="&#x664;" horiz-adv-x="1320" 
d="M1038 -116h-305q-138 0 -216 15q-235 45 -235 285q0 217 274 510q-160 99 -160 278q0 105 69 180q118 128 428 213l69 -167q-21 0 -101 -27q-212 -71 -212 -167q0 -73 111 -126q74 -36 147 -48v-132q-355 -248 -355 -438q0 -105 174 -105h309z" />
    <glyph glyph-name="afii57397" unicode="&#x665;" horiz-adv-x="1320" 
d="M1181 284q0 -437 -542 -437q-255 0 -371 95q-129 105 -129 352q0 323 267 741l-111 108l104 235q245 -169 453 -418q219 -262 290 -492q39 -126 39 -184zM920 318q0 28 -21 91q-47 142 -215 352q-79 100 -115 124q-88 -134 -118 -202q-91 -208 -91 -345q0 -28 5 -50
q33 -146 260 -146q209 0 267 87q28 42 28 89z" />
    <glyph glyph-name="uni06F7" unicode="&#x667;" horiz-adv-x="1320" 
d="M1242 1110q-441 -527 -441 -1226h-282q0 462 -165 825q-114 251 -273 401q0 9 139 271q206 -188 324 -490q47 -119 76.5 -242t41.5 -254q16 248 120 499q121 295 321 487z" />
    <glyph glyph-name="uni06F7" unicode="&#x6f7;" horiz-adv-x="1320" 
d="M1242 1110q-441 -527 -441 -1226h-282q0 462 -165 825q-114 251 -273 401q0 9 139 271q206 -188 324 -490q47 -119 76.5 -242t41.5 -254q16 248 120 499q121 295 321 487z" />
    <glyph glyph-name="uni06F8" unicode="&#x668;" horiz-adv-x="1320" 
d="M1242 108l-139 -271q-200 192 -321 487q-103 251 -120 499q-24 -258 -118 -496q-119 -302 -324 -490q-139 262 -139 271q160 152 273 401q165 363 165 825h282q0 -699 441 -1226z" />
    <glyph glyph-name="uni06F8" unicode="&#x6f8;" horiz-adv-x="1320" 
d="M1242 108l-139 -271q-200 192 -321 487q-103 251 -120 499q-24 -258 -118 -496q-119 -302 -324 -490q-139 262 -139 271q160 152 273 401q165 363 165 825h282q0 -699 441 -1226z" />
    <glyph glyph-name="uni06F9" unicode="&#x669;" horiz-adv-x="1320" 
d="M1101 86l-157 -261q-77 76 -120 159q-102 190 -120 477q-3 46 -3 108h-167q-85 7 -145 27t-98 56.5t-55.5 91t-17.5 130.5q0 171 107 341q120 191 282 191q85 0 146 -32t100.5 -99t58 -169.5t18.5 -244.5q0 -535 171 -775zM687 822v174q0 164 -125 164q-32 0 -59.5 -19.5
t-47.5 -52t-31 -75.5t-11 -89q0 -49 25.5 -74.5t79.5 -28.5z" />
    <glyph glyph-name="uni06F9" unicode="&#x6f9;" horiz-adv-x="1320" 
d="M1101 86l-157 -261q-77 76 -120 159q-102 190 -120 477q-3 46 -3 108h-167q-85 7 -145 27t-98 56.5t-55.5 91t-17.5 130.5q0 171 107 341q120 191 282 191q85 0 146 -32t100.5 -99t58 -169.5t18.5 -244.5q0 -535 171 -775zM687 822v174q0 164 -125 164q-32 0 -59.5 -19.5
t-47.5 -52t-31 -75.5t-11 -89q0 -49 25.5 -74.5t79.5 -28.5z" />
    <glyph glyph-name="afii57381" unicode="&#x66a;" horiz-adv-x="1018" 
d="M296 1123h-211v216h211v-216zM838 1394l-532 -1525h-131l525 1525h138zM931 -93h-215v216h215v-216z" />
    <glyph glyph-name="uni0670" unicode="&#x670;" horiz-adv-x="221" 
d="M141 1255h-126v482h126v-482z" />
    <glyph glyph-name="uni0654" unicode="&#x654;" 
d="M545 1361l-514 -126l-31 111l180 46q-58 68 -58 135q0 76 68 122q59 41 139 41q57 0 101 -24v-97q-44 11 -88 11q-116 0 -116 -67q0 -35 30 -58q27 -22 63 -22q30 0 195 46z" />
    <glyph glyph-name="uni0653" unicode="&#x653;" 
d="M656 1364q-212 -129 -465 -129q-63 0 -174 32t-111 38q-16 0 -49 -63q-36 19 -139 76l53 125q39 74 83 74q22 0 61 -22q52 -29 95 -42q77 -23 188 -23q202 0 458 125v-191z" />
    <glyph glyph-name="uni06F6" unicode="&#x6f6;" horiz-adv-x="1320" 
d="M1181 778q-321 -160 -527 -426q-114 -148 -307 -520l-176 188q46 94 101 187q130 221 273 383h-87q-111 0 -194 68q-87 73 -87 182q0 81 70 197q58 95 132 167q161 157 365 157q83 0 170 -70l-52 -183q-7 2 -43 12q-54 15 -103 15q-109 0 -210 -92q-92 -83 -92 -147
q0 -41 24 -56q33 -21 153 -18q111 3 266 64q55 22 252 103z" />
    <glyph glyph-name="afii61664" unicode="&#x200c;" horiz-adv-x="45" 
d="M45 0h-45v1628h45v-1628z" />
    <glyph glyph-name="afii301" unicode="&#x200d;" horiz-adv-x="45" 
d="M160 1496l-30 -30l-85 85v-1551h-45v1550l-84 -84l-30 30l107 107l-107 107l30 30l107 -107l107 107l30 -30l-107 -107z" />
    <glyph glyph-name="afii299" unicode="&#x200e;" horiz-adv-x="45" 
d="M303 1604l-137 -138l-31 31l86 86h-176v-1583h-45v1628h217l-82 82l31 31z" />
    <glyph glyph-name="afii300" unicode="&#x200f;" horiz-adv-x="45" 
d="M45 0h-45v1583h-176l86 -86l-31 -31l-137 138l137 137l31 -31l-82 -82h217v-1628z" />
    <glyph glyph-name="uni0655" unicode="&#x655;" horiz-adv-x="618" 
d="M661 -434l-514 -126l-31 111l180 46q-59 68 -59 135q0 75 68 122q60 41 139 41q58 0 102 -24v-97q-44 11 -88 11q-116 0 -116 -67q0 -35 30 -58q27 -22 63 -22q30 0 195 45z" />
    <glyph glyph-name="uni0656" unicode="&#x656;" horiz-adv-x="291" 
d="M181 -1015h-126v482h126v-482z" />
    <glyph glyph-name="uni066B" unicode="&#x66b;" horiz-adv-x="702" 
d="M609 548l-492 -922h-131l485 922h138z" />
    <glyph glyph-name="uni066C" unicode="&#x66c;" horiz-adv-x="432" 
d="M391 1359q-107 -21 -141 -107q-18 -46 -18 -147h148v-254h-263v219q0 311 274 333v-44z" />
    <glyph glyph-name="multiply" unicode="&#xd7;" horiz-adv-x="1025" 
d="M942 812l-343 -343l341 -337l-91 -87l-337 337l-336 -337l-94 90l337 338l-334 333l91 91l333 -334l340 341z" />
    <glyph glyph-name="divide" unicode="&#xf7;" horiz-adv-x="1084" 
d="M88 400v139h910v-139h-910zM540 636q-67 0 -116 45t-49 111q0 67 45 115.5t112 48.5q69 0 116.5 -43.5t47.5 -112.5q0 -72 -42.5 -118t-113.5 -46zM540 -40q-67 0 -116 45t-49 112t45 115.5t112 48.5q69 0 116.5 -44t47.5 -112q0 -71 -42.5 -118t-113.5 -47z" />
    <glyph glyph-name="uni2010" unicode="&#x2010;" horiz-adv-x="909" 
d="M935 1h-964v267h964v-267z" />
    <glyph glyph-name="quotedbl" unicode="&#x22;" horiz-adv-x="882" 
d="M717 1318v-558h-212v558h212zM377 1318v-558h-213v558h213z" />
    <glyph glyph-name="numbersign" unicode="#" horiz-adv-x="1608" 
d="M936 727h-201q-8 -32 -15.5 -61t-15 -57.5t-15 -58.5t-16.5 -64h204zM875 1298l-93 -374h202q23 91 48 187.5t47 186.5h203l-92 -374h273v-197h-323q-8 -32 -15 -61t-13.5 -57.5t-13.5 -58.5t-16 -64h277v-196h-327q-22 -89 -47 -186.5t-47 -185.5h-203l92 372h-204
q-21 -89 -46 -186.5t-47 -185.5h-203l93 372h-275v196h322q8 32 15.5 61t15 57.5t15 58.5t15.5 64h-281v197h330q23 91 47.5 187.5t45.5 186.5h205z" />
    <glyph glyph-name="dollar" unicode="$" horiz-adv-x="1221" 
d="M526 973q-75 -14 -114.5 -52.5t-39.5 -99.5q0 -57 38 -93t116 -55v300zM675 111q172 36 172 162q0 60 -41.5 98t-130.5 59v-319zM675 -354h-149l-1 273q-92 4 -182.5 25.5t-194.5 65.5v234q207 -130 378 -139v354q-99 18 -170.5 47.5t-117.5 72.5t-68 99.5t-22 128.5
q0 154 97.5 244t280.5 109v214h149v-209q79 -5 156.5 -21t158.5 -41v-226q-86 44 -164.5 68t-150.5 30v-328q203 -37 300 -123t97 -234q0 -161 -101 -255t-296 -112v-277z" />
    <glyph glyph-name="percent" unicode="%" horiz-adv-x="1822" 
d="M1375 507q-66 0 -101.5 -58t-35.5 -164q0 -103 35.5 -162.5t101.5 -59.5q63 0 99.5 59.5t36.5 162.5q0 106 -36.5 164t-99.5 58zM447 1169q-63 0 -100 -59.5t-37 -161.5q0 -105 36 -164t101 -59t101.5 59t36.5 164q0 103 -36.5 162t-101.5 59zM1241 1343h214l-875 -1452
h-213zM1375 681q155 0 248 -111q91 -106 91 -285q0 -91 -23 -161t-68 -124q-94 -109 -248 -109q-156 0 -250 109q-90 106 -90 285q0 180 90 285q93 111 250 111zM447 1343q154 0 250 -111v1q91 -106 91 -285q0 -182 -90 -288q-48 -53 -109.5 -80t-141.5 -27q-155 0 -249 109
q-45 54 -67 124.5t-22 161.5q0 179 90 284q94 111 248 111z" />
    <glyph glyph-name="ampersand" unicode="&#x26;" horiz-adv-x="1495" 
d="M478 627q-62 -61 -94.5 -125t-32.5 -130q0 -119 86 -196q88 -80 219 -80q72 0 135.5 22t121.5 65zM1058 349q23 37 39.5 76t28 81.5t18 89.5t9.5 100h227q-12 -134 -56.5 -256t-125.5 -235q31 -32 68 -69.5t75 -76t74 -75t65 -66.5h-307l-118 121q-186 -148 -414 -148
q-226 0 -375 132q-147 130 -147 338q0 118 57.5 219.5t172.5 192.5q-40 57 -59 109t-19 109q0 157 109 256q111 96 286 96q78 0 159 -19.5t169 -55.5v-231q-96 51 -173.5 78t-137.5 27q-82 0 -134 -43q-48 -42 -48 -106q0 -38 22 -79q13 -20 38.5 -51t65.5 -73h-1z" />
    <glyph glyph-name="quotesingle" unicode="'" horiz-adv-x="527" 
d="M370 1318v-558h-213v558h213z" />
    <glyph glyph-name="asterisk" unicode="*" horiz-adv-x="1231" 
d="M1130 834l-100 -170l-325 215q1 -42 2 -88t1.5 -92.5t1.5 -92t2 -85.5h-192l6 358q-39 -26 -80.5 -53.5t-83.5 -55.5t-82.5 -55.5t-76.5 -51.5l-100 170l355 208q-87 51 -179 105t-176 103l100 169l325 -218q-2 88 -3.5 182t-3.5 178h192l-8 -360l81 54l84 56t82.5 55.5
t77.5 51.5l100 -169l-356 -206z" />
    <glyph glyph-name="slash" unicode="/" horiz-adv-x="646" 
d="M457 1318h216l-484 -1572h-217z" />
    <glyph glyph-name="zero" unicode="0" horiz-adv-x="1221" 
d="M609 1140q-125 0 -188.5 -130.5t-63.5 -393.5t63.5 -393t188.5 -130q254 0 254 523q0 524 -254 524zM609 1343q120 0 212 -47t155 -139t95 -227.5t32 -313.5q0 -176 -32 -311t-95 -227t-155 -139.5t-212 -47.5t-212 47.5t-154.5 139.5t-94.5 227t-32 311q0 178 32 313.5
t94.5 227.5t154.5 139t212 47z" />
    <glyph glyph-name="one" unicode="1" horiz-adv-x="1221" 
d="M224 129h296v960q-38 -8 -79.5 -16.5t-83.5 -17t-82.5 -17t-76.5 -15.5v225l350 70h211v-1189h297v-211h-832v211z" />
    <glyph glyph-name="two" unicode="2" horiz-adv-x="1221" 
d="M1039 129v-211h-910v193q52 54 126.5 129.5t163.5 165.5q91 91 145.5 148.5t77.5 84.5q42 48 71.5 87.5t45.5 70.5q31 63 31 121q0 95 -65 152q-66 60 -175 60q-162 0 -412 -140v254q122 49 225 74t184 25q219 0 350 -113q67 -57 101 -131t34 -169q0 -45 -8.5 -87
t-24.5 -81q-33 -79 -118 -182q-20 -24 -124.5 -132.5t-292.5 -300.5l-18 -18h593z" />
    <glyph glyph-name="three" unicode="3" horiz-adv-x="1221" 
d="M1045 965q0 -101 -47 -176t-136 -118q103 -43 159 -129.5t56 -204.5q0 -213 -147 -330q-72 -57 -173.5 -86.5t-233.5 -29.5q-88 0 -184 19t-203 57v247q94 -55 191 -83t191 -28q157 0 238 59.5t81 174.5q0 105 -75 164t-209 59h-186v208h194q119 0 182.5 45.5t63.5 132.5
q0 90 -66 137t-188 47q-73 0 -164.5 -18.5t-212.5 -58.5v225q116 33 213 49t180 16q218 0 345 -100h-1q132 -102 132 -278z" />
    <glyph glyph-name="four" unicode="4" horiz-adv-x="1221" 
d="M691 1031q-48 -75 -94 -147l-92 -144t-93 -145t-97 -151h376v587zM657 1318h273v-874h192v-210h-192v-316h-239v316h-606v213z" />
    <glyph glyph-name="five" unicode="5" horiz-adv-x="1221" 
d="M194 1318h771v-211h-547v-261q33 9 65 13t65 4q236 0 375 -130q140 -134 140 -356q0 -229 -145 -358q-72 -63 -172 -95.5t-228 -32.5q-88 0 -182 16t-199 49v253q100 -54 193 -80t185 -26q144 0 228 75q81 73 81 199q0 129 -81 201q-85 73 -228 73q-71 0 -149 -19.5
t-172 -61.5v748z" />
    <glyph glyph-name="six" unicode="6" horiz-adv-x="1221" 
d="M632 661q-106 0 -171 -74q-64 -76 -64 -210t64 -210q32 -36 74.5 -55t96.5 -19q55 0 97 19t74 55q65 75 65 210t-65 210q-63 74 -171 74zM1021 1047q-172 83 -305 83q-149 0 -234.5 -91t-111.5 -279q57 53 124.5 78t149.5 25q104 0 190.5 -34t149.5 -97q60 -65 93 -155.5
t33 -199.5q0 -219 -132 -351q-132 -135 -346 -135q-124 0 -219 47.5t-159 139.5t-97 227t-33 311q0 328 159 526q160 201 427 201q70 0 147 -16t164 -48v-232z" />
    <glyph glyph-name="seven" unicode="7" horiz-adv-x="1221" 
d="M146 1318h922v-113l-497 -1287h-252l458 1189h-631v211z" />
    <glyph glyph-name="eight" unicode="8" horiz-adv-x="1221" 
d="M392 948q0 -92 56.5 -141.5t160.5 -49.5t162 49.5t58 141.5q0 90 -58 141t-162 51t-160.5 -51t-56.5 -141zM609 555q-116 0 -182 -61.5t-66 -168.5q0 -54 17 -97t49 -73t78 -46t104 -16q120 0 185 62h-1q66 61 66 170q0 107 -66 168.5t-184 61.5zM201 560q55 66 138 102
q-91 42 -139 120t-48 183q0 176 125 277q124 101 332 101q211 0 333 -101q126 -102 126 -277q0 -51 -13.5 -96.5t-37.5 -84t-58.5 -69.5t-76.5 -52q106 -46 162 -132.5t56 -205.5q0 -105 -32.5 -185.5t-95 -136t-154 -84t-209.5 -28.5t-209.5 28.5t-153.5 84t-94.5 136
t-32.5 185.5q0 140 82 235z" />
    <glyph glyph-name="nine" unicode="9" horiz-adv-x="1221" 
d="M589 572q106 0 171 74q64 76 64 210q0 133 -64 209q-32 37 -74.5 56t-96.5 19q-109 0 -173 -75v1q-64 -76 -64 -210q0 -135 64 -211v1q63 -74 173 -74zM197 186q85 -41 162.5 -62t142.5 -21q295 0 346 369q-111 -100 -272 -100q-216 0 -340 130q-125 131 -125 354
q0 220 131 352q129 135 347 135q123 0 217 -47t158.5 -139t97.5 -227.5t33 -313.5q0 -327 -158 -525q-159 -200 -426 -200q-71 0 -148 15.5t-166 47.5v232z" />
    <glyph glyph-name="less" unicode="&#x3c;" horiz-adv-x="1118" 
d="M989 640l-587 -210q146 -51 295 -104.5t292 -104.5v-175l-859 312v144l859 313v-175z" />
    <glyph glyph-name="greater" unicode="&#x3e;" horiz-adv-x="1118" 
d="M130 640v175l859 -313v-144l-859 -312v175l585 209z" />
    <glyph glyph-name="question" unicode="?" horiz-adv-x="1018" 
d="M343 205h240v-287h-240v287zM578 278h-230v168q0 48 7 88.5t20 71.5q29 65 114 146v-1l80 80q46 44 67 81t21 74q0 68 -49 108q-53 42 -136 42q-66 0 -154 -38.5t-195 -113.5v244q97 57 190.5 86t188.5 29q89 0 160.5 -24t125.5 -70q110 -98 110 -253q0 -76 -35 -144
q-18 -32 -48.5 -70t-70.5 -76q-8 -7 -18.5 -17.5t-21.5 -21t-21.5 -21l-17.5 -17.5v1q-39 -39 -55 -61t-22 -41q-6 -15 -8 -39.5t-2 -71.5v-139z" />
    <glyph glyph-name="at" unicode="@" horiz-adv-x="1918" 
d="M753 431q0 -115 55 -180.5t155 -65.5q48 0 86 17t65 49t41.5 77.5t14.5 102.5q0 114 -57 180q-56 65 -152 65q-47 0 -85 -17t-66 -48q-57 -66 -57 -180zM1184 88q-102 -89 -257 -89q-169 0 -274 121q-102 117 -102 311q0 191 103 312q104 122 273 122q77 0 141.5 -23
t115.5 -68v73h187v-654q110 26 165.5 114.5t55.5 228.5q0 91 -27.5 170.5t-81.5 148.5h1q-90 112 -217.5 171t-279.5 59q-107 0 -204 -27.5t-181 -82.5q-136 -91 -210 -230q-76 -143 -76 -307q0 -140 49 -258.5t143 -209.5q90 -90 208 -137t255 -47q111 0 223.5 42
t213.5 122l118 -147q-128 -100 -270.5 -152.5t-284.5 -52.5q-173 0 -325 61.5t-272 178.5t-181.5 269.5t-61.5 330.5q0 168 62 321t181 270q121 119 277.5 182t333.5 63q195 0 366 -80q169 -81 284 -232q71 -93 108 -199.5t37 -224.5q0 -248 -152 -394q-149 -143 -444 -151
v95z" />
    <glyph glyph-name="A" unicode="A" horiz-adv-x="1312" 
d="M656 1028q-27 -72 -52 -139.5t-50 -135.5t-50.5 -137t-52.5 -144h410zM532 1319h247l534 -1399h-252l-123 344h-564q-29 -84 -60.5 -173t-60.5 -171h-255z" />
    <glyph glyph-name="B" unicode="B" horiz-adv-x="1316" 
d="M419 1112v-347h240q233 0 233 175q0 172 -233 172h-240zM419 560v-433h261q133 0 196 53t63 164t-63 163.5t-196 52.5h-261zM180 1319h492q111 0 196.5 -24t144.5 -69.5t89.5 -113t30.5 -154.5q0 -106 -40 -178.5t-117 -109.5q40 -17 73 -43t60 -58q80 -98 80 -245
q0 -97 -33 -172.5t-96.5 -127t-156.5 -78t-213 -26.5h-510v1399z" />
    <glyph glyph-name="C" unicode="C" horiz-adv-x="1338" 
d="M1242 928q-223 208 -445 208q-217 0 -331.5 -132.5t-114.5 -386.5q0 -252 114.5 -384.5t331.5 -132.5q218 0 445 210v-274q-107 -71 -219.5 -107t-238.5 -36q-159 0 -284 48t-216 147q-183 195 -183 529q0 336 183 531q182 196 500 196q253 0 458 -142v-274z" />
    <glyph glyph-name="D" unicode="D" horiz-adv-x="1476" 
d="M423 1112v-985h190q266 0 387 118v-1q120 115 120 376q0 258 -120 375q-122 117 -387 117h-190zM183 1319h402q401 0 592 -170v1q193 -169 193 -530q0 -359 -194 -530q-193 -170 -591 -170h-402v1399z" />
    <glyph glyph-name="E" unicode="E" horiz-adv-x="1212" 
d="M177 1319h907v-210h-667v-339h640v-212h-640v-428h684v-210h-924v1399z" />
    <glyph glyph-name="F" unicode="F" horiz-adv-x="1103" 
d="M175 1319h830v-210h-590v-337h533v-212h-533v-640h-240v1399z" />
    <glyph glyph-name="G" unicode="G" horiz-adv-x="1486" 
d="M1095 470h-296v210h534v-622q-115 -81 -248.5 -123t-282.5 -42q-328 0 -513 192q-186 191 -186 532q0 343 186 534q187 193 513 193q135 0 260 -35.5t236 -106.5v-271q-241 205 -481 205q-464 0 -464 -519q0 -257 116 -387t348 -130q86 0 154.5 14t123.5 42v314z" />
    <glyph glyph-name="H" unicode="H" horiz-adv-x="1442" 
d="M181 1319h239v-549h601v549h241v-1399h-241v638h-601v-638h-239v1399z" />
    <glyph glyph-name="I" unicode="I" horiz-adv-x="565" 
d="M163 1319h240v-1399h-240v1399z" />
    <glyph glyph-name="J" unicode="J" horiz-adv-x="565" 
d="M157 1319h240v-1277q0 -127 -24.5 -219.5t-75.5 -151.5q-102 -121 -317 -121h-98v212h84q106 0 147 56q23 29 33.5 85t10.5 139v1277z" />
    <glyph glyph-name="K" unicode="K" horiz-adv-x="1258" 
d="M183 1319h239v-527q139 131 281 264t279 263h323l-700 -656q87 -87 181.5 -182t190 -191t189.5 -190l180 -180h-321l-603 603v-603h-239v1399z" />
    <glyph glyph-name="L" unicode="L" horiz-adv-x="1069" 
d="M176 1319h240v-1189h654v-210h-894v1399z" />
    <glyph glyph-name="M" unicode="M" horiz-adv-x="1654" 
d="M185 1319h320l322 -858q81 214 162 430.5t162 427.5h321v-1399h-238v1043q-74 -196 -148.5 -394.5t-147.5 -391.5h-222l-297 790v-1047h-234v1399z" />
    <glyph glyph-name="N" unicode="N" horiz-adv-x="1434" 
d="M181 1319h291l548 -1031v1031h234v-1399h-292l-548 1032v-1032h-233v1399z" />
    <glyph glyph-name="O" unicode="O" horiz-adv-x="1510" 
d="M756 1139q-183 0 -291 -138q-55 -70 -83 -164.5t-28 -219.5q0 -239 111 -382v1q108 -137 291 -137q182 0 288 136q111 141 111 382q0 244 -111 384q-104 138 -288 138zM756 1344q293 0 472 -199q88 -100 132.5 -231t44.5 -297q0 -325 -177 -525q-177 -199 -472 -199
q-297 0 -476 198q-175 197 -175 526t175 528q181 199 476 199z" />
    <glyph glyph-name="P" unicode="P" horiz-adv-x="1157" 
d="M417 1112v-446h199q113 0 174.5 58t61.5 166q0 106 -61.5 164t-174.5 58h-199zM177 1319h439q242 0 364 -108.5t122 -320.5q0 -215 -122 -323.5t-364 -108.5h-199v-538h-240v1399z" />
    <glyph glyph-name="Q" unicode="Q" horiz-adv-x="1510" 
d="M756 1139q-183 0 -291 -138q-55 -70 -83 -164.5t-28 -219.5q0 -239 111 -382v1q108 -137 291 -137q182 0 288 136q111 141 111 382q0 244 -111 384q-104 138 -288 138zM1316 -317h-299l-198 213q-23 -2 -37 -2.5t-26 -0.5q-149 0 -267 49t-209 150q-175 197 -175 525
q0 329 175 528q181 199 476 199q293 0 472 -199q88 -100 132.5 -231t44.5 -297q0 -234 -86.5 -400t-261.5 -254z" />
    <glyph glyph-name="R" unicode="R" horiz-adv-x="1333" 
d="M421 1112v-418h199q118 0 177 53t59 157q0 208 -236 208h-199zM1106 904q0 -120 -48 -204t-141 -129q47 -35 92 -96.5t89 -146.5q23 -45 49.5 -98l53.5 -107t53 -106.5t49 -96.5h-261l-179 361q-31 63 -61 104t-58 61q-57 40 -154 40h-169v-566h-239v1399h438
q245 0 365.5 -103.5t120.5 -311.5z" />
    <glyph glyph-name="S" unicode="S" horiz-adv-x="1217" 
d="M1040 1022q-124 59 -222 88t-181 29q-135 0 -207 -50t-72 -143q0 -77 43 -113h-1q49 -40 190 -67l111 -21q214 -41 316.5 -145.5t102.5 -281.5q0 -210 -137 -317.5t-406 -107.5q-97 0 -212 24t-243 70v258q257 -146 455 -146q143 0 219 53t76 153q0 85 -57 134.5
t-180 75.5q-26 5 -54.5 11t-55.5 11q-106 20 -183.5 53.5t-125.5 78.5q-99 96 -99 262q0 191 136 303q133 110 364 110q97 0 202 -19.5t221 -57.5v-245z" />
    <glyph glyph-name="T" unicode="T" horiz-adv-x="1171" 
d="M-11 1319h1193v-210h-476v-1189h-241v1189h-476v210z" />
    <glyph glyph-name="U" unicode="U" horiz-adv-x="1404" 
d="M158 1319h242v-845q0 -101 18 -173.5t53 -117.5q35 -40 93.5 -62t137.5 -22t137 22t93 62q35 45 53.5 117.5t18.5 173.5v845h241v-866q0 -278 -137 -419t-406 -141t-406.5 141t-137.5 419v866z" />
    <glyph glyph-name="V" unicode="V" horiz-adv-x="1312" 
d="M532 -80l-534 1399h253l405 -1075q100 266 202.5 538.5t202.5 536.5h252l-534 -1399h-247z" />
    <glyph glyph-name="W" unicode="W" horiz-adv-x="1896" 
d="M62 1319h242l261 -1041q64 260 129.5 522t128.5 519h250l259 -1042q65 260 130.5 522.5t128.5 519.5h244l-351 -1399h-274l-260 1070q-32 -128 -65.5 -264t-67.5 -273.5t-67 -272.5t-64 -260h-273z" />
    <glyph glyph-name="X" unicode="X" horiz-adv-x="1314" 
d="M88 1319h265l317 -474q80 118 160.5 237.5t158.5 236.5h268l-452 -674q57 -86 117.5 -178t122 -185.5t122 -185t116.5 -176.5h-264l-361 545q-90 -134 -183 -272.5t-182 -272.5h-268l499 744z" />
    <glyph glyph-name="Y" unicode="Y" horiz-adv-x="1171" 
d="M-36 1319h267l355 -528q88 131 178 264.5t176 263.5h267l-501 -741v-658h-241v658z" />
    <glyph glyph-name="Z" unicode="Z" horiz-adv-x="1314" 
d="M101 1319h1113v-176l-818 -1013h837v-210h-1153v177l817 1012h-796v210z" />
    <glyph glyph-name="bracketleft" unicode="[" horiz-adv-x="748" 
d="M144 1436h439v-186h-216v-1326h216v-188h-439v1700z" />
    <glyph glyph-name="backslash" unicode="\" horiz-adv-x="646" 
d="M189 1379l484 -1571h-216l-485 1571h217z" />
    <glyph glyph-name="bracketright" unicode="]" horiz-adv-x="748" 
d="M605 1436v-1700h-440v188h214v1326h-214v186h440z" />
    <glyph glyph-name="asciicircum" unicode="^" horiz-adv-x="1608" 
d="M904 1319l544 -559h-261l-384 345q-97 -86 -192.5 -172t-192.5 -173h-261l547 559h200z" />
    <glyph glyph-name="underscore" unicode="_" horiz-adv-x="959" 
d="M986 -328v-187h-1014v187h1014z" />
    <glyph glyph-name="grave" unicode="`" horiz-adv-x="959" 
d="M360 1450l298 -395h-210l-346 395h258z" />
    <glyph glyph-name="a" unicode="a" horiz-adv-x="1175" 
d="M654 426q-97 0 -162 -11t-101 -31q-64 -38 -64 -132q0 -75 50.5 -118.5t136.5 -43.5q126 0 198 87q76 91 76 240v9h-134zM1013 -80h-225v93q-57 -62 -134.5 -91t-183.5 -29q-85 0 -151 24t-115 71q-100 94 -100 254q0 371 482 371h202q-5 95 -71.5 145.5t-184.5 50.5
q-165 0 -355 -101v221q205 80 372 80q233 0 348.5 -121t115.5 -366v-602z" />
    <glyph glyph-name="b" unicode="b" horiz-adv-x="1217" 
d="M892 451q0 172 -69 268q-35 48 -80.5 70t-102.5 22q-58 0 -103 -22t-79 -70q-70 -97 -70 -268q0 -172 70 -269q68 -92 182 -92t183 92q69 96 69 269zM388 892q108 117 293 117q197 0 321 -156h-1q122 -153 122 -402q0 -124 -30 -224t-92 -177h1q-124 -157 -321 -157
q-94 0 -166 28t-127 88v-89h-224v1456h224v-484z" />
    <glyph glyph-name="c" unicode="c" horiz-adv-x="1055" 
d="M948 711q-175 98 -314 98q-147 0 -227.5 -93.5t-80.5 -264.5t82 -267h-1q81 -92 227 -92q139 0 314 98v-220q-79 -39 -161.5 -58t-169.5 -19q-242 0 -382 152q-141 150 -141 406q0 127 37 230t106 177q72 74 169.5 112.5t222.5 38.5q79 0 159.5 -19t159.5 -55v-224z" />
    <glyph glyph-name="d" unicode="d" horiz-adv-x="1217" 
d="M325 451q0 -173 69 -269q69 -92 183 -92t182 92q35 48 52.5 115.5t17.5 153.5q0 173 -70 268q-34 48 -79 70t-103 22t-103 -22t-80 -70q-69 -95 -69 -268zM829 1376h225v-1456h-225v89q-54 -60 -126 -88t-166 -28q-197 0 -321 157q-120 151 -120 401q0 249 120 402
q124 156 321 156q184 0 292 -117v484z" />
    <glyph glyph-name="e" unicode="e" horiz-adv-x="1180" 
d="M863 570q-3 56 -20 95.5t-47 72.5q-68 71 -176 71q-118 0 -191.5 -63t-92.5 -177zM1087 384h-757q19 -141 102 -216.5t225 -75.5q91 0 188 28t204 84v-225q-100 -40 -201.5 -63t-199.5 -23q-252 0 -403 149q-149 151 -149 400q0 258 142 412q72 78 166 116.5t215 38.5
q214 0 342 -141q126 -141 126 -375v-109z" />
    <glyph glyph-name="f" unicode="f" horiz-adv-x="675" 
d="M728 1376v-196h-188q-76 0 -101 -27q-27 -26 -27 -109v-60h270v-187h-270v-877h-225v877h-159v187h159v41q0 91 20.5 157.5t64 109.5t110.5 63.5t160 20.5h186z" />
    <glyph glyph-name="g" unicode="g" horiz-adv-x="1217" 
d="M829 464q0 167 -66.5 257t-185.5 90q-120 0 -186 -90t-66 -257q0 -166 66 -257t186 -91q59 0 106 23.5t79.5 68t49.5 109t17 147.5zM1054 74q0 -272 -121.5 -404.5t-371.5 -132.5q-91 0 -175 15.5t-169 45.5v231q92 -49 169.5 -73t148.5 -24q290 0 294 302
q-107 -114 -292 -114q-201 0 -322 152q-119 149 -119 392q0 118 31.5 218t87.5 174q61 75 142 114t180 39q94 0 166 -28t126 -88v91h225v-910z" />
    <glyph glyph-name="h" unicode="h" horiz-adv-x="1215" 
d="M1064 -80h-224v630q0 256 -193 256q-122 0 -191 -75t-69 -214v-597h-225v1456h225v-492q59 65 131.5 95t164.5 30q189 0 285 -114t96 -338v-637z" />
    <glyph glyph-name="i" unicode="i" horiz-adv-x="533" 
d="M155 1376h223v-267h-223v267zM155 984h223v-1064h-223v1064z" />
    <glyph glyph-name="j" unicode="j" horiz-adv-x="533" 
d="M150 1376h224v-267h-224v267zM150 984h224v-1054q0 -203 -80 -296q-40 -49 -105 -73t-153 -24h-91v197h72q79 0 105 33q28 35 28 163v1054z" />
    <glyph glyph-name="k" unicode="k" horiz-adv-x="1111" 
d="M164 1376h225v-789q116 101 227.5 199t226.5 198h300l-568 -500q68 -66 143 -138.5t151 -145.5t150.5 -144.5t141.5 -135.5h-302l-470 450v-450h-225v1456z" />
    <glyph glyph-name="l" unicode="l" horiz-adv-x="533" 
d="M155 1376h223v-1456h-223v1456z" />
    <glyph glyph-name="m" unicode="m" horiz-adv-x="1869" 
d="M695 1009q105 0 182 -46.5t123 -137.5q63 95 148 139.5t198 44.5q85 0 152 -30t112.5 -87.5t69.5 -142t24 -192.5v-637h-225v630q0 131 -43.5 193.5t-135.5 62.5q-114 0 -179 -75q-68 -75 -68 -214v-597h-226v630q0 132 -44 194t-136 62q-114 0 -180 -75
q-67 -76 -67 -214v-597h-225v1064h225v-97q56 60 129.5 91t165.5 31z" />
    <glyph glyph-name="n" unicode="n" horiz-adv-x="1215" 
d="M1064 -80h-224v630q0 256 -193 256q-122 0 -191 -75t-69 -214v-597h-225v1064h225v-100q59 65 131.5 95t164.5 30q189 0 285 -114t96 -338v-637z" />
    <glyph glyph-name="o" unicode="o" horiz-adv-x="1173" 
d="M588 809q-119 0 -187 -92q-72 -96 -72 -266t71 -267q68 -92 188 -92q116 0 184 92q72 96 72 267q0 169 -72 265q-69 93 -184 93zM588 1009q229 0 361 -151h-1q131 -149 131 -407q0 -257 -131 -408q-132 -150 -360 -150q-233 0 -363 150q-129 148 -129 408t129 407
q130 151 363 151z" />
    <glyph glyph-name="p" unicode="p" horiz-adv-x="1217" 
d="M892 451q0 172 -69 268q-35 48 -80.5 70t-102.5 22q-58 0 -103 -22t-79 -70q-70 -97 -70 -268q0 -172 70 -269q68 -92 182 -92t183 92q69 96 69 269zM388 -463h-224v1447h224v-92q108 117 293 117q197 0 321 -156h-1q122 -153 122 -402q0 -124 -30 -224t-92 -177h1
q-124 -157 -321 -157q-94 0 -166 28t-127 88v-472z" />
    <glyph glyph-name="q" unicode="q" horiz-adv-x="1217" 
d="M325 451q0 -173 69 -269q69 -92 183 -92t182 92q35 48 52.5 115.5t17.5 153.5q0 173 -70 268q-34 48 -79 70t-103 22t-103 -22t-80 -70q-69 -95 -69 -268zM829 9q-54 -60 -126 -88t-166 -28q-197 0 -321 157q-120 151 -120 401q0 249 120 402q124 156 321 156
q184 0 292 -117v92h225v-1447h-225v472z" />
    <glyph glyph-name="r" unicode="r" horiz-adv-x="788" 
d="M806 752q-48 25 -88.5 38t-74.5 13q-128 0 -195 -83t-67 -241v-559h-224v1064h224v-94q112 119 311 119q17 0 44 -3.5t69 -11.5z" />
    <glyph glyph-name="s" unicode="s" horiz-adv-x="1000" 
d="M865 721q-89 45 -171.5 67.5t-160.5 22.5q-217 0 -217 -121q0 -43 32 -68h-1q20 -14 62.5 -28t105.5 -29q14 -2 27.5 -5.5t27.5 -6.5q188 -39 265 -113h-1q85 -78 85 -213q0 -156 -123 -246q-60 -44 -140 -66t-184 -22q-82 0 -176.5 17.5t-204.5 52.5v241
q111 -57 206.5 -85.5t179.5 -28.5q103 0 158 32t55 92q0 50 -35 79q-21 16 -68.5 33t-118.5 32q-14 3 -28 6.5t-28 6.5q-160 35 -237 109.5t-77 202.5q0 157 108.5 241.5t307.5 84.5q188 0 351 -62v-226z" />
    <glyph glyph-name="t" unicode="t" horiz-adv-x="753" 
d="M382 1269v-285h340v-187h-340v-516q0 -113 26 -139h-1q24 -26 115 -26h200v-196h-200q-203 0 -284 78q-82 80 -82 283v516h-120v187h120v285h226z" />
    <glyph glyph-name="u" unicode="u" horiz-adv-x="1215" 
d="M151 984h223v-632q0 -130 49 -193.5t145 -63.5q62 0 109 19t82 57q70 76 70 214v599h224v-1064h-224v98q-59 -66 -131.5 -95.5t-163.5 -29.5q-189 0 -286 114.5t-97 338.5v638z" />
    <glyph glyph-name="v" unicode="v" horiz-adv-x="1134" 
d="M36 984h237l294 -790q73 197 148 396t147 394h237l-398 -1064h-266z" />
    <glyph glyph-name="w" unicode="w" horiz-adv-x="1569" 
d="M70 984h226l184 -698q47 174 93.5 350.5t91.5 347.5h239l185 -699q46 173 92 351t91 348h226l-279 -1064h-241l-194 736q-48 -183 -97.5 -370.5t-95.5 -365.5h-241z" />
    <glyph glyph-name="x" unicode="x" horiz-adv-x="1134" 
d="M1089 984l-384 -519q47 -63 98.5 -133t104 -140.5t104 -140t98.5 -131.5h-267l-279 375q-68 -92 -139.5 -188t-138.5 -187h-270l414 554q-44 60 -92.5 125.5t-98 131.5t-97.5 130.5t-91 122.5h267l252 -338q62 84 127.5 170.5t125.5 167.5h266z" />
    <glyph glyph-name="y" unicode="y" horiz-adv-x="1134" 
d="M643 -155q-35 -91 -72.5 -154.5t-73.5 -92.5q-76 -61 -196 -61h-161v197h124q59 0 88 24q33 32 76 142l25 64q-51 123 -104 252t-106.5 259t-106.5 258.5t-102 250.5h238l295 -738q74 184 149 370.5t147 367.5h237z" />
    <glyph glyph-name="z" unicode="z" horiz-adv-x="1007" 
d="M93 984h843v-192l-586 -682h586v-190h-866v191l587 683h-564v190z" />
    <glyph glyph-name="braceleft" unicode="{" horiz-adv-x="1221" 
d="M994 -133v-188h-84q-234 0 -319 73q-86 74 -86 288v215q0 124 -41 166q-38 44 -155 44h-84v187h84q116 0 155 44q41 41 41 165v215q0 212 86 286q85 74 319 74h84v-186h-89q-59 0 -95 -8.5t-51 -23.5h1q-31 -31 -31 -146v-222q0 -72 -12 -129t-34 -93
q-13 -21 -33.5 -39.5t-44.5 -31.5q52 -26 79 -71q45 -71 45 -220v-223q0 -115 31 -145h-1q31 -31 146 -31h89z" />
    <glyph glyph-name="bar" unicode="|" horiz-adv-x="646" 
d="M428 1444v-1899h-211v1899h211z" />
    <glyph glyph-name="braceright" unicode="}" horiz-adv-x="1221" 
d="M225 -133h92q115 0 142 29q31 31 31 147v223q0 73 12 129t33 91q31 45 81 71q-25 13 -46 31.5t-35 39.5q-45 72 -45 222v222q0 116 -31 147q-29 31 -142 31h-92v186h86q233 0 318 -74q86 -75 86 -286v-215q0 -62 9.5 -103.5t30.5 -61.5q39 -44 155 -44h84v-187h-84
q-117 0 -155 -44q-21 -21 -30.5 -62.5t-9.5 -103.5v-215q0 -212 -86 -287q-85 -74 -318 -74h-86v188z" />
    <glyph glyph-name="asciitilde" unicode="~" horiz-adv-x="1608" 
d="M1409 508q-52 -39 -99.5 -67t-92.5 -46t-89.5 -26t-91.5 -8q-102 0 -239 55q-4 1 -4.5 1t-2.5 1h-7l-5 5t-5 3q-7 0 -11 3q-135 54 -213 54q-74 0 -158 -43.5t-193 -134.5v237q108 83 194 116q85 33 178 33q53 0 112 -14t128 -41q6 -1 12 -5q2 -1 2 -1.5t1.5 -1t5.5 -2
t13 -4.5q69 -26 122.5 -40.5t92.5 -14.5q36 0 74 10t80.5 32t91 55t104.5 80v-236z" />
    <glyph glyph-name="currency" unicode="&#xa4;" horiz-adv-x="1221" 
d="M824 527q0 90 -61 148q-63 61 -152 61q-86 0 -151 -62v1q-61 -58 -61 -148q0 -91 61 -152q32 -31 69 -46.5t82 -15.5q88 0 152 62q61 61 61 152zM1013 1071l142 -145l-190 -189q31 -52 44.5 -104.5t13.5 -108.5t-14.5 -106.5t-45.5 -101.5l95.5 -95.5t94.5 -93.5
l-142 -143l-192 191q-102 -63 -208 -63q-52 0 -104 14.5t-106 45.5l-192 -192l-142 145l191 190q-31 55 -45 106t-14 103q0 58 14.5 109t45.5 100l-189 189l142 145l191 -190q49 31 100.5 45.5t107.5 14.5q104 0 209 -59z" />
    <glyph glyph-name="section" unicode="&#xa7;" horiz-adv-x="959" 
d="M624 587q-31 29 -96 72t-165 97q-43 -35 -65 -67t-22 -63q0 -53 54 -107q29 -27 97 -71t168 -98q38 32 61.5 66.5t23.5 64.5q0 55 -56 106zM794 1069q-92 42 -163.5 64.5t-119.5 22.5q-74 0 -114.5 -27.5t-40.5 -78.5q0 -32 43.5 -72t126.5 -87l12 -8t11 -6q4 -2 7 -4
l6 -4q195 -111 256 -183q33 -38 49 -82.5t16 -94.5q0 -83 -35.5 -146.5t-110.5 -113.5q47 -45 67.5 -93t20.5 -105q0 -141 -103 -224q-98 -84 -265 -84q-67 0 -143 15.5t-169 46.5v212q95 -43 168.5 -64t124.5 -21q78 0 120.5 30.5t42.5 84.5q0 18 -13.5 38.5t-37.5 43
t-58 46.5t-76 48q-4 2 -10.5 6.5t-10.5 6.5q-94 53 -161.5 99.5t-96.5 82.5q-65 79 -65 181q0 163 145 257q-46 42 -65.5 90t-19.5 108q0 131 100 212q97 78 258 78q68 0 143.5 -15.5t160.5 -45.5v-214z" />
    <glyph glyph-name="guillemotleft" unicode="&#xab;" horiz-adv-x="797" 
d="M676 -79q-189 196 -189 422q0 227 189 422l121 -50q-31 -32 -61 -79.5t-53 -99t-36.5 -102.5t-11.5 -89q-1 -47 10.5 -96.5t32.5 -98.5t51 -94.5t68 -83.5zM356 -79q-190 196 -190 422q0 228 190 422l120 -50q-30 -32 -60 -79t-53.5 -99t-36.5 -102.5t-10 -88.5
q-1 -47 10 -97.5t32 -99t50.5 -94t66.5 -83.5z" />
    <glyph glyph-name="logicalnot" unicode="&#xac;" horiz-adv-x="1608" 
d="M198 753h1211v-576h-211v364h-1000v212z" />
    <glyph glyph-name="degree" unicode="&#xb0;" horiz-adv-x="959" 
d="M479 1169q-61 0 -101 -42q-39 -39 -39 -101q0 -59 40 -99h-1q42 -40 101 -40q60 0 101 41v-1q41 40 41 99q0 61 -42 100q-42 43 -100 43zM479 1344q65 0 123 -24t101 -72l-1 2q46 -45 69 -101.5t23 -122.5q0 -130 -92 -220q-94 -92 -225 -92q-132 0 -222 90t-90 222
q0 66 23 121.5t68 103.5q93 93 223 93z" />
    <glyph glyph-name="paragraph" unicode="&#xb6;" horiz-adv-x="1221" 
d="M1025 1319v-1577h-187v1408h-112v-1408h-185v764q-94 10 -165.5 40t-124.5 78q-115 108 -115 286q0 183 126 297q127 112 331 112h432z" />
    <glyph glyph-name="periodcentered" unicode="&#xb7;" horiz-adv-x="609" 
d="M180 732h247v-289h-247v289z" />
    <glyph glyph-name="guillemotright" unicode="&#xbb;" horiz-adv-x="782" 
d="M592 764q190 -194 190 -423q0 -225 -190 -421l-120 50q30 32 60 79t53.5 99t36.5 102.5t10 89.5q1 47 -10 97t-32 99t-50.5 94t-66.5 83zM272 764q189 -195 189 -423q0 -225 -189 -421l-121 50q31 32 61 79t53 99t36.5 102.5t10.5 89.5q1 47 -10 97t-32 98.5t-51.5 94
t-67.5 83.5z" />
    <glyph glyph-name="afii57398" unicode="&#x666;" horiz-adv-x="1320" 
d="M702 943h-8q-71 0 -127.5 2.5t-99.5 7.5q-83 11 -152.5 29.5t-123.5 46.5v291q82 -33 155 -53.5t138 -28.5q51 -8 101.5 -11.5t101.5 -2.5q25 0 46 0.5t38 0.5t30.5 -0.5t20.5 -0.5q109 -12 111 -170v-266q0 -500 195 -727l-154 -226q-236 257 -272 743v365z" />
    <glyph glyph-name="uni06F4" unicode="&#x6f4;" horiz-adv-x="1320" 
d="M436 1081q21 -38 38.5 -69.5t36.5 -55.5q-3 14 -4 28.5t-1 31.5q0 51 15 107.5t55 103.5t109.5 77.5t179.5 30.5q66 0 142 -20t162 -58l-103 -154q-60 20 -115.5 31.5t-96.5 11.5q-56 0 -92.5 -30t-36.5 -84q0 -66 27.5 -103.5t70.5 -57t94 -24.5t99 -5h48h17.5t23.5 0.5
t23 0.5h17l-8 -221q-40 -2 -81.5 -3t-82 -1.5t-77 -1t-66.5 -0.5q-76 0 -140.5 5t-108.5 16q45 -147 70 -338.5t23 -406.5h-241q0 324 -78 631.5t-234 609.5l165 210q26 -30 42.5 -56t33.5 -61q14 -29 32 -65t42 -81v1z" />
    <glyph glyph-name="uni06F5" unicode="&#x6f5;" horiz-adv-x="1320" 
d="M978 296q0 57 -28 131t-76.5 154.5t-114 161.5t-140.5 152q-74 -93 -125 -170t-82.5 -146t-45.5 -135t-14 -138q0 -39 11.5 -70t30 -52.5t42 -33t48.5 -11.5q35 0 68 31.5t50 101.5h134q23 -66 60 -98t73 -32q21 0 41 9.5t35 29t24 48t9 67.5zM544 1307
q73 -59 150 -130.5t150 -151.5t137.5 -166.5t113 -175t77 -177.5t28.5 -174q0 -129 -27.5 -217t-71 -141t-98.5 -76t-109 -23q-64 0 -120.5 24t-91.5 65q-33 -44 -93 -70t-132 -26q-58 0 -114.5 19t-101.5 64t-72.5 119t-27.5 184q0 81 14.5 165t51.5 176.5t100.5 198
t161.5 230.5q-23 19 -49.5 42.5t-44.5 38.5z" />
    <glyph glyph-name="bullet" unicode="&#x2022;" horiz-adv-x="634" 
d="M589 433q0 -114 -79 -193t-193 -79t-193 79q-78 78 -78 193q0 116 77 193q77 80 194 80q116 0 194 -79q78 -78 78 -194z" />
    <glyph glyph-name="ellipsis" unicode="&#x2026;" horiz-adv-x="1571" 
d="M990 -48h-247v245h247v-245zM420 -48h-248v245h248v-245zM1572 -48h-248v245h248v-245z" />
    <glyph glyph-name="Euro" unicode="&#x20ac;" horiz-adv-x="1108" 
d="M992 1141v-181q-77 89 -149 127.5t-159 38.5q-133 0 -219 -85t-113 -244h490l-46 -105h-458q-1 -20 -1.5 -39.5t-0.5 -49.5q0 -27 0.5 -46.5t1.5 -39.5h379l-47 -105h-318q27 -159 113 -245t219 -86q87 0 159 38.5t149 127.5v-179q-76 -61 -154.5 -92t-160.5 -31
q-201 0 -332.5 123.5t-165.5 343.5h-179l47 105h118q0 19 -0.5 39t-0.5 47q0 30 0.5 50t0.5 39h-165l47 105h132q34 218 166 341.5t332 123.5q84 0 162.5 -30t152.5 -91z" />
    <glyph glyph-name="minus" unicode="&#x2212;" horiz-adv-x="1251" 
d="M1018 269h-785v169h785v-169z" />
    <glyph glyph-name="uni25CC" unicode="&#x25cc;" horiz-adv-x="994" 
d="M895 531q-22 0 -38 16t-16 38q0 23 16 38.5t38 15.5q23 0 38.5 -15.5t15.5 -38.5q0 -22 -15.5 -38t-38.5 -16zM662 765q-23 0 -38.5 15.5t-15.5 38.5q0 22 15.5 38t38.5 16t38.5 -16t15.5 -38q0 -23 -15.5 -38.5t-38.5 -15.5zM929 366q-23 0 -38.5 15.5t-15.5 38.5
t15.5 38.5t38.5 15.5q22 0 38 -15.5t16 -38.5t-16 -38.5t-38 -15.5zM802 672q-22 0 -38 15.5t-16 38.5q0 22 16 38t38 16q23 0 38.5 -16t15.5 -38q0 -23 -15.5 -38.5t-38.5 -15.5zM608 20q0 23 15.5 38.5t38.5 15.5t38.5 -15.5t15.5 -38.5q0 -22 -15.5 -38t-38.5 -16
t-38.5 16t-15.5 38zM841 255q0 23 16 38.5t38 15.5q23 0 38.5 -15.5t15.5 -38.5t-15.5 -38.5t-38.5 -15.5q-22 0 -38 15.5t-16 38.5zM443 -12q0 23 15.5 38.5t38.5 15.5q22 0 38 -15.5t16 -38.5t-16 -38.5t-38 -15.5q-23 0 -38.5 15.5t-15.5 38.5zM748 114q0 23 16 38.5
t38 15.5q23 0 38.5 -15.5t15.5 -38.5q0 -22 -15.5 -38t-38.5 -16q-22 0 -38 16t-16 38zM97 309q23 0 38.5 -15.5t15.5 -38.5t-15.5 -38.5t-38.5 -15.5q-22 0 -38 15.5t-16 38.5t16 38.5t38 15.5zM332 74q22 0 38 -15.5t16 -38.5q0 -22 -16 -38t-38 -16q-23 0 -38.5 16
t-15.5 38q0 23 15.5 38.5t38.5 15.5zM65 474q22 0 38 -15.5t16 -38.5t-16 -38.5t-38 -15.5q-23 0 -38.5 15.5t-15.5 38.5t15.5 38.5t38.5 15.5zM191 168q23 0 38.5 -15.5t15.5 -38.5q0 -22 -15.5 -38t-38.5 -16t-38.5 16t-15.5 38q0 23 15.5 38.5t38.5 15.5zM386 819
q0 -23 -16 -38.5t-38 -15.5q-23 0 -38.5 15.5t-15.5 38.5q0 22 15.5 38t38.5 16q22 0 38 -16t16 -38zM151 585q0 -22 -15.5 -38t-38.5 -16q-22 0 -38 16t-16 38q0 23 16 38.5t38 15.5q23 0 38.5 -15.5t15.5 -38.5zM551 852q0 -23 -16 -38.5t-38 -15.5q-23 0 -38.5 15.5
t-15.5 38.5t15.5 38.5t38.5 15.5q22 0 38 -15.5t16 -38.5zM245 726q0 -23 -15.5 -38.5t-38.5 -15.5t-38.5 15.5t-15.5 38.5q0 22 15.5 38t38.5 16t38.5 -16t15.5 -38z" />
    <glyph glyph-name="semicolon" unicode=";" horiz-adv-x="430" 
d="M430 479h-263v260h263v-260zM156 -168q107 21 141 107q18 46 18 147h-148v254h263v-219q0 -311 -274 -333v44z" />
    <glyph glyph-name="uniFD3E" unicode="&#xfd3e;" horiz-adv-x="918" 
d="M492 528q33 0 57 23.5t24 56.5t-24 56.5t-57 23.5q-34 0 -57.5 -23.5t-23.5 -56.5t23.5 -56.5t57.5 -23.5zM587 669q6 -11 16 -18.5t20 -12.5t18 -8.5t9 -6.5q0 -4 0.5 -8t0.5 -8q0 -6 -2 -14q-1 -3 -8.5 -6.5t-17.5 -8.5t-20 -12.5t-16 -19.5q32 -8 55.5 -28t54.5 -49
q7 17 13.5 37.5t10.5 40.5q7 15 18 23t21.5 13t17.5 10.5t7 14.5q0 8 -7 13t-17.5 10.5t-21.5 13t-18 20.5q-6 25 -11 45.5t-13 38.5q-29 -32 -55 -52t-55 -28zM430 702q11 6 18.5 16.5t13 20.5t9 17.5t6.5 8.5h16h14q3 -1 6.5 -8.5t8.5 -17.5t12.5 -20.5t19.5 -16.5
q4 26 26.5 55.5t51.5 54.5q-18 7 -38.5 12.5t-40.5 10.5q-17 9 -25.5 20.5t-13.5 21t-9 16t-13 6.5q-7 0 -12 -7t-10.5 -17t-14 -21t-21.5 -18q-23 -4 -45 -10.5t-39 -14.5q32 -28 53 -55.5t27 -53.5zM397 546q-6 12 -16.5 20t-20.5 13t-17.5 8.5t-7.5 5.5q-1 4 -2 7.5
t-1 6.5q0 4 1 8l2 8q0 3 7.5 7t17.5 9t20.5 12t16.5 18q-28 6 -57 28t-52 52q-17 -36 -25 -80q-11 -18 -22.5 -26t-21 -12.5t-16 -9t-6.5 -13.5q0 -8 7.5 -12.5t18 -9.5t21.5 -13.5t19 -23.5q5 -23 11 -43t14 -37q26 32 54 52t55 25zM554 516q-12 -7 -20 -17.5t-13 -20
t-8.5 -17t-5.5 -8.5q-4 -2 -7.5 -2.5t-7.5 -0.5q-12 0 -15 3q-3 1 -7 8.5t-9 17t-12.5 20t-18.5 17.5q-7 -32 -28 -56.5t-52 -53.5q18 -7 38.5 -13t42.5 -11q21 -12 29 -23.5t12 -20.5t6.5 -15t13.5 -6q9 0 13.5 7.5t10 17.5t13 21t21.5 17q22 4 44.5 11.5t39.5 15.5
q-33 26 -54 53.5t-26 55.5zM616 367q66 -311 302 -551l-117 -118q-293 292 -369 645q-5 6 -10 9l-52.5 15t-51.5 20l-5 30q38 28 56 51t28 47q-52 -19 -99 -82l-29 3q-27 50 -35 103q-6 8 -16 12.5t-19 9.5q-12 6 -22 16t-10 31q0 19 10 28.5t21 15.5q9 5 19.5 11t16.5 15
q3 25 13 51.5t22 50.5l29 4q28 -36 53 -56t47 -27q-10 24 -29.5 48.5t-55.5 50.5l5 29q27 13 53 22.5t51 12.5q6 5 11 11q39 180 129.5 340t235.5 303l120 -124q-225 -274 -296 -546q11 -3 20.5 -7.5t22.5 -11.5l4 -29q-35 -28 -58 -55t-25 -44q28 12 52 31.5t48 51.5l28 -4
q8 -9 13.5 -22.5t10 -28t7.5 -28l5 -22.5q8 -9 18.5 -15.5t20.5 -12.5q10 -7 19 -16.5t9 -26.5q0 -20 -13 -31q-6 -6 -12 -9.5t-13 -8.5q-12 -8 -22 -17.5t-14 -32.5q-5 -17 -11 -33.5t-17 -39.5l-28 -3q-23 23 -47.5 47t-50.5 35q3 -15 11 -27t18.5 -23t23.5 -22.5
t27 -25.5l-4 -30q-15 -7 -26 -11.5t-23 -8.5z" />
    <glyph glyph-name="uniFD3F" unicode="&#xfd3f;" horiz-adv-x="918" 
d="M593 528q34 0 57.5 23.5t23.5 56.5t-23.5 56.5t-57.5 23.5q-33 0 -57 -23.5t-24 -56.5t24 -56.5t57 -23.5zM498 669q-29 8 -55 28t-55 52q-8 -18 -13 -38.5t-11 -45.5q-8 -13 -18.5 -20.5t-21 -13t-17.5 -10.5t-7 -13q0 -9 7 -14.5t17.5 -10.5t21 -13t18.5 -23
q4 -20 10.5 -40.5t13.5 -37.5q31 29 54.5 49t55.5 28q-6 12 -16 19.5t-20 12.5t-17.5 8.5t-8.5 6.5q-2 8 -2 14q0 4 0.5 8t0.5 8q1 3 9 6.5t18 8.5t20 12.5t16 18.5zM655 702q6 26 27 53.5t53 55.5q-17 8 -39 14.5t-45 10.5q-14 7 -22 18t-13.5 21t-10.5 17t-12 7
q-9 0 -13 -6.5t-9 -16t-13.5 -21t-25.5 -20.5q-20 -5 -40.5 -10.5t-38.5 -12.5q29 -25 51.5 -54.5t26.5 -55.5q12 6 19.5 16.5t12.5 20.5t8.5 17.5t6.5 8.5h14h16q3 -1 6.5 -8.5t8.5 -17.5t13 -20.5t19 -16.5zM688 546q27 -5 55 -25t54 -52q8 17 14 37t11 43q8 15 19 23.5
t21.5 13.5t18 9.5t7.5 12.5q0 9 -6.5 13.5t-16 9t-21.5 12.5t-22 26q-8 44 -25 80q-23 -30 -52 -52t-57 -28q6 -11 16.5 -18t20.5 -12t17.5 -9t7.5 -7l2 -8t1 -8q0 -3 -1 -6.5t-2 -7.5q0 -2 -7.5 -5.5t-17.5 -8.5t-20.5 -13t-16.5 -20zM531 516q-5 -28 -26 -55.5t-54 -53.5
q17 -8 39.5 -15.5t44.5 -11.5q14 -6 21.5 -17t12.5 -21t10 -17.5t14 -7.5q10 0 13 6t7 15t12 20.5t29 23.5q22 5 42.5 11t38.5 13q-31 29 -52 53.5t-28 56.5q-11 -7 -18.5 -17.5t-12.5 -20t-9 -17t-7 -8.5q-3 -3 -15 -3q-4 0 -7.5 0.5t-7.5 2.5q-2 1 -5.5 8.5t-8.5 17
t-13 20t-20 17.5zM469 367q-12 4 -23 8.5t-26 11.5l-4 30q28 28 50.5 48t29.5 50q-26 -11 -50.5 -35t-47.5 -47l-28 3q-11 23 -17 39.5t-11 33.5q-4 23 -14 32.5t-22 17.5q-7 5 -13 8.5t-12 9.5q-13 11 -13 31q0 17 9 26.5t19 16.5q10 6 20.5 12.5t18.5 15.5l5 22.5t7.5 28
t10 28t13.5 22.5l28 4q24 -32 48 -51.5t52 -31.5q-2 17 -25 44t-58 55l4 29q13 7 22.5 11.5t20.5 7.5q-71 272 -296 546l120 124q145 -143 235.5 -303t129.5 -340q5 -6 11 -11q25 -3 51 -12.5t53 -22.5l5 -29q-36 -26 -55.5 -50.5t-29.5 -48.5q22 7 47 27t53 56l29 -4
q12 -24 22 -50.5t13 -51.5q6 -9 16.5 -15t19.5 -11q11 -6 21 -15.5t10 -28.5q0 -21 -10 -31t-22 -16q-9 -5 -19 -9.5t-16 -12.5q-8 -53 -35 -103l-29 -3q-47 63 -99 82q10 -24 28 -47t56 -51l-5 -30q-27 -13 -51.5 -20l-52.5 -15q-5 -3 -10 -9q-77 -353 -369 -645l-117 118
q236 240 302 551z" />
    </font>
</defs>
</svg>
