<?xml version="1.0" standalone="no"?>
<!DOCTYPE svg PUBLIC "-//W3C//DTD SVG 1.1//EN" "http://www.w3.org/Graphics/SVG/1.1/DTD/svg11.dtd" >
<svg>
<metadata>
Created by FontForge 20110222 at Wed Sep  4 02:07:17 2013
 By Orthosie Webhosting
Copyright (c) 2006 - 2007 Linotype GmbH, www.linotype.com. All rights reserved. This font software may not be reproduced, modified, disclosed or transferred without the express written approval of Linotype GmbH. Palatino is a trademark of Linotype Corp. registered in the U.S. Patent and Trademark Office and may be registered in certain other jurisdictions in the name of Linotype Corp. or its licensee Linotype GmbH. This typeface is original artwork of Nadine Chahine, Hermann Zapf and Akira Kobayashi. The design may be protected in certain jurisdictions.
</metadata>
<defs>
<font id="PalatinoLTArabic" horiz-adv-x="732" >
  <font-face 
    font-family="PalatinoLTArabic"
    font-weight="400"
    font-stretch="normal"
    units-per-em="1000"
    panose-1="2 3 5 2 5 5 5 3 3 4"
    ascent="721"
    descent="-279"
    x-height="445"
    cap-height="684"
    bbox="-166 -550 1331 1316"
    underline-thickness="50"
    underline-position="-50"
    unicode-range="U+0020-FEFC"
  />
<missing-glyph horiz-adv-x="960" 
d="M711 666v-666h-475v666h475zM665 46v573h-383v-573h383zM460 217q0 49 -6 66q-6 18 -40 49q-35 33 -47 57.5t-12 54.5q0 27 9 49.5t24.5 38.5t37 25t45.5 9q51 0 84.5 -30.5t40.5 -97.5l-46 -7q-6 46 -26.5 67t-50.5 21q-28 0 -49 -23t-21 -56q0 -9 1.5 -16.5t6.5 -16
t14 -19t24 -25.5q31 -31 43 -55t12 -75l-1 -16h-43zM453 108v62h52v-62h-52z" />
    <glyph glyph-name="uniFBF9" unicode="&#xfe8b;&#xfef0;" horiz-adv-x="684" arabic-form="isolated" 
d="M496 180q26 -9 51 -21t44.5 -27.5t31 -34t11.5 -39.5q0 -15 -10.5 -40t-32.5 -53.5t-55 -57t-77.5 -52t-101.5 -38t-126 -14.5q-57 0 -96.5 11t-65 29.5t-39.5 42t-20.5 48t-8 48t-1.5 41.5q0 27 5.5 55t12.5 51.5t14 39.5t11 20q2 2 4 2q5 0 10 -5q-8 -20 -13.5 -51.5
t-5.5 -64.5q0 -30 12 -60t38.5 -54t69 -39t102.5 -15q63 0 119.5 12t99.5 29.5t68 37.5t25 37q0 18 -22.5 36.5t-58 35t-78 30.5t-81.5 22q11 24 25.5 41t27.5 19q37 7 66.5 18.5t50.5 24.5t32 27t11 27q0 15 -8.5 40.5t-40.5 65.5q-6 7 -6 17q0 9 4 16l39 75h4
q25 -46 37 -92.5t12 -86.5q0 -45 -26.5 -86t-63.5 -68zM568 613q-30 -9 -60.5 -22t-55.5 -24l-56 -28q0 8 2.5 23.5t14.5 22.5l26 14q-12 5 -21.5 15t-9.5 28q0 13 9.5 32.5t25 36.5t35.5 29.5t41 12.5q11 0 22 -5t11 -18q0 -16 -9 -29q-14 12 -42 12q-9 0 -18.5 -2.5
t-17.5 -8t-13.5 -14.5t-5.5 -21q0 -20 15 -28.5t35 -8.5q23 0 39 5t33 13l3 -1z" />
    <glyph glyph-name="uniFBFA" unicode="&#xfe8c;&#xfef0;" horiz-adv-x="751" arabic-form="final" 
d="M639 -85q0 -15 -11 -40t-33 -54t-56 -58.5t-79 -53t-102.5 -38.5t-126.5 -15q-57 0 -96.5 11t-65 29.5t-39.5 42t-20.5 48t-8 48t-1.5 41.5q0 27 5.5 55t12.5 51.5t14 39.5t11 20q2 2 4 2q5 0 10 -5q-8 -20 -13.5 -51.5t-5.5 -64.5q0 -30 12 -60t38.5 -54t69 -39
t102.5 -15q63 0 119.5 12t99.5 29.5t68 37.5t25 37q0 7 -7 13.5t-18 12t-25 10.5t-27 9q-44 12 -58.5 25t-14.5 37q0 30 13.5 67t35.5 69.5t51 54.5t61 22q26 0 45.5 -16.5t39 -37t41.5 -37t52 -16.5q15 0 20.5 -9.5t5.5 -30.5v-5q0 -23 -12.5 -31t-33.5 -8
q-26 0 -46.5 17.5t-40 38t-41 38t-50.5 17.5q-15 0 -32 -7.5t-32 -19.5t-25 -27t-10 -30q0 -9 13 -16.5t32.5 -14.5t42 -14.5t42 -17t32.5 -21.5t13 -28zM643 328q-30 -9 -60.5 -22t-55.5 -24l-56 -28q0 8 2.5 23.5t14.5 22.5l26 14q-12 5 -21.5 15t-9.5 28q0 13 9.5 32.5
t25 36.5t35.5 29.5t41 12.5q11 0 22 -5t11 -18q0 -16 -9 -29q-14 12 -42 12q-9 0 -18.5 -2.5t-17.5 -8t-13.5 -14.5t-5.5 -21q0 -20 15 -28.5t35 -8.5q23 0 39 5t33 13l3 -1z" />
    <glyph glyph-name="uniFC00" unicode="&#xfe8b;&#xfe9e;" horiz-adv-x="606" arabic-form="isolated" 
d="M441 166q-40 0 -86 -7t-85 -22q-44 -17 -81 -43.5t-64.5 -61t-43 -76t-15.5 -88.5q0 -65 26 -118t76.5 -90.5t123.5 -58t168 -20.5q35 0 78 4t75 12q2 -2 2 -6q0 -7 -6 -11q-7 -4 -28 -14t-45 -20.5t-46.5 -20.5t-32.5 -14q-13 -5 -36 -8t-49 -3q-71 0 -137 19t-117 58.5
t-81.5 100.5t-30.5 145q0 68 27 126.5t66 105t83.5 80t80.5 51.5q-10 4 -26.5 8t-35.5 7t-38 4.5t-34 1.5q-31 0 -64 -6.5t-59 -19.5l-4 5q6 6 12 14.5t12 18t12 18.5t11 15q20 26 64 32q46 11 83 32t66 46.5t50.5 52t36.5 48.5q18 26 34.5 42t33.5 16q12 0 21 -10.5
t14.5 -25.5t8 -32t2.5 -29q0 -3 -3 -12t-7.5 -19.5t-10.5 -21t-12 -17.5h-5q-4 28 -16.5 51.5t-31.5 23.5q-14 0 -26.5 -15.5t-28.5 -39t-38 -51t-55 -51.5q25 -5 52.5 -11t54.5 -11t52 -8.5t44 -3.5q30 0 47.5 0.5t44.5 2.5l2 -3l-37 -75q-14 3 -48 3zM259 -109
q10 -5 27.5 -21t28.5 -31v-4q-6 -5 -13.5 -12.5l-15.5 -15.5t-15 -15.5t-11 -11.5h-4q-9 12 -24 27t-31 23v4q0 1 8 10.5t18 19.5l18.5 18.5t9.5 8.5h4zM469 645q-30 -9 -60.5 -22t-55.5 -24l-56 -28q0 8 2.5 23.5t14.5 22.5l26 14q-12 5 -21.5 15t-9.5 28q0 13 9.5 32.5
t25 36.5t35.5 29.5t41 12.5q11 0 22 -5t11 -18q0 -16 -9 -29q-14 12 -42 12q-9 0 -18.5 -2.5t-17.5 -8t-13.5 -14.5t-5.5 -21q0 -20 15 -28.5t35 -8.5q23 0 39 5t33 13l3 -1z" />
    <glyph glyph-name="uniFC01" unicode="&#xfe8b;&#xfea2;" horiz-adv-x="606" arabic-form="isolated" 
d="M441 166q-40 0 -86 -7t-85 -22q-44 -17 -81 -43.5t-64.5 -61t-43 -76t-15.5 -88.5q0 -65 26 -118t76.5 -90.5t123.5 -58t168 -20.5q35 0 78 4t75 12q2 -2 2 -6q0 -7 -6 -11q-7 -4 -28 -14t-45 -20.5t-46.5 -20.5t-32.5 -14q-13 -5 -36 -8t-49 -3q-71 0 -137 19t-117 58.5
t-81.5 100.5t-30.5 145q0 68 27 126.5t66 105t83.5 80t80.5 51.5q-10 4 -26.5 8t-35.5 7t-38 4.5t-34 1.5q-31 0 -64 -6.5t-59 -19.5l-4 5q6 6 12 14.5t12 18t12 18.5t11 15q20 26 64 32q46 11 83 32t66 46.5t50.5 52t36.5 48.5q18 26 34.5 42t33.5 16q12 0 21 -10.5
t14.5 -25.5t8 -32t2.5 -29q0 -3 -3 -12t-7.5 -19.5t-10.5 -21t-12 -17.5h-5q-4 28 -16.5 51.5t-31.5 23.5q-14 0 -26.5 -15.5t-28.5 -39t-38 -51t-55 -51.5q25 -5 52.5 -11t54.5 -11t52 -8.5t44 -3.5q30 0 47.5 0.5t44.5 2.5l2 -3l-37 -75q-14 3 -48 3zM469 645
q-30 -9 -60.5 -22t-55.5 -24l-56 -28q0 8 2.5 23.5t14.5 22.5l26 14q-12 5 -21.5 15t-9.5 28q0 13 9.5 32.5t25 36.5t35.5 29.5t41 12.5q11 0 22 -5t11 -18q0 -16 -9 -29q-14 12 -42 12q-9 0 -18.5 -2.5t-17.5 -8t-13.5 -14.5t-5.5 -21q0 -20 15 -28.5t35 -8.5q23 0 39 5
t33 13l3 -1z" />
    <glyph glyph-name="uniFC04" unicode="&#xfe8b;&#xfef2;" horiz-adv-x="684" arabic-form="isolated" 
d="M496 180q26 -9 51 -21t44.5 -27.5t31 -34t11.5 -39.5q0 -15 -10.5 -40t-32.5 -53.5t-55 -57t-77.5 -52t-101.5 -38t-126 -14.5q-57 0 -96.5 11t-65 29.5t-39.5 42t-20.5 48t-8 48t-1.5 41.5q0 27 5.5 55t12.5 51.5t14 39.5t11 20q2 2 4 2q5 0 10 -5q-8 -20 -13.5 -51.5
t-5.5 -64.5q0 -30 12 -60t38.5 -54t69 -39t102.5 -15q63 0 119.5 12t99.5 29.5t68 37.5t25 37q0 18 -22.5 36.5t-58 35t-78 30.5t-81.5 22q11 24 25.5 41t27.5 19q37 7 66.5 18.5t50.5 24.5t32 27t11 27q0 15 -8.5 40.5t-40.5 65.5q-6 7 -6 17q0 9 4 16l39 75h4
q25 -46 37 -92.5t12 -86.5q0 -45 -26.5 -86t-63.5 -68zM566 613q-30 -9 -60.5 -22t-55.5 -24l-56 -28q0 8 2.5 23.5t14.5 22.5l26 14q-12 5 -21.5 15t-9.5 28q0 13 9.5 32.5t25 36.5t35.5 29.5t41 12.5q11 0 22 -5t11 -18q0 -16 -9 -29q-14 12 -42 12q-9 0 -18.5 -2.5
t-17.5 -8t-13.5 -14.5t-5.5 -21q0 -20 15 -28.5t35 -8.5q23 0 39 5t33 13l3 -1zM150 -308q10 -5 27.5 -21t28.5 -31v-4q-6 -5 -13.5 -12.5l-15.5 -15.5t-15 -15.5t-11 -11.5h-4q-9 12 -24 27t-31 23v4q0 1 8 10.5t18 19.5l18.5 18.5t9.5 8.5h4zM273 -308q10 -5 27.5 -21
t28.5 -31v-4q-6 -5 -13.5 -12.5l-15.5 -15.5t-15 -15.5t-11 -11.5h-4q-9 12 -24 27t-31 23v4q0 1 8 10.5t18 19.5l18.5 18.5t9.5 8.5h4z" />
    <glyph glyph-name="uniFC05" unicode="&#xfe91;&#xfe9e;" horiz-adv-x="606" arabic-form="isolated" 
d="M441 166q-40 0 -86 -7t-85 -22q-44 -17 -81 -43.5t-64.5 -61t-43 -76t-15.5 -88.5q0 -65 26 -118t76.5 -90.5t123.5 -58t168 -20.5q35 0 78 4t75 12q2 -2 2 -6q0 -7 -6 -11q-7 -4 -28 -14t-45 -20.5t-46.5 -20.5t-32.5 -14q-13 -5 -36 -8t-49 -3q-71 0 -137 19t-117 58.5
t-81.5 100.5t-30.5 145q0 68 27 126.5t66 105t83.5 80t80.5 51.5q-10 4 -26.5 8t-35.5 7t-38 4.5t-34 1.5q-31 0 -64 -6.5t-59 -19.5l-4 5q6 6 12 14.5t12 18t12 18.5t11 15q20 26 64 32q46 11 83 32t66 46.5t50.5 52t36.5 48.5q18 26 34.5 42t33.5 16q12 0 21 -10.5
t14.5 -25.5t8 -32t2.5 -29q0 -3 -3 -12t-7.5 -19.5t-10.5 -21t-12 -17.5h-5q-4 28 -16.5 51.5t-31.5 23.5q-14 0 -26.5 -15.5t-28.5 -39t-38 -51t-55 -51.5q25 -5 52.5 -11t54.5 -11t52 -8.5t44 -3.5q30 0 47.5 0.5t44.5 2.5l2 -3l-37 -75q-14 3 -48 3zM259 -109
q10 -5 27.5 -21t28.5 -31v-4q-6 -5 -13.5 -12.5l-15.5 -15.5t-15 -15.5t-11 -11.5h-4q-9 12 -24 27t-31 23v4q0 1 8 10.5t18 19.5l18.5 18.5t9.5 8.5h4zM410 41q10 -5 27.5 -21t28.5 -31v-4q-6 -5 -13.5 -12.5l-15.5 -15.5t-15 -15.5t-11 -11.5h-4q-9 12 -24 27t-31 23v4
q0 1 8 10.5t18 19.5l18.5 18.5t9.5 8.5h4z" />
    <glyph glyph-name="uniFC06" unicode="&#xfe91;&#xfea2;" horiz-adv-x="606" arabic-form="isolated" 
d="M441 166q-40 0 -86 -7t-85 -22q-44 -17 -81 -43.5t-64.5 -61t-43 -76t-15.5 -88.5q0 -65 26 -118t76.5 -90.5t123.5 -58t168 -20.5q35 0 78 4t75 12q2 -2 2 -6q0 -7 -6 -11q-7 -4 -28 -14t-45 -20.5t-46.5 -20.5t-32.5 -14q-13 -5 -36 -8t-49 -3q-71 0 -137 19t-117 58.5
t-81.5 100.5t-30.5 145q0 68 27 126.5t66 105t83.5 80t80.5 51.5q-10 4 -26.5 8t-35.5 7t-38 4.5t-34 1.5q-31 0 -64 -6.5t-59 -19.5l-4 5q6 6 12 14.5t12 18t12 18.5t11 15q20 26 64 32q46 11 83 32t66 46.5t50.5 52t36.5 48.5q18 26 34.5 42t33.5 16q12 0 21 -10.5
t14.5 -25.5t8 -32t2.5 -29q0 -3 -3 -12t-7.5 -19.5t-10.5 -21t-12 -17.5h-5q-4 28 -16.5 51.5t-31.5 23.5q-14 0 -26.5 -15.5t-28.5 -39t-38 -51t-55 -51.5q25 -5 52.5 -11t54.5 -11t52 -8.5t44 -3.5q30 0 47.5 0.5t44.5 2.5l2 -3l-37 -75q-14 3 -48 3zM410 41
q10 -5 27.5 -21t28.5 -31v-4q-6 -5 -13.5 -12.5l-15.5 -15.5t-15 -15.5t-11 -11.5h-4q-9 12 -24 27t-31 23v4q0 1 8 10.5t18 19.5l18.5 18.5t9.5 8.5h4z" />
    <glyph glyph-name="uniFC07" unicode="&#xfe91;&#xfea6;" horiz-adv-x="606" arabic-form="isolated" 
d="M441 166q-40 0 -86 -7t-85 -22q-44 -17 -81 -43.5t-64.5 -61t-43 -76t-15.5 -88.5q0 -65 26 -118t76.5 -90.5t123.5 -58t168 -20.5q35 0 78 4t75 12q2 -2 2 -6q0 -7 -6 -11q-7 -4 -28 -14t-45 -20.5t-46.5 -20.5t-32.5 -14q-13 -5 -36 -8t-49 -3q-71 0 -137 19t-117 58.5
t-81.5 100.5t-30.5 145q0 68 27 126.5t66 105t83.5 80t80.5 51.5q-10 4 -26.5 8t-35.5 7t-38 4.5t-34 1.5q-31 0 -64 -6.5t-59 -19.5l-4 5q6 6 12 14.5t12 18t12 18.5t11 15q20 26 64 32q46 11 83 32t66 46.5t50.5 52t36.5 48.5q18 26 34.5 42t33.5 16q12 0 21 -10.5
t14.5 -25.5t8 -32t2.5 -29q0 -3 -3 -12t-7.5 -19.5t-10.5 -21t-12 -17.5h-5q-4 28 -16.5 51.5t-31.5 23.5q-14 0 -26.5 -15.5t-28.5 -39t-38 -51t-55 -51.5q25 -5 52.5 -11t54.5 -11t52 -8.5t44 -3.5q30 0 47.5 0.5t44.5 2.5l2 -3l-37 -75q-14 3 -48 3zM123 586
q10 -5 27.5 -21t28.5 -31v-4q-6 -5 -13.5 -12.5l-15.5 -15.5t-15 -15.5t-11 -11.5h-4q-9 12 -24 27t-31 23v4q0 1 8 10.5t18 19.5l18.5 18.5t9.5 8.5h4zM410 41q10 -5 27.5 -21t28.5 -31v-4q-6 -5 -13.5 -12.5l-15.5 -15.5t-15 -15.5t-11 -11.5h-4q-9 12 -24 27t-31 23v4
q0 1 8 10.5t18 19.5l18.5 18.5t9.5 8.5h4z" />
    <glyph glyph-name="uniFC09" unicode="&#xfe91;&#xfef0;" horiz-adv-x="684" arabic-form="isolated" 
d="M496 180q26 -9 51 -21t44.5 -27.5t31 -34t11.5 -39.5q0 -15 -10.5 -40t-32.5 -53.5t-55 -57t-77.5 -52t-101.5 -38t-126 -14.5q-57 0 -96.5 11t-65 29.5t-39.5 42t-20.5 48t-8 48t-1.5 41.5q0 27 5.5 55t12.5 51.5t14 39.5t11 20q2 2 4 2q5 0 10 -5q-8 -20 -13.5 -51.5
t-5.5 -64.5q0 -30 12 -60t38.5 -54t69 -39t102.5 -15q63 0 119.5 12t99.5 29.5t68 37.5t25 37q0 18 -22.5 36.5t-58 35t-78 30.5t-81.5 22q11 24 25.5 41t27.5 19q37 7 66.5 18.5t50.5 24.5t32 27t11 27q0 15 -8.5 40.5t-40.5 65.5q-6 7 -6 17q0 9 4 16l39 75h4
q25 -46 37 -92.5t12 -86.5q0 -45 -26.5 -86t-63.5 -68zM540 -208q10 -5 27.5 -21t28.5 -31v-4q-6 -5 -13.5 -12.5l-15.5 -15.5t-15 -15.5t-11 -11.5h-4q-9 12 -24 27t-31 23v4q0 1 8 10.5t18 19.5l18.5 18.5t9.5 8.5h4z" />
    <glyph glyph-name="uniFC0A" unicode="&#xfe91;&#xfef2;" horiz-adv-x="684" arabic-form="isolated" 
d="M496 180q26 -9 51 -21t44.5 -27.5t31 -34t11.5 -39.5q0 -15 -10.5 -40t-32.5 -53.5t-55 -57t-77.5 -52t-101.5 -38t-126 -14.5q-57 0 -96.5 11t-65 29.5t-39.5 42t-20.5 48t-8 48t-1.5 41.5q0 27 5.5 55t12.5 51.5t14 39.5t11 20q2 2 4 2q5 0 10 -5q-8 -20 -13.5 -51.5
t-5.5 -64.5q0 -30 12 -60t38.5 -54t69 -39t102.5 -15q63 0 119.5 12t99.5 29.5t68 37.5t25 37q0 18 -22.5 36.5t-58 35t-78 30.5t-81.5 22q11 24 25.5 41t27.5 19q37 7 66.5 18.5t50.5 24.5t32 27t11 27q0 15 -8.5 40.5t-40.5 65.5q-6 7 -6 17q0 9 4 16l39 75h4
q25 -46 37 -92.5t12 -86.5q0 -45 -26.5 -86t-63.5 -68zM540 -208q10 -5 27.5 -21t28.5 -31v-4q-6 -5 -13.5 -12.5l-15.5 -15.5t-15 -15.5t-11 -11.5h-4q-9 12 -24 27t-31 23v4q0 1 8 10.5t18 19.5l18.5 18.5t9.5 8.5h4zM150 -308q10 -5 27.5 -21t28.5 -31v-4
q-6 -5 -13.5 -12.5l-15.5 -15.5t-15 -15.5t-11 -11.5h-4q-9 12 -24 27t-31 23v4q0 1 8 10.5t18 19.5l18.5 18.5t9.5 8.5h4zM273 -308q10 -5 27.5 -21t28.5 -31v-4q-6 -5 -13.5 -12.5l-15.5 -15.5t-15 -15.5t-11 -11.5h-4q-9 12 -24 27t-31 23v4q0 1 8 10.5t18 19.5
l18.5 18.5t9.5 8.5h4z" />
    <glyph glyph-name="uniFC0B" unicode="&#xfe97;&#xfe9e;" horiz-adv-x="606" arabic-form="isolated" 
d="M441 166q-40 0 -86 -7t-85 -22q-44 -17 -81 -43.5t-64.5 -61t-43 -76t-15.5 -88.5q0 -65 26 -118t76.5 -90.5t123.5 -58t168 -20.5q35 0 78 4t75 12q2 -2 2 -6q0 -7 -6 -11q-7 -4 -28 -14t-45 -20.5t-46.5 -20.5t-32.5 -14q-13 -5 -36 -8t-49 -3q-71 0 -137 19t-117 58.5
t-81.5 100.5t-30.5 145q0 68 27 126.5t66 105t83.5 80t80.5 51.5q-10 4 -26.5 8t-35.5 7t-38 4.5t-34 1.5q-31 0 -64 -6.5t-59 -19.5l-4 5q6 6 12 14.5t12 18t12 18.5t11 15q20 26 64 32q46 11 83 32t66 46.5t50.5 52t36.5 48.5q18 26 34.5 42t33.5 16q12 0 21 -10.5
t14.5 -25.5t8 -32t2.5 -29q0 -3 -3 -12t-7.5 -19.5t-10.5 -21t-12 -17.5h-5q-4 28 -16.5 51.5t-31.5 23.5q-14 0 -26.5 -15.5t-28.5 -39t-38 -51t-55 -51.5q25 -5 52.5 -11t54.5 -11t52 -8.5t44 -3.5q30 0 47.5 0.5t44.5 2.5l2 -3l-37 -75q-14 3 -48 3zM259 -109
q10 -5 27.5 -21t28.5 -31v-4q-6 -5 -13.5 -12.5l-15.5 -15.5t-15 -15.5t-11 -11.5h-4q-9 12 -24 27t-31 23v4q0 1 8 10.5t18 19.5l18.5 18.5t9.5 8.5h4zM333 736q10 -5 27.5 -21t28.5 -31v-4q-6 -5 -13.5 -12.5l-15.5 -15.5t-15 -15.5t-11 -11.5h-4q-9 12 -24 27t-31 23v4
q0 1 8 10.5t18 19.5l18.5 18.5t9.5 8.5h4zM456 736q10 -5 27.5 -21t28.5 -31v-4q-6 -5 -13.5 -12.5l-15.5 -15.5t-15 -15.5t-11 -11.5h-4q-9 12 -24 27t-31 23v4q0 1 8 10.5t18 19.5l18.5 18.5t9.5 8.5h4z" />
    <glyph glyph-name="uniFC0C" unicode="&#xfe97;&#xfea2;" horiz-adv-x="606" arabic-form="isolated" 
d="M441 166q-40 0 -86 -7t-85 -22q-44 -17 -81 -43.5t-64.5 -61t-43 -76t-15.5 -88.5q0 -65 26 -118t76.5 -90.5t123.5 -58t168 -20.5q35 0 78 4t75 12q2 -2 2 -6q0 -7 -6 -11q-7 -4 -28 -14t-45 -20.5t-46.5 -20.5t-32.5 -14q-13 -5 -36 -8t-49 -3q-71 0 -137 19t-117 58.5
t-81.5 100.5t-30.5 145q0 68 27 126.5t66 105t83.5 80t80.5 51.5q-10 4 -26.5 8t-35.5 7t-38 4.5t-34 1.5q-31 0 -64 -6.5t-59 -19.5l-4 5q6 6 12 14.5t12 18t12 18.5t11 15q20 26 64 32q46 11 83 32t66 46.5t50.5 52t36.5 48.5q18 26 34.5 42t33.5 16q12 0 21 -10.5
t14.5 -25.5t8 -32t2.5 -29q0 -3 -3 -12t-7.5 -19.5t-10.5 -21t-12 -17.5h-5q-4 28 -16.5 51.5t-31.5 23.5q-14 0 -26.5 -15.5t-28.5 -39t-38 -51t-55 -51.5q25 -5 52.5 -11t54.5 -11t52 -8.5t44 -3.5q30 0 47.5 0.5t44.5 2.5l2 -3l-37 -75q-14 3 -48 3zM333 736
q10 -5 27.5 -21t28.5 -31v-4q-6 -5 -13.5 -12.5l-15.5 -15.5t-15 -15.5t-11 -11.5h-4q-9 12 -24 27t-31 23v4q0 1 8 10.5t18 19.5l18.5 18.5t9.5 8.5h4zM456 736q10 -5 27.5 -21t28.5 -31v-4q-6 -5 -13.5 -12.5l-15.5 -15.5t-15 -15.5t-11 -11.5h-4q-9 12 -24 27t-31 23v4
q0 1 8 10.5t18 19.5l18.5 18.5t9.5 8.5h4z" />
    <glyph glyph-name="uniFC0D" unicode="&#xfe97;&#xfea6;" horiz-adv-x="606" arabic-form="isolated" 
d="M441 166q-40 0 -86 -7t-85 -22q-44 -17 -81 -43.5t-64.5 -61t-43 -76t-15.5 -88.5q0 -65 26 -118t76.5 -90.5t123.5 -58t168 -20.5q35 0 78 4t75 12q2 -2 2 -6q0 -7 -6 -11q-7 -4 -28 -14t-45 -20.5t-46.5 -20.5t-32.5 -14q-13 -5 -36 -8t-49 -3q-71 0 -137 19t-117 58.5
t-81.5 100.5t-30.5 145q0 68 27 126.5t66 105t83.5 80t80.5 51.5q-10 4 -26.5 8t-35.5 7t-38 4.5t-34 1.5q-31 0 -64 -6.5t-59 -19.5l-4 5q6 6 12 14.5t12 18t12 18.5t11 15q20 26 64 32q46 11 83 32t66 46.5t50.5 52t36.5 48.5q18 26 34.5 42t33.5 16q12 0 21 -10.5
t14.5 -25.5t8 -32t2.5 -29q0 -3 -3 -12t-7.5 -19.5t-10.5 -21t-12 -17.5h-5q-4 28 -16.5 51.5t-31.5 23.5q-14 0 -26.5 -15.5t-28.5 -39t-38 -51t-55 -51.5q25 -5 52.5 -11t54.5 -11t52 -8.5t44 -3.5q30 0 47.5 0.5t44.5 2.5l2 -3l-37 -75q-14 3 -48 3zM123 586
q10 -5 27.5 -21t28.5 -31v-4q-6 -5 -13.5 -12.5l-15.5 -15.5t-15 -15.5t-11 -11.5h-4q-9 12 -24 27t-31 23v4q0 1 8 10.5t18 19.5l18.5 18.5t9.5 8.5h4zM333 736q10 -5 27.5 -21t28.5 -31v-4q-6 -5 -13.5 -12.5l-15.5 -15.5t-15 -15.5t-11 -11.5h-4q-9 12 -24 27t-31 23v4
q0 1 8 10.5t18 19.5l18.5 18.5t9.5 8.5h4zM456 736q10 -5 27.5 -21t28.5 -31v-4q-6 -5 -13.5 -12.5l-15.5 -15.5t-15 -15.5t-11 -11.5h-4q-9 12 -24 27t-31 23v4q0 1 8 10.5t18 19.5l18.5 18.5t9.5 8.5h4z" />
    <glyph glyph-name="uniFC0F" unicode="&#xfe97;&#xfef0;" horiz-adv-x="684" arabic-form="isolated" 
d="M496 180q26 -9 51 -21t44.5 -27.5t31 -34t11.5 -39.5q0 -15 -10.5 -40t-32.5 -53.5t-55 -57t-77.5 -52t-101.5 -38t-126 -14.5q-57 0 -96.5 11t-65 29.5t-39.5 42t-20.5 48t-8 48t-1.5 41.5q0 27 5.5 55t12.5 51.5t14 39.5t11 20q2 2 4 2q5 0 10 -5q-8 -20 -13.5 -51.5
t-5.5 -64.5q0 -30 12 -60t38.5 -54t69 -39t102.5 -15q63 0 119.5 12t99.5 29.5t68 37.5t25 37q0 18 -22.5 36.5t-58 35t-78 30.5t-81.5 22q11 24 25.5 41t27.5 19q37 7 66.5 18.5t50.5 24.5t32 27t11 27q0 15 -8.5 40.5t-40.5 65.5q-6 7 -6 17q0 9 4 16l39 75h4
q25 -46 37 -92.5t12 -86.5q0 -45 -26.5 -86t-63.5 -68zM432 686q10 -5 27.5 -21t28.5 -31v-4q-6 -5 -13.5 -12.5l-15.5 -15.5t-15 -15.5t-11 -11.5h-4q-9 12 -24 27t-31 23v4q0 1 8 10.5t18 19.5l18.5 18.5t9.5 8.5h4zM555 686q10 -5 27.5 -21t28.5 -31v-4
q-6 -5 -13.5 -12.5l-15.5 -15.5t-15 -15.5t-11 -11.5h-4q-9 12 -24 27t-31 23v4q0 1 8 10.5t18 19.5l18.5 18.5t9.5 8.5h4z" />
    <glyph glyph-name="uniFC10" unicode="&#xfe97;&#xfef2;" horiz-adv-x="684" arabic-form="isolated" 
d="M496 180q26 -9 51 -21t44.5 -27.5t31 -34t11.5 -39.5q0 -15 -10.5 -40t-32.5 -53.5t-55 -57t-77.5 -52t-101.5 -38t-126 -14.5q-57 0 -96.5 11t-65 29.5t-39.5 42t-20.5 48t-8 48t-1.5 41.5q0 27 5.5 55t12.5 51.5t14 39.5t11 20q2 2 4 2q5 0 10 -5q-8 -20 -13.5 -51.5
t-5.5 -64.5q0 -30 12 -60t38.5 -54t69 -39t102.5 -15q63 0 119.5 12t99.5 29.5t68 37.5t25 37q0 18 -22.5 36.5t-58 35t-78 30.5t-81.5 22q11 24 25.5 41t27.5 19q37 7 66.5 18.5t50.5 24.5t32 27t11 27q0 15 -8.5 40.5t-40.5 65.5q-6 7 -6 17q0 9 4 16l39 75h4
q25 -46 37 -92.5t12 -86.5q0 -45 -26.5 -86t-63.5 -68zM447 686q10 -5 27.5 -21t28.5 -31v-4q-6 -5 -13.5 -12.5l-15.5 -15.5t-15 -15.5t-11 -11.5h-4q-9 12 -24 27t-31 23v4q0 1 8 10.5t18 19.5l18.5 18.5t9.5 8.5h4zM570 686q10 -5 27.5 -21t28.5 -31v-4
q-6 -5 -13.5 -12.5l-15.5 -15.5t-15 -15.5t-11 -11.5h-4q-9 12 -24 27t-31 23v4q0 1 8 10.5t18 19.5l18.5 18.5t9.5 8.5h4zM150 -308q10 -5 27.5 -21t28.5 -31v-4q-6 -5 -13.5 -12.5l-15.5 -15.5t-15 -15.5t-11 -11.5h-4q-9 12 -24 27t-31 23v4q0 1 8 10.5t18 19.5
l18.5 18.5t9.5 8.5h4zM273 -308q10 -5 27.5 -21t28.5 -31v-4q-6 -5 -13.5 -12.5l-15.5 -15.5t-15 -15.5t-11 -11.5h-4q-9 12 -24 27t-31 23v4q0 1 8 10.5t18 19.5l18.5 18.5t9.5 8.5h4z" />
    <glyph glyph-name="uniFC11" unicode="&#xfe9b;&#xfe9e;" horiz-adv-x="606" arabic-form="isolated" 
d="M441 166q-40 0 -86 -7t-85 -22q-44 -17 -81 -43.5t-64.5 -61t-43 -76t-15.5 -88.5q0 -65 26 -118t76.5 -90.5t123.5 -58t168 -20.5q35 0 78 4t75 12q2 -2 2 -6q0 -7 -6 -11q-7 -4 -28 -14t-45 -20.5t-46.5 -20.5t-32.5 -14q-13 -5 -36 -8t-49 -3q-71 0 -137 19t-117 58.5
t-81.5 100.5t-30.5 145q0 68 27 126.5t66 105t83.5 80t80.5 51.5q-10 4 -26.5 8t-35.5 7t-38 4.5t-34 1.5q-31 0 -64 -6.5t-59 -19.5l-4 5q6 6 12 14.5t12 18t12 18.5t11 15q20 26 64 32q46 11 83 32t66 46.5t50.5 52t36.5 48.5q18 26 34.5 42t33.5 16q12 0 21 -10.5
t14.5 -25.5t8 -32t2.5 -29q0 -3 -3 -12t-7.5 -19.5t-10.5 -21t-12 -17.5h-5q-4 28 -16.5 51.5t-31.5 23.5q-14 0 -26.5 -15.5t-28.5 -39t-38 -51t-55 -51.5q25 -5 52.5 -11t54.5 -11t52 -8.5t44 -3.5q30 0 47.5 0.5t44.5 2.5l2 -3l-37 -75q-14 3 -48 3zM259 -109
q10 -5 27.5 -21t28.5 -31v-4q-6 -5 -13.5 -12.5l-15.5 -15.5t-15 -15.5t-11 -11.5h-4q-9 12 -24 27t-31 23v4q0 1 8 10.5t18 19.5l18.5 18.5t9.5 8.5h4zM326 736q10 -5 27.5 -21t28.5 -31v-4q-6 -5 -13.5 -12.5l-15.5 -15.5t-15 -15.5t-11 -11.5h-4q-9 12 -24 27t-31 23v4
q0 1 8 10.5t18 19.5l18.5 18.5t9.5 8.5h4zM449 736q10 -5 27.5 -21t28.5 -31v-4q-6 -5 -13.5 -12.5l-15.5 -15.5t-15 -15.5t-11 -11.5h-4q-9 12 -24 27t-31 23v4q0 1 8 10.5t18 19.5l18.5 18.5t9.5 8.5h4zM382 863q10 -5 27.5 -21t28.5 -31v-4q-6 -5 -13.5 -12.5
l-15.5 -15.5t-15 -15.5t-11 -11.5h-4q-9 12 -24 27t-31 23v4q0 1 8 10.5t18 19.5l18.5 18.5t9.5 8.5h4z" />
    <glyph glyph-name="uniFC13" unicode="&#xfe9b;&#xfef0;" horiz-adv-x="684" arabic-form="isolated" 
d="M496 180q26 -9 51 -21t44.5 -27.5t31 -34t11.5 -39.5q0 -15 -10.5 -40t-32.5 -53.5t-55 -57t-77.5 -52t-101.5 -38t-126 -14.5q-57 0 -96.5 11t-65 29.5t-39.5 42t-20.5 48t-8 48t-1.5 41.5q0 27 5.5 55t12.5 51.5t14 39.5t11 20q2 2 4 2q5 0 10 -5q-8 -20 -13.5 -51.5
t-5.5 -64.5q0 -30 12 -60t38.5 -54t69 -39t102.5 -15q63 0 119.5 12t99.5 29.5t68 37.5t25 37q0 18 -22.5 36.5t-58 35t-78 30.5t-81.5 22q11 24 25.5 41t27.5 19q37 7 66.5 18.5t50.5 24.5t32 27t11 27q0 15 -8.5 40.5t-40.5 65.5q-6 7 -6 17q0 9 4 16l39 75h4
q25 -46 37 -92.5t12 -86.5q0 -45 -26.5 -86t-63.5 -68zM416 686q10 -5 27.5 -21t28.5 -31v-4q-6 -5 -13.5 -12.5l-15.5 -15.5t-15 -15.5t-11 -11.5h-4q-9 12 -24 27t-31 23v4q0 1 8 10.5t18 19.5l18.5 18.5t9.5 8.5h4zM539 686q10 -5 27.5 -21t28.5 -31v-4
q-6 -5 -13.5 -12.5l-15.5 -15.5t-15 -15.5t-11 -11.5h-4q-9 12 -24 27t-31 23v4q0 1 8 10.5t18 19.5l18.5 18.5t9.5 8.5h4zM472 813q10 -5 27.5 -21t28.5 -31v-4q-6 -5 -13.5 -12.5l-15.5 -15.5t-15 -15.5t-11 -11.5h-4q-9 12 -24 27t-31 23v4q0 1 8 10.5t18 19.5l18.5 18.5
t9.5 8.5h4z" />
    <glyph glyph-name="uniFC14" unicode="&#xfe9b;&#xfef2;" horiz-adv-x="684" arabic-form="isolated" 
d="M496 180q26 -9 51 -21t44.5 -27.5t31 -34t11.5 -39.5q0 -15 -10.5 -40t-32.5 -53.5t-55 -57t-77.5 -52t-101.5 -38t-126 -14.5q-57 0 -96.5 11t-65 29.5t-39.5 42t-20.5 48t-8 48t-1.5 41.5q0 27 5.5 55t12.5 51.5t14 39.5t11 20q2 2 4 2q5 0 10 -5q-8 -20 -13.5 -51.5
t-5.5 -64.5q0 -30 12 -60t38.5 -54t69 -39t102.5 -15q63 0 119.5 12t99.5 29.5t68 37.5t25 37q0 18 -22.5 36.5t-58 35t-78 30.5t-81.5 22q11 24 25.5 41t27.5 19q37 7 66.5 18.5t50.5 24.5t32 27t11 27q0 15 -8.5 40.5t-40.5 65.5q-6 7 -6 17q0 9 4 16l39 75h4
q25 -46 37 -92.5t12 -86.5q0 -45 -26.5 -86t-63.5 -68zM416 686q10 -5 27.5 -21t28.5 -31v-4q-6 -5 -13.5 -12.5l-15.5 -15.5t-15 -15.5t-11 -11.5h-4q-9 12 -24 27t-31 23v4q0 1 8 10.5t18 19.5l18.5 18.5t9.5 8.5h4zM539 686q10 -5 27.5 -21t28.5 -31v-4
q-6 -5 -13.5 -12.5l-15.5 -15.5t-15 -15.5t-11 -11.5h-4q-9 12 -24 27t-31 23v4q0 1 8 10.5t18 19.5l18.5 18.5t9.5 8.5h4zM472 813q10 -5 27.5 -21t28.5 -31v-4q-6 -5 -13.5 -12.5l-15.5 -15.5t-15 -15.5t-11 -11.5h-4q-9 12 -24 27t-31 23v4q0 1 8 10.5t18 19.5l18.5 18.5
t9.5 8.5h4zM150 -308q10 -5 27.5 -21t28.5 -31v-4q-6 -5 -13.5 -12.5l-15.5 -15.5t-15 -15.5t-11 -11.5h-4q-9 12 -24 27t-31 23v4q0 1 8 10.5t18 19.5l18.5 18.5t9.5 8.5h4zM273 -308q10 -5 27.5 -21t28.5 -31v-4q-6 -5 -13.5 -12.5l-15.5 -15.5t-15 -15.5t-11 -11.5h-4
q-9 12 -24 27t-31 23v4q0 1 8 10.5t18 19.5l18.5 18.5t9.5 8.5h4z" />
    <glyph glyph-name="uniFC31" unicode="&#xfed3;&#xfef0;" horiz-adv-x="652" arabic-form="isolated" 
d="M496 180q26 -9 51 -21t44.5 -27.5t31 -34t11.5 -39.5q0 -15 -10.5 -40t-32.5 -53.5t-55 -57t-77.5 -52t-101.5 -38t-126 -14.5q-57 0 -96.5 11t-65 29.5t-39.5 42t-20.5 48t-8 48t-1.5 41.5q0 27 5.5 55t12.5 51.5t14 39.5t11 20q2 2 4 2q5 0 10 -5q-8 -20 -13.5 -51.5
t-5.5 -64.5q0 -30 12 -60t38.5 -54t69 -39t102.5 -15q63 0 119.5 12t99.5 29.5t68 37.5t25 37q0 18 -22.5 36.5t-58 35t-78 30.5t-81.5 22q11 24 25.5 41.5t27.5 18.5q87 22 124.5 48t37.5 69q-11 -1 -22 -1.5t-22 -0.5q-40 0 -74.5 6.5t-60 20.5t-40 36.5t-14.5 55.5
t9.5 68t27.5 64t43 48t55 19q25 0 50.5 -16t45.5 -47.5t32.5 -77.5t12.5 -107q0 -38 -5.5 -72.5t-20.5 -60.5q-11 -17 -29.5 -37t-38.5 -37zM425 554q-18 0 -32 -10t-24 -24.5t-15.5 -31.5t-5.5 -31q0 -15 13 -27.5t34.5 -21t49.5 -13t58 -4.5q21 0 44 3q-5 28 -15 56.5
t-25 51.5t-35.5 37.5t-46.5 14.5zM447 882q10 -5 27.5 -21t28.5 -31v-4q-6 -5 -13.5 -12.5l-15.5 -15.5t-15 -15.5t-11 -11.5h-4q-9 12 -24 27t-31 23v4q0 1 8 10.5t18 19.5l18.5 18.5t9.5 8.5h4z" />
    <glyph glyph-name="uniFC32" unicode="&#xfed3;&#xfef2;" horiz-adv-x="652" arabic-form="isolated" 
d="M496 180q26 -9 51 -21t44.5 -27.5t31 -34t11.5 -39.5q0 -15 -10.5 -40t-32.5 -53.5t-55 -57t-77.5 -52t-101.5 -38t-126 -14.5q-57 0 -96.5 11t-65 29.5t-39.5 42t-20.5 48t-8 48t-1.5 41.5q0 27 5.5 55t12.5 51.5t14 39.5t11 20q2 2 4 2q5 0 10 -5q-8 -20 -13.5 -51.5
t-5.5 -64.5q0 -30 12 -60t38.5 -54t69 -39t102.5 -15q63 0 119.5 12t99.5 29.5t68 37.5t25 37q0 18 -22.5 36.5t-58 35t-78 30.5t-81.5 22q11 24 25.5 41.5t27.5 18.5q87 22 124.5 48t37.5 69q-11 -1 -22 -1.5t-22 -0.5q-40 0 -74.5 6.5t-60 20.5t-40 36.5t-14.5 55.5
t9.5 68t27.5 64t43 48t55 19q25 0 50.5 -16t45.5 -47.5t32.5 -77.5t12.5 -107q0 -38 -5.5 -72.5t-20.5 -60.5q-11 -17 -29.5 -37t-38.5 -37zM425 554q-18 0 -32 -10t-24 -24.5t-15.5 -31.5t-5.5 -31q0 -15 13 -27.5t34.5 -21t49.5 -13t58 -4.5q21 0 44 3q-5 28 -15 56.5
t-25 51.5t-35.5 37.5t-46.5 14.5zM189 -308q10 -5 27.5 -21t28.5 -31v-4q-6 -5 -13.5 -12.5l-15.5 -15.5t-15 -15.5t-11 -11.5h-4q-9 12 -24 27t-31 23v4q0 1 8 10.5t18 19.5l18.5 18.5t9.5 8.5h4zM312 -308q10 -5 27.5 -21t28.5 -31v-4q-6 -5 -13.5 -12.5l-15.5 -15.5
t-15 -15.5t-11 -11.5h-4q-9 12 -24 27t-31 23v4q0 1 8 10.5t18 19.5l18.5 18.5t9.5 8.5h4zM447 882q10 -5 27.5 -21t28.5 -31v-4q-6 -5 -13.5 -12.5l-15.5 -15.5t-15 -15.5t-11 -11.5h-4q-9 12 -24 27t-31 23v4q0 1 8 10.5t18 19.5l18.5 18.5t9.5 8.5h4z" />
    <glyph glyph-name="uniFC35" unicode="&#xfed7;&#xfef0;" horiz-adv-x="652" arabic-form="isolated" 
d="M496 180q26 -9 51 -21t44.5 -27.5t31 -34t11.5 -39.5q0 -15 -10.5 -40t-32.5 -53.5t-55 -57t-77.5 -52t-101.5 -38t-126 -14.5q-57 0 -96.5 11t-65 29.5t-39.5 42t-20.5 48t-8 48t-1.5 41.5q0 27 5.5 55t12.5 51.5t14 39.5t11 20q2 2 4 2q5 0 10 -5q-8 -20 -13.5 -51.5
t-5.5 -64.5q0 -30 12 -60t38.5 -54t69 -39t102.5 -15q63 0 119.5 12t99.5 29.5t68 37.5t25 37q0 18 -22.5 36.5t-58 35t-78 30.5t-81.5 22q11 24 25.5 41.5t27.5 18.5q87 22 124.5 48t37.5 69q-11 -1 -22 -1.5t-22 -0.5q-40 0 -74.5 6.5t-60 20.5t-40 36.5t-14.5 55.5
t9.5 68t27.5 64t43 48t55 19q25 0 50.5 -16t45.5 -47.5t32.5 -77.5t12.5 -107q0 -38 -5.5 -72.5t-20.5 -60.5q-11 -17 -29.5 -37t-38.5 -37zM425 554q-18 0 -32 -10t-24 -24.5t-15.5 -31.5t-5.5 -31q0 -15 13 -27.5t34.5 -21t49.5 -13t58 -4.5q21 0 44 3q-5 28 -15 56.5
t-25 51.5t-35.5 37.5t-46.5 14.5zM365 886q10 -5 27.5 -21t28.5 -31v-4q-6 -5 -13.5 -12.5l-15.5 -15.5t-15 -15.5t-11 -11.5h-4q-9 12 -24 27t-31 23v4q0 1 8 10.5t18 19.5l18.5 18.5t9.5 8.5h4zM488 886q10 -5 27.5 -21t28.5 -31v-4q-6 -5 -13.5 -12.5l-15.5 -15.5
t-15 -15.5t-11 -11.5h-4q-9 12 -24 27t-31 23v4q0 1 8 10.5t18 19.5l18.5 18.5t9.5 8.5h4z" />
    <glyph glyph-name="uniFC36" unicode="&#xfed7;&#xfef2;" horiz-adv-x="652" arabic-form="isolated" 
d="M496 180q26 -9 51 -21t44.5 -27.5t31 -34t11.5 -39.5q0 -15 -10.5 -40t-32.5 -53.5t-55 -57t-77.5 -52t-101.5 -38t-126 -14.5q-57 0 -96.5 11t-65 29.5t-39.5 42t-20.5 48t-8 48t-1.5 41.5q0 27 5.5 55t12.5 51.5t14 39.5t11 20q2 2 4 2q5 0 10 -5q-8 -20 -13.5 -51.5
t-5.5 -64.5q0 -30 12 -60t38.5 -54t69 -39t102.5 -15q63 0 119.5 12t99.5 29.5t68 37.5t25 37q0 18 -22.5 36.5t-58 35t-78 30.5t-81.5 22q11 24 25.5 41.5t27.5 18.5q87 22 124.5 48t37.5 69q-11 -1 -22 -1.5t-22 -0.5q-40 0 -74.5 6.5t-60 20.5t-40 36.5t-14.5 55.5
t9.5 68t27.5 64t43 48t55 19q25 0 50.5 -16t45.5 -47.5t32.5 -77.5t12.5 -107q0 -38 -5.5 -72.5t-20.5 -60.5q-11 -17 -29.5 -37t-38.5 -37zM425 554q-18 0 -32 -10t-24 -24.5t-15.5 -31.5t-5.5 -31q0 -15 13 -27.5t34.5 -21t49.5 -13t58 -4.5q21 0 44 3q-5 28 -15 56.5
t-25 51.5t-35.5 37.5t-46.5 14.5zM367 886q10 -5 27.5 -21t28.5 -31v-4q-6 -5 -13.5 -12.5l-15.5 -15.5t-15 -15.5t-11 -11.5h-4q-9 12 -24 27t-31 23v4q0 1 8 10.5t18 19.5l18.5 18.5t9.5 8.5h4zM490 886q10 -5 27.5 -21t28.5 -31v-4q-6 -5 -13.5 -12.5l-15.5 -15.5
t-15 -15.5t-11 -11.5h-4q-9 12 -24 27t-31 23v4q0 1 8 10.5t18 19.5l18.5 18.5t9.5 8.5h4zM150 -308q10 -5 27.5 -21t28.5 -31v-4q-6 -5 -13.5 -12.5l-15.5 -15.5t-15 -15.5t-11 -11.5h-4q-9 12 -24 27t-31 23v4q0 1 8 10.5t18 19.5l18.5 18.5t9.5 8.5h4zM273 -308
q10 -5 27.5 -21t28.5 -31v-4q-6 -5 -13.5 -12.5l-15.5 -15.5t-15 -15.5t-11 -11.5h-4q-9 12 -24 27t-31 23v4q0 1 8 10.5t18 19.5l18.5 18.5t9.5 8.5h4z" />
    <glyph glyph-name="uniFC43" unicode="&#xfedf;&#xfef0;" horiz-adv-x="646" arabic-form="isolated" 
d="M332 44q17 24 32.5 46t35.5 26q14 3 28 7t25.5 12t18.5 22t7 37q0 29 -1.5 72.5t-3.5 92.5t-4.5 98.5t-5 90.5t-4.5 69.5t-3 34.5q-10 10 -16 22t-6 28q0 19 10 48.5t27 48.5q3 -26 11 -42.5t20 -28.5t28.5 -20t36.5 -16l-36 -82v-40t0.5 -66t1 -78t1 -76.5t0.5 -61.5
v-33q0 -61 -14.5 -100t-43.5 -63q34 -13 62.5 -27.5t49.5 -31t33 -34.5t12 -39q0 -15 -10.5 -40t-32.5 -53.5t-55 -57t-77.5 -52t-101.5 -38t-126 -14.5q-57 0 -96.5 11t-65 29.5t-39.5 42t-20.5 48t-8 48t-1.5 41.5q0 27 5.5 55t12.5 51.5t14 39.5t11 20q2 2 5 2q4 0 9 -5
q-8 -20 -13.5 -51.5t-5.5 -64.5q0 -30 12 -60t38.5 -54t69 -39t102.5 -15q63 0 119.5 12t99.5 29.5t68 37.5t25 37q0 18 -22.5 36.5t-58 35t-78 30.5t-81.5 22z" />
    <glyph glyph-name="uniFC44" unicode="&#xfedf;&#xfef2;" horiz-adv-x="646" arabic-form="isolated" 
d="M332 44q17 24 32.5 46t35.5 26q14 3 28 7t25.5 12t18.5 22t7 37q0 29 -1.5 72.5t-3.5 92.5t-4.5 98.5t-5 90.5t-4.5 69.5t-3 34.5q-10 10 -16 22t-6 28q0 19 10 48.5t27 48.5q3 -26 11 -42.5t20 -28.5t28.5 -20t36.5 -16l-36 -82v-40t0.5 -66t1 -78t1 -76.5t0.5 -61.5
v-33q0 -61 -14.5 -100t-43.5 -63q34 -13 62.5 -27.5t49.5 -31t33 -34.5t12 -39q0 -15 -10.5 -40t-32.5 -53.5t-55 -57t-77.5 -52t-101.5 -38t-126 -14.5q-57 0 -96.5 11t-65 29.5t-39.5 42t-20.5 48t-8 48t-1.5 41.5q0 27 5.5 55t12.5 51.5t14 39.5t11 20q2 2 5 2q4 0 9 -5
q-8 -20 -13.5 -51.5t-5.5 -64.5q0 -30 12 -60t38.5 -54t69 -39t102.5 -15q63 0 119.5 12t99.5 29.5t68 37.5t25 37q0 18 -22.5 36.5t-58 35t-78 30.5t-81.5 22zM224 -358q10 -5 27.5 -21t28.5 -31v-4q-6 -5 -13.5 -12.5l-15.5 -15.5t-15 -15.5t-11 -11.5h-4q-9 12 -24 27
t-31 23v4q0 1 8 10.5t18 19.5l18.5 18.5t9.5 8.5h4zM347 -358q10 -5 27.5 -21t28.5 -31v-4q-6 -5 -13.5 -12.5l-15.5 -15.5t-15 -15.5t-11 -11.5h-4q-9 12 -24 27t-31 23v4q0 1 8 10.5t18 19.5l18.5 18.5t9.5 8.5h4z" />
    <glyph glyph-name="uniFC45" unicode="&#xfee3;&#xfe9e;" horiz-adv-x="606" arabic-form="isolated" 
d="M441 166q-40 0 -86 -7t-85 -22q-44 -17 -81 -43.5t-64.5 -61t-43 -76t-15.5 -88.5q0 -65 26 -118t76.5 -90.5t123.5 -58t168 -20.5q35 0 78 4t75 12q2 -2 2 -6q0 -7 -6 -11q-7 -4 -28 -14t-45 -20.5t-46.5 -20.5t-32.5 -14q-13 -5 -36 -8t-49 -3q-71 0 -137 19t-117 58.5
t-81.5 100.5t-30.5 145q0 68 27 126.5t66 105t83.5 80t80.5 51.5q-10 4 -26.5 8t-35.5 7t-38 4.5t-34 1.5q-31 0 -64 -6.5t-59 -19.5l-4 5q6 6 12 14.5t12 18t12 18.5t11 15l5 6q11 16 35.5 41t55 50t62 45t56.5 26q-16 15 -20 20t-4 9q0 1 5 14.5t12.5 28.5t14.5 27.5
t12 12.5q9 0 29.5 -12t41 -28t36 -31.5t15.5 -22.5q0 -6 -7 -17.5t-16.5 -23t-20 -19.5t-17.5 -8q-21 0 -49 -3.5t-57.5 -13t-57.5 -26t-50 -41.5h16q18 0 54 -7.5t78 -16.5t83.5 -16.5t70.5 -7.5q30 0 47.5 0.5t44.5 2.5l2 -3l-37 -75q-14 3 -48 3zM311 -109
q10 -5 27.5 -21t28.5 -31v-4q-6 -5 -13.5 -12.5l-15.5 -15.5t-15 -15.5t-11 -11.5h-4q-9 12 -24 27t-31 23v4q0 1 8 10.5t18 19.5l18.5 18.5t9.5 8.5h4z" />
    <glyph glyph-name="uniFC46" unicode="&#xfee3;&#xfea2;" horiz-adv-x="606" arabic-form="isolated" 
d="M441 166q-40 0 -86 -7t-85 -22q-44 -17 -81 -43.5t-64.5 -61t-43 -76t-15.5 -88.5q0 -65 26 -118t76.5 -90.5t123.5 -58t168 -20.5q35 0 78 4t75 12q2 -2 2 -6q0 -7 -6 -11q-7 -4 -28 -14t-45 -20.5t-46.5 -20.5t-32.5 -14q-13 -5 -36 -8t-49 -3q-71 0 -137 19t-117 58.5
t-81.5 100.5t-30.5 145q0 68 27 126.5t66 105t83.5 80t80.5 51.5q-10 4 -26.5 8t-35.5 7t-38 4.5t-34 1.5q-31 0 -64 -6.5t-59 -19.5l-4 5q6 6 12 14.5t12 18t12 18.5t11 15l5 6q11 16 35.5 41t55 50t62 45t56.5 26q-16 15 -20 20t-4 9q0 1 5 14.5t12.5 28.5t14.5 27.5
t12 12.5q9 0 29.5 -12t41 -28t36 -31.5t15.5 -22.5q0 -6 -7 -17.5t-16.5 -23t-20 -19.5t-17.5 -8q-21 0 -49 -3.5t-57.5 -13t-57.5 -26t-50 -41.5h16q18 0 54 -7.5t78 -16.5t83.5 -16.5t70.5 -7.5q30 0 47.5 0.5t44.5 2.5l2 -3l-37 -75q-14 3 -48 3z" />
    <glyph glyph-name="uniFC47" unicode="&#xfee3;&#xfea6;" horiz-adv-x="606" arabic-form="isolated" 
d="M441 166q-40 0 -86 -7t-85 -22q-44 -17 -81 -43.5t-64.5 -61t-43 -76t-15.5 -88.5q0 -65 26 -118t76.5 -90.5t123.5 -58t168 -20.5q35 0 78 4t75 12q2 -2 2 -6q0 -7 -6 -11q-7 -4 -28 -14t-45 -20.5t-46.5 -20.5t-32.5 -14q-13 -5 -36 -8t-49 -3q-71 0 -137 19t-117 58.5
t-81.5 100.5t-30.5 145q0 68 27 126.5t66 105t83.5 80t80.5 51.5q-10 4 -26.5 8t-35.5 7t-38 4.5t-34 1.5q-31 0 -64 -6.5t-59 -19.5l-4 5q6 6 12 14.5t12 18t12 18.5t11 15l5 6q11 16 35.5 41t55 50t62 45t56.5 26q-16 15 -20 20t-4 9q0 1 5 14.5t12.5 28.5t14.5 27.5
t12 12.5q9 0 29.5 -12t41 -28t36 -31.5t15.5 -22.5q0 -6 -7 -17.5t-16.5 -23t-20 -19.5t-17.5 -8q-21 0 -49 -3.5t-57.5 -13t-57.5 -26t-50 -41.5h16q18 0 54 -7.5t78 -16.5t83.5 -16.5t70.5 -7.5q30 0 47.5 0.5t44.5 2.5l2 -3l-37 -75q-14 3 -48 3zM99 586q10 -5 27.5 -21
t28.5 -31v-4q-6 -5 -13.5 -12.5l-15.5 -15.5t-15 -15.5t-11 -11.5h-4q-9 12 -24 27t-31 23v4q0 1 8 10.5t18 19.5l18.5 18.5t9.5 8.5h4z" />
    <glyph glyph-name="uniFC4B" unicode="&#xfee7;&#xfe9e;" horiz-adv-x="606" arabic-form="isolated" 
d="M441 166q-40 0 -86 -7t-85 -22q-44 -17 -81 -43.5t-64.5 -61t-43 -76t-15.5 -88.5q0 -65 26 -118t76.5 -90.5t123.5 -58t168 -20.5q35 0 78 4t75 12q2 -2 2 -6q0 -7 -6 -11q-7 -4 -28 -14t-45 -20.5t-46.5 -20.5t-32.5 -14q-13 -5 -36 -8t-49 -3q-71 0 -137 19t-117 58.5
t-81.5 100.5t-30.5 145q0 68 27 126.5t66 105t83.5 80t80.5 51.5q-10 4 -26.5 8t-35.5 7t-38 4.5t-34 1.5q-31 0 -64 -6.5t-59 -19.5l-4 5q6 6 12 14.5t12 18t12 18.5t11 15q20 26 64 32q46 11 83 32t66 46.5t50.5 52t36.5 48.5q18 26 34.5 42t33.5 16q12 0 21 -10.5
t14.5 -25.5t8 -32t2.5 -29q0 -3 -3 -12t-7.5 -19.5t-10.5 -21t-12 -17.5h-5q-4 28 -16.5 51.5t-31.5 23.5q-14 0 -26.5 -15.5t-28.5 -39t-38 -51t-55 -51.5q25 -5 52.5 -11t54.5 -11t52 -8.5t44 -3.5q30 0 47.5 0.5t44.5 2.5l2 -3l-37 -75q-14 3 -48 3zM259 -109
q10 -5 27.5 -21t28.5 -31v-4q-6 -5 -13.5 -12.5l-15.5 -15.5t-15 -15.5t-11 -11.5h-4q-9 12 -24 27t-31 23v4q0 1 8 10.5t18 19.5l18.5 18.5t9.5 8.5h4zM402 736q10 -5 27.5 -21t28.5 -31v-4q-6 -5 -13.5 -12.5l-15.5 -15.5t-15 -15.5t-11 -11.5h-4q-9 12 -24 27t-31 23v4
q0 1 8 10.5t18 19.5l18.5 18.5t9.5 8.5h4z" />
    <glyph glyph-name="uniFC4C" unicode="&#xfee7;&#xfea2;" horiz-adv-x="606" arabic-form="isolated" 
d="M441 166q-40 0 -86 -7t-85 -22q-44 -17 -81 -43.5t-64.5 -61t-43 -76t-15.5 -88.5q0 -65 26 -118t76.5 -90.5t123.5 -58t168 -20.5q35 0 78 4t75 12q2 -2 2 -6q0 -7 -6 -11q-7 -4 -28 -14t-45 -20.5t-46.5 -20.5t-32.5 -14q-13 -5 -36 -8t-49 -3q-71 0 -137 19t-117 58.5
t-81.5 100.5t-30.5 145q0 68 27 126.5t66 105t83.5 80t80.5 51.5q-10 4 -26.5 8t-35.5 7t-38 4.5t-34 1.5q-31 0 -64 -6.5t-59 -19.5l-4 5q6 6 12 14.5t12 18t12 18.5t11 15q20 26 64 32q46 11 83 32t66 46.5t50.5 52t36.5 48.5q18 26 34.5 42t33.5 16q12 0 21 -10.5
t14.5 -25.5t8 -32t2.5 -29q0 -3 -3 -12t-7.5 -19.5t-10.5 -21t-12 -17.5h-5q-4 28 -16.5 51.5t-31.5 23.5q-14 0 -26.5 -15.5t-28.5 -39t-38 -51t-55 -51.5q25 -5 52.5 -11t54.5 -11t52 -8.5t44 -3.5q30 0 47.5 0.5t44.5 2.5l2 -3l-37 -75q-14 3 -48 3zM402 736
q10 -5 27.5 -21t28.5 -31v-4q-6 -5 -13.5 -12.5l-15.5 -15.5t-15 -15.5t-11 -11.5h-4q-9 12 -24 27t-31 23v4q0 1 8 10.5t18 19.5l18.5 18.5t9.5 8.5h4z" />
    <glyph glyph-name="uniFC4D" unicode="&#xfee7;&#xfea6;" horiz-adv-x="606" arabic-form="isolated" 
d="M441 166q-40 0 -86 -7t-85 -22q-44 -17 -81 -43.5t-64.5 -61t-43 -76t-15.5 -88.5q0 -65 26 -118t76.5 -90.5t123.5 -58t168 -20.5q35 0 78 4t75 12q2 -2 2 -6q0 -7 -6 -11q-7 -4 -28 -14t-45 -20.5t-46.5 -20.5t-32.5 -14q-13 -5 -36 -8t-49 -3q-71 0 -137 19t-117 58.5
t-81.5 100.5t-30.5 145q0 68 27 126.5t66 105t83.5 80t80.5 51.5q-10 4 -26.5 8t-35.5 7t-38 4.5t-34 1.5q-31 0 -64 -6.5t-59 -19.5l-4 5q6 6 12 14.5t12 18t12 18.5t11 15q20 26 64 32q46 11 83 32t66 46.5t50.5 52t36.5 48.5q18 26 34.5 42t33.5 16q12 0 21 -10.5
t14.5 -25.5t8 -32t2.5 -29q0 -3 -3 -12t-7.5 -19.5t-10.5 -21t-12 -17.5h-5q-4 28 -16.5 51.5t-31.5 23.5q-14 0 -26.5 -15.5t-28.5 -39t-38 -51t-55 -51.5q25 -5 52.5 -11t54.5 -11t52 -8.5t44 -3.5q30 0 47.5 0.5t44.5 2.5l2 -3l-37 -75q-14 3 -48 3zM123 586
q10 -5 27.5 -21t28.5 -31v-4q-6 -5 -13.5 -12.5l-15.5 -15.5t-15 -15.5t-11 -11.5h-4q-9 12 -24 27t-31 23v4q0 1 8 10.5t18 19.5l18.5 18.5t9.5 8.5h4zM402 736q10 -5 27.5 -21t28.5 -31v-4q-6 -5 -13.5 -12.5l-15.5 -15.5t-15 -15.5t-11 -11.5h-4q-9 12 -24 27t-31 23v4
q0 1 8 10.5t18 19.5l18.5 18.5t9.5 8.5h4z" />
    <glyph glyph-name="uniFC4F" unicode="&#xfee7;&#xfef0;" horiz-adv-x="684" arabic-form="isolated" 
d="M496 180q26 -9 51 -21t44.5 -27.5t31 -34t11.5 -39.5q0 -15 -10.5 -40t-32.5 -53.5t-55 -57t-77.5 -52t-101.5 -38t-126 -14.5q-57 0 -96.5 11t-65 29.5t-39.5 42t-20.5 48t-8 48t-1.5 41.5q0 27 5.5 55t12.5 51.5t14 39.5t11 20q2 2 4 2q5 0 10 -5q-8 -20 -13.5 -51.5
t-5.5 -64.5q0 -30 12 -60t38.5 -54t69 -39t102.5 -15q63 0 119.5 12t99.5 29.5t68 37.5t25 37q0 18 -22.5 36.5t-58 35t-78 30.5t-81.5 22q11 24 25.5 41t27.5 19q37 7 66.5 18.5t50.5 24.5t32 27t11 27q0 15 -8.5 40.5t-40.5 65.5q-6 7 -6 17q0 9 4 16l39 75h4
q25 -46 37 -92.5t12 -86.5q0 -45 -26.5 -86t-63.5 -68zM482 686q10 -5 27.5 -21t28.5 -31v-4q-6 -5 -13.5 -12.5l-15.5 -15.5t-15 -15.5t-11 -11.5h-4q-9 12 -24 27t-31 23v4q0 1 8 10.5t18 19.5l18.5 18.5t9.5 8.5h4z" />
    <glyph glyph-name="uniFC50" unicode="&#xfee7;&#xfef2;" horiz-adv-x="684" arabic-form="isolated" 
d="M496 180q26 -9 51 -21t44.5 -27.5t31 -34t11.5 -39.5q0 -15 -10.5 -40t-32.5 -53.5t-55 -57t-77.5 -52t-101.5 -38t-126 -14.5q-57 0 -96.5 11t-65 29.5t-39.5 42t-20.5 48t-8 48t-1.5 41.5q0 27 5.5 55t12.5 51.5t14 39.5t11 20q2 2 4 2q5 0 10 -5q-8 -20 -13.5 -51.5
t-5.5 -64.5q0 -30 12 -60t38.5 -54t69 -39t102.5 -15q63 0 119.5 12t99.5 29.5t68 37.5t25 37q0 18 -22.5 36.5t-58 35t-78 30.5t-81.5 22q11 24 25.5 41t27.5 19q37 7 66.5 18.5t50.5 24.5t32 27t11 27q0 15 -8.5 40.5t-40.5 65.5q-6 7 -6 17q0 9 4 16l39 75h4
q25 -46 37 -92.5t12 -86.5q0 -45 -26.5 -86t-63.5 -68zM475 686q10 -5 27.5 -21t28.5 -31v-4q-6 -5 -13.5 -12.5l-15.5 -15.5t-15 -15.5t-11 -11.5h-4q-9 12 -24 27t-31 23v4q0 1 8 10.5t18 19.5l18.5 18.5t9.5 8.5h4zM150 -308q10 -5 27.5 -21t28.5 -31v-4
q-6 -5 -13.5 -12.5l-15.5 -15.5t-15 -15.5t-11 -11.5h-4q-9 12 -24 27t-31 23v4q0 1 8 10.5t18 19.5l18.5 18.5t9.5 8.5h4zM273 -308q10 -5 27.5 -21t28.5 -31v-4q-6 -5 -13.5 -12.5l-15.5 -15.5t-15 -15.5t-11 -11.5h-4q-9 12 -24 27t-31 23v4q0 1 8 10.5t18 19.5
l18.5 18.5t9.5 8.5h4z" />
    <glyph glyph-name="uniFC55" unicode="&#xfef3;&#xfe9e;" horiz-adv-x="606" arabic-form="isolated" 
d="M441 166q-40 0 -86 -7t-85 -22q-44 -17 -81 -43.5t-64.5 -61t-43 -76t-15.5 -88.5q0 -65 26 -118t76.5 -90.5t123.5 -58t168 -20.5q35 0 78 4t75 12q2 -2 2 -6q0 -7 -6 -11q-7 -4 -28 -14t-45 -20.5t-46.5 -20.5t-32.5 -14q-13 -5 -36 -8t-49 -3q-71 0 -137 19t-117 58.5
t-81.5 100.5t-30.5 145q0 68 27 126.5t66 105t83.5 80t80.5 51.5q-10 4 -26.5 8t-35.5 7t-38 4.5t-34 1.5q-31 0 -64 -6.5t-59 -19.5l-4 5q6 6 12 14.5t12 18t12 18.5t11 15q20 26 64 32q46 11 83 32t66 46.5t50.5 52t36.5 48.5q18 26 34.5 42t33.5 16q12 0 21 -10.5
t14.5 -25.5t8 -32t2.5 -29q0 -3 -3 -12t-7.5 -19.5t-10.5 -21t-12 -17.5h-5q-4 28 -16.5 51.5t-31.5 23.5q-14 0 -26.5 -15.5t-28.5 -39t-38 -51t-55 -51.5q25 -5 52.5 -11t54.5 -11t52 -8.5t44 -3.5q30 0 47.5 0.5t44.5 2.5l2 -3l-37 -75q-14 3 -48 3zM373 41
q10 -5 27.5 -21t28.5 -31v-4q-6 -5 -13.5 -12.5l-15.5 -15.5t-15 -15.5t-11 -11.5h-4q-9 12 -24 27t-31 23v4q0 1 8 10.5t18 19.5l18.5 18.5t9.5 8.5h4zM496 41q10 -5 27.5 -21t28.5 -31v-4q-6 -5 -13.5 -12.5l-15.5 -15.5t-15 -15.5t-11 -11.5h-4q-9 12 -24 27t-31 23v4
q0 1 8 10.5t18 19.5l18.5 18.5t9.5 8.5h4zM259 -109q10 -5 27.5 -21t28.5 -31v-4q-6 -5 -13.5 -12.5l-15.5 -15.5t-15 -15.5t-11 -11.5h-4q-9 12 -24 27t-31 23v4q0 1 8 10.5t18 19.5l18.5 18.5t9.5 8.5h4z" />
    <glyph glyph-name="uniFC56" unicode="&#xfef3;&#xfea2;" horiz-adv-x="606" arabic-form="isolated" 
d="M441 166q-40 0 -86 -7t-85 -22q-44 -17 -81 -43.5t-64.5 -61t-43 -76t-15.5 -88.5q0 -65 26 -118t76.5 -90.5t123.5 -58t168 -20.5q35 0 78 4t75 12q2 -2 2 -6q0 -7 -6 -11q-7 -4 -28 -14t-45 -20.5t-46.5 -20.5t-32.5 -14q-13 -5 -36 -8t-49 -3q-71 0 -137 19t-117 58.5
t-81.5 100.5t-30.5 145q0 68 27 126.5t66 105t83.5 80t80.5 51.5q-10 4 -26.5 8t-35.5 7t-38 4.5t-34 1.5q-31 0 -64 -6.5t-59 -19.5l-4 5q6 6 12 14.5t12 18t12 18.5t11 15q20 26 64 32q46 11 83 32t66 46.5t50.5 52t36.5 48.5q18 26 34.5 42t33.5 16q12 0 21 -10.5
t14.5 -25.5t8 -32t2.5 -29q0 -3 -3 -12t-7.5 -19.5t-10.5 -21t-12 -17.5h-5q-4 28 -16.5 51.5t-31.5 23.5q-14 0 -26.5 -15.5t-28.5 -39t-38 -51t-55 -51.5q25 -5 52.5 -11t54.5 -11t52 -8.5t44 -3.5q30 0 47.5 0.5t44.5 2.5l2 -3l-37 -75q-14 3 -48 3zM373 41
q10 -5 27.5 -21t28.5 -31v-4q-6 -5 -13.5 -12.5l-15.5 -15.5t-15 -15.5t-11 -11.5h-4q-9 12 -24 27t-31 23v4q0 1 8 10.5t18 19.5l18.5 18.5t9.5 8.5h4zM496 41q10 -5 27.5 -21t28.5 -31v-4q-6 -5 -13.5 -12.5l-15.5 -15.5t-15 -15.5t-11 -11.5h-4q-9 12 -24 27t-31 23v4
q0 1 8 10.5t18 19.5l18.5 18.5t9.5 8.5h4z" />
    <glyph glyph-name="uniFC57" unicode="&#xfef3;&#xfea6;" horiz-adv-x="606" arabic-form="isolated" 
d="M441 166q-40 0 -86 -7t-85 -22q-44 -17 -81 -43.5t-64.5 -61t-43 -76t-15.5 -88.5q0 -65 26 -118t76.5 -90.5t123.5 -58t168 -20.5q35 0 78 4t75 12q2 -2 2 -6q0 -7 -6 -11q-7 -4 -28 -14t-45 -20.5t-46.5 -20.5t-32.5 -14q-13 -5 -36 -8t-49 -3q-71 0 -137 19t-117 58.5
t-81.5 100.5t-30.5 145q0 68 27 126.5t66 105t83.5 80t80.5 51.5q-10 4 -26.5 8t-35.5 7t-38 4.5t-34 1.5q-31 0 -64 -6.5t-59 -19.5l-4 5q6 6 12 14.5t12 18t12 18.5t11 15q20 26 64 32q46 11 83 32t66 46.5t50.5 52t36.5 48.5q18 26 34.5 42t33.5 16q12 0 21 -10.5
t14.5 -25.5t8 -32t2.5 -29q0 -3 -3 -12t-7.5 -19.5t-10.5 -21t-12 -17.5h-5q-4 28 -16.5 51.5t-31.5 23.5q-14 0 -26.5 -15.5t-28.5 -39t-38 -51t-55 -51.5q25 -5 52.5 -11t54.5 -11t52 -8.5t44 -3.5q30 0 47.5 0.5t44.5 2.5l2 -3l-37 -75q-14 3 -48 3zM373 41
q10 -5 27.5 -21t28.5 -31v-4q-6 -5 -13.5 -12.5l-15.5 -15.5t-15 -15.5t-11 -11.5h-4q-9 12 -24 27t-31 23v4q0 1 8 10.5t18 19.5l18.5 18.5t9.5 8.5h4zM496 41q10 -5 27.5 -21t28.5 -31v-4q-6 -5 -13.5 -12.5l-15.5 -15.5t-15 -15.5t-11 -11.5h-4q-9 12 -24 27t-31 23v4
q0 1 8 10.5t18 19.5l18.5 18.5t9.5 8.5h4zM123 586q10 -5 27.5 -21t28.5 -31v-4q-6 -5 -13.5 -12.5l-15.5 -15.5t-15 -15.5t-11 -11.5h-4q-9 12 -24 27t-31 23v4q0 1 8 10.5t18 19.5l18.5 18.5t9.5 8.5h4z" />
    <glyph glyph-name="uniFC59" unicode="&#xfef3;&#xfef0;" horiz-adv-x="684" arabic-form="isolated" 
d="M470 -208q10 -5 27.5 -21t28.5 -31v-4q-6 -5 -13.5 -12.5l-15.5 -15.5t-15 -15.5t-11 -11.5h-4q-9 12 -24 27t-31 23v4q0 1 8 10.5t18 19.5l18.5 18.5t9.5 8.5h4zM593 -208q10 -5 27.5 -21t28.5 -31v-4q-6 -5 -13.5 -12.5l-15.5 -15.5t-15 -15.5t-11 -11.5h-4
q-9 12 -24 27t-31 23v4q0 1 8 10.5t18 19.5l18.5 18.5t9.5 8.5h4zM496 180q26 -9 51 -21t44.5 -27.5t31 -34t11.5 -39.5q0 -15 -10.5 -40t-32.5 -53.5t-55 -57t-77.5 -52t-101.5 -38t-126 -14.5q-57 0 -96.5 11t-65 29.5t-39.5 42t-20.5 48t-8 48t-1.5 41.5q0 27 5.5 55
t12.5 51.5t14 39.5t11 20q2 2 4 2q5 0 10 -5q-8 -20 -13.5 -51.5t-5.5 -64.5q0 -30 12 -60t38.5 -54t69 -39t102.5 -15q63 0 119.5 12t99.5 29.5t68 37.5t25 37q0 18 -22.5 36.5t-58 35t-78 30.5t-81.5 22q11 24 25.5 41t27.5 19q37 7 66.5 18.5t50.5 24.5t32 27t11 27
q0 15 -8.5 40.5t-40.5 65.5q-6 7 -6 17q0 9 4 16l39 75h4q25 -46 37 -92.5t12 -86.5q0 -45 -26.5 -86t-63.5 -68z" />
    <glyph glyph-name="uniFC5A" unicode="&#xfef3;&#xfef2;" horiz-adv-x="684" arabic-form="isolated" 
d="M496 180q26 -9 51 -21t44.5 -27.5t31 -34t11.5 -39.5q0 -15 -10.5 -40t-32.5 -53.5t-55 -57t-77.5 -52t-101.5 -38t-126 -14.5q-57 0 -96.5 11t-65 29.5t-39.5 42t-20.5 48t-8 48t-1.5 41.5q0 27 5.5 55t12.5 51.5t14 39.5t11 20q2 2 4 2q5 0 10 -5q-8 -20 -13.5 -51.5
t-5.5 -64.5q0 -30 12 -60t38.5 -54t69 -39t102.5 -15q63 0 119.5 12t99.5 29.5t68 37.5t25 37q0 18 -22.5 36.5t-58 35t-78 30.5t-81.5 22q11 24 25.5 41t27.5 19q37 7 66.5 18.5t50.5 24.5t32 27t11 27q0 15 -8.5 40.5t-40.5 65.5q-6 7 -6 17q0 9 4 16l39 75h4
q25 -46 37 -92.5t12 -86.5q0 -45 -26.5 -86t-63.5 -68zM150 -308q10 -5 27.5 -21t28.5 -31v-4q-6 -5 -13.5 -12.5l-15.5 -15.5t-15 -15.5t-11 -11.5h-4q-9 12 -24 27t-31 23v4q0 1 8 10.5t18 19.5l18.5 18.5t9.5 8.5h4zM273 -308q10 -5 27.5 -21t28.5 -31v-4
q-6 -5 -13.5 -12.5l-15.5 -15.5t-15 -15.5t-11 -11.5h-4q-9 12 -24 27t-31 23v4q0 1 8 10.5t18 19.5l18.5 18.5t9.5 8.5h4zM463 -208q10 -5 27.5 -21t28.5 -31v-4q-6 -5 -13.5 -12.5l-15.5 -15.5t-15 -15.5t-11 -11.5h-4q-9 12 -24 27t-31 23v4q0 1 8 10.5t18 19.5
l18.5 18.5t9.5 8.5h4zM586 -208q10 -5 27.5 -21t28.5 -31v-4q-6 -5 -13.5 -12.5l-15.5 -15.5t-15 -15.5t-11 -11.5h-4q-9 12 -24 27t-31 23v4q0 1 8 10.5t18 19.5l18.5 18.5t9.5 8.5h4z" />
    <glyph glyph-name="uniFC64" unicode="&#xfe8c;&#xfeae;" horiz-adv-x="519" arabic-form="final" 
d="M235 80q8 -12 16 -39t8 -55q0 -87 -21.5 -146.5t-51.5 -96.5t-61 -53.5t-50 -16.5q-25 0 -53.5 5t-53.5 12q-14 4 -29 8.5t-29 9.5l1 6q80 2 138.5 24t96.5 56t56.5 75.5t18.5 82.5q0 37 -18.5 65.5t-66.5 55.5q31 82 40 84q17 4 38 7.5t45 8.5q32 7 54 12.5t37 11
t24.5 11t17.5 13.5q10 9 16 19t12 16q2 2 4 2t4 -1.5t3 -2.5q-5 -8 -9 -26t-4 -34q0 -21 5.5 -41t18.5 -35t34 -24.5t53 -9.5q15 0 20.5 -9.5t5.5 -30.5v-5q0 -23 -12.5 -31t-33.5 -8q-23 0 -45.5 6t-42 20.5t-33 38.5t-17.5 59zM473 401q-30 -9 -60.5 -22t-55.5 -24
l-56 -28q0 8 2.5 23.5t14.5 22.5l26 14q-12 5 -21.5 15t-9.5 28q0 13 9.5 32.5t25 36.5t35.5 29.5t41 12.5q11 0 22 -5t11 -18q0 -16 -9 -29q-14 12 -42 12q-9 0 -18.5 -2.5t-17.5 -8t-13.5 -14.5t-5.5 -21q0 -20 15 -28.5t35 -8.5q23 0 39 5t33 13l3 -1z" />
    <glyph glyph-name="uniFC65" unicode="&#xfe8c;&#xfeb0;" horiz-adv-x="519" arabic-form="final" 
d="M235 80q8 -12 16 -39t8 -55q0 -87 -21.5 -146.5t-51.5 -96.5t-61 -53.5t-50 -16.5q-25 0 -53.5 5t-53.5 12q-14 4 -29 8.5t-29 9.5l1 6q80 2 138.5 24t96.5 56t56.5 75.5t18.5 82.5q0 37 -18.5 65.5t-66.5 55.5q31 82 40 84q17 4 38 7.5t45 8.5q32 7 54 12.5t37 11
t24.5 11t17.5 13.5q10 9 16 19t12 16q2 2 4 2t4 -1.5t3 -2.5q-5 -8 -9 -26t-4 -34q0 -21 5.5 -41t18.5 -35t34 -24.5t53 -9.5q15 0 20.5 -9.5t5.5 -30.5v-5q0 -23 -12.5 -31t-33.5 -8q-23 0 -45.5 6t-42 20.5t-33 38.5t-17.5 59zM140 487q10 -5 27.5 -21t28.5 -31v-4
q-6 -5 -13.5 -12.5l-15.5 -15.5t-15 -15.5t-11 -11.5h-4q-9 12 -24 27t-31 23v4q0 1 8 10.5t18 19.5l18.5 18.5t9.5 8.5h4zM473 401q-30 -9 -60.5 -22t-55.5 -24l-56 -28q0 8 2.5 23.5t14.5 22.5l26 14q-12 5 -21.5 15t-9.5 28q0 13 9.5 32.5t25 36.5t35.5 29.5t41 12.5
q11 0 22 -5t11 -18q0 -16 -9 -29q-14 12 -42 12q-9 0 -18.5 -2.5t-17.5 -8t-13.5 -14.5t-5.5 -21q0 -20 15 -28.5t35 -8.5q23 0 39 5t33 13l3 -1z" />
    <glyph glyph-name="uniFC67" unicode="&#xfe8c;&#xfee6;" horiz-adv-x="726" arabic-form="final" 
d="M424 281q10 -20 19.5 -44.5t17.5 -50.5q15 -4 45 -4q33 0 54 11t39 28q10 9 16 19t12 16q2 2 4 2t4 -1.5t3 -2.5q-5 -8 -9 -26t-4 -34q0 -21 5.5 -41t18.5 -35t34 -24.5t53 -9.5q15 0 20.5 -9.5t5.5 -30.5v-5q0 -23 -12.5 -31t-33.5 -8q-23 0 -47 7t-44 23.5t-33.5 43.5
t-14.5 68q-23 -22 -49 -30.5t-49 -9.5q1 -8 1.5 -14.5t0.5 -12.5q0 -35 -17 -76.5t-42 -74.5q-15 -20 -36 -41t-49 -38.5t-64 -28.5t-81 -11q-88 0 -140 49t-52 143q0 20 3.5 43t9 45.5t13 42.5t16.5 35q3 4 4 4q2 0 4 -2l3 -3q-2 -3 -4.5 -15t-5 -27.5t-4.5 -33t-2 -32.5
q0 -24 8.5 -52t27 -51t49.5 -38.5t76 -15.5q61 0 106 17t74 40t43.5 48t14.5 42q0 41 -15.5 70t-34.5 55q-10 13 -10 22l5 15l39 75h4zM222 487q10 -5 27.5 -21t28.5 -31v-4q-6 -5 -13.5 -12.5l-15.5 -15.5t-15 -15.5t-11 -11.5h-4q-9 12 -24 27t-31 23v4q0 1 8 10.5
t18 19.5l18.5 18.5t9.5 8.5h4zM699 412q-30 -9 -60.5 -22t-55.5 -24l-56 -28q0 8 2.5 23.5t14.5 22.5l26 14q-12 5 -21.5 15t-9.5 28q0 13 9.5 32.5t25 36.5t35.5 29.5t41 12.5q11 0 22 -5t11 -18q0 -16 -9 -29q-14 12 -42 12q-9 0 -18.5 -2.5t-17.5 -8t-13.5 -14.5
t-5.5 -21q0 -20 15 -28.5t35 -8.5q23 0 39 5t33 13l3 -1z" />
    <glyph glyph-name="uniFC69" unicode="&#xfe8c;&#xfef2;" horiz-adv-x="751" arabic-form="final" 
d="M639 -85q0 -15 -11 -40t-33 -54t-56 -58.5t-79 -53t-102.5 -38.5t-126.5 -15q-57 0 -96.5 11t-65 29.5t-39.5 42t-20.5 48t-8 48t-1.5 41.5q0 27 5.5 55t12.5 51.5t14 39.5t11 20q2 2 4 2q5 0 10 -5q-8 -20 -13.5 -51.5t-5.5 -64.5q0 -30 12 -60t38.5 -54t69 -39
t102.5 -15q63 0 119.5 12t99.5 29.5t68 37.5t25 37q0 7 -7 13.5t-18 12t-25 10.5t-27 9q-44 12 -58.5 25t-14.5 37q0 30 13.5 67t35.5 69.5t51 54.5t61 22q26 0 45.5 -16.5t39 -37t41.5 -37t52 -16.5q15 0 20.5 -9.5t5.5 -30.5v-5q0 -23 -12.5 -31t-33.5 -8
q-26 0 -46.5 17.5t-40 38t-41 38t-50.5 17.5q-15 0 -32 -7.5t-32 -19.5t-25 -27t-10 -30q0 -9 13 -16.5t32.5 -14.5t42 -14.5t42 -17t32.5 -21.5t13 -28zM183 -408q10 -5 27.5 -21t28.5 -31v-4q-6 -5 -13.5 -12.5l-15.5 -15.5t-15 -15.5t-11 -11.5h-4q-9 12 -24 27t-31 23v4
q0 1 8 10.5t18 19.5l18.5 18.5t9.5 8.5h4zM306 -408q10 -5 27.5 -21t28.5 -31v-4q-6 -5 -13.5 -12.5l-15.5 -15.5t-15 -15.5t-11 -11.5h-4q-9 12 -24 27t-31 23v4q0 1 8 10.5t18 19.5l18.5 18.5t9.5 8.5h4zM634 328q-30 -9 -60.5 -22t-55.5 -24l-56 -28q0 8 2.5 23.5
t14.5 22.5l26 14q-12 5 -21.5 15t-9.5 28q0 13 9.5 32.5t25 36.5t35.5 29.5t41 12.5q11 0 22 -5t11 -18q0 -16 -9 -29q-14 12 -42 12q-9 0 -18.5 -2.5t-17.5 -8t-13.5 -14.5t-5.5 -21q0 -20 15 -28.5t35 -8.5q23 0 39 5t33 13l3 -1z" />
    <glyph glyph-name="uniFC6A" unicode="&#xfe92;&#xfeae;" horiz-adv-x="519" arabic-form="final" 
d="M235 80q8 -12 16 -39t8 -55q0 -87 -21.5 -146.5t-51.5 -96.5t-61 -53.5t-50 -16.5q-25 0 -53.5 5t-53.5 12q-14 4 -29 8.5t-29 9.5l1 6q80 2 138.5 24t96.5 56t56.5 75.5t18.5 82.5q0 37 -18.5 65.5t-66.5 55.5q31 82 40 84q17 4 38 7.5t45 8.5q32 7 54 12.5t37 11
t24.5 11t17.5 13.5q10 9 16 19t12 16q2 2 4 2t4 -1.5t3 -2.5q-5 -8 -9 -26t-4 -34q0 -21 5.5 -41t18.5 -35t34 -24.5t53 -9.5q15 0 20.5 -9.5t5.5 -30.5v-5q0 -23 -12.5 -31t-33.5 -8q-23 0 -45.5 6t-42 20.5t-33 38.5t-17.5 59zM390 -109q10 -5 27.5 -21t28.5 -31v-4
q-6 -5 -13.5 -12.5l-15.5 -15.5t-15 -15.5t-11 -11.5h-4q-9 12 -24 27t-31 23v4q0 1 8 10.5t18 19.5l18.5 18.5t9.5 8.5h4z" />
    <glyph glyph-name="uniFC6B" unicode="&#xfe92;&#xfeb0;" horiz-adv-x="519" arabic-form="final" 
d="M235 80q8 -12 16 -39t8 -55q0 -87 -21.5 -146.5t-51.5 -96.5t-61 -53.5t-50 -16.5q-25 0 -53.5 5t-53.5 12q-14 4 -29 8.5t-29 9.5l1 6q80 2 138.5 24t96.5 56t56.5 75.5t18.5 82.5q0 37 -18.5 65.5t-66.5 55.5q31 82 40 84q17 4 38 7.5t45 8.5q32 7 54 12.5t37 11
t24.5 11t17.5 13.5q10 9 16 19t12 16q2 2 4 2t4 -1.5t3 -2.5q-5 -8 -9 -26t-4 -34q0 -21 5.5 -41t18.5 -35t34 -24.5t53 -9.5q15 0 20.5 -9.5t5.5 -30.5v-5q0 -23 -12.5 -31t-33.5 -8q-23 0 -45.5 6t-42 20.5t-33 38.5t-17.5 59zM363 -109q10 -5 27.5 -21t28.5 -31v-4
q-6 -5 -13.5 -12.5l-15.5 -15.5t-15 -15.5t-11 -11.5h-4q-9 12 -24 27t-31 23v4q0 1 8 10.5t18 19.5l18.5 18.5t9.5 8.5h4zM140 487q10 -5 27.5 -21t28.5 -31v-4q-6 -5 -13.5 -12.5l-15.5 -15.5t-15 -15.5t-11 -11.5h-4q-9 12 -24 27t-31 23v4q0 1 8 10.5t18 19.5l18.5 18.5
t9.5 8.5h4z" />
    <glyph glyph-name="uniFC6D" unicode="&#xfe92;&#xfee6;" horiz-adv-x="726" arabic-form="final" 
d="M424 281q10 -20 19.5 -44.5t17.5 -50.5q15 -4 45 -4q33 0 54 11t39 28q10 9 16 19t12 16q2 2 4 2t4 -1.5t3 -2.5q-5 -8 -9 -26t-4 -34q0 -21 5.5 -41t18.5 -35t34 -24.5t53 -9.5q15 0 20.5 -9.5t5.5 -30.5v-5q0 -23 -12.5 -31t-33.5 -8q-23 0 -47 7t-44 23.5t-33.5 43.5
t-14.5 68q-23 -22 -49 -30.5t-49 -9.5q1 -8 1.5 -14.5t0.5 -12.5q0 -35 -17 -76.5t-42 -74.5q-15 -20 -36 -41t-49 -38.5t-64 -28.5t-81 -11q-88 0 -140 49t-52 143q0 20 3.5 43t9 45.5t13 42.5t16.5 35q3 4 4 4q2 0 4 -2l3 -3q-2 -3 -4.5 -15t-5 -27.5t-4.5 -33t-2 -32.5
q0 -24 8.5 -52t27 -51t49.5 -38.5t76 -15.5q61 0 106 17t74 40t43.5 48t14.5 42q0 41 -15.5 70t-34.5 55q-10 13 -10 22l5 15l39 75h4zM551 -109q10 -5 27.5 -21t28.5 -31v-4q-6 -5 -13.5 -12.5l-15.5 -15.5t-15 -15.5t-11 -11.5h-4q-9 12 -24 27t-31 23v4q0 1 8 10.5
t18 19.5l18.5 18.5t9.5 8.5h4zM209 487q10 -5 27.5 -21t28.5 -31v-4q-6 -5 -13.5 -12.5l-15.5 -15.5t-15 -15.5t-11 -11.5h-4q-9 12 -24 27t-31 23v4q0 1 8 10.5t18 19.5l18.5 18.5t9.5 8.5h4z" />
    <glyph glyph-name="uniFC6E" unicode="&#xfe92;&#xfef0;" horiz-adv-x="751" arabic-form="final" 
d="M639 -85q0 -15 -11 -40t-33 -54t-56 -58.5t-79 -53t-102.5 -38.5t-126.5 -15q-57 0 -96.5 11t-65 29.5t-39.5 42t-20.5 48t-8 48t-1.5 41.5q0 27 5.5 55t12.5 51.5t14 39.5t11 20q2 2 4 2q5 0 10 -5q-8 -20 -13.5 -51.5t-5.5 -64.5q0 -30 12 -60t38.5 -54t69 -39
t102.5 -15q63 0 119.5 12t99.5 29.5t68 37.5t25 37q0 7 -7 13.5t-18 12t-25 10.5t-27 9q-44 12 -58.5 25t-14.5 37q0 30 13.5 67t35.5 69.5t51 54.5t61 22q26 0 45.5 -16.5t39 -37t41.5 -37t52 -16.5q15 0 20.5 -9.5t5.5 -30.5v-5q0 -23 -12.5 -31t-33.5 -8
q-26 0 -46.5 17.5t-40 38t-41 38t-50.5 17.5q-15 0 -32 -7.5t-32 -19.5t-25 -27t-10 -30q0 -9 13 -16.5t32.5 -14.5t42 -14.5t42 -17t32.5 -21.5t13 -28zM648 -240q10 -5 27.5 -21t28.5 -31v-4q-6 -5 -13.5 -12.5l-15.5 -15.5t-15 -15.5t-11 -11.5h-4q-9 12 -24 27t-31 23v4
q0 1 8 10.5t18 19.5l18.5 18.5t9.5 8.5h4z" />
    <glyph glyph-name="uniFC6F" unicode="&#xfe92;&#xfef2;" horiz-adv-x="751" arabic-form="final" 
d="M639 -85q0 -15 -11 -40t-33 -54t-56 -58.5t-79 -53t-102.5 -38.5t-126.5 -15q-57 0 -96.5 11t-65 29.5t-39.5 42t-20.5 48t-8 48t-1.5 41.5q0 27 5.5 55t12.5 51.5t14 39.5t11 20q2 2 4 2q5 0 10 -5q-8 -20 -13.5 -51.5t-5.5 -64.5q0 -30 12 -60t38.5 -54t69 -39
t102.5 -15q63 0 119.5 12t99.5 29.5t68 37.5t25 37q0 7 -7 13.5t-18 12t-25 10.5t-27 9q-44 12 -58.5 25t-14.5 37q0 30 13.5 67t35.5 69.5t51 54.5t61 22q26 0 45.5 -16.5t39 -37t41.5 -37t52 -16.5q15 0 20.5 -9.5t5.5 -30.5v-5q0 -23 -12.5 -31t-33.5 -8
q-26 0 -46.5 17.5t-40 38t-41 38t-50.5 17.5q-15 0 -32 -7.5t-32 -19.5t-25 -27t-10 -30q0 -9 13 -16.5t32.5 -14.5t42 -14.5t42 -17t32.5 -21.5t13 -28zM183 -408q10 -5 27.5 -21t28.5 -31v-4q-6 -5 -13.5 -12.5l-15.5 -15.5t-15 -15.5t-11 -11.5h-4q-9 12 -24 27t-31 23v4
q0 1 8 10.5t18 19.5l18.5 18.5t9.5 8.5h4zM306 -408q10 -5 27.5 -21t28.5 -31v-4q-6 -5 -13.5 -12.5l-15.5 -15.5t-15 -15.5t-11 -11.5h-4q-9 12 -24 27t-31 23v4q0 1 8 10.5t18 19.5l18.5 18.5t9.5 8.5h4zM675 -240q10 -5 27.5 -21t28.5 -31v-4q-6 -5 -13.5 -12.5
l-15.5 -15.5t-15 -15.5t-11 -11.5h-4q-9 12 -24 27t-31 23v4q0 1 8 10.5t18 19.5l18.5 18.5t9.5 8.5h4z" />
    <glyph glyph-name="uniFC70" unicode="&#xfe98;&#xfeae;" horiz-adv-x="519" arabic-form="final" 
d="M235 80q8 -12 16 -39t8 -55q0 -87 -21.5 -146.5t-51.5 -96.5t-61 -53.5t-50 -16.5q-25 0 -53.5 5t-53.5 12q-14 4 -29 8.5t-29 9.5l1 6q80 2 138.5 24t96.5 56t56.5 75.5t18.5 82.5q0 37 -18.5 65.5t-66.5 55.5q31 82 40 84q17 4 38 7.5t45 8.5q32 7 54 12.5t37 11
t24.5 11t17.5 13.5q10 9 16 19t12 16q2 2 4 2t4 -1.5t3 -2.5q-5 -8 -9 -26t-4 -34q0 -21 5.5 -41t18.5 -35t34 -24.5t53 -9.5q15 0 20.5 -9.5t5.5 -30.5v-5q0 -23 -12.5 -31t-33.5 -8q-23 0 -45.5 6t-42 20.5t-33 38.5t-17.5 59zM338 586q10 -5 27.5 -21t28.5 -31v-4
q-6 -5 -13.5 -12.5l-15.5 -15.5t-15 -15.5t-11 -11.5h-4q-9 12 -24 27t-31 23v4q0 1 8 10.5t18 19.5l18.5 18.5t9.5 8.5h4zM461 586q10 -5 27.5 -21t28.5 -31v-4q-6 -5 -13.5 -12.5l-15.5 -15.5t-15 -15.5t-11 -11.5h-4q-9 12 -24 27t-31 23v4q0 1 8 10.5t18 19.5l18.5 18.5
t9.5 8.5h4z" />
    <glyph glyph-name="uniFC71" unicode="&#xfe98;&#xfeb0;" horiz-adv-x="519" arabic-form="final" 
d="M235 80q8 -12 16 -39t8 -55q0 -87 -21.5 -146.5t-51.5 -96.5t-61 -53.5t-50 -16.5q-25 0 -53.5 5t-53.5 12q-14 4 -29 8.5t-29 9.5l1 6q80 2 138.5 24t96.5 56t56.5 75.5t18.5 82.5q0 37 -18.5 65.5t-66.5 55.5q31 82 40 84q17 4 38 7.5t45 8.5q32 7 54 12.5t37 11
t24.5 11t17.5 13.5q10 9 16 19t12 16q2 2 4 2t4 -1.5t3 -2.5q-5 -8 -9 -26t-4 -34q0 -21 5.5 -41t18.5 -35t34 -24.5t53 -9.5q15 0 20.5 -9.5t5.5 -30.5v-5q0 -23 -12.5 -31t-33.5 -8q-23 0 -45.5 6t-42 20.5t-33 38.5t-17.5 59zM146 487q10 -5 27.5 -21t28.5 -31v-4
q-6 -5 -13.5 -12.5l-15.5 -15.5t-15 -15.5t-11 -11.5h-4q-9 12 -24 27t-31 23v4q0 1 8 10.5t18 19.5l18.5 18.5t9.5 8.5h4zM338 586q10 -5 27.5 -21t28.5 -31v-4q-6 -5 -13.5 -12.5l-15.5 -15.5t-15 -15.5t-11 -11.5h-4q-9 12 -24 27t-31 23v4q0 1 8 10.5t18 19.5l18.5 18.5
t9.5 8.5h4zM461 586q10 -5 27.5 -21t28.5 -31v-4q-6 -5 -13.5 -12.5l-15.5 -15.5t-15 -15.5t-11 -11.5h-4q-9 12 -24 27t-31 23v4q0 1 8 10.5t18 19.5l18.5 18.5t9.5 8.5h4z" />
    <glyph glyph-name="uniFC73" unicode="&#xfe98;&#xfee6;" horiz-adv-x="726" arabic-form="final" 
d="M424 281q10 -20 19.5 -44.5t17.5 -50.5q15 -4 45 -4q33 0 54 11t39 28q10 9 16 19t12 16q2 2 4 2t4 -1.5t3 -2.5q-5 -8 -9 -26t-4 -34q0 -21 5.5 -41t18.5 -35t34 -24.5t53 -9.5q15 0 20.5 -9.5t5.5 -30.5v-5q0 -23 -12.5 -31t-33.5 -8q-23 0 -47 7t-44 23.5t-33.5 43.5
t-14.5 68q-23 -22 -49 -30.5t-49 -9.5q1 -8 1.5 -14.5t0.5 -12.5q0 -35 -17 -76.5t-42 -74.5q-15 -20 -36 -41t-49 -38.5t-64 -28.5t-81 -11q-88 0 -140 49t-52 143q0 20 3.5 43t9 45.5t13 42.5t16.5 35q3 4 4 4q2 0 4 -2l3 -3q-2 -3 -4.5 -15t-5 -27.5t-4.5 -33t-2 -32.5
q0 -24 8.5 -52t27 -51t49.5 -38.5t76 -15.5q61 0 106 17t74 40t43.5 48t14.5 42q0 41 -15.5 70t-34.5 55q-10 13 -10 22l5 15l39 75h4zM517 586q10 -5 27.5 -21t28.5 -31v-4q-6 -5 -13.5 -12.5l-15.5 -15.5t-15 -15.5t-11 -11.5h-4q-9 12 -24 27t-31 23v4q0 1 8 10.5
t18 19.5l18.5 18.5t9.5 8.5h4zM640 586q10 -5 27.5 -21t28.5 -31v-4q-6 -5 -13.5 -12.5l-15.5 -15.5t-15 -15.5t-11 -11.5h-4q-9 12 -24 27t-31 23v4q0 1 8 10.5t18 19.5l18.5 18.5t9.5 8.5h4zM211 487q10 -5 27.5 -21t28.5 -31v-4q-6 -5 -13.5 -12.5l-15.5 -15.5t-15 -15.5
t-11 -11.5h-4q-9 12 -24 27t-31 23v4q0 1 8 10.5t18 19.5l18.5 18.5t9.5 8.5h4z" />
    <glyph glyph-name="uniFC74" unicode="&#xfe98;&#xfef0;" horiz-adv-x="751" arabic-form="final" 
d="M639 -85q0 -15 -11 -40t-33 -54t-56 -58.5t-79 -53t-102.5 -38.5t-126.5 -15q-57 0 -96.5 11t-65 29.5t-39.5 42t-20.5 48t-8 48t-1.5 41.5q0 27 5.5 55t12.5 51.5t14 39.5t11 20q2 2 4 2q5 0 10 -5q-8 -20 -13.5 -51.5t-5.5 -64.5q0 -30 12 -60t38.5 -54t69 -39
t102.5 -15q63 0 119.5 12t99.5 29.5t68 37.5t25 37q0 7 -7 13.5t-18 12t-25 10.5t-27 9q-44 12 -58.5 25t-14.5 37q0 30 13.5 67t35.5 69.5t51 54.5t61 22q26 0 45.5 -16.5t39 -37t41.5 -37t52 -16.5q15 0 20.5 -9.5t5.5 -30.5v-5q0 -23 -12.5 -31t-33.5 -8
q-26 0 -46.5 17.5t-40 38t-41 38t-50.5 17.5q-15 0 -32 -7.5t-32 -19.5t-25 -27t-10 -30q0 -9 13 -16.5t32.5 -14.5t42 -14.5t42 -17t32.5 -21.5t13 -28zM517 487q10 -5 27.5 -21t28.5 -31v-4q-6 -5 -13.5 -12.5l-15.5 -15.5t-15 -15.5t-11 -11.5h-4q-9 12 -24 27t-31 23v4
q0 1 8 10.5t18 19.5l18.5 18.5t9.5 8.5h4zM640 487q10 -5 27.5 -21t28.5 -31v-4q-6 -5 -13.5 -12.5l-15.5 -15.5t-15 -15.5t-11 -11.5h-4q-9 12 -24 27t-31 23v4q0 1 8 10.5t18 19.5l18.5 18.5t9.5 8.5h4z" />
    <glyph glyph-name="uniFC75" unicode="&#xfe98;&#xfef2;" horiz-adv-x="751" arabic-form="final" 
d="M639 -85q0 -15 -11 -40t-33 -54t-56 -58.5t-79 -53t-102.5 -38.5t-126.5 -15q-57 0 -96.5 11t-65 29.5t-39.5 42t-20.5 48t-8 48t-1.5 41.5q0 27 5.5 55t12.5 51.5t14 39.5t11 20q2 2 4 2q5 0 10 -5q-8 -20 -13.5 -51.5t-5.5 -64.5q0 -30 12 -60t38.5 -54t69 -39
t102.5 -15q63 0 119.5 12t99.5 29.5t68 37.5t25 37q0 7 -7 13.5t-18 12t-25 10.5t-27 9q-44 12 -58.5 25t-14.5 37q0 30 13.5 67t35.5 69.5t51 54.5t61 22q26 0 45.5 -16.5t39 -37t41.5 -37t52 -16.5q15 0 20.5 -9.5t5.5 -30.5v-5q0 -23 -12.5 -31t-33.5 -8
q-26 0 -46.5 17.5t-40 38t-41 38t-50.5 17.5q-15 0 -32 -7.5t-32 -19.5t-25 -27t-10 -30q0 -9 13 -16.5t32.5 -14.5t42 -14.5t42 -17t32.5 -21.5t13 -28zM183 -408q10 -5 27.5 -21t28.5 -31v-4q-6 -5 -13.5 -12.5l-15.5 -15.5t-15 -15.5t-11 -11.5h-4q-9 12 -24 27t-31 23v4
q0 1 8 10.5t18 19.5l18.5 18.5t9.5 8.5h4zM306 -408q10 -5 27.5 -21t28.5 -31v-4q-6 -5 -13.5 -12.5l-15.5 -15.5t-15 -15.5t-11 -11.5h-4q-9 12 -24 27t-31 23v4q0 1 8 10.5t18 19.5l18.5 18.5t9.5 8.5h4zM517 487q10 -5 27.5 -21t28.5 -31v-4q-6 -5 -13.5 -12.5
l-15.5 -15.5t-15 -15.5t-11 -11.5h-4q-9 12 -24 27t-31 23v4q0 1 8 10.5t18 19.5l18.5 18.5t9.5 8.5h4zM640 487q10 -5 27.5 -21t28.5 -31v-4q-6 -5 -13.5 -12.5l-15.5 -15.5t-15 -15.5t-11 -11.5h-4q-9 12 -24 27t-31 23v4q0 1 8 10.5t18 19.5l18.5 18.5t9.5 8.5h4z" />
    <glyph glyph-name="uniFC76" unicode="&#xfe9c;&#xfeae;" horiz-adv-x="519" arabic-form="final" 
d="M235 80q8 -12 16 -39t8 -55q0 -87 -21.5 -146.5t-51.5 -96.5t-61 -53.5t-50 -16.5q-25 0 -53.5 5t-53.5 12q-14 4 -29 8.5t-29 9.5l1 6q80 2 138.5 24t96.5 56t56.5 75.5t18.5 82.5q0 37 -18.5 65.5t-66.5 55.5q31 82 40 84q17 4 38 7.5t45 8.5q32 7 54 12.5t37 11
t24.5 11t17.5 13.5q10 9 16 19t12 16q2 2 4 2t4 -1.5t3 -2.5q-5 -8 -9 -26t-4 -34q0 -21 5.5 -41t18.5 -35t34 -24.5t53 -9.5q15 0 20.5 -9.5t5.5 -30.5v-5q0 -23 -12.5 -31t-33.5 -8q-23 0 -45.5 6t-42 20.5t-33 38.5t-17.5 59zM294 586q10 -5 27.5 -21t28.5 -31v-4
q-6 -5 -13.5 -12.5l-15.5 -15.5t-15 -15.5t-11 -11.5h-4q-9 12 -24 27t-31 23v4q0 1 8 10.5t18 19.5l18.5 18.5t9.5 8.5h4zM417 586q10 -5 27.5 -21t28.5 -31v-4q-6 -5 -13.5 -12.5l-15.5 -15.5t-15 -15.5t-11 -11.5h-4q-9 12 -24 27t-31 23v4q0 1 8 10.5t18 19.5l18.5 18.5
t9.5 8.5h4zM350 713q10 -5 27.5 -21t28.5 -31v-4q-6 -5 -13.5 -12.5l-15.5 -15.5t-15 -15.5t-11 -11.5h-4q-9 12 -24 27t-31 23v4q0 1 8 10.5t18 19.5l18.5 18.5t9.5 8.5h4z" />
    <glyph glyph-name="uniFC77" unicode="&#xfe9c;&#xfeb0;" horiz-adv-x="519" arabic-form="final" 
d="M235 80q8 -12 16 -39t8 -55q0 -87 -21.5 -146.5t-51.5 -96.5t-61 -53.5t-50 -16.5q-25 0 -53.5 5t-53.5 12q-14 4 -29 8.5t-29 9.5l1 6q80 2 138.5 24t96.5 56t56.5 75.5t18.5 82.5q0 37 -18.5 65.5t-66.5 55.5q31 82 40 84q17 4 38 7.5t45 8.5q32 7 54 12.5t37 11
t24.5 11t17.5 13.5q10 9 16 19t12 16q2 2 4 2t4 -1.5t3 -2.5q-5 -8 -9 -26t-4 -34q0 -21 5.5 -41t18.5 -35t34 -24.5t53 -9.5q15 0 20.5 -9.5t5.5 -30.5v-5q0 -23 -12.5 -31t-33.5 -8q-23 0 -45.5 6t-42 20.5t-33 38.5t-17.5 59zM317 586q10 -5 27.5 -21t28.5 -31v-4
q-6 -5 -13.5 -12.5l-15.5 -15.5t-15 -15.5t-11 -11.5h-4q-9 12 -24 27t-31 23v4q0 1 8 10.5t18 19.5l18.5 18.5t9.5 8.5h4zM440 586q10 -5 27.5 -21t28.5 -31v-4q-6 -5 -13.5 -12.5l-15.5 -15.5t-15 -15.5t-11 -11.5h-4q-9 12 -24 27t-31 23v4q0 1 8 10.5t18 19.5l18.5 18.5
t9.5 8.5h4zM373 713q10 -5 27.5 -21t28.5 -31v-4q-6 -5 -13.5 -12.5l-15.5 -15.5t-15 -15.5t-11 -11.5h-4q-9 12 -24 27t-31 23v4q0 1 8 10.5t18 19.5l18.5 18.5t9.5 8.5h4zM138 487q10 -5 27.5 -21t28.5 -31v-4q-6 -5 -13.5 -12.5l-15.5 -15.5t-15 -15.5t-11 -11.5h-4
q-9 12 -24 27t-31 23v4q0 1 8 10.5t18 19.5l18.5 18.5t9.5 8.5h4z" />
    <glyph glyph-name="uniFC79" unicode="&#xfe9c;&#xfee6;" horiz-adv-x="726" arabic-form="final" 
d="M424 281q10 -20 19.5 -44.5t17.5 -50.5q15 -4 45 -4q33 0 54 11t39 28q10 9 16 19t12 16q2 2 4 2t4 -1.5t3 -2.5q-5 -8 -9 -26t-4 -34q0 -21 5.5 -41t18.5 -35t34 -24.5t53 -9.5q15 0 20.5 -9.5t5.5 -30.5v-5q0 -23 -12.5 -31t-33.5 -8q-23 0 -47 7t-44 23.5t-33.5 43.5
t-14.5 68q-23 -22 -49 -30.5t-49 -9.5q1 -8 1.5 -14.5t0.5 -12.5q0 -35 -17 -76.5t-42 -74.5q-15 -20 -36 -41t-49 -38.5t-64 -28.5t-81 -11q-88 0 -140 49t-52 143q0 20 3.5 43t9 45.5t13 42.5t16.5 35q3 4 4 4q2 0 4 -2l3 -3q-2 -3 -4.5 -15t-5 -27.5t-4.5 -33t-2 -32.5
q0 -24 8.5 -52t27 -51t49.5 -38.5t76 -15.5q61 0 106 17t74 40t43.5 48t14.5 42q0 41 -15.5 70t-34.5 55q-10 13 -10 22l5 15l39 75h4zM519 586q10 -5 27.5 -21t28.5 -31v-4q-6 -5 -13.5 -12.5l-15.5 -15.5t-15 -15.5t-11 -11.5h-4q-9 12 -24 27t-31 23v4q0 1 8 10.5
t18 19.5l18.5 18.5t9.5 8.5h4zM642 586q10 -5 27.5 -21t28.5 -31v-4q-6 -5 -13.5 -12.5l-15.5 -15.5t-15 -15.5t-11 -11.5h-4q-9 12 -24 27t-31 23v4q0 1 8 10.5t18 19.5l18.5 18.5t9.5 8.5h4zM575 713q10 -5 27.5 -21t28.5 -31v-4q-6 -5 -13.5 -12.5l-15.5 -15.5t-15 -15.5
t-11 -11.5h-4q-9 12 -24 27t-31 23v4q0 1 8 10.5t18 19.5l18.5 18.5t9.5 8.5h4zM214 487q10 -5 27.5 -21t28.5 -31v-4q-6 -5 -13.5 -12.5l-15.5 -15.5t-15 -15.5t-11 -11.5h-4q-9 12 -24 27t-31 23v4q0 1 8 10.5t18 19.5l18.5 18.5t9.5 8.5h4z" />
    <glyph glyph-name="uniFC7A" unicode="&#xfe9c;&#xfef0;" horiz-adv-x="751" arabic-form="final" 
d="M639 -85q0 -15 -11 -40t-33 -54t-56 -58.5t-79 -53t-102.5 -38.5t-126.5 -15q-57 0 -96.5 11t-65 29.5t-39.5 42t-20.5 48t-8 48t-1.5 41.5q0 27 5.5 55t12.5 51.5t14 39.5t11 20q2 2 4 2q5 0 10 -5q-8 -20 -13.5 -51.5t-5.5 -64.5q0 -30 12 -60t38.5 -54t69 -39
t102.5 -15q63 0 119.5 12t99.5 29.5t68 37.5t25 37q0 7 -7 13.5t-18 12t-25 10.5t-27 9q-44 12 -58.5 25t-14.5 37q0 30 13.5 67t35.5 69.5t51 54.5t61 22q26 0 45.5 -16.5t39 -37t41.5 -37t52 -16.5q15 0 20.5 -9.5t5.5 -30.5v-5q0 -23 -12.5 -31t-33.5 -8
q-26 0 -46.5 17.5t-40 38t-41 38t-50.5 17.5q-15 0 -32 -7.5t-32 -19.5t-25 -27t-10 -30q0 -9 13 -16.5t32.5 -14.5t42 -14.5t42 -17t32.5 -21.5t13 -28zM510 487q10 -5 27.5 -21t28.5 -31v-4q-6 -5 -13.5 -12.5l-15.5 -15.5t-15 -15.5t-11 -11.5h-4q-9 12 -24 27t-31 23v4
q0 1 8 10.5t18 19.5l18.5 18.5t9.5 8.5h4zM633 487q10 -5 27.5 -21t28.5 -31v-4q-6 -5 -13.5 -12.5l-15.5 -15.5t-15 -15.5t-11 -11.5h-4q-9 12 -24 27t-31 23v4q0 1 8 10.5t18 19.5l18.5 18.5t9.5 8.5h4zM566 614q10 -5 27.5 -21t28.5 -31v-4q-6 -5 -13.5 -12.5
l-15.5 -15.5t-15 -15.5t-11 -11.5h-4q-9 12 -24 27t-31 23v4q0 1 8 10.5t18 19.5l18.5 18.5t9.5 8.5h4z" />
    <glyph glyph-name="uniFC7B" unicode="&#xfe9c;&#xfef2;" horiz-adv-x="751" arabic-form="final" 
d="M639 -85q0 -15 -11 -40t-33 -54t-56 -58.5t-79 -53t-102.5 -38.5t-126.5 -15q-57 0 -96.5 11t-65 29.5t-39.5 42t-20.5 48t-8 48t-1.5 41.5q0 27 5.5 55t12.5 51.5t14 39.5t11 20q2 2 4 2q5 0 10 -5q-8 -20 -13.5 -51.5t-5.5 -64.5q0 -30 12 -60t38.5 -54t69 -39
t102.5 -15q63 0 119.5 12t99.5 29.5t68 37.5t25 37q0 7 -7 13.5t-18 12t-25 10.5t-27 9q-44 12 -58.5 25t-14.5 37q0 30 13.5 67t35.5 69.5t51 54.5t61 22q26 0 45.5 -16.5t39 -37t41.5 -37t52 -16.5q15 0 20.5 -9.5t5.5 -30.5v-5q0 -23 -12.5 -31t-33.5 -8
q-26 0 -46.5 17.5t-40 38t-41 38t-50.5 17.5q-15 0 -32 -7.5t-32 -19.5t-25 -27t-10 -30q0 -9 13 -16.5t32.5 -14.5t42 -14.5t42 -17t32.5 -21.5t13 -28zM183 -408q10 -5 27.5 -21t28.5 -31v-4q-6 -5 -13.5 -12.5l-15.5 -15.5t-15 -15.5t-11 -11.5h-4q-9 12 -24 27t-31 23v4
q0 1 8 10.5t18 19.5l18.5 18.5t9.5 8.5h4zM306 -408q10 -5 27.5 -21t28.5 -31v-4q-6 -5 -13.5 -12.5l-15.5 -15.5t-15 -15.5t-11 -11.5h-4q-9 12 -24 27t-31 23v4q0 1 8 10.5t18 19.5l18.5 18.5t9.5 8.5h4zM509 487q10 -5 27.5 -21t28.5 -31v-4q-6 -5 -13.5 -12.5
l-15.5 -15.5t-15 -15.5t-11 -11.5h-4q-9 12 -24 27t-31 23v4q0 1 8 10.5t18 19.5l18.5 18.5t9.5 8.5h4zM632 487q10 -5 27.5 -21t28.5 -31v-4q-6 -5 -13.5 -12.5l-15.5 -15.5t-15 -15.5t-11 -11.5h-4q-9 12 -24 27t-31 23v4q0 1 8 10.5t18 19.5l18.5 18.5t9.5 8.5h4z
M565 614q10 -5 27.5 -21t28.5 -31v-4q-6 -5 -13.5 -12.5l-15.5 -15.5t-15 -15.5t-11 -11.5h-4q-9 12 -24 27t-31 23v4q0 1 8 10.5t18 19.5l18.5 18.5t9.5 8.5h4z" />
    <glyph glyph-name="uniFC86" unicode="&#xfee0;&#xfef0;" horiz-adv-x="747" arabic-form="final" 
d="M618 717q-1 -32 -1 -64v-64q0 -85 2.5 -170t7.5 -184q3 -47 15 -76t29.5 -46t39.5 -23t46 -6q15 0 20.5 -9.5t5.5 -30.5v-5q0 -23 -12.5 -31t-33.5 -8q-25 0 -52 9.5t-50 31.5t-40.5 57.5t-23.5 88.5q-8 -26 -22.5 -50t-49.5 -53q67 -28 101 -60t34 -64q0 -15 -10.5 -40
t-32.5 -53.5t-55 -57t-77.5 -52t-101.5 -38t-126 -14.5q-57 0 -96.5 11t-65 29.5t-39.5 42t-20.5 48t-8 48t-1.5 41.5q0 27 5.5 55t12.5 51.5t14 39.5t11 20q2 2 5 2q4 0 9 -5q-8 -20 -13.5 -51.5t-5.5 -64.5q0 -30 12 -60t38.5 -54t69 -39t102.5 -15q63 0 119.5 12
t99.5 29.5t68 37.5t25 37q0 18 -22.5 36.5t-58 35t-78 30.5t-81.5 22q17 24 32.5 46t35.5 26q35 4 64.5 18t51 33.5t33.5 43.5t12 48q0 50 -2 109.5t-5 115t-7 101t-8 67.5q0 6 10 17.5t22 23t22.5 20t12.5 9.5z" />
    <glyph glyph-name="uniFC87" unicode="&#xfee0;&#xfef2;" horiz-adv-x="747" arabic-form="final" 
d="M618 717q-1 -32 -1 -64v-64q0 -85 2.5 -170t7.5 -184q3 -47 15 -76t29.5 -46t39.5 -23t46 -6q15 0 20.5 -9.5t5.5 -30.5v-5q0 -23 -12.5 -31t-33.5 -8q-25 0 -52 9.5t-50 31.5t-40.5 57.5t-23.5 88.5q-8 -26 -22.5 -50t-49.5 -53q67 -28 101 -60t34 -64q0 -15 -10.5 -40
t-32.5 -53.5t-55 -57t-77.5 -52t-101.5 -38t-126 -14.5q-57 0 -96.5 11t-65 29.5t-39.5 42t-20.5 48t-8 48t-1.5 41.5q0 27 5.5 55t12.5 51.5t14 39.5t11 20q2 2 5 2q4 0 9 -5q-8 -20 -13.5 -51.5t-5.5 -64.5q0 -30 12 -60t38.5 -54t69 -39t102.5 -15q63 0 119.5 12
t99.5 29.5t68 37.5t25 37q0 18 -22.5 36.5t-58 35t-78 30.5t-81.5 22q17 24 32.5 46t35.5 26q35 4 64.5 18t51 33.5t33.5 43.5t12 48q0 50 -2 109.5t-5 115t-7 101t-8 67.5q0 6 10 17.5t22 23t22.5 20t12.5 9.5zM185 -358q10 -5 27.5 -21t28.5 -31v-4q-6 -5 -13.5 -12.5
l-15.5 -15.5t-15 -15.5t-11 -11.5h-4q-9 12 -24 27t-31 23v4q0 1 8 10.5t18 19.5l18.5 18.5t9.5 8.5h4zM308 -358q10 -5 27.5 -21t28.5 -31v-4q-6 -5 -13.5 -12.5l-15.5 -15.5t-15 -15.5t-11 -11.5h-4q-9 12 -24 27t-31 23v4q0 1 8 10.5t18 19.5l18.5 18.5t9.5 8.5h4z" />
    <glyph glyph-name="uniFC8A" unicode="&#xfee8;&#xfeae;" horiz-adv-x="519" arabic-form="final" 
d="M235 80q8 -12 16 -39t8 -55q0 -87 -21.5 -146.5t-51.5 -96.5t-61 -53.5t-50 -16.5q-25 0 -53.5 5t-53.5 12q-14 4 -29 8.5t-29 9.5l1 6q80 2 138.5 24t96.5 56t56.5 75.5t18.5 82.5q0 37 -18.5 65.5t-66.5 55.5q31 82 40 84q17 4 38 7.5t45 8.5q32 7 54 12.5t37 11
t24.5 11t17.5 13.5q10 9 16 19t12 16q2 2 4 2t4 -1.5t3 -2.5q-5 -8 -9 -26t-4 -34q0 -21 5.5 -41t18.5 -35t34 -24.5t53 -9.5q15 0 20.5 -9.5t5.5 -30.5v-5q0 -23 -12.5 -31t-33.5 -8q-23 0 -45.5 6t-42 20.5t-33 38.5t-17.5 59zM387 586q10 -5 27.5 -21t28.5 -31v-4
q-6 -5 -13.5 -12.5l-15.5 -15.5t-15 -15.5t-11 -11.5h-4q-9 12 -24 27t-31 23v4q0 1 8 10.5t18 19.5l18.5 18.5t9.5 8.5h4z" />
    <glyph glyph-name="uniFC8B" unicode="&#xfee8;&#xfeb0;" horiz-adv-x="519" arabic-form="final" 
d="M235 80q8 -12 16 -39t8 -55q0 -87 -21.5 -146.5t-51.5 -96.5t-61 -53.5t-50 -16.5q-25 0 -53.5 5t-53.5 12q-14 4 -29 8.5t-29 9.5l1 6q80 2 138.5 24t96.5 56t56.5 75.5t18.5 82.5q0 37 -18.5 65.5t-66.5 55.5q31 82 40 84q17 4 38 7.5t45 8.5q32 7 54 12.5t37 11
t24.5 11t17.5 13.5q10 9 16 19t12 16q2 2 4 2t4 -1.5t3 -2.5q-5 -8 -9 -26t-4 -34q0 -21 5.5 -41t18.5 -35t34 -24.5t53 -9.5q15 0 20.5 -9.5t5.5 -30.5v-5q0 -23 -12.5 -31t-33.5 -8q-23 0 -45.5 6t-42 20.5t-33 38.5t-17.5 59zM387 586q10 -5 27.5 -21t28.5 -31v-4
q-6 -5 -13.5 -12.5l-15.5 -15.5t-15 -15.5t-11 -11.5h-4q-9 12 -24 27t-31 23v4q0 1 8 10.5t18 19.5l18.5 18.5t9.5 8.5h4zM140 487q10 -5 27.5 -21t28.5 -31v-4q-6 -5 -13.5 -12.5l-15.5 -15.5t-15 -15.5t-11 -11.5h-4q-9 12 -24 27t-31 23v4q0 1 8 10.5t18 19.5l18.5 18.5
t9.5 8.5h4z" />
    <glyph glyph-name="uniFC8D" unicode="&#xfee8;&#xfee6;" horiz-adv-x="726" arabic-form="final" 
d="M424 281q10 -20 19.5 -44.5t17.5 -50.5q15 -4 45 -4q33 0 54 11t39 28q10 9 16 19t12 16q2 2 4 2t4 -1.5t3 -2.5q-5 -8 -9 -26t-4 -34q0 -21 5.5 -41t18.5 -35t34 -24.5t53 -9.5q15 0 20.5 -9.5t5.5 -30.5v-5q0 -23 -12.5 -31t-33.5 -8q-23 0 -47 7t-44 23.5t-33.5 43.5
t-14.5 68q-23 -22 -49 -30.5t-49 -9.5q1 -8 1.5 -14.5t0.5 -12.5q0 -35 -17 -76.5t-42 -74.5q-15 -20 -36 -41t-49 -38.5t-64 -28.5t-81 -11q-88 0 -140 49t-52 143q0 20 3.5 43t9 45.5t13 42.5t16.5 35q3 4 4 4q2 0 4 -2l3 -3q-2 -3 -4.5 -15t-5 -27.5t-4.5 -33t-2 -32.5
q0 -24 8.5 -52t27 -51t49.5 -38.5t76 -15.5q61 0 106 17t74 40t43.5 48t14.5 42q0 41 -15.5 70t-34.5 55q-10 13 -10 22l5 15l39 75h4zM587 586q10 -5 27.5 -21t28.5 -31v-4q-6 -5 -13.5 -12.5l-15.5 -15.5t-15 -15.5t-11 -11.5h-4q-9 12 -24 27t-31 23v4q0 1 8 10.5
t18 19.5l18.5 18.5t9.5 8.5h4zM222 487q10 -5 27.5 -21t28.5 -31v-4q-6 -5 -13.5 -12.5l-15.5 -15.5t-15 -15.5t-11 -11.5h-4q-9 12 -24 27t-31 23v4q0 1 8 10.5t18 19.5l18.5 18.5t9.5 8.5h4z" />
    <glyph glyph-name="uniFC8E" unicode="&#xfee8;&#xfef0;" horiz-adv-x="751" arabic-form="final" 
d="M639 -85q0 -15 -11 -40t-33 -54t-56 -58.5t-79 -53t-102.5 -38.5t-126.5 -15q-57 0 -96.5 11t-65 29.5t-39.5 42t-20.5 48t-8 48t-1.5 41.5q0 27 5.5 55t12.5 51.5t14 39.5t11 20q2 2 4 2q5 0 10 -5q-8 -20 -13.5 -51.5t-5.5 -64.5q0 -30 12 -60t38.5 -54t69 -39
t102.5 -15q63 0 119.5 12t99.5 29.5t68 37.5t25 37q0 7 -7 13.5t-18 12t-25 10.5t-27 9q-44 12 -58.5 25t-14.5 37q0 30 13.5 67t35.5 69.5t51 54.5t61 22q26 0 45.5 -16.5t39 -37t41.5 -37t52 -16.5q15 0 20.5 -9.5t5.5 -30.5v-5q0 -23 -12.5 -31t-33.5 -8
q-26 0 -46.5 17.5t-40 38t-41 38t-50.5 17.5q-15 0 -32 -7.5t-32 -19.5t-25 -27t-10 -30q0 -9 13 -16.5t32.5 -14.5t42 -14.5t42 -17t32.5 -21.5t13 -28zM572 487q10 -5 27.5 -21t28.5 -31v-4q-6 -5 -13.5 -12.5l-15.5 -15.5t-15 -15.5t-11 -11.5h-4q-9 12 -24 27t-31 23v4
q0 1 8 10.5t18 19.5l18.5 18.5t9.5 8.5h4z" />
    <glyph glyph-name="uniFC8F" unicode="&#xfee8;&#xfef2;" horiz-adv-x="751" arabic-form="final" 
d="M639 -85q0 -15 -11 -40t-33 -54t-56 -58.5t-79 -53t-102.5 -38.5t-126.5 -15q-57 0 -96.5 11t-65 29.5t-39.5 42t-20.5 48t-8 48t-1.5 41.5q0 27 5.5 55t12.5 51.5t14 39.5t11 20q2 2 4 2q5 0 10 -5q-8 -20 -13.5 -51.5t-5.5 -64.5q0 -30 12 -60t38.5 -54t69 -39
t102.5 -15q63 0 119.5 12t99.5 29.5t68 37.5t25 37q0 7 -7 13.5t-18 12t-25 10.5t-27 9q-44 12 -58.5 25t-14.5 37q0 30 13.5 67t35.5 69.5t51 54.5t61 22q26 0 45.5 -16.5t39 -37t41.5 -37t52 -16.5q15 0 20.5 -9.5t5.5 -30.5v-5q0 -23 -12.5 -31t-33.5 -8
q-26 0 -46.5 17.5t-40 38t-41 38t-50.5 17.5q-15 0 -32 -7.5t-32 -19.5t-25 -27t-10 -30q0 -9 13 -16.5t32.5 -14.5t42 -14.5t42 -17t32.5 -21.5t13 -28zM578 487q10 -5 27.5 -21t28.5 -31v-4q-6 -5 -13.5 -12.5l-15.5 -15.5t-15 -15.5t-11 -11.5h-4q-9 12 -24 27t-31 23v4
q0 1 8 10.5t18 19.5l18.5 18.5t9.5 8.5h4zM188 -408q10 -5 27.5 -21t28.5 -31v-4q-6 -5 -13.5 -12.5l-15.5 -15.5t-15 -15.5t-11 -11.5h-4q-9 12 -24 27t-31 23v4q0 1 8 10.5t18 19.5l18.5 18.5t9.5 8.5h4zM311 -408q10 -5 27.5 -21t28.5 -31v-4q-6 -5 -13.5 -12.5
l-15.5 -15.5t-15 -15.5t-11 -11.5h-4q-9 12 -24 27t-31 23v4q0 1 8 10.5t18 19.5l18.5 18.5t9.5 8.5h4z" />
    <glyph glyph-name="uniFC91" unicode="&#xfef4;&#xfeae;" horiz-adv-x="519" arabic-form="final" 
d="M235 80q8 -12 16 -39t8 -55q0 -87 -21.5 -146.5t-51.5 -96.5t-61 -53.5t-50 -16.5q-25 0 -53.5 5t-53.5 12q-14 4 -29 8.5t-29 9.5l1 6q80 2 138.5 24t96.5 56t56.5 75.5t18.5 82.5q0 37 -18.5 65.5t-66.5 55.5q31 82 40 84q17 4 38 7.5t45 8.5q32 7 54 12.5t37 11
t24.5 11t17.5 13.5q10 9 16 19t12 16q2 2 4 2t4 -1.5t3 -2.5q-5 -8 -9 -26t-4 -34q0 -21 5.5 -41t18.5 -35t34 -24.5t53 -9.5q15 0 20.5 -9.5t5.5 -30.5v-5q0 -23 -12.5 -31t-33.5 -8q-23 0 -45.5 6t-42 20.5t-33 38.5t-17.5 59zM331 -109q10 -5 27.5 -21t28.5 -31v-4
q-6 -5 -13.5 -12.5l-15.5 -15.5t-15 -15.5t-11 -11.5h-4q-9 12 -24 27t-31 23v4q0 1 8 10.5t18 19.5l18.5 18.5t9.5 8.5h4zM454 -109q10 -5 27.5 -21t28.5 -31v-4q-6 -5 -13.5 -12.5l-15.5 -15.5t-15 -15.5t-11 -11.5h-4q-9 12 -24 27t-31 23v4q0 1 8 10.5t18 19.5
l18.5 18.5t9.5 8.5h4z" />
    <glyph glyph-name="uniFC92" unicode="&#xfef4;&#xfeb0;" horiz-adv-x="519" arabic-form="final" 
d="M235 80q8 -12 16 -39t8 -55q0 -87 -21.5 -146.5t-51.5 -96.5t-61 -53.5t-50 -16.5q-25 0 -53.5 5t-53.5 12q-14 4 -29 8.5t-29 9.5l1 6q80 2 138.5 24t96.5 56t56.5 75.5t18.5 82.5q0 37 -18.5 65.5t-66.5 55.5q31 82 40 84q17 4 38 7.5t45 8.5q32 7 54 12.5t37 11
t24.5 11t17.5 13.5q10 9 16 19t12 16q2 2 4 2t4 -1.5t3 -2.5q-5 -8 -9 -26t-4 -34q0 -21 5.5 -41t18.5 -35t34 -24.5t53 -9.5q15 0 20.5 -9.5t5.5 -30.5v-5q0 -23 -12.5 -31t-33.5 -8q-23 0 -45.5 6t-42 20.5t-33 38.5t-17.5 59zM331 -109q10 -5 27.5 -21t28.5 -31v-4
q-6 -5 -13.5 -12.5l-15.5 -15.5t-15 -15.5t-11 -11.5h-4q-9 12 -24 27t-31 23v4q0 1 8 10.5t18 19.5l18.5 18.5t9.5 8.5h4zM454 -109q10 -5 27.5 -21t28.5 -31v-4q-6 -5 -13.5 -12.5l-15.5 -15.5t-15 -15.5t-11 -11.5h-4q-9 12 -24 27t-31 23v4q0 1 8 10.5t18 19.5
l18.5 18.5t9.5 8.5h4zM140 487q10 -5 27.5 -21t28.5 -31v-4q-6 -5 -13.5 -12.5l-15.5 -15.5t-15 -15.5t-11 -11.5h-4q-9 12 -24 27t-31 23v4q0 1 8 10.5t18 19.5l18.5 18.5t9.5 8.5h4z" />
    <glyph glyph-name="uniFC94" unicode="&#xfef4;&#xfee6;" horiz-adv-x="726" arabic-form="final" 
d="M424 281q10 -20 19.5 -44.5t17.5 -50.5q15 -4 45 -4q33 0 54 11t39 28q10 9 16 19t12 16q2 2 4 2t4 -1.5t3 -2.5q-5 -8 -9 -26t-4 -34q0 -21 5.5 -41t18.5 -35t34 -24.5t53 -9.5q15 0 20.5 -9.5t5.5 -30.5v-5q0 -23 -12.5 -31t-33.5 -8q-23 0 -47 7t-44 23.5t-33.5 43.5
t-14.5 68q-23 -22 -49 -30.5t-49 -9.5q1 -8 1.5 -14.5t0.5 -12.5q0 -35 -17 -76.5t-42 -74.5q-15 -20 -36 -41t-49 -38.5t-64 -28.5t-81 -11q-88 0 -140 49t-52 143q0 20 3.5 43t9 45.5t13 42.5t16.5 35q3 4 4 4q2 0 4 -2l3 -3q-2 -3 -4.5 -15t-5 -27.5t-4.5 -33t-2 -32.5
q0 -24 8.5 -52t27 -51t49.5 -38.5t76 -15.5q61 0 106 17t74 40t43.5 48t14.5 42q0 41 -15.5 70t-34.5 55q-10 13 -10 22l5 15l39 75h4zM508 -109q10 -5 27.5 -21t28.5 -31v-4q-6 -5 -13.5 -12.5l-15.5 -15.5t-15 -15.5t-11 -11.5h-4q-9 12 -24 27t-31 23v4q0 1 8 10.5
t18 19.5l18.5 18.5t9.5 8.5h4zM631 -109q10 -5 27.5 -21t28.5 -31v-4q-6 -5 -13.5 -12.5l-15.5 -15.5t-15 -15.5t-11 -11.5h-4q-9 12 -24 27t-31 23v4q0 1 8 10.5t18 19.5l18.5 18.5t9.5 8.5h4zM209 487q10 -5 27.5 -21t28.5 -31v-4q-6 -5 -13.5 -12.5l-15.5 -15.5
t-15 -15.5t-11 -11.5h-4q-9 12 -24 27t-31 23v4q0 1 8 10.5t18 19.5l18.5 18.5t9.5 8.5h4z" />
    <glyph glyph-name="uniFC95" unicode="&#xfef4;&#xfef0;" horiz-adv-x="751" arabic-form="final" 
d="M639 -85q0 -15 -11 -40t-33 -54t-56 -58.5t-79 -53t-102.5 -38.5t-126.5 -15q-57 0 -96.5 11t-65 29.5t-39.5 42t-20.5 48t-8 48t-1.5 41.5q0 27 5.5 55t12.5 51.5t14 39.5t11 20q2 2 4 2q5 0 10 -5q-8 -20 -13.5 -51.5t-5.5 -64.5q0 -30 12 -60t38.5 -54t69 -39
t102.5 -15q63 0 119.5 12t99.5 29.5t68 37.5t25 37q0 7 -7 13.5t-18 12t-25 10.5t-27 9q-44 12 -58.5 25t-14.5 37q0 30 13.5 67t35.5 69.5t51 54.5t61 22q26 0 45.5 -16.5t39 -37t41.5 -37t52 -16.5q15 0 20.5 -9.5t5.5 -30.5v-5q0 -23 -12.5 -31t-33.5 -8
q-26 0 -46.5 17.5t-40 38t-41 38t-50.5 17.5q-15 0 -32 -7.5t-32 -19.5t-25 -27t-10 -30q0 -9 13 -16.5t32.5 -14.5t42 -14.5t42 -17t32.5 -21.5t13 -28zM571 -308q10 -5 27.5 -21t28.5 -31v-4q-6 -5 -13.5 -12.5l-15.5 -15.5t-15 -15.5t-11 -11.5h-4q-9 12 -24 27t-31 23v4
q0 1 8 10.5t18 19.5l18.5 18.5t9.5 8.5h4zM694 -308q10 -5 27.5 -21t28.5 -31v-4q-6 -5 -13.5 -12.5l-15.5 -15.5t-15 -15.5t-11 -11.5h-4q-9 12 -24 27t-31 23v4q0 1 8 10.5t18 19.5l18.5 18.5t9.5 8.5h4z" />
    <glyph glyph-name="uniFC96" unicode="&#xfef4;&#xfef2;" horiz-adv-x="751" arabic-form="final" 
d="M639 -85q0 -15 -11 -40t-33 -54t-56 -58.5t-79 -53t-102.5 -38.5t-126.5 -15q-57 0 -96.5 11t-65 29.5t-39.5 42t-20.5 48t-8 48t-1.5 41.5q0 27 5.5 55t12.5 51.5t14 39.5t11 20q2 2 4 2q5 0 10 -5q-8 -20 -13.5 -51.5t-5.5 -64.5q0 -30 12 -60t38.5 -54t69 -39
t102.5 -15q63 0 119.5 12t99.5 29.5t68 37.5t25 37q0 7 -7 13.5t-18 12t-25 10.5t-27 9q-44 12 -58.5 25t-14.5 37q0 30 13.5 67t35.5 69.5t51 54.5t61 22q26 0 45.5 -16.5t39 -37t41.5 -37t52 -16.5q15 0 20.5 -9.5t5.5 -30.5v-5q0 -23 -12.5 -31t-33.5 -8
q-26 0 -46.5 17.5t-40 38t-41 38t-50.5 17.5q-15 0 -32 -7.5t-32 -19.5t-25 -27t-10 -30q0 -9 13 -16.5t32.5 -14.5t42 -14.5t42 -17t32.5 -21.5t13 -28zM183 -408q10 -5 27.5 -21t28.5 -31v-4q-6 -5 -13.5 -12.5l-15.5 -15.5t-15 -15.5t-11 -11.5h-4q-9 12 -24 27t-31 23v4
q0 1 8 10.5t18 19.5l18.5 18.5t9.5 8.5h4zM306 -408q10 -5 27.5 -21t28.5 -31v-4q-6 -5 -13.5 -12.5l-15.5 -15.5t-15 -15.5t-11 -11.5h-4q-9 12 -24 27t-31 23v4q0 1 8 10.5t18 19.5l18.5 18.5t9.5 8.5h4zM571 -308q10 -5 27.5 -21t28.5 -31v-4q-6 -5 -13.5 -12.5
l-15.5 -15.5t-15 -15.5t-11 -11.5h-4q-9 12 -24 27t-31 23v4q0 1 8 10.5t18 19.5l18.5 18.5t9.5 8.5h4zM694 -308q10 -5 27.5 -21t28.5 -31v-4q-6 -5 -13.5 -12.5l-15.5 -15.5t-15 -15.5t-11 -11.5h-4q-9 12 -24 27t-31 23v4q0 1 8 10.5t18 19.5l18.5 18.5t9.5 8.5h4z" />
    <glyph glyph-name="uniFC97" unicode="&#xfe8b;&#xfea0;" horiz-adv-x="613" arabic-form="initial" 
d="M76 251q15 16 26.5 37t22.5 38q3 5 12 8q3 2 7.5 2.5t9.5 2.5q49 9 88.5 26.5t70 39t53 45.5t38.5 46q18 26 34.5 42t33.5 16q12 0 21 -9.5t15 -23.5t8.5 -30t2.5 -28q0 -3 -3 -12t-7.5 -19.5t-10.5 -21t-12 -17.5h-5q-4 28 -17 48.5t-32 20.5q-15 0 -28.5 -14.5
t-31.5 -36t-43.5 -46.5t-63.5 -47q28 -9 59 -20t62.5 -20.5t63.5 -16t63 -6.5q14 0 34 1t35 3l2 -3q-4 -7 -9.5 -16.5t-10.5 -19t-9 -18.5t-5 -15q-33 0 -59.5 -3t-49.5 -10t-46 -19t-49 -30q-38 -27 -73 -50t-75 -39.5t-90 -26t-118 -9.5q-10 0 -18 9t-8 29v6
q0 21 12.5 30.5t32.5 9.5q82 1 133.5 13.5t88 30.5t65 38.5t64.5 38.5q-23 9 -49.5 18.5t-52.5 17t-49 12.5t-39 5q-38 0 -57.5 -3t-32.5 -9zM288 -109q10 -5 27.5 -21t28.5 -31v-4q-6 -5 -13.5 -12.5l-15.5 -15.5t-15 -15.5t-11 -11.5h-4q-9 12 -24 27t-31 23v4q0 1 8 10.5
t18 19.5l18.5 18.5t9.5 8.5h4zM513 706q-30 -9 -60.5 -22t-55.5 -24l-56 -28q0 8 2.5 23.5t14.5 22.5l26 14q-12 5 -21.5 15t-9.5 28q0 13 9.5 32.5t25 36.5t35.5 29.5t41 12.5q11 0 22 -5t11 -18q0 -16 -9 -29q-14 12 -42 12q-9 0 -18.5 -2.5t-17.5 -8t-13.5 -14.5
t-5.5 -21q0 -20 15 -28.5t35 -8.5q23 0 39 5t33 13l3 -1z" />
    <glyph glyph-name="uniFC98" unicode="&#xfe8b;&#xfea4;" horiz-adv-x="613" arabic-form="initial" 
d="M76 251q15 16 26.5 37t22.5 38q3 5 12 8q3 2 7.5 2.5t9.5 2.5q49 9 88.5 26.5t70 39t53 45.5t38.5 46q18 26 34.5 42t33.5 16q12 0 21 -9.5t15 -23.5t8.5 -30t2.5 -28q0 -3 -3 -12t-7.5 -19.5t-10.5 -21t-12 -17.5h-5q-4 28 -17 48.5t-32 20.5q-15 0 -28.5 -14.5
t-31.5 -36t-43.5 -46.5t-63.5 -47q28 -9 59 -20t62.5 -20.5t63.5 -16t63 -6.5q14 0 34 1t35 3l2 -3q-4 -7 -9.5 -16.5t-10.5 -19t-9 -18.5t-5 -15q-33 0 -59.5 -3t-49.5 -10t-46 -19t-49 -30q-38 -27 -73 -50t-75 -39.5t-90 -26t-118 -9.5q-10 0 -18 9t-8 29v6
q0 21 12.5 30.5t32.5 9.5q82 1 133.5 13.5t88 30.5t65 38.5t64.5 38.5q-23 9 -49.5 18.5t-52.5 17t-49 12.5t-39 5q-38 0 -57.5 -3t-32.5 -9zM504 707q-30 -9 -60.5 -22t-55.5 -24l-56 -28q0 8 2.5 23.5t14.5 22.5l26 14q-12 5 -21.5 15t-9.5 28q0 13 9.5 32.5t25 36.5
t35.5 29.5t41 12.5q11 0 22 -5t11 -18q0 -16 -9 -29q-14 12 -42 12q-9 0 -18.5 -2.5t-17.5 -8t-13.5 -14.5t-5.5 -21q0 -20 15 -28.5t35 -8.5q23 0 39 5t33 13l3 -1z" />
    <glyph glyph-name="uniFC99" unicode="&#xfe8b;&#xfea8;" horiz-adv-x="613" arabic-form="initial" 
d="M76 251q15 16 26.5 37t22.5 38q3 5 12 8q3 2 7.5 2.5t9.5 2.5q49 9 88.5 26.5t70 39t53 45.5t38.5 46q18 26 34.5 42t33.5 16q12 0 21 -9.5t15 -23.5t8.5 -30t2.5 -28q0 -3 -3 -12t-7.5 -19.5t-10.5 -21t-12 -17.5h-5q-4 28 -17 48.5t-32 20.5q-15 0 -28.5 -14.5
t-31.5 -36t-43.5 -46.5t-63.5 -47q28 -9 59 -20t62.5 -20.5t63.5 -16t63 -6.5q14 0 34 1t35 3l2 -3q-4 -7 -9.5 -16.5t-10.5 -19t-9 -18.5t-5 -15q-33 0 -59.5 -3t-49.5 -10t-46 -19t-49 -30q-38 -27 -73 -50t-75 -39.5t-90 -26t-118 -9.5q-10 0 -18 9t-8 29v6
q0 21 12.5 30.5t32.5 9.5q82 1 133.5 13.5t88 30.5t65 38.5t64.5 38.5q-23 9 -49.5 18.5t-52.5 17t-49 12.5t-39 5q-38 0 -57.5 -3t-32.5 -9zM126 586q10 -5 27.5 -21t28.5 -31v-4q-6 -5 -13.5 -12.5l-15.5 -15.5t-15 -15.5t-11 -11.5h-4q-9 12 -24 27t-31 23v4q0 1 8 10.5
t18 19.5l18.5 18.5t9.5 8.5h4zM501 706q-30 -9 -60.5 -22t-55.5 -24l-56 -28q0 8 2.5 23.5t14.5 22.5l26 14q-12 5 -21.5 15t-9.5 28q0 13 9.5 32.5t25 36.5t35.5 29.5t41 12.5q11 0 22 -5t11 -18q0 -16 -9 -29q-14 12 -42 12q-9 0 -18.5 -2.5t-17.5 -8t-13.5 -14.5
t-5.5 -21q0 -20 15 -28.5t35 -8.5q23 0 39 5t33 13l3 -1z" />
    <glyph glyph-name="uniFC9A" unicode="&#xfe8b;&#xfee4;" horiz-adv-x="503" arabic-form="initial" 
d="M-10 0q-10 0 -18 9t-8 29v6q0 21 13 30.5t33 9.5q46 0 78 10.5t58 25.5v7q0 67 23.5 119.5t57.5 88.5t73 55t70 19q22 0 36 -8t22.5 -20.5t12 -29t3.5 -32.5v-10t-1 -10h-5q-14 11 -36 19.5t-48 8.5q-29 0 -58 -15t-53.5 -40.5t-41.5 -58.5t-21 -70q29 22 59.5 43.5
t62.5 21.5q21 0 41 -9.5t35 -27.5t24 -43.5t9 -57.5q0 -27 -9 -52t-24 -43.5t-34 -29.5t-39 -11q-19 0 -41.5 7.5t-43.5 23t-38.5 38.5t-26.5 54q-15 -14 -29 -24.5t-32.5 -18t-43 -11t-60.5 -3.5zM275 137q-23 0 -46 -15t-40 -32q20 -47 68 -68.5t108 -21.5q1 5 1.5 14
t0.5 14q0 27 -8 47t-21.5 34t-30 21t-32.5 7zM419 613q-30 -9 -60.5 -22t-55.5 -24l-56 -28q0 8 2.5 23.5t14.5 22.5l26 14q-12 5 -21.5 15t-9.5 28q0 13 9.5 32.5t25 36.5t35.5 29.5t41 12.5q11 0 22 -5t11 -18q0 -16 -9 -29q-14 12 -42 12q-9 0 -18.5 -2.5t-17.5 -8
t-13.5 -14.5t-5.5 -21q0 -20 15 -28.5t35 -8.5q23 0 39 5t33 13l3 -1z" />
    <glyph glyph-name="uniFC9B" unicode="&#xfe8b;&#xfeec;" horiz-adv-x="567" arabic-form="initial" 
d="M491 78q-11 20 -24 27.5t-27 7.5q-21 0 -47 -13t-51 -33.5t-45 -45.5t-29 -50q-10 -24 -10 -69q0 -19 1 -30.5t2.5 -21.5t2.5 -21t1 -28q0 -21 -15 -46t-37 -51l-4 1q-11 21 -26.5 53t-29.5 67.5t-24 69.5t-10 59q0 27 5 47t13 41q-68 -42 -147 -42q-10 0 -18 9t-8 29v6
q0 21 13 30.5t33 9.5q21 0 51 4t54 13q38 14 57 31t31 50q8 -8 8 -23q0 -20 -11 -41.5t-19 -32.5q-23 -29 -23 -62q0 -12 3.5 -33t10.5 -46t17 -51.5t23 -49.5h4q0 5 -0.5 9.5t-0.5 9.5q0 46 12 87t30 75t39 60t40 43q75 66 127 66q23 0 36.5 -13.5t13.5 -39.5
q0 -12 -5.5 -31t-11.5 -31h-5zM512 449q-30 -9 -60.5 -22t-55.5 -24l-56 -28q0 8 2.5 23.5t14.5 22.5l26 14q-12 5 -21.5 15t-9.5 28q0 13 9.5 32.5t25 36.5t35.5 29.5t41 12.5q11 0 22 -5t11 -18q0 -16 -9 -29q-14 12 -42 12q-9 0 -18.5 -2.5t-17.5 -8t-13.5 -14.5
t-5.5 -21q0 -20 15 -28.5t35 -8.5q23 0 39 5t33 13l3 -1z" />
    <glyph glyph-name="uniFC9C" unicode="&#xfe91;&#xfea0;" horiz-adv-x="613" arabic-form="initial" 
d="M76 251q15 16 26.5 37t22.5 38q3 5 12 8q3 2 7.5 2.5t9.5 2.5q49 9 88.5 26.5t70 39t53 45.5t38.5 46q18 26 34.5 42t33.5 16q12 0 21 -9.5t15 -23.5t8.5 -30t2.5 -28q0 -3 -3 -12t-7.5 -19.5t-10.5 -21t-12 -17.5h-5q-4 28 -17 48.5t-32 20.5q-15 0 -28.5 -14.5
t-31.5 -36t-43.5 -46.5t-63.5 -47q28 -9 59 -20t62.5 -20.5t63.5 -16t63 -6.5q14 0 34 1t35 3l2 -3q-4 -7 -9.5 -16.5t-10.5 -19t-9 -18.5t-5 -15q-33 0 -59.5 -3t-49.5 -10t-46 -19t-49 -30q-38 -27 -73 -50t-75 -39.5t-90 -26t-118 -9.5q-10 0 -18 9t-8 29v6
q0 21 12.5 30.5t32.5 9.5q82 1 133.5 13.5t88 30.5t65 38.5t64.5 38.5q-23 9 -49.5 18.5t-52.5 17t-49 12.5t-39 5q-38 0 -57.5 -3t-32.5 -9zM215 -109q10 -5 27.5 -21t28.5 -31v-4q-6 -5 -13.5 -12.5l-15.5 -15.5t-15 -15.5t-11 -11.5h-4q-9 12 -24 27t-31 23v4q0 1 8 10.5
t18 19.5l18.5 18.5t9.5 8.5h4zM455 -9q10 -5 27.5 -21t28.5 -31v-4q-6 -5 -13.5 -12.5l-15.5 -15.5t-15 -15.5t-11 -11.5h-4q-9 12 -24 27t-31 23v4q0 1 8 10.5t18 19.5l18.5 18.5t9.5 8.5h4z" />
    <glyph glyph-name="uniFC9D" unicode="&#xfe91;&#xfea4;" horiz-adv-x="613" arabic-form="initial" 
d="M76 251q15 16 26.5 37t22.5 38q3 5 12 8q3 2 7.5 2.5t9.5 2.5q49 9 88.5 26.5t70 39t53 45.5t38.5 46q18 26 34.5 42t33.5 16q12 0 21 -9.5t15 -23.5t8.5 -30t2.5 -28q0 -3 -3 -12t-7.5 -19.5t-10.5 -21t-12 -17.5h-5q-4 28 -17 48.5t-32 20.5q-15 0 -28.5 -14.5
t-31.5 -36t-43.5 -46.5t-63.5 -47q28 -9 59 -20t62.5 -20.5t63.5 -16t63 -6.5q14 0 34 1t35 3l2 -3q-4 -7 -9.5 -16.5t-10.5 -19t-9 -18.5t-5 -15q-33 0 -59.5 -3t-49.5 -10t-46 -19t-49 -30q-38 -27 -73 -50t-75 -39.5t-90 -26t-118 -9.5q-10 0 -18 9t-8 29v6
q0 21 12.5 30.5t32.5 9.5q82 1 133.5 13.5t88 30.5t65 38.5t64.5 38.5q-23 9 -49.5 18.5t-52.5 17t-49 12.5t-39 5q-38 0 -57.5 -3t-32.5 -9zM461 -9q10 -5 27.5 -21t28.5 -31v-4q-6 -5 -13.5 -12.5l-15.5 -15.5t-15 -15.5t-11 -11.5h-4q-9 12 -24 27t-31 23v4q0 1 8 10.5
t18 19.5l18.5 18.5t9.5 8.5h4z" />
    <glyph glyph-name="uniFC9E" unicode="&#xfe91;&#xfea8;" horiz-adv-x="613" arabic-form="initial" 
d="M76 251q15 16 26.5 37t22.5 38q3 5 12 8q3 2 7.5 2.5t9.5 2.5q49 9 88.5 26.5t70 39t53 45.5t38.5 46q18 26 34.5 42t33.5 16q12 0 21 -9.5t15 -23.5t8.5 -30t2.5 -28q0 -3 -3 -12t-7.5 -19.5t-10.5 -21t-12 -17.5h-5q-4 28 -17 48.5t-32 20.5q-15 0 -28.5 -14.5
t-31.5 -36t-43.5 -46.5t-63.5 -47q28 -9 59 -20t62.5 -20.5t63.5 -16t63 -6.5q14 0 34 1t35 3l2 -3q-4 -7 -9.5 -16.5t-10.5 -19t-9 -18.5t-5 -15q-33 0 -59.5 -3t-49.5 -10t-46 -19t-49 -30q-38 -27 -73 -50t-75 -39.5t-90 -26t-118 -9.5q-10 0 -18 9t-8 29v6
q0 21 12.5 30.5t32.5 9.5q82 1 133.5 13.5t88 30.5t65 38.5t64.5 38.5q-23 9 -49.5 18.5t-52.5 17t-49 12.5t-39 5q-38 0 -57.5 -3t-32.5 -9zM453 -9q10 -5 27.5 -21t28.5 -31v-4q-6 -5 -13.5 -12.5l-15.5 -15.5t-15 -15.5t-11 -11.5h-4q-9 12 -24 27t-31 23v4q0 1 8 10.5
t18 19.5l18.5 18.5t9.5 8.5h4zM126 586q10 -5 27.5 -21t28.5 -31v-4q-6 -5 -13.5 -12.5l-15.5 -15.5t-15 -15.5t-11 -11.5h-4q-9 12 -24 27t-31 23v4q0 1 8 10.5t18 19.5l18.5 18.5t9.5 8.5h4z" />
    <glyph glyph-name="uniFC9F" unicode="&#xfe91;&#xfee4;" horiz-adv-x="503" arabic-form="initial" 
d="M-10 0q-10 0 -18 9t-8 29v6q0 21 13 30.5t33 9.5q46 0 78 10.5t58 25.5v7q0 67 23.5 119.5t57.5 88.5t73 55t70 19q22 0 36 -8t22.5 -20.5t12 -29t3.5 -32.5v-10t-1 -10h-5q-14 11 -36 19.5t-48 8.5q-29 0 -58 -15t-53.5 -40.5t-41.5 -58.5t-21 -70q29 22 59.5 43.5
t62.5 21.5q21 0 41 -9.5t35 -27.5t24 -43.5t9 -57.5q0 -27 -9 -52t-24 -43.5t-34 -29.5t-39 -11q-19 0 -41.5 7.5t-43.5 23t-38.5 38.5t-26.5 54q-15 -14 -29 -24.5t-32.5 -18t-43 -11t-60.5 -3.5zM275 137q-23 0 -46 -15t-40 -32q20 -47 68 -68.5t108 -21.5q1 5 1.5 14
t0.5 14q0 27 -8 47t-21.5 34t-30 21t-32.5 7zM394 -158q10 -5 27.5 -21t28.5 -31v-4q-6 -5 -13.5 -12.5l-15.5 -15.5t-15 -15.5t-11 -11.5h-4q-9 12 -24 27t-31 23v4q0 1 8 10.5t18 19.5l18.5 18.5t9.5 8.5h4z" />
    <glyph glyph-name="uniFCA0" unicode="&#xfe91;&#xfeec;" horiz-adv-x="567" arabic-form="initial" 
d="M491 78q-11 20 -24 27.5t-27 7.5q-21 0 -47 -13t-51 -33.5t-45 -45.5t-29 -50q-10 -24 -10 -69q0 -19 1 -30.5t2.5 -21.5t2.5 -21t1 -28q0 -21 -15 -46t-37 -51l-4 1q-11 21 -26.5 53t-29.5 67.5t-24 69.5t-10 59q0 27 5 47t13 41q-68 -42 -147 -42q-10 0 -18 9t-8 29v6
q0 21 13 30.5t33 9.5q21 0 51 4t54 13q38 14 57 31t31 50q8 -8 8 -23q0 -20 -11 -41.5t-19 -32.5q-23 -29 -23 -62q0 -12 3.5 -33t10.5 -46t17 -51.5t23 -49.5h4q0 5 -0.5 9.5t-0.5 9.5q0 46 12 87t30 75t39 60t40 43q75 66 127 66q23 0 36.5 -13.5t13.5 -39.5
q0 -12 -5.5 -31t-11.5 -31h-5zM427 -109q10 -5 27.5 -21t28.5 -31v-4q-6 -5 -13.5 -12.5l-15.5 -15.5t-15 -15.5t-11 -11.5h-4q-9 12 -24 27t-31 23v4q0 1 8 10.5t18 19.5l18.5 18.5t9.5 8.5h4z" />
    <glyph glyph-name="uniFCA1" unicode="&#xfe97;&#xfea0;" horiz-adv-x="613" arabic-form="initial" 
d="M76 251q15 16 26.5 37t22.5 38q3 5 12 8q3 2 7.5 2.5t9.5 2.5q49 9 88.5 26.5t70 39t53 45.5t38.5 46q18 26 34.5 42t33.5 16q12 0 21 -9.5t15 -23.5t8.5 -30t2.5 -28q0 -3 -3 -12t-7.5 -19.5t-10.5 -21t-12 -17.5h-5q-4 28 -17 48.5t-32 20.5q-15 0 -28.5 -14.5
t-31.5 -36t-43.5 -46.5t-63.5 -47q28 -9 59 -20t62.5 -20.5t63.5 -16t63 -6.5q14 0 34 1t35 3l2 -3q-4 -7 -9.5 -16.5t-10.5 -19t-9 -18.5t-5 -15q-33 0 -59.5 -3t-49.5 -10t-46 -19t-49 -30q-38 -27 -73 -50t-75 -39.5t-90 -26t-118 -9.5q-10 0 -18 9t-8 29v6
q0 21 12.5 30.5t32.5 9.5q82 1 133.5 13.5t88 30.5t65 38.5t64.5 38.5q-23 9 -49.5 18.5t-52.5 17t-49 12.5t-39 5q-38 0 -57.5 -3t-32.5 -9zM278 -109q10 -5 27.5 -21t28.5 -31v-4q-6 -5 -13.5 -12.5l-15.5 -15.5t-15 -15.5t-11 -11.5h-4q-9 12 -24 27t-31 23v4q0 1 8 10.5
t18 19.5l18.5 18.5t9.5 8.5h4zM410 786q10 -5 27.5 -21t28.5 -31v-4q-6 -5 -13.5 -12.5l-15.5 -15.5t-15 -15.5t-11 -11.5h-4q-9 12 -24 27t-31 23v4q0 1 8 10.5t18 19.5l18.5 18.5t9.5 8.5h4zM533 786q10 -5 27.5 -21t28.5 -31v-4q-6 -5 -13.5 -12.5l-15.5 -15.5t-15 -15.5
t-11 -11.5h-4q-9 12 -24 27t-31 23v4q0 1 8 10.5t18 19.5l18.5 18.5t9.5 8.5h4z" />
    <glyph glyph-name="uniFCA2" unicode="&#xfe97;&#xfea4;" horiz-adv-x="613" arabic-form="initial" 
d="M76 251q15 16 26.5 37t22.5 38q3 5 12 8q3 2 7.5 2.5t9.5 2.5q49 9 88.5 26.5t70 39t53 45.5t38.5 46q18 26 34.5 42t33.5 16q12 0 21 -9.5t15 -23.5t8.5 -30t2.5 -28q0 -3 -3 -12t-7.5 -19.5t-10.5 -21t-12 -17.5h-5q-4 28 -17 48.5t-32 20.5q-15 0 -28.5 -14.5
t-31.5 -36t-43.5 -46.5t-63.5 -47q28 -9 59 -20t62.5 -20.5t63.5 -16t63 -6.5q14 0 34 1t35 3l2 -3q-4 -7 -9.5 -16.5t-10.5 -19t-9 -18.5t-5 -15q-33 0 -59.5 -3t-49.5 -10t-46 -19t-49 -30q-38 -27 -73 -50t-75 -39.5t-90 -26t-118 -9.5q-10 0 -18 9t-8 29v6
q0 21 12.5 30.5t32.5 9.5q82 1 133.5 13.5t88 30.5t65 38.5t64.5 38.5q-23 9 -49.5 18.5t-52.5 17t-49 12.5t-39 5q-38 0 -57.5 -3t-32.5 -9zM407 786q10 -5 27.5 -21t28.5 -31v-4q-6 -5 -13.5 -12.5l-15.5 -15.5t-15 -15.5t-11 -11.5h-4q-9 12 -24 27t-31 23v4q0 1 8 10.5
t18 19.5l18.5 18.5t9.5 8.5h4zM530 786q10 -5 27.5 -21t28.5 -31v-4q-6 -5 -13.5 -12.5l-15.5 -15.5t-15 -15.5t-11 -11.5h-4q-9 12 -24 27t-31 23v4q0 1 8 10.5t18 19.5l18.5 18.5t9.5 8.5h4z" />
    <glyph glyph-name="uniFCA3" unicode="&#xfe97;&#xfea8;" horiz-adv-x="613" arabic-form="initial" 
d="M76 251q15 16 26.5 37t22.5 38q3 5 12 8q3 2 7.5 2.5t9.5 2.5q49 9 88.5 26.5t70 39t53 45.5t38.5 46q18 26 34.5 42t33.5 16q12 0 21 -9.5t15 -23.5t8.5 -30t2.5 -28q0 -3 -3 -12t-7.5 -19.5t-10.5 -21t-12 -17.5h-5q-4 28 -17 48.5t-32 20.5q-15 0 -28.5 -14.5
t-31.5 -36t-43.5 -46.5t-63.5 -47q28 -9 59 -20t62.5 -20.5t63.5 -16t63 -6.5q14 0 34 1t35 3l2 -3q-4 -7 -9.5 -16.5t-10.5 -19t-9 -18.5t-5 -15q-33 0 -59.5 -3t-49.5 -10t-46 -19t-49 -30q-38 -27 -73 -50t-75 -39.5t-90 -26t-118 -9.5q-10 0 -18 9t-8 29v6
q0 21 12.5 30.5t32.5 9.5q82 1 133.5 13.5t88 30.5t65 38.5t64.5 38.5q-23 9 -49.5 18.5t-52.5 17t-49 12.5t-39 5q-38 0 -57.5 -3t-32.5 -9zM407 786q10 -5 27.5 -21t28.5 -31v-4q-6 -5 -13.5 -12.5l-15.5 -15.5t-15 -15.5t-11 -11.5h-4q-9 12 -24 27t-31 23v4q0 1 8 10.5
t18 19.5l18.5 18.5t9.5 8.5h4zM530 786q10 -5 27.5 -21t28.5 -31v-4q-6 -5 -13.5 -12.5l-15.5 -15.5t-15 -15.5t-11 -11.5h-4q-9 12 -24 27t-31 23v4q0 1 8 10.5t18 19.5l18.5 18.5t9.5 8.5h4zM126 586q10 -5 27.5 -21t28.5 -31v-4q-6 -5 -13.5 -12.5l-15.5 -15.5t-15 -15.5
t-11 -11.5h-4q-9 12 -24 27t-31 23v4q0 1 8 10.5t18 19.5l18.5 18.5t9.5 8.5h4z" />
    <glyph glyph-name="uniFCA4" unicode="&#xfe97;&#xfee4;" horiz-adv-x="503" arabic-form="initial" 
d="M-10 0q-10 0 -18 9t-8 29v6q0 21 13 30.5t33 9.5q46 0 78 10.5t58 25.5v7q0 67 23.5 119.5t57.5 88.5t73 55t70 19q22 0 36 -8t22.5 -20.5t12 -29t3.5 -32.5v-10t-1 -10h-5q-14 11 -36 19.5t-48 8.5q-29 0 -58 -15t-53.5 -40.5t-41.5 -58.5t-21 -70q29 22 59.5 43.5
t62.5 21.5q21 0 41 -9.5t35 -27.5t24 -43.5t9 -57.5q0 -27 -9 -52t-24 -43.5t-34 -29.5t-39 -11q-19 0 -41.5 7.5t-43.5 23t-38.5 38.5t-26.5 54q-15 -14 -29 -24.5t-32.5 -18t-43 -11t-60.5 -3.5zM275 137q-23 0 -46 -15t-40 -32q20 -47 68 -68.5t108 -21.5q1 5 1.5 14
t0.5 14q0 27 -8 47t-21.5 34t-30 21t-32.5 7zM280 686q10 -5 27.5 -21t28.5 -31v-4q-6 -5 -13.5 -12.5l-15.5 -15.5t-15 -15.5t-11 -11.5h-4q-9 12 -24 27t-31 23v4q0 1 8 10.5t18 19.5l18.5 18.5t9.5 8.5h4zM403 686q10 -5 27.5 -21t28.5 -31v-4q-6 -5 -13.5 -12.5
l-15.5 -15.5t-15 -15.5t-11 -11.5h-4q-9 12 -24 27t-31 23v4q0 1 8 10.5t18 19.5l18.5 18.5t9.5 8.5h4z" />
    <glyph glyph-name="uniFCA5" unicode="&#xfe97;&#xfeec;" horiz-adv-x="543" arabic-form="initial" 
d="M491 78q-11 20 -24 27.5t-27 7.5q-21 0 -47 -13t-51 -33.5t-45 -45.5t-29 -50q-10 -24 -10 -69q0 -19 1 -30.5t2.5 -21.5t2.5 -21t1 -28q0 -21 -15 -46t-37 -51l-4 1q-11 21 -26.5 53t-29.5 67.5t-24 69.5t-10 59q0 27 5 47t13 41q-68 -42 -147 -42q-10 0 -18 9t-8 29v6
q0 21 13 30.5t33 9.5q21 0 51 4t54 13q38 14 57 31t31 50q8 -8 8 -23q0 -20 -11 -41.5t-19 -32.5q-23 -29 -23 -62q0 -12 3.5 -33t10.5 -46t17 -51.5t23 -49.5h4q0 5 -0.5 9.5t-0.5 9.5q0 46 12 87t30 75t39 60t40 43q75 66 127 66q23 0 36.5 -13.5t13.5 -39.5
q0 -12 -5.5 -31t-11.5 -31h-5zM346 487q10 -5 27.5 -21t28.5 -31v-4q-6 -5 -13.5 -12.5l-15.5 -15.5t-15 -15.5t-11 -11.5h-4q-9 12 -24 27t-31 23v4q0 1 8 10.5t18 19.5l18.5 18.5t9.5 8.5h4zM469 487q10 -5 27.5 -21t28.5 -31v-4q-6 -5 -13.5 -12.5l-15.5 -15.5t-15 -15.5
t-11 -11.5h-4q-9 12 -24 27t-31 23v4q0 1 8 10.5t18 19.5l18.5 18.5t9.5 8.5h4z" />
    <glyph glyph-name="uniFCA6" unicode="&#xfe9b;&#xfee4;" horiz-adv-x="503" arabic-form="initial" 
d="M-10 0q-10 0 -18 9t-8 29v6q0 21 13 30.5t33 9.5q46 0 78 10.5t58 25.5v7q0 67 23.5 119.5t57.5 88.5t73 55t70 19q22 0 36 -8t22.5 -20.5t12 -29t3.5 -32.5v-10t-1 -10h-5q-14 11 -36 19.5t-48 8.5q-29 0 -58 -15t-53.5 -40.5t-41.5 -58.5t-21 -70q29 22 59.5 43.5
t62.5 21.5q21 0 41 -9.5t35 -27.5t24 -43.5t9 -57.5q0 -27 -9 -52t-24 -43.5t-34 -29.5t-39 -11q-19 0 -41.5 7.5t-43.5 23t-38.5 38.5t-26.5 54q-15 -14 -29 -24.5t-32.5 -18t-43 -11t-60.5 -3.5zM275 137q-23 0 -46 -15t-40 -32q20 -47 68 -68.5t108 -21.5q1 5 1.5 14
t0.5 14q0 27 -8 47t-21.5 34t-30 21t-32.5 7zM277 686q10 -5 27.5 -21t28.5 -31v-4q-6 -5 -13.5 -12.5l-15.5 -15.5t-15 -15.5t-11 -11.5h-4q-9 12 -24 27t-31 23v4q0 1 8 10.5t18 19.5l18.5 18.5t9.5 8.5h4zM400 686q10 -5 27.5 -21t28.5 -31v-4q-6 -5 -13.5 -12.5
l-15.5 -15.5t-15 -15.5t-11 -11.5h-4q-9 12 -24 27t-31 23v4q0 1 8 10.5t18 19.5l18.5 18.5t9.5 8.5h4zM333 813q10 -5 27.5 -21t28.5 -31v-4q-6 -5 -13.5 -12.5l-15.5 -15.5t-15 -15.5t-11 -11.5h-4q-9 12 -24 27t-31 23v4q0 1 8 10.5t18 19.5l18.5 18.5t9.5 8.5h4z" />
    <glyph glyph-name="uniFCA8" unicode="&#xfe9f;&#xfee4;" horiz-adv-x="690" arabic-form="initial" 
d="M169 360q15 16 26.5 37t22.5 38q7 12 47 12q30 0 70 -13t85.5 -28.5t93 -28.5t92.5 -13q14 0 34 1t35 3l2 -3q-4 -7 -9.5 -16.5t-10.5 -19t-9 -18.5t-5 -15q-104 0 -176 -20.5t-126 -52.5q17 -4 32.5 -16t27 -29.5t18.5 -39t7 -43.5q0 -27 -7.5 -51t-20 -41t-30 -27
t-37.5 -10t-43 6.5t-45 21t-40 37t-28 55.5q-39 -37 -81.5 -61.5t-103.5 -24.5q-10 0 -18 9t-8 29v6q0 21 12.5 30.5t32.5 9.5q36 0 65.5 13t58.5 34t60 47t68.5 51.5t84 48t107.5 36.5q-23 9 -49.5 18.5t-52.5 17t-49 12.5t-39 5q-38 0 -57.5 -3t-32.5 -9zM380 32
q1 5 1.5 10.5t0.5 10.5q0 45 -26.5 73.5t-62.5 28.5q-40 0 -74 -28l-10 -11q13 -27 32 -43.5t41.5 -25.5t47.5 -12t50 -3zM534 -9q10 -5 27.5 -21t28.5 -31v-4q-6 -5 -13.5 -12.5l-15.5 -15.5t-15 -15.5t-11 -11.5h-4q-9 12 -24 27t-31 23v4q0 1 8 10.5t18 19.5l18.5 18.5
t9.5 8.5h4z" />
    <glyph glyph-name="uniFCAA" unicode="&#xfea3;&#xfee4;" horiz-adv-x="690" arabic-form="initial" 
d="M169 360q15 16 26.5 37t22.5 38q7 12 47 12q30 0 70 -13t85.5 -28.5t93 -28.5t92.5 -13q14 0 34 1t35 3l2 -3q-4 -7 -9.5 -16.5t-10.5 -19t-9 -18.5t-5 -15q-104 0 -176 -20.5t-126 -52.5q17 -4 32.5 -16t27 -29.5t18.5 -39t7 -43.5q0 -27 -7.5 -51t-20 -41t-30 -27
t-37.5 -10t-43 6.5t-45 21t-40 37t-28 55.5q-39 -37 -81.5 -61.5t-103.5 -24.5q-10 0 -18 9t-8 29v6q0 21 12.5 30.5t32.5 9.5q36 0 65.5 13t58.5 34t60 47t68.5 51.5t84 48t107.5 36.5q-23 9 -49.5 18.5t-52.5 17t-49 12.5t-39 5q-38 0 -57.5 -3t-32.5 -9zM380 32
q1 5 1.5 10.5t0.5 10.5q0 45 -26.5 73.5t-62.5 28.5q-40 0 -74 -28l-10 -11q13 -27 32 -43.5t41.5 -25.5t47.5 -12t50 -3z" />
    <glyph glyph-name="uniFCAC" unicode="&#xfea7;&#xfee4;" horiz-adv-x="690" arabic-form="initial" 
d="M169 360q15 16 26.5 37t22.5 38q7 12 47 12q30 0 70 -13t85.5 -28.5t93 -28.5t92.5 -13q14 0 34 1t35 3l2 -3q-4 -7 -9.5 -16.5t-10.5 -19t-9 -18.5t-5 -15q-104 0 -176 -20.5t-126 -52.5q17 -4 32.5 -16t27 -29.5t18.5 -39t7 -43.5q0 -27 -7.5 -51t-20 -41t-30 -27
t-37.5 -10t-43 6.5t-45 21t-40 37t-28 55.5q-39 -37 -81.5 -61.5t-103.5 -24.5q-10 0 -18 9t-8 29v6q0 21 12.5 30.5t32.5 9.5q36 0 65.5 13t58.5 34t60 47t68.5 51.5t84 48t107.5 36.5q-23 9 -49.5 18.5t-52.5 17t-49 12.5t-39 5q-38 0 -57.5 -3t-32.5 -9zM380 32
q1 5 1.5 10.5t0.5 10.5q0 45 -26.5 73.5t-62.5 28.5q-40 0 -74 -28l-10 -11q13 -27 32 -43.5t41.5 -25.5t47.5 -12t50 -3zM314 686q10 -5 27.5 -21t28.5 -31v-4q-6 -5 -13.5 -12.5l-15.5 -15.5t-15 -15.5t-11 -11.5h-4q-9 12 -24 27t-31 23v4q0 1 8 10.5t18 19.5l18.5 18.5
t9.5 8.5h4z" />
    <glyph glyph-name="uniFCC9" unicode="&#xfedf;&#xfea0;" horiz-adv-x="594" arabic-form="initial" 
d="M76 251q15 16 26.5 37t22.5 38q4 6 15.5 9t37.5 3q24 0 44.5 1t36.5 5.5t25 13.5t9 24q0 34 -3.5 73t-7.5 74t-8 62t-5 38q-10 10 -16 22t-6 28q0 19 10 48.5t27 48.5q3 -26 11 -42.5t20 -28.5t28.5 -20t36.5 -16l-36 -82q1 -51 2 -80t1.5 -43t0.5 -18v-6
q0 -32 -11.5 -69.5t-28.5 -67.5q49 -17 101.5 -32.5t103.5 -15.5q14 0 34 1t35 3l2 -3q-4 -7 -9.5 -16.5t-10.5 -19t-9 -18.5t-5 -15q-33 0 -59.5 -3t-49.5 -10t-46 -19t-49 -30q-38 -27 -73 -50t-75 -39.5t-90 -26t-118 -9.5q-10 0 -18 9t-8 29v6q0 21 12.5 30.5t32.5 9.5
q82 1 133.5 13.5t88 30.5t65 38.5t64.5 38.5q-23 9 -49.5 18.5t-52.5 17t-49 12.5t-39 5q-38 0 -57.5 -3t-32.5 -9zM341 -9q10 -5 27.5 -21t28.5 -31v-4q-6 -5 -13.5 -12.5l-15.5 -15.5t-15 -15.5t-11 -11.5h-4q-9 12 -24 27t-31 23v4q0 1 8 10.5t18 19.5l18.5 18.5t9.5 8.5
h4z" />
    <glyph glyph-name="uniFCCA" unicode="&#xfedf;&#xfea4;" horiz-adv-x="594" arabic-form="initial" 
d="M76 251q15 16 26.5 37t22.5 38q4 6 15.5 9t37.5 3q24 0 44.5 1t36.5 5.5t25 13.5t9 24q0 34 -3.5 73t-7.5 74t-8 62t-5 38q-10 10 -16 22t-6 28q0 19 10 48.5t27 48.5q3 -26 11 -42.5t20 -28.5t28.5 -20t36.5 -16l-36 -82q1 -51 2 -80t1.5 -43t0.5 -18v-6
q0 -32 -11.5 -69.5t-28.5 -67.5q49 -17 101.5 -32.5t103.5 -15.5q14 0 34 1t35 3l2 -3q-4 -7 -9.5 -16.5t-10.5 -19t-9 -18.5t-5 -15q-33 0 -59.5 -3t-49.5 -10t-46 -19t-49 -30q-38 -27 -73 -50t-75 -39.5t-90 -26t-118 -9.5q-10 0 -18 9t-8 29v6q0 21 12.5 30.5t32.5 9.5
q82 1 133.5 13.5t88 30.5t65 38.5t64.5 38.5q-23 9 -49.5 18.5t-52.5 17t-49 12.5t-39 5q-38 0 -57.5 -3t-32.5 -9z" />
    <glyph glyph-name="uniFCCB" unicode="&#xfedf;&#xfea8;" horiz-adv-x="594" arabic-form="initial" 
d="M76 251q15 16 26.5 37t22.5 38q4 6 15.5 9t37.5 3q24 0 44.5 1t36.5 5.5t25 13.5t9 24q0 34 -3.5 73t-7.5 74t-8 62t-5 38q-10 10 -16 22t-6 28q0 19 10 48.5t27 48.5q3 -26 11 -42.5t20 -28.5t28.5 -20t36.5 -16l-36 -82q1 -51 2 -80t1.5 -43t0.5 -18v-6
q0 -32 -11.5 -69.5t-28.5 -67.5q49 -17 101.5 -32.5t103.5 -15.5q14 0 34 1t35 3l2 -3q-4 -7 -9.5 -16.5t-10.5 -19t-9 -18.5t-5 -15q-33 0 -59.5 -3t-49.5 -10t-46 -19t-49 -30q-38 -27 -73 -50t-75 -39.5t-90 -26t-118 -9.5q-10 0 -18 9t-8 29v6q0 21 12.5 30.5t32.5 9.5
q82 1 133.5 13.5t88 30.5t65 38.5t64.5 38.5q-23 9 -49.5 18.5t-52.5 17t-49 12.5t-39 5q-38 0 -57.5 -3t-32.5 -9zM103 586q10 -5 27.5 -21t28.5 -31v-4q-6 -5 -13.5 -12.5l-15.5 -15.5t-15 -15.5t-11 -11.5h-4q-9 12 -24 27t-31 23v4q0 1 8 10.5t18 19.5l18.5 18.5
t9.5 8.5h4z" />
    <glyph glyph-name="uniFCCE" unicode="&#xfee3;&#xfea0;" horiz-adv-x="606" arabic-form="initial" 
d="M76 251q15 16 26.5 37t22.5 38l4 5q12 14 37.5 31t56.5 33t63 29t58 19q-16 15 -20 20t-4 9q0 1 5 14.5t12.5 28.5t14.5 27.5t12 12.5q9 0 29.5 -12t41 -28t36 -31.5t15.5 -22.5q0 -6 -7 -17t-17 -21.5t-20 -19t-17 -10.5q-10 -3 -33 -8t-51.5 -12.5t-59 -18t-55.5 -25.5
q30 -8 65 -20.5t72.5 -24.5t75.5 -20.5t74 -8.5q14 0 34 1t35 3l2 -3q-4 -7 -9.5 -16.5t-10.5 -19t-9 -18.5t-5 -15q-33 0 -59.5 -3t-49.5 -10t-46 -19t-49 -30q-38 -27 -73 -50t-75 -39.5t-90 -26t-118 -9.5q-10 0 -18 9t-8 29v6q0 21 12.5 30.5t32.5 9.5q82 1 133.5 13.5
t88 30.5t65 38.5t64.5 38.5q-23 9 -49.5 18.5t-52.5 17t-49 12.5t-39 5q-38 0 -57.5 -3t-32.5 -9zM331 -9q10 -5 27.5 -21t28.5 -31v-4q-6 -5 -13.5 -12.5l-15.5 -15.5t-15 -15.5t-11 -11.5h-4q-9 12 -24 27t-31 23v4q0 1 8 10.5t18 19.5l18.5 18.5t9.5 8.5h4z" />
    <glyph glyph-name="uniFCCF" unicode="&#xfee3;&#xfea4;" horiz-adv-x="606" arabic-form="initial" 
d="M76 251q15 16 26.5 37t22.5 38l4 5q12 14 37.5 31t56.5 33t63 29t58 19q-16 15 -20 20t-4 9q0 1 5 14.5t12.5 28.5t14.5 27.5t12 12.5q9 0 29.5 -12t41 -28t36 -31.5t15.5 -22.5q0 -6 -7 -17t-17 -21.5t-20 -19t-17 -10.5q-10 -3 -33 -8t-51.5 -12.5t-59 -18t-55.5 -25.5
q30 -8 65 -20.5t72.5 -24.5t75.5 -20.5t74 -8.5q14 0 34 1t35 3l2 -3q-4 -7 -9.5 -16.5t-10.5 -19t-9 -18.5t-5 -15q-33 0 -59.5 -3t-49.5 -10t-46 -19t-49 -30q-38 -27 -73 -50t-75 -39.5t-90 -26t-118 -9.5q-10 0 -18 9t-8 29v6q0 21 12.5 30.5t32.5 9.5q82 1 133.5 13.5
t88 30.5t65 38.5t64.5 38.5q-23 9 -49.5 18.5t-52.5 17t-49 12.5t-39 5q-38 0 -57.5 -3t-32.5 -9z" />
    <glyph glyph-name="uniFCD0" unicode="&#xfee3;&#xfea8;" horiz-adv-x="606" arabic-form="initial" 
d="M76 251q15 16 26.5 37t22.5 38l4 5q12 14 37.5 31t56.5 33t63 29t58 19q-16 15 -20 20t-4 9q0 1 5 14.5t12.5 28.5t14.5 27.5t12 12.5q9 0 29.5 -12t41 -28t36 -31.5t15.5 -22.5q0 -6 -7 -17t-17 -21.5t-20 -19t-17 -10.5q-10 -3 -33 -8t-51.5 -12.5t-59 -18t-55.5 -25.5
q30 -8 65 -20.5t72.5 -24.5t75.5 -20.5t74 -8.5q14 0 34 1t35 3l2 -3q-4 -7 -9.5 -16.5t-10.5 -19t-9 -18.5t-5 -15q-33 0 -59.5 -3t-49.5 -10t-46 -19t-49 -30q-38 -27 -73 -50t-75 -39.5t-90 -26t-118 -9.5q-10 0 -18 9t-8 29v6q0 21 12.5 30.5t32.5 9.5q82 1 133.5 13.5
t88 30.5t65 38.5t64.5 38.5q-23 9 -49.5 18.5t-52.5 17t-49 12.5t-39 5q-38 0 -57.5 -3t-32.5 -9zM124 586q10 -5 27.5 -21t28.5 -31v-4q-6 -5 -13.5 -12.5l-15.5 -15.5t-15 -15.5t-11 -11.5h-4q-9 12 -24 27t-31 23v4q0 1 8 10.5t18 19.5l18.5 18.5t9.5 8.5h4z" />
    <glyph glyph-name="uniFCD1" unicode="&#xfee3;&#xfee4;" horiz-adv-x="448" arabic-form="initial" 
d="M396 383q0 -6 -14 -39q-14 -27 -22 -28q-188 -26 -188 -87q0 -62 99 -120q19 -11 30.5 -17.5t11.5 -14.5q0 -3 -4.5 -15t-11 -25.5t-13 -24t-9.5 -10.5q-5 0 -22.5 6.5t-46.5 24.5q-22 14 -31.5 16.5t-19.5 2.5q-9 0 -67 -26t-98 -26q-10 0 -18 9t-8 29v6q0 21 13 30.5
t33 9.5q29 0 63 9.5t72 26.5q-8 24 -8 52q0 67 31.5 115.5t91.5 74.5q-13 25 -13 28q0 17 31 78l5 2q42 -23 65.5 -38.5t31.5 -22.5q16 -13 16 -26z" />
    <glyph glyph-name="uniFCD2" unicode="&#xfee7;&#xfea0;" horiz-adv-x="613" arabic-form="initial" 
d="M76 251q15 16 26.5 37t22.5 38q3 5 12 8q3 2 7.5 2.5t9.5 2.5q49 9 88.5 26.5t70 39t53 45.5t38.5 46q18 26 34.5 42t33.5 16q12 0 21 -9.5t15 -23.5t8.5 -30t2.5 -28q0 -3 -3 -12t-7.5 -19.5t-10.5 -21t-12 -17.5h-5q-4 28 -17 48.5t-32 20.5q-15 0 -28.5 -14.5
t-31.5 -36t-43.5 -46.5t-63.5 -47q28 -9 59 -20t62.5 -20.5t63.5 -16t63 -6.5q14 0 34 1t35 3l2 -3q-4 -7 -9.5 -16.5t-10.5 -19t-9 -18.5t-5 -15q-33 0 -59.5 -3t-49.5 -10t-46 -19t-49 -30q-38 -27 -73 -50t-75 -39.5t-90 -26t-118 -9.5q-10 0 -18 9t-8 29v6
q0 21 12.5 30.5t32.5 9.5q82 1 133.5 13.5t88 30.5t65 38.5t64.5 38.5q-23 9 -49.5 18.5t-52.5 17t-49 12.5t-39 5q-38 0 -57.5 -3t-32.5 -9zM278 -109q10 -5 27.5 -21t28.5 -31v-4q-6 -5 -13.5 -12.5l-15.5 -15.5t-15 -15.5t-11 -11.5h-4q-9 12 -24 27t-31 23v4q0 1 8 10.5
t18 19.5l18.5 18.5t9.5 8.5h4zM418 786q10 -5 27.5 -21t28.5 -31v-4q-6 -5 -13.5 -12.5l-15.5 -15.5t-15 -15.5t-11 -11.5h-4q-9 12 -24 27t-31 23v4q0 1 8 10.5t18 19.5l18.5 18.5t9.5 8.5h4z" />
    <glyph glyph-name="uniFCD3" unicode="&#xfee7;&#xfea4;" horiz-adv-x="613" arabic-form="initial" 
d="M76 251q15 16 26.5 37t22.5 38q3 5 12 8q3 2 7.5 2.5t9.5 2.5q49 9 88.5 26.5t70 39t53 45.5t38.5 46q18 26 34.5 42t33.5 16q12 0 21 -9.5t15 -23.5t8.5 -30t2.5 -28q0 -3 -3 -12t-7.5 -19.5t-10.5 -21t-12 -17.5h-5q-4 28 -17 48.5t-32 20.5q-15 0 -28.5 -14.5
t-31.5 -36t-43.5 -46.5t-63.5 -47q28 -9 59 -20t62.5 -20.5t63.5 -16t63 -6.5q14 0 34 1t35 3l2 -3q-4 -7 -9.5 -16.5t-10.5 -19t-9 -18.5t-5 -15q-33 0 -59.5 -3t-49.5 -10t-46 -19t-49 -30q-38 -27 -73 -50t-75 -39.5t-90 -26t-118 -9.5q-10 0 -18 9t-8 29v6
q0 21 12.5 30.5t32.5 9.5q82 1 133.5 13.5t88 30.5t65 38.5t64.5 38.5q-23 9 -49.5 18.5t-52.5 17t-49 12.5t-39 5q-38 0 -57.5 -3t-32.5 -9zM415 786q10 -5 27.5 -21t28.5 -31v-4q-6 -5 -13.5 -12.5l-15.5 -15.5t-15 -15.5t-11 -11.5h-4q-9 12 -24 27t-31 23v4q0 1 8 10.5
t18 19.5l18.5 18.5t9.5 8.5h4z" />
    <glyph glyph-name="uniFCD4" unicode="&#xfee7;&#xfea8;" horiz-adv-x="613" arabic-form="initial" 
d="M76 251q15 16 26.5 37t22.5 38q3 5 12 8q3 2 7.5 2.5t9.5 2.5q49 9 88.5 26.5t70 39t53 45.5t38.5 46q18 26 34.5 42t33.5 16q12 0 21 -9.5t15 -23.5t8.5 -30t2.5 -28q0 -3 -3 -12t-7.5 -19.5t-10.5 -21t-12 -17.5h-5q-4 28 -17 48.5t-32 20.5q-15 0 -28.5 -14.5
t-31.5 -36t-43.5 -46.5t-63.5 -47q28 -9 59 -20t62.5 -20.5t63.5 -16t63 -6.5q14 0 34 1t35 3l2 -3q-4 -7 -9.5 -16.5t-10.5 -19t-9 -18.5t-5 -15q-33 0 -59.5 -3t-49.5 -10t-46 -19t-49 -30q-38 -27 -73 -50t-75 -39.5t-90 -26t-118 -9.5q-10 0 -18 9t-8 29v6
q0 21 12.5 30.5t32.5 9.5q82 1 133.5 13.5t88 30.5t65 38.5t64.5 38.5q-23 9 -49.5 18.5t-52.5 17t-49 12.5t-39 5q-38 0 -57.5 -3t-32.5 -9zM415 786q10 -5 27.5 -21t28.5 -31v-4q-6 -5 -13.5 -12.5l-15.5 -15.5t-15 -15.5t-11 -11.5h-4q-9 12 -24 27t-31 23v4q0 1 8 10.5
t18 19.5l18.5 18.5t9.5 8.5h4zM114 586q10 -5 27.5 -21t28.5 -31v-4q-6 -5 -13.5 -12.5l-15.5 -15.5t-15 -15.5t-11 -11.5h-4q-9 12 -24 27t-31 23v4q0 1 8 10.5t18 19.5l18.5 18.5t9.5 8.5h4z" />
    <glyph glyph-name="uniFCD5" unicode="&#xfee7;&#xfee4;" horiz-adv-x="503" arabic-form="initial" 
d="M-10 0q-10 0 -18 9t-8 29v6q0 21 13 30.5t33 9.5q46 0 78 10.5t58 25.5v7q0 67 23.5 119.5t57.5 88.5t73 55t70 19q22 0 36 -8t22.5 -20.5t12 -29t3.5 -32.5v-10t-1 -10h-5q-14 11 -36 19.5t-48 8.5q-29 0 -58 -15t-53.5 -40.5t-41.5 -58.5t-21 -70q29 22 59.5 43.5
t62.5 21.5q21 0 41 -9.5t35 -27.5t24 -43.5t9 -57.5q0 -27 -9 -52t-24 -43.5t-34 -29.5t-39 -11q-19 0 -41.5 7.5t-43.5 23t-38.5 38.5t-26.5 54q-15 -14 -29 -24.5t-32.5 -18t-43 -11t-60.5 -3.5zM275 137q-23 0 -46 -15t-40 -32q20 -47 68 -68.5t108 -21.5q1 5 1.5 14
t0.5 14q0 27 -8 47t-21.5 34t-30 21t-32.5 7zM342 686q10 -5 27.5 -21t28.5 -31v-4q-6 -5 -13.5 -12.5l-15.5 -15.5t-15 -15.5t-11 -11.5h-4q-9 12 -24 27t-31 23v4q0 1 8 10.5t18 19.5l18.5 18.5t9.5 8.5h4z" />
    <glyph glyph-name="uniFCD6" unicode="&#xfee7;&#xfeec;" horiz-adv-x="567" arabic-form="initial" 
d="M491 78q-11 20 -24 27.5t-27 7.5q-21 0 -47 -13t-51 -33.5t-45 -45.5t-29 -50q-10 -24 -10 -69q0 -19 1 -30.5t2.5 -21.5t2.5 -21t1 -28q0 -21 -15 -46t-37 -51l-4 1q-11 21 -26.5 53t-29.5 67.5t-24 69.5t-10 59q0 27 5 47t13 41q-68 -42 -147 -42q-10 0 -18 9t-8 29v6
q0 21 13 30.5t33 9.5q21 0 51 4t54 13q38 14 57 31t31 50q8 -8 8 -23q0 -20 -11 -41.5t-19 -32.5q-23 -29 -23 -62q0 -12 3.5 -33t10.5 -46t17 -51.5t23 -49.5h4q0 5 -0.5 9.5t-0.5 9.5q0 46 12 87t30 75t39 60t40 43q75 66 127 66q23 0 36.5 -13.5t13.5 -39.5
q0 -12 -5.5 -31t-11.5 -31h-5zM397 487q10 -5 27.5 -21t28.5 -31v-4q-6 -5 -13.5 -12.5l-15.5 -15.5t-15 -15.5t-11 -11.5h-4q-9 12 -24 27t-31 23v4q0 1 8 10.5t18 19.5l18.5 18.5t9.5 8.5h4z" />
    <glyph glyph-name="uniFCDA" unicode="&#xfef3;&#xfea0;" horiz-adv-x="613" arabic-form="initial" 
d="M76 251q15 16 26.5 37t22.5 38q3 5 12 8q3 2 7.5 2.5t9.5 2.5q49 9 88.5 26.5t70 39t53 45.5t38.5 46q18 26 34.5 42t33.5 16q12 0 21 -9.5t15 -23.5t8.5 -30t2.5 -28q0 -3 -3 -12t-7.5 -19.5t-10.5 -21t-12 -17.5h-5q-4 28 -17 48.5t-32 20.5q-15 0 -28.5 -14.5
t-31.5 -36t-43.5 -46.5t-63.5 -47q28 -9 59 -20t62.5 -20.5t63.5 -16t63 -6.5q14 0 34 1t35 3l2 -3q-4 -7 -9.5 -16.5t-10.5 -19t-9 -18.5t-5 -15q-33 0 -59.5 -3t-49.5 -10t-46 -19t-49 -30q-38 -27 -73 -50t-75 -39.5t-90 -26t-118 -9.5q-10 0 -18 9t-8 29v6
q0 21 12.5 30.5t32.5 9.5q82 1 133.5 13.5t88 30.5t65 38.5t64.5 38.5q-23 9 -49.5 18.5t-52.5 17t-49 12.5t-39 5q-38 0 -57.5 -3t-32.5 -9zM146 -109q10 -5 27.5 -21t28.5 -31v-4q-6 -5 -13.5 -12.5l-15.5 -15.5t-15 -15.5t-11 -11.5h-4q-9 12 -24 27t-31 23v4q0 1 8 10.5
t18 19.5l18.5 18.5t9.5 8.5h4zM379 -9q10 -5 27.5 -21t28.5 -31v-4q-6 -5 -13.5 -12.5l-15.5 -15.5t-15 -15.5t-11 -11.5h-4q-9 12 -24 27t-31 23v4q0 1 8 10.5t18 19.5l18.5 18.5t9.5 8.5h4zM502 -9q10 -5 27.5 -21t28.5 -31v-4q-6 -5 -13.5 -12.5l-15.5 -15.5t-15 -15.5
t-11 -11.5h-4q-9 12 -24 27t-31 23v4q0 1 8 10.5t18 19.5l18.5 18.5t9.5 8.5h4z" />
    <glyph glyph-name="uniFCDB" unicode="&#xfef3;&#xfea4;" horiz-adv-x="613" arabic-form="initial" 
d="M76 251q15 16 26.5 37t22.5 38q3 5 12 8q3 2 7.5 2.5t9.5 2.5q49 9 88.5 26.5t70 39t53 45.5t38.5 46q18 26 34.5 42t33.5 16q12 0 21 -9.5t15 -23.5t8.5 -30t2.5 -28q0 -3 -3 -12t-7.5 -19.5t-10.5 -21t-12 -17.5h-5q-4 28 -17 48.5t-32 20.5q-15 0 -28.5 -14.5
t-31.5 -36t-43.5 -46.5t-63.5 -47q28 -9 59 -20t62.5 -20.5t63.5 -16t63 -6.5q14 0 34 1t35 3l2 -3q-4 -7 -9.5 -16.5t-10.5 -19t-9 -18.5t-5 -15q-33 0 -59.5 -3t-49.5 -10t-46 -19t-49 -30q-38 -27 -73 -50t-75 -39.5t-90 -26t-118 -9.5q-10 0 -18 9t-8 29v6
q0 21 12.5 30.5t32.5 9.5q82 1 133.5 13.5t88 30.5t65 38.5t64.5 38.5q-23 9 -49.5 18.5t-52.5 17t-49 12.5t-39 5q-38 0 -57.5 -3t-32.5 -9zM378 -9q10 -5 27.5 -21t28.5 -31v-4q-6 -5 -13.5 -12.5l-15.5 -15.5t-15 -15.5t-11 -11.5h-4q-9 12 -24 27t-31 23v4q0 1 8 10.5
t18 19.5l18.5 18.5t9.5 8.5h4zM501 -9q10 -5 27.5 -21t28.5 -31v-4q-6 -5 -13.5 -12.5l-15.5 -15.5t-15 -15.5t-11 -11.5h-4q-9 12 -24 27t-31 23v4q0 1 8 10.5t18 19.5l18.5 18.5t9.5 8.5h4z" />
    <glyph glyph-name="uniFCDC" unicode="&#xfef3;&#xfea8;" horiz-adv-x="613" arabic-form="initial" 
d="M76 251q15 16 26.5 37t22.5 38q3 5 12 8q3 2 7.5 2.5t9.5 2.5q49 9 88.5 26.5t70 39t53 45.5t38.5 46q18 26 34.5 42t33.5 16q12 0 21 -9.5t15 -23.5t8.5 -30t2.5 -28q0 -3 -3 -12t-7.5 -19.5t-10.5 -21t-12 -17.5h-5q-4 28 -17 48.5t-32 20.5q-15 0 -28.5 -14.5
t-31.5 -36t-43.5 -46.5t-63.5 -47q28 -9 59 -20t62.5 -20.5t63.5 -16t63 -6.5q14 0 34 1t35 3l2 -3q-4 -7 -9.5 -16.5t-10.5 -19t-9 -18.5t-5 -15q-33 0 -59.5 -3t-49.5 -10t-46 -19t-49 -30q-38 -27 -73 -50t-75 -39.5t-90 -26t-118 -9.5q-10 0 -18 9t-8 29v6
q0 21 12.5 30.5t32.5 9.5q82 1 133.5 13.5t88 30.5t65 38.5t64.5 38.5q-23 9 -49.5 18.5t-52.5 17t-49 12.5t-39 5q-38 0 -57.5 -3t-32.5 -9zM104 586q10 -5 27.5 -21t28.5 -31v-4q-6 -5 -13.5 -12.5l-15.5 -15.5t-15 -15.5t-11 -11.5h-4q-9 12 -24 27t-31 23v4q0 1 8 10.5
t18 19.5l18.5 18.5t9.5 8.5h4zM382 -9q10 -5 27.5 -21t28.5 -31v-4q-6 -5 -13.5 -12.5l-15.5 -15.5t-15 -15.5t-11 -11.5h-4q-9 12 -24 27t-31 23v4q0 1 8 10.5t18 19.5l18.5 18.5t9.5 8.5h4zM505 -9q10 -5 27.5 -21t28.5 -31v-4q-6 -5 -13.5 -12.5l-15.5 -15.5t-15 -15.5
t-11 -11.5h-4q-9 12 -24 27t-31 23v4q0 1 8 10.5t18 19.5l18.5 18.5t9.5 8.5h4z" />
    <glyph glyph-name="uniFCDD" unicode="&#xfef3;&#xfee4;" horiz-adv-x="503" arabic-form="initial" 
d="M-10 0q-10 0 -18 9t-8 29v6q0 21 13 30.5t33 9.5q46 0 78 10.5t58 25.5v7q0 67 23.5 119.5t57.5 88.5t73 55t70 19q22 0 36 -8t22.5 -20.5t12 -29t3.5 -32.5v-10t-1 -10h-5q-14 11 -36 19.5t-48 8.5q-29 0 -58 -15t-53.5 -40.5t-41.5 -58.5t-21 -70q29 22 59.5 43.5
t62.5 21.5q21 0 41 -9.5t35 -27.5t24 -43.5t9 -57.5q0 -27 -9 -52t-24 -43.5t-34 -29.5t-39 -11q-19 0 -41.5 7.5t-43.5 23t-38.5 38.5t-26.5 54q-15 -14 -29 -24.5t-32.5 -18t-43 -11t-60.5 -3.5zM275 137q-23 0 -46 -15t-40 -32q20 -47 68 -68.5t108 -21.5q1 5 1.5 14
t0.5 14q0 27 -8 47t-21.5 34t-30 21t-32.5 7zM324 -158q10 -5 27.5 -21t28.5 -31v-4q-6 -5 -13.5 -12.5l-15.5 -15.5t-15 -15.5t-11 -11.5h-4q-9 12 -24 27t-31 23v4q0 1 8 10.5t18 19.5l18.5 18.5t9.5 8.5h4zM447 -158q10 -5 27.5 -21t28.5 -31v-4q-6 -5 -13.5 -12.5
l-15.5 -15.5t-15 -15.5t-11 -11.5h-4q-9 12 -24 27t-31 23v4q0 1 8 10.5t18 19.5l18.5 18.5t9.5 8.5h4z" />
    <glyph glyph-name="uniFCDE" unicode="&#xfef3;&#xfeec;" horiz-adv-x="567" arabic-form="initial" 
d="M491 78q-11 20 -24 27.5t-27 7.5q-21 0 -47 -13t-51 -33.5t-45 -45.5t-29 -50q-10 -24 -10 -69q0 -19 1 -30.5t2.5 -21.5t2.5 -21t1 -28q0 -21 -15 -46t-37 -51l-4 1q-11 21 -26.5 53t-29.5 67.5t-24 69.5t-10 59q0 27 5 47t13 41q-68 -42 -147 -42q-10 0 -18 9t-8 29v6
q0 21 13 30.5t33 9.5q21 0 51 4t54 13q38 14 57 31t31 50q8 -8 8 -23q0 -20 -11 -41.5t-19 -32.5q-23 -29 -23 -62q0 -12 3.5 -33t10.5 -46t17 -51.5t23 -49.5h4q0 5 -0.5 9.5t-0.5 9.5q0 46 12 87t30 75t39 60t40 43q75 66 127 66q23 0 36.5 -13.5t13.5 -39.5
q0 -12 -5.5 -31t-11.5 -31h-5zM380 -109q10 -5 27.5 -21t28.5 -31v-4q-6 -5 -13.5 -12.5l-15.5 -15.5t-15 -15.5t-11 -11.5h-4q-9 12 -24 27t-31 23v4q0 1 8 10.5t18 19.5l18.5 18.5t9.5 8.5h4zM503 -109q10 -5 27.5 -21t28.5 -31v-4q-6 -5 -13.5 -12.5l-15.5 -15.5
t-15 -15.5t-11 -11.5h-4q-9 12 -24 27t-31 23v4q0 1 8 10.5t18 19.5l18.5 18.5t9.5 8.5h4z" />
    <glyph glyph-name="uniFCE0" unicode="&#xfe8c;&#xfeec;" horiz-adv-x="559" arabic-form="medial" 
d="M569 84q15 0 20.5 -9.5t5.5 -30.5v-5q0 -23 -12.5 -31t-33.5 -8q-28 0 -47.5 14.5t-38.5 56.5q-9 20 -20.5 28t-25.5 8q-21 0 -43.5 -12t-43 -31.5t-37 -44t-25.5 -49.5q-5 -14 -7 -32.5t-2 -38.5q0 -12 1 -26t2 -27.5t2 -25.5t1 -19q0 -21 -15 -46.5t-37 -50.5l-4 1
q-11 21 -26.5 53t-29.5 67.5t-24 69.5t-10 59q0 27 5 47t13 41q-68 -42 -147 -42q-10 0 -18 9t-8 29v6q0 21 13 30.5t33 9.5q21 0 51 4t54 13q38 14 57 31t31 50q8 -8 8 -23q0 -20 -11 -41.5t-19 -32.5q-23 -29 -23 -62q0 -8 3 -27t9 -44t16.5 -53.5t25.5 -55.5h4
q0 97 28 163.5t70 114.5q33 38 66.5 55t59.5 17q23 0 35 -18t21 -44q10 -29 29 -38t44 -9zM526 397q-30 -9 -60.5 -22t-55.5 -24l-56 -28q0 8 2.5 23.5t14.5 22.5l26 14q-12 5 -21.5 15t-9.5 28q0 13 9.5 32.5t25 36.5t35.5 29.5t41 12.5q11 0 22 -5t11 -18q0 -16 -9 -29
q-14 12 -42 12q-9 0 -18.5 -2.5t-17.5 -8t-13.5 -14.5t-5.5 -21q0 -20 15 -28.5t35 -8.5q23 0 39 5t33 13l3 -1z" />
    <glyph glyph-name="uniFCE2" unicode="&#xfe92;&#xfeec;" horiz-adv-x="559" arabic-form="medial" 
d="M569 84q15 0 20.5 -9.5t5.5 -30.5v-5q0 -23 -12.5 -31t-33.5 -8q-28 0 -47.5 14.5t-38.5 56.5q-9 20 -20.5 28t-25.5 8q-21 0 -43.5 -12t-43 -31.5t-37 -44t-25.5 -49.5q-5 -14 -7 -32.5t-2 -38.5q0 -12 1 -26t2 -27.5t2 -25.5t1 -19q0 -21 -15 -46.5t-37 -50.5l-4 1
q-11 21 -26.5 53t-29.5 67.5t-24 69.5t-10 59q0 27 5 47t13 41q-68 -42 -147 -42q-10 0 -18 9t-8 29v6q0 21 13 30.5t33 9.5q21 0 51 4t54 13q38 14 57 31t31 50q8 -8 8 -23q0 -20 -11 -41.5t-19 -32.5q-23 -29 -23 -62q0 -8 3 -27t9 -44t16.5 -53.5t25.5 -55.5h4
q0 97 28 163.5t70 114.5q33 38 66.5 55t59.5 17q23 0 35 -18t21 -44q10 -29 29 -38t44 -9zM425 -109q10 -5 27.5 -21t28.5 -31v-4q-6 -5 -13.5 -12.5l-15.5 -15.5t-15 -15.5t-11 -11.5h-4q-9 12 -24 27t-31 23v4q0 1 8 10.5t18 19.5l18.5 18.5t9.5 8.5h4z" />
    <glyph glyph-name="uniFCE4" unicode="&#xfe98;&#xfeec;" horiz-adv-x="559" arabic-form="medial" 
d="M569 84q15 0 20.5 -9.5t5.5 -30.5v-5q0 -23 -12.5 -31t-33.5 -8q-28 0 -47.5 14.5t-38.5 56.5q-9 20 -20.5 28t-25.5 8q-21 0 -43.5 -12t-43 -31.5t-37 -44t-25.5 -49.5q-5 -14 -7 -32.5t-2 -38.5q0 -12 1 -26t2 -27.5t2 -25.5t1 -19q0 -21 -15 -46.5t-37 -50.5l-4 1
q-11 21 -26.5 53t-29.5 67.5t-24 69.5t-10 59q0 27 5 47t13 41q-68 -42 -147 -42q-10 0 -18 9t-8 29v6q0 21 13 30.5t33 9.5q21 0 51 4t54 13q38 14 57 31t31 50q8 -8 8 -23q0 -20 -11 -41.5t-19 -32.5q-23 -29 -23 -62q0 -8 3 -27t9 -44t16.5 -53.5t25.5 -55.5h4
q0 97 28 163.5t70 114.5q33 38 66.5 55t59.5 17q23 0 35 -18t21 -44q10 -29 29 -38t44 -9zM351 487q10 -5 27.5 -21t28.5 -31v-4q-6 -5 -13.5 -12.5l-15.5 -15.5t-15 -15.5t-11 -11.5h-4q-9 12 -24 27t-31 23v4q0 1 8 10.5t18 19.5l18.5 18.5t9.5 8.5h4zM474 487
q10 -5 27.5 -21t28.5 -31v-4q-6 -5 -13.5 -12.5l-15.5 -15.5t-15 -15.5t-11 -11.5h-4q-9 12 -24 27t-31 23v4q0 1 8 10.5t18 19.5l18.5 18.5t9.5 8.5h4z" />
    <glyph glyph-name="uniFCE6" unicode="&#xfe9c;&#xfeec;" horiz-adv-x="559" arabic-form="medial" 
d="M569 84q15 0 20.5 -9.5t5.5 -30.5v-5q0 -23 -12.5 -31t-33.5 -8q-28 0 -47.5 14.5t-38.5 56.5q-9 20 -20.5 28t-25.5 8q-21 0 -43.5 -12t-43 -31.5t-37 -44t-25.5 -49.5q-5 -14 -7 -32.5t-2 -38.5q0 -12 1 -26t2 -27.5t2 -25.5t1 -19q0 -21 -15 -46.5t-37 -50.5l-4 1
q-11 21 -26.5 53t-29.5 67.5t-24 69.5t-10 59q0 27 5 47t13 41q-68 -42 -147 -42q-10 0 -18 9t-8 29v6q0 21 13 30.5t33 9.5q21 0 51 4t54 13q38 14 57 31t31 50q8 -8 8 -23q0 -20 -11 -41.5t-19 -32.5q-23 -29 -23 -62q0 -8 3 -27t9 -44t16.5 -53.5t25.5 -55.5h4
q0 97 28 163.5t70 114.5q33 38 66.5 55t59.5 17q23 0 35 -18t21 -44q10 -29 29 -38t44 -9zM355 487q10 -5 27.5 -21t28.5 -31v-4q-6 -5 -13.5 -12.5l-15.5 -15.5t-15 -15.5t-11 -11.5h-4q-9 12 -24 27t-31 23v4q0 1 8 10.5t18 19.5l18.5 18.5t9.5 8.5h4zM478 487
q10 -5 27.5 -21t28.5 -31v-4q-6 -5 -13.5 -12.5l-15.5 -15.5t-15 -15.5t-11 -11.5h-4q-9 12 -24 27t-31 23v4q0 1 8 10.5t18 19.5l18.5 18.5t9.5 8.5h4zM411 614q10 -5 27.5 -21t28.5 -31v-4q-6 -5 -13.5 -12.5l-15.5 -15.5t-15 -15.5t-11 -11.5h-4q-9 12 -24 27t-31 23v4
q0 1 8 10.5t18 19.5l18.5 18.5t9.5 8.5h4z" />
    <glyph glyph-name="uniFCE8" unicode="&#xfeb4;&#xfeec;" horiz-adv-x="1056" arabic-form="medial" 
d="M563 -3q-39 0 -60 16.5t-40 57.5q-9 20 -20.5 28t-25.5 8q-21 0 -43.5 -12t-43 -31.5t-37 -44t-25.5 -49.5q-5 -14 -7 -32.5t-2 -38.5q0 -12 1 -26t2 -27.5t2 -25.5t1 -19q0 -21 -15 -46.5t-37 -50.5l-4 1q-11 21 -26.5 53t-29.5 67.5t-24 69.5t-10 59q0 27 5 47t13 41
q-68 -42 -147 -42q-10 0 -18 9t-8 29v6q0 21 13 30.5t33 9.5q21 0 51 4t54 13q38 14 57 31t31 50q8 -8 8 -23q0 -20 -11 -41.5t-19 -32.5q-23 -29 -23 -62q0 -8 3 -27t9 -44t16.5 -53.5t25.5 -55.5h4q0 97 28 163.5t70 114.5q33 38 66.5 55t59.5 17q23 0 35 -18t21 -44
q10 -29 31 -39t60 -10q28 0 49 7.5t35.5 18.5t23.5 23.5t13 23.5q10 28 21 45t18 22q1 1 3 1t4 -1.5t3 -2.5q-5 -8 -9 -26t-4 -34q0 -33 17.5 -54t60.5 -21q26 0 45 14.5t29 31.5q-3 12 -4 23.5t-1 22.5q0 20 2.5 36t6.5 24q1 3 5 3t4 -2q3 -27 9 -54.5t22.5 -49.5t46 -35.5
t79.5 -13.5q15 0 20.5 -9.5t5.5 -30.5v-5q0 -23 -12.5 -31t-33.5 -8q-93 0 -126 76q-8 -11 -18.5 -24.5t-24 -25t-31 -19t-41.5 -7.5q-12 0 -25.5 3t-26.5 11.5t-23.5 23t-15.5 38.5q-33 -35 -69 -57t-82 -22z" />
    <glyph glyph-name="uniFCEA" unicode="&#xfeb8;&#xfeec;" horiz-adv-x="1056" arabic-form="medial" 
d="M563 -3q-39 0 -60 16.5t-40 57.5q-9 20 -20.5 28t-25.5 8q-21 0 -43.5 -12t-43 -31.5t-37 -44t-25.5 -49.5q-5 -14 -7 -32.5t-2 -38.5q0 -12 1 -26t2 -27.5t2 -25.5t1 -19q0 -21 -15 -46.5t-37 -50.5l-4 1q-11 21 -26.5 53t-29.5 67.5t-24 69.5t-10 59q0 27 5 47t13 41
q-68 -42 -147 -42q-10 0 -18 9t-8 29v6q0 21 13 30.5t33 9.5q21 0 51 4t54 13q38 14 57 31t31 50q8 -8 8 -23q0 -20 -11 -41.5t-19 -32.5q-23 -29 -23 -62q0 -8 3 -27t9 -44t16.5 -53.5t25.5 -55.5h4q0 97 28 163.5t70 114.5q33 38 66.5 55t59.5 17q23 0 35 -18t21 -44
q10 -29 31 -39t60 -10q28 0 49 7.5t35.5 18.5t23.5 23.5t13 23.5q10 28 21 45t18 22q1 1 3 1t4 -1.5t3 -2.5q-5 -8 -9 -26t-4 -34q0 -33 17.5 -54t60.5 -21q26 0 45 14.5t29 31.5q-3 12 -4 23.5t-1 22.5q0 20 2.5 36t6.5 24q1 3 5 3t4 -2q3 -27 9 -54.5t22.5 -49.5t46 -35.5
t79.5 -13.5q15 0 20.5 -9.5t5.5 -30.5v-5q0 -23 -12.5 -31t-33.5 -8q-93 0 -126 76q-8 -11 -18.5 -24.5t-24 -25t-31 -19t-41.5 -7.5q-12 0 -25.5 3t-26.5 11.5t-23.5 23t-15.5 38.5q-33 -35 -69 -57t-82 -22zM682 487q10 -5 27.5 -21t28.5 -31v-4q-6 -5 -13.5 -12.5
l-15.5 -15.5t-15 -15.5t-11 -11.5h-4q-9 12 -24 27t-31 23v4q0 1 8 10.5t18 19.5l18.5 18.5t9.5 8.5h4zM805 487q10 -5 27.5 -21t28.5 -31v-4q-6 -5 -13.5 -12.5l-15.5 -15.5t-15 -15.5t-11 -11.5h-4q-9 12 -24 27t-31 23v4q0 1 8 10.5t18 19.5l18.5 18.5t9.5 8.5h4z
M738 614q10 -5 27.5 -21t28.5 -31v-4q-6 -5 -13.5 -12.5l-15.5 -15.5t-15 -15.5t-11 -11.5h-4q-9 12 -24 27t-31 23v4q0 1 8 10.5t18 19.5l18.5 18.5t9.5 8.5h4z" />
    <glyph glyph-name="uniFCEF" unicode="&#xfee8;&#xfeec;" horiz-adv-x="559" arabic-form="medial" 
d="M569 84q15 0 20.5 -9.5t5.5 -30.5v-5q0 -23 -12.5 -31t-33.5 -8q-28 0 -47.5 14.5t-38.5 56.5q-9 20 -20.5 28t-25.5 8q-21 0 -43.5 -12t-43 -31.5t-37 -44t-25.5 -49.5q-5 -14 -7 -32.5t-2 -38.5q0 -12 1 -26t2 -27.5t2 -25.5t1 -19q0 -21 -15 -46.5t-37 -50.5l-4 1
q-11 21 -26.5 53t-29.5 67.5t-24 69.5t-10 59q0 27 5 47t13 41q-68 -42 -147 -42q-10 0 -18 9t-8 29v6q0 21 13 30.5t33 9.5q21 0 51 4t54 13q38 14 57 31t31 50q8 -8 8 -23q0 -20 -11 -41.5t-19 -32.5q-23 -29 -23 -62q0 -8 3 -27t9 -44t16.5 -53.5t25.5 -55.5h4
q0 97 28 163.5t70 114.5q33 38 66.5 55t59.5 17q23 0 35 -18t21 -44q10 -29 29 -38t44 -9zM401 487q10 -5 27.5 -21t28.5 -31v-4q-6 -5 -13.5 -12.5l-15.5 -15.5t-15 -15.5t-11 -11.5h-4q-9 12 -24 27t-31 23v4q0 1 8 10.5t18 19.5l18.5 18.5t9.5 8.5h4z" />
    <glyph glyph-name="uniFCF1" unicode="&#xfef4;&#xfeec;" horiz-adv-x="559" arabic-form="medial" 
d="M569 84q15 0 20.5 -9.5t5.5 -30.5v-5q0 -23 -12.5 -31t-33.5 -8q-28 0 -47.5 14.5t-38.5 56.5q-9 20 -20.5 28t-25.5 8q-21 0 -43.5 -12t-43 -31.5t-37 -44t-25.5 -49.5q-5 -14 -7 -32.5t-2 -38.5q0 -12 1 -26t2 -27.5t2 -25.5t1 -19q0 -21 -15 -46.5t-37 -50.5l-4 1
q-11 21 -26.5 53t-29.5 67.5t-24 69.5t-10 59q0 27 5 47t13 41q-68 -42 -147 -42q-10 0 -18 9t-8 29v6q0 21 13 30.5t33 9.5q21 0 51 4t54 13q38 14 57 31t31 50q8 -8 8 -23q0 -20 -11 -41.5t-19 -32.5q-23 -29 -23 -62q0 -8 3 -27t9 -44t16.5 -53.5t25.5 -55.5h4
q0 97 28 163.5t70 114.5q33 38 66.5 55t59.5 17q23 0 35 -18t21 -44q10 -29 29 -38t44 -9zM362 -109q10 -5 27.5 -21t28.5 -31v-4q-6 -5 -13.5 -12.5l-15.5 -15.5t-15 -15.5t-11 -11.5h-4q-9 12 -24 27t-31 23v4q0 1 8 10.5t18 19.5l18.5 18.5t9.5 8.5h4zM485 -109
q10 -5 27.5 -21t28.5 -31v-4q-6 -5 -13.5 -12.5l-15.5 -15.5t-15 -15.5t-11 -11.5h-4q-9 12 -24 27t-31 23v4q0 1 8 10.5t18 19.5l18.5 18.5t9.5 8.5h4z" />
    <glyph glyph-name="uniFCFB" unicode="&#xfeb3;&#xfef0;" horiz-adv-x="1217" arabic-form="isolated" 
d="M768 84q24 0 44 7t34.5 17.5t24 23t13.5 23.5q11 28 21.5 45t17.5 22q1 1 3 1t4 -1.5t3 -2.5q-5 -8 -9 -26t-4 -34q0 -33 17.5 -54t60.5 -21q52 0 73 16t21 42q0 15 -8.5 40.5t-40.5 65.5q-6 7 -6 17q0 9 4 16l39 75h4q25 -46 37 -92.5t12 -86.5q0 -22 -6 -43t-15 -39
t-19.5 -32t-19.5 -22q-21 -20 -43.5 -30.5t-48.5 -10.5q-12 0 -25.5 3t-26.5 11.5t-23.5 23t-15.5 38.5q-29 -32 -63 -54t-72 -22q-30 0 -52.5 17.5t-43 38t-42.5 38t-51 17.5q-15 0 -32 -7.5t-32 -19.5t-25 -27t-10 -30q0 -9 13 -16.5t32.5 -14.5t42 -14.5t42 -17
t32.5 -21.5t13 -28q0 -15 -11 -40t-33 -54t-56 -58.5t-79 -53t-102.5 -38.5t-126.5 -15q-57 0 -96.5 11t-65 29.5t-39.5 42t-20.5 48t-8 48t-1.5 41.5q0 27 5.5 55t12.5 51.5t14 39.5t11 20q2 2 4 2q5 0 10 -5q-8 -20 -13.5 -51.5t-5.5 -64.5q0 -30 12 -60t38.5 -54t69 -39
t102.5 -15q63 0 119.5 12t99.5 29.5t68 37.5t25 37q0 7 -7 13.5t-18 12t-25 10.5t-27 9q-44 12 -58.5 25t-14.5 37q0 30 13.5 67t35.5 69.5t51 54.5t61 22q26 0 45.5 -16.5t39.5 -37t42.5 -37t54.5 -16.5z" />
    <glyph glyph-name="uniFCFC" unicode="&#xfeb3;&#xfef2;" horiz-adv-x="1217" arabic-form="isolated" 
d="M768 84q24 0 44 7t34.5 17.5t24 23t13.5 23.5q11 28 21.5 45t17.5 22q1 1 3 1t4 -1.5t3 -2.5q-5 -8 -9 -26t-4 -34q0 -33 17.5 -54t60.5 -21q52 0 73 16t21 42q0 15 -8.5 40.5t-40.5 65.5q-6 7 -6 17q0 9 4 16l39 75h4q25 -46 37 -92.5t12 -86.5q0 -22 -6 -43t-15 -39
t-19.5 -32t-19.5 -22q-21 -20 -43.5 -30.5t-48.5 -10.5q-12 0 -25.5 3t-26.5 11.5t-23.5 23t-15.5 38.5q-29 -32 -63 -54t-72 -22q-30 0 -52.5 17.5t-43 38t-42.5 38t-51 17.5q-15 0 -32 -7.5t-32 -19.5t-25 -27t-10 -30q0 -9 13 -16.5t32.5 -14.5t42 -14.5t42 -17
t32.5 -21.5t13 -28q0 -15 -11 -40t-33 -54t-56 -58.5t-79 -53t-102.5 -38.5t-126.5 -15q-57 0 -96.5 11t-65 29.5t-39.5 42t-20.5 48t-8 48t-1.5 41.5q0 27 5.5 55t12.5 51.5t14 39.5t11 20q2 2 4 2q5 0 10 -5q-8 -20 -13.5 -51.5t-5.5 -64.5q0 -30 12 -60t38.5 -54t69 -39
t102.5 -15q63 0 119.5 12t99.5 29.5t68 37.5t25 37q0 7 -7 13.5t-18 12t-25 10.5t-27 9q-44 12 -58.5 25t-14.5 37q0 30 13.5 67t35.5 69.5t51 54.5t61 22q26 0 45.5 -16.5t39.5 -37t42.5 -37t54.5 -16.5zM188 -408q10 -5 27.5 -21t28.5 -31v-4q-6 -5 -13.5 -12.5
l-15.5 -15.5t-15 -15.5t-11 -11.5h-4q-9 12 -24 27t-31 23v4q0 1 8 10.5t18 19.5l18.5 18.5t9.5 8.5h4zM311 -408q10 -5 27.5 -21t28.5 -31v-4q-6 -5 -13.5 -12.5l-15.5 -15.5t-15 -15.5t-11 -11.5h-4q-9 12 -24 27t-31 23v4q0 1 8 10.5t18 19.5l18.5 18.5t9.5 8.5h4z" />
    <glyph glyph-name="uniFCFD" unicode="&#xfeb7;&#xfef0;" horiz-adv-x="1217" arabic-form="isolated" 
d="M768 84q24 0 44 7t34.5 17.5t24 23t13.5 23.5q11 28 21.5 45t17.5 22q1 1 3 1t4 -1.5t3 -2.5q-5 -8 -9 -26t-4 -34q0 -33 17.5 -54t60.5 -21q52 0 73 16t21 42q0 15 -8.5 40.5t-40.5 65.5q-6 7 -6 17q0 9 4 16l39 75h4q25 -46 37 -92.5t12 -86.5q0 -22 -6 -43t-15 -39
t-19.5 -32t-19.5 -22q-21 -20 -43.5 -30.5t-48.5 -10.5q-12 0 -25.5 3t-26.5 11.5t-23.5 23t-15.5 38.5q-29 -32 -63 -54t-72 -22q-30 0 -52.5 17.5t-43 38t-42.5 38t-51 17.5q-15 0 -32 -7.5t-32 -19.5t-25 -27t-10 -30q0 -9 13 -16.5t32.5 -14.5t42 -14.5t42 -17
t32.5 -21.5t13 -28q0 -15 -11 -40t-33 -54t-56 -58.5t-79 -53t-102.5 -38.5t-126.5 -15q-57 0 -96.5 11t-65 29.5t-39.5 42t-20.5 48t-8 48t-1.5 41.5q0 27 5.5 55t12.5 51.5t14 39.5t11 20q2 2 4 2q5 0 10 -5q-8 -20 -13.5 -51.5t-5.5 -64.5q0 -30 12 -60t38.5 -54t69 -39
t102.5 -15q63 0 119.5 12t99.5 29.5t68 37.5t25 37q0 7 -7 13.5t-18 12t-25 10.5t-27 9q-44 12 -58.5 25t-14.5 37q0 30 13.5 67t35.5 69.5t51 54.5t61 22q26 0 45.5 -16.5t39.5 -37t42.5 -37t54.5 -16.5zM810 487q10 -5 27.5 -21t28.5 -31v-4q-6 -5 -13.5 -12.5
l-15.5 -15.5t-15 -15.5t-11 -11.5h-4q-9 12 -24 27t-31 23v4q0 1 8 10.5t18 19.5l18.5 18.5t9.5 8.5h4zM933 487q10 -5 27.5 -21t28.5 -31v-4q-6 -5 -13.5 -12.5l-15.5 -15.5t-15 -15.5t-11 -11.5h-4q-9 12 -24 27t-31 23v4q0 1 8 10.5t18 19.5l18.5 18.5t9.5 8.5h4z
M866 614q10 -5 27.5 -21t28.5 -31v-4q-6 -5 -13.5 -12.5l-15.5 -15.5t-15 -15.5t-11 -11.5h-4q-9 12 -24 27t-31 23v4q0 1 8 10.5t18 19.5l18.5 18.5t9.5 8.5h4z" />
    <glyph glyph-name="uniFCFE" unicode="&#xfeb7;&#xfef2;" horiz-adv-x="1217" arabic-form="isolated" 
d="M768 84q24 0 44 7t34.5 17.5t24 23t13.5 23.5q11 28 21.5 45t17.5 22q1 1 3 1t4 -1.5t3 -2.5q-5 -8 -9 -26t-4 -34q0 -33 17.5 -54t60.5 -21q52 0 73 16t21 42q0 15 -8.5 40.5t-40.5 65.5q-6 7 -6 17q0 9 4 16l39 75h4q25 -46 37 -92.5t12 -86.5q0 -22 -6 -43t-15 -39
t-19.5 -32t-19.5 -22q-21 -20 -43.5 -30.5t-48.5 -10.5q-12 0 -25.5 3t-26.5 11.5t-23.5 23t-15.5 38.5q-29 -32 -63 -54t-72 -22q-30 0 -52.5 17.5t-43 38t-42.5 38t-51 17.5q-15 0 -32 -7.5t-32 -19.5t-25 -27t-10 -30q0 -9 13 -16.5t32.5 -14.5t42 -14.5t42 -17
t32.5 -21.5t13 -28q0 -15 -11 -40t-33 -54t-56 -58.5t-79 -53t-102.5 -38.5t-126.5 -15q-57 0 -96.5 11t-65 29.5t-39.5 42t-20.5 48t-8 48t-1.5 41.5q0 27 5.5 55t12.5 51.5t14 39.5t11 20q2 2 4 2q5 0 10 -5q-8 -20 -13.5 -51.5t-5.5 -64.5q0 -30 12 -60t38.5 -54t69 -39
t102.5 -15q63 0 119.5 12t99.5 29.5t68 37.5t25 37q0 7 -7 13.5t-18 12t-25 10.5t-27 9q-44 12 -58.5 25t-14.5 37q0 30 13.5 67t35.5 69.5t51 54.5t61 22q26 0 45.5 -16.5t39.5 -37t42.5 -37t54.5 -16.5zM182 -408q10 -5 27.5 -21t28.5 -31v-4q-6 -5 -13.5 -12.5
l-15.5 -15.5t-15 -15.5t-11 -11.5h-4q-9 12 -24 27t-31 23v4q0 1 8 10.5t18 19.5l18.5 18.5t9.5 8.5h4zM305 -408q10 -5 27.5 -21t28.5 -31v-4q-6 -5 -13.5 -12.5l-15.5 -15.5t-15 -15.5t-11 -11.5h-4q-9 12 -24 27t-31 23v4q0 1 8 10.5t18 19.5l18.5 18.5t9.5 8.5h4z
M810 487q10 -5 27.5 -21t28.5 -31v-4q-6 -5 -13.5 -12.5l-15.5 -15.5t-15 -15.5t-11 -11.5h-4q-9 12 -24 27t-31 23v4q0 1 8 10.5t18 19.5l18.5 18.5t9.5 8.5h4zM933 487q10 -5 27.5 -21t28.5 -31v-4q-6 -5 -13.5 -12.5l-15.5 -15.5t-15 -15.5t-11 -11.5h-4q-9 12 -24 27
t-31 23v4q0 1 8 10.5t18 19.5l18.5 18.5t9.5 8.5h4zM866 614q10 -5 27.5 -21t28.5 -31v-4q-6 -5 -13.5 -12.5l-15.5 -15.5t-15 -15.5t-11 -11.5h-4q-9 12 -24 27t-31 23v4q0 1 8 10.5t18 19.5l18.5 18.5t9.5 8.5h4z" />
    <glyph glyph-name="uniFD05" unicode="&#xfebb;&#xfef0;" horiz-adv-x="1308" arabic-form="isolated" 
d="M891 -11q-61 0 -103 9t-71 22.5t-49 29.5t-36 29.5t-31 22.5t-35 9q-15 0 -32 -7.5t-32 -19.5t-25 -27t-10 -30q0 -9 13 -16.5t32.5 -14.5t42 -14.5t42 -17t32.5 -21.5t13 -28q0 -15 -11 -40t-33 -54t-56 -58.5t-79 -53t-102.5 -38.5t-126.5 -15q-57 0 -96.5 11t-65 29.5
t-39.5 42t-20.5 48t-8 48t-1.5 41.5q0 27 5.5 55t12.5 51.5t14 39.5t11 20q2 2 4 2q5 0 10 -5q-8 -20 -13.5 -51.5t-5.5 -64.5q0 -30 12 -60t38.5 -54t69 -39t102.5 -15q63 0 119.5 12t99.5 29.5t68 37.5t25 37q0 7 -7 13.5t-18 12t-25 10.5t-27 9q-44 12 -58.5 25t-14.5 37
q0 30 13.5 67t35.5 69.5t51 54.5t61 22q26 0 45.5 -14t39.5 -32t42.5 -35t54.5 -23q40 49 86 93.5t92.5 78.5t89.5 54t78 20q25 0 49 -11t42 -28t29 -38.5t11 -42.5q0 -23 -15 -59t-54 -78q-44 -46 -111.5 -66.5t-173.5 -20.5zM804 77q9 -2 26 -4t37 -3.5t41.5 -2t39.5 -0.5
q61 0 106.5 8.5t75.5 21t44.5 26.5t14.5 25q0 22 -11 41t-28 32t-39 20.5t-44 7.5q-57 0 -123.5 -47t-139.5 -125z" />
    <glyph glyph-name="uniFD06" unicode="&#xfebb;&#xfef2;" horiz-adv-x="1308" arabic-form="isolated" 
d="M891 -11q-61 0 -103 9t-71 22.5t-49 29.5t-36 29.5t-31 22.5t-35 9q-15 0 -32 -7.5t-32 -19.5t-25 -27t-10 -30q0 -9 13 -16.5t32.5 -14.5t42 -14.5t42 -17t32.5 -21.5t13 -28q0 -15 -11 -40t-33 -54t-56 -58.5t-79 -53t-102.5 -38.5t-126.5 -15q-57 0 -96.5 11t-65 29.5
t-39.5 42t-20.5 48t-8 48t-1.5 41.5q0 27 5.5 55t12.5 51.5t14 39.5t11 20q2 2 4 2q5 0 10 -5q-8 -20 -13.5 -51.5t-5.5 -64.5q0 -30 12 -60t38.5 -54t69 -39t102.5 -15q63 0 119.5 12t99.5 29.5t68 37.5t25 37q0 7 -7 13.5t-18 12t-25 10.5t-27 9q-44 12 -58.5 25t-14.5 37
q0 30 13.5 67t35.5 69.5t51 54.5t61 22q26 0 45.5 -14t39.5 -32t42.5 -35t54.5 -23q40 49 86 93.5t92.5 78.5t89.5 54t78 20q25 0 49 -11t42 -28t29 -38.5t11 -42.5q0 -23 -15 -59t-54 -78q-44 -46 -111.5 -66.5t-173.5 -20.5zM804 77q9 -2 26 -4t37 -3.5t41.5 -2t39.5 -0.5
q61 0 106.5 8.5t75.5 21t44.5 26.5t14.5 25q0 22 -11 41t-28 32t-39 20.5t-44 7.5q-57 0 -123.5 -47t-139.5 -125zM191 -408q10 -5 27.5 -21t28.5 -31v-4q-6 -5 -13.5 -12.5l-15.5 -15.5t-15 -15.5t-11 -11.5h-4q-9 12 -24 27t-31 23v4q0 1 8 10.5t18 19.5l18.5 18.5
t9.5 8.5h4zM314 -408q10 -5 27.5 -21t28.5 -31v-4q-6 -5 -13.5 -12.5l-15.5 -15.5t-15 -15.5t-11 -11.5h-4q-9 12 -24 27t-31 23v4q0 1 8 10.5t18 19.5l18.5 18.5t9.5 8.5h4z" />
    <glyph glyph-name="uniFD07" unicode="&#xfebf;&#xfef0;" horiz-adv-x="1308" arabic-form="isolated" 
d="M891 -11q-61 0 -103 9t-71 22.5t-49 29.5t-36 29.5t-31 22.5t-35 9q-15 0 -32 -7.5t-32 -19.5t-25 -27t-10 -30q0 -9 13 -16.5t32.5 -14.5t42 -14.5t42 -17t32.5 -21.5t13 -28q0 -15 -11 -40t-33 -54t-56 -58.5t-79 -53t-102.5 -38.5t-126.5 -15q-57 0 -96.5 11t-65 29.5
t-39.5 42t-20.5 48t-8 48t-1.5 41.5q0 27 5.5 55t12.5 51.5t14 39.5t11 20q2 2 4 2q5 0 10 -5q-8 -20 -13.5 -51.5t-5.5 -64.5q0 -30 12 -60t38.5 -54t69 -39t102.5 -15q63 0 119.5 12t99.5 29.5t68 37.5t25 37q0 7 -7 13.5t-18 12t-25 10.5t-27 9q-44 12 -58.5 25t-14.5 37
q0 30 13.5 67t35.5 69.5t51 54.5t61 22q26 0 45.5 -14t39.5 -32t42.5 -35t54.5 -23q40 49 86 93.5t92.5 78.5t89.5 54t78 20q25 0 49 -11t42 -28t29 -38.5t11 -42.5q0 -23 -15 -59t-54 -78q-44 -46 -111.5 -66.5t-173.5 -20.5zM804 77q9 -2 26 -4t37 -3.5t41.5 -2t39.5 -0.5
q61 0 106.5 8.5t75.5 21t44.5 26.5t14.5 25q0 22 -11 41t-28 32t-39 20.5t-44 7.5q-57 0 -123.5 -47t-139.5 -125zM965 586q10 -5 27.5 -21t28.5 -31v-4q-6 -5 -13.5 -12.5l-15.5 -15.5t-15 -15.5t-11 -11.5h-4q-9 12 -24 27t-31 23v4q0 1 8 10.5t18 19.5l18.5 18.5t9.5 8.5
h4z" />
    <glyph glyph-name="uniFD08" unicode="&#xfebf;&#xfef2;" horiz-adv-x="1308" arabic-form="isolated" 
d="M891 -11q-61 0 -103 9t-71 22.5t-49 29.5t-36 29.5t-31 22.5t-35 9q-15 0 -32 -7.5t-32 -19.5t-25 -27t-10 -30q0 -9 13 -16.5t32.5 -14.5t42 -14.5t42 -17t32.5 -21.5t13 -28q0 -15 -11 -40t-33 -54t-56 -58.5t-79 -53t-102.5 -38.5t-126.5 -15q-57 0 -96.5 11t-65 29.5
t-39.5 42t-20.5 48t-8 48t-1.5 41.5q0 27 5.5 55t12.5 51.5t14 39.5t11 20q2 2 4 2q5 0 10 -5q-8 -20 -13.5 -51.5t-5.5 -64.5q0 -30 12 -60t38.5 -54t69 -39t102.5 -15q63 0 119.5 12t99.5 29.5t68 37.5t25 37q0 7 -7 13.5t-18 12t-25 10.5t-27 9q-44 12 -58.5 25t-14.5 37
q0 30 13.5 67t35.5 69.5t51 54.5t61 22q26 0 45.5 -14t39.5 -32t42.5 -35t54.5 -23q40 49 86 93.5t92.5 78.5t89.5 54t78 20q25 0 49 -11t42 -28t29 -38.5t11 -42.5q0 -23 -15 -59t-54 -78q-44 -46 -111.5 -66.5t-173.5 -20.5zM804 77q9 -2 26 -4t37 -3.5t41.5 -2t39.5 -0.5
q61 0 106.5 8.5t75.5 21t44.5 26.5t14.5 25q0 22 -11 41t-28 32t-39 20.5t-44 7.5q-57 0 -123.5 -47t-139.5 -125zM185 -408q10 -5 27.5 -21t28.5 -31v-4q-6 -5 -13.5 -12.5l-15.5 -15.5t-15 -15.5t-11 -11.5h-4q-9 12 -24 27t-31 23v4q0 1 8 10.5t18 19.5l18.5 18.5
t9.5 8.5h4zM308 -408q10 -5 27.5 -21t28.5 -31v-4q-6 -5 -13.5 -12.5l-15.5 -15.5t-15 -15.5t-11 -11.5h-4q-9 12 -24 27t-31 23v4q0 1 8 10.5t18 19.5l18.5 18.5t9.5 8.5h4zM965 586q10 -5 27.5 -21t28.5 -31v-4q-6 -5 -13.5 -12.5l-15.5 -15.5t-15 -15.5t-11 -11.5h-4
q-9 12 -24 27t-31 23v4q0 1 8 10.5t18 19.5l18.5 18.5t9.5 8.5h4z" />
    <glyph glyph-name="uniFD0D" unicode="&#xfeb7;&#xfeae;" horiz-adv-x="982" arabic-form="isolated" 
d="M529 84q26 0 46.5 7t35.5 17.5t24.5 23t13.5 23.5q11 28 21.5 45t17.5 22q1 1 3 1t4 -1.5t3 -2.5q-5 -8 -9 -26t-4 -34q0 -33 17.5 -54t60.5 -21q52 0 73 16t21 42q0 15 -8.5 40.5t-40.5 65.5q-6 7 -6 17q0 9 4 16l39 75h4q25 -46 37 -92.5t12 -86.5q0 -22 -6 -43
t-15 -39t-19.5 -32t-19.5 -22q-21 -20 -43.5 -30.5t-48.5 -10.5q-12 0 -25.5 3t-26.5 11.5t-23.5 23t-15.5 38.5q-29 -32 -64.5 -54t-81.5 -22q-23 0 -45.5 6t-42 20.5t-33 38.5t-17.5 59l-136 -44q8 -12 16 -39t8 -55q0 -87 -21.5 -146.5t-51.5 -96.5t-61 -53.5t-50 -16.5
q-25 0 -53.5 5t-53.5 12q-14 4 -29 8.5t-29 9.5l1 6q80 2 138.5 24t96.5 56t56.5 75.5t18.5 82.5q0 37 -18.5 65.5t-66.5 55.5q31 82 40 84q17 4 38 7.5t45 8.5q32 7 54 12.5t37 11t24.5 11t17.5 13.5q10 9 16 19t12 16q2 2 4 2t4 -1.5t3 -2.5q-5 -8 -9 -26t-4 -34
q0 -21 5.5 -41t18.5 -35t34 -24.5t53 -9.5zM578 586q10 -5 27.5 -21t28.5 -31v-4q-6 -5 -13.5 -12.5l-15.5 -15.5t-15 -15.5t-11 -11.5h-4q-9 12 -24 27t-31 23v4q0 1 8 10.5t18 19.5l18.5 18.5t9.5 8.5h4zM701 586q10 -5 27.5 -21t28.5 -31v-4q-6 -5 -13.5 -12.5
l-15.5 -15.5t-15 -15.5t-11 -11.5h-4q-9 12 -24 27t-31 23v4q0 1 8 10.5t18 19.5l18.5 18.5t9.5 8.5h4zM634 713q10 -5 27.5 -21t28.5 -31v-4q-6 -5 -13.5 -12.5l-15.5 -15.5t-15 -15.5t-11 -11.5h-4q-9 12 -24 27t-31 23v4q0 1 8 10.5t18 19.5l18.5 18.5t9.5 8.5h4z" />
    <glyph glyph-name="uniFD0E" unicode="&#xfeb3;&#xfeae;" horiz-adv-x="982" arabic-form="isolated" 
d="M529 84q26 0 46.5 7t35.5 17.5t24.5 23t13.5 23.5q11 28 21.5 45t17.5 22q1 1 3 1t4 -1.5t3 -2.5q-5 -8 -9 -26t-4 -34q0 -33 17.5 -54t60.5 -21q52 0 73 16t21 42q0 15 -8.5 40.5t-40.5 65.5q-6 7 -6 17q0 9 4 16l39 75h4q25 -46 37 -92.5t12 -86.5q0 -22 -6 -43
t-15 -39t-19.5 -32t-19.5 -22q-21 -20 -43.5 -30.5t-48.5 -10.5q-12 0 -25.5 3t-26.5 11.5t-23.5 23t-15.5 38.5q-29 -32 -64.5 -54t-81.5 -22q-23 0 -45.5 6t-42 20.5t-33 38.5t-17.5 59l-136 -44q8 -12 16 -39t8 -55q0 -87 -21.5 -146.5t-51.5 -96.5t-61 -53.5t-50 -16.5
q-25 0 -53.5 5t-53.5 12q-14 4 -29 8.5t-29 9.5l1 6q80 2 138.5 24t96.5 56t56.5 75.5t18.5 82.5q0 37 -18.5 65.5t-66.5 55.5q31 82 40 84q17 4 38 7.5t45 8.5q32 7 54 12.5t37 11t24.5 11t17.5 13.5q10 9 16 19t12 16q2 2 4 2t4 -1.5t3 -2.5q-5 -8 -9 -26t-4 -34
q0 -21 5.5 -41t18.5 -35t34 -24.5t53 -9.5z" />
    <glyph glyph-name="uniFD0F" unicode="&#xfebb;&#xfeae;" horiz-adv-x="1031" arabic-form="isolated" 
d="M235 80q8 -12 16 -39t8 -55q0 -87 -21.5 -146.5t-51.5 -96.5t-61 -53.5t-50 -16.5q-25 0 -53.5 5t-53.5 12q-14 4 -29 8.5t-29 9.5l1 6q80 2 138.5 24t96.5 56t56.5 75.5t18.5 82.5q0 37 -18.5 65.5t-66.5 55.5q31 82 40 84q17 4 38 7.5t45 8.5q32 7 54 12.5t37 11
t24.5 11t17.5 13.5q10 9 16 19t12 16q2 2 4 2t4 -1.5t3 -2.5q-5 -8 -9 -26t-4 -34q0 -11 2 -27.5t9.5 -33t22.5 -29.5t42 -17q40 49 86 93.5t92.5 78.5t89.5 54t78 20q25 0 49 -11t42 -28t29 -38.5t11 -42.5q0 -23 -15 -59t-54 -78q-44 -46 -111.5 -66.5t-173.5 -20.5
q-64 0 -109 7t-74 22.5t-44 41.5t-19 64zM530 77q9 -2 26 -4t37 -3.5t41.5 -2t39.5 -0.5q61 0 106.5 8.5t75.5 21t44.5 26.5t14.5 25q0 22 -11 41t-28 32t-39 20.5t-44 7.5q-57 0 -123.5 -47t-139.5 -125z" />
    <glyph glyph-name="uniFD10" unicode="&#xfebf;&#xfeae;" horiz-adv-x="1031" arabic-form="isolated" 
d="M235 80q8 -12 16 -39t8 -55q0 -87 -21.5 -146.5t-51.5 -96.5t-61 -53.5t-50 -16.5q-25 0 -53.5 5t-53.5 12q-14 4 -29 8.5t-29 9.5l1 6q80 2 138.5 24t96.5 56t56.5 75.5t18.5 82.5q0 37 -18.5 65.5t-66.5 55.5q31 82 40 84q17 4 38 7.5t45 8.5q32 7 54 12.5t37 11
t24.5 11t17.5 13.5q10 9 16 19t12 16q2 2 4 2t4 -1.5t3 -2.5q-5 -8 -9 -26t-4 -34q0 -11 2 -27.5t9.5 -33t22.5 -29.5t42 -17q40 49 86 93.5t92.5 78.5t89.5 54t78 20q25 0 49 -11t42 -28t29 -38.5t11 -42.5q0 -23 -15 -59t-54 -78q-44 -46 -111.5 -66.5t-173.5 -20.5
q-64 0 -109 7t-74 22.5t-44 41.5t-19 64zM530 77q9 -2 26 -4t37 -3.5t41.5 -2t39.5 -0.5q61 0 106.5 8.5t75.5 21t44.5 26.5t14.5 25q0 22 -11 41t-28 32t-39 20.5t-44 7.5q-57 0 -123.5 -47t-139.5 -125zM665 586q10 -5 27.5 -21t28.5 -31v-4q-6 -5 -13.5 -12.5
l-15.5 -15.5t-15 -15.5t-11 -11.5h-4q-9 12 -24 27t-31 23v4q0 1 8 10.5t18 19.5l18.5 18.5t9.5 8.5h4z" />
    <glyph glyph-name="uniFD17" unicode="&#xfeb4;&#xfef0;" horiz-adv-x="1232" arabic-form="final" 
d="M998 84q26 0 45 14.5t29 31.5q-3 12 -4 23.5t-1 22.5q0 20 2.5 36t6.5 24q1 3 5 3t4 -2q3 -27 9 -54.5t22.5 -49.5t46 -35.5t79.5 -13.5q15 0 20.5 -9.5t5.5 -30.5v-5q0 -23 -12.5 -31t-33.5 -8q-93 0 -126 76q-8 -11 -18.5 -24.5t-24 -25t-31 -19t-41.5 -7.5
q-12 0 -25.5 3t-26.5 11.5t-23.5 23t-15.5 38.5q-29 -32 -63 -54t-72 -22q-30 0 -52.5 17.5t-43 38t-42.5 38t-51 17.5q-15 0 -32 -7.5t-32 -19.5t-25 -27t-10 -30q0 -9 13 -16.5t32.5 -14.5t42 -14.5t42 -17t32.5 -21.5t13 -28q0 -15 -11 -40t-33 -54t-56 -58.5t-79 -53
t-102.5 -38.5t-126.5 -15q-57 0 -96.5 11t-65 29.5t-39.5 42t-20.5 48t-8 48t-1.5 41.5q0 27 5.5 55t12.5 51.5t14 39.5t11 20q2 2 4 2q5 0 10 -5q-8 -20 -13.5 -51.5t-5.5 -64.5q0 -30 12 -60t38.5 -54t69 -39t102.5 -15q63 0 119.5 12t99.5 29.5t68 37.5t25 37
q0 7 -7 13.5t-18 12t-25 10.5t-27 9q-44 12 -58.5 25t-14.5 37q0 30 13.5 67t35.5 69.5t51 54.5t61 22q26 0 45.5 -16.5t39.5 -37t42.5 -37t54.5 -16.5q24 0 44 7t34.5 17.5t24 23t13.5 23.5q11 28 21.5 45t17.5 22q1 1 3 1t4 -1.5t3 -2.5q-5 -8 -9 -26t-4 -34
q0 -33 17.5 -54t60.5 -21z" />
    <glyph glyph-name="uniFD18" unicode="&#xfeb4;&#xfef2;" horiz-adv-x="1232" arabic-form="final" 
d="M998 84q26 0 45 14.5t29 31.5q-3 12 -4 23.5t-1 22.5q0 20 2.5 36t6.5 24q1 3 5 3t4 -2q3 -27 9 -54.5t22.5 -49.5t46 -35.5t79.5 -13.5q15 0 20.5 -9.5t5.5 -30.5v-5q0 -23 -12.5 -31t-33.5 -8q-93 0 -126 76q-8 -11 -18.5 -24.5t-24 -25t-31 -19t-41.5 -7.5
q-12 0 -25.5 3t-26.5 11.5t-23.5 23t-15.5 38.5q-29 -32 -63 -54t-72 -22q-30 0 -52.5 17.5t-43 38t-42.5 38t-51 17.5q-15 0 -32 -7.5t-32 -19.5t-25 -27t-10 -30q0 -9 13 -16.5t32.5 -14.5t42 -14.5t42 -17t32.5 -21.5t13 -28q0 -15 -11 -40t-33 -54t-56 -58.5t-79 -53
t-102.5 -38.5t-126.5 -15q-57 0 -96.5 11t-65 29.5t-39.5 42t-20.5 48t-8 48t-1.5 41.5q0 27 5.5 55t12.5 51.5t14 39.5t11 20q2 2 4 2q5 0 10 -5q-8 -20 -13.5 -51.5t-5.5 -64.5q0 -30 12 -60t38.5 -54t69 -39t102.5 -15q63 0 119.5 12t99.5 29.5t68 37.5t25 37
q0 7 -7 13.5t-18 12t-25 10.5t-27 9q-44 12 -58.5 25t-14.5 37q0 30 13.5 67t35.5 69.5t51 54.5t61 22q26 0 45.5 -16.5t39.5 -37t42.5 -37t54.5 -16.5q24 0 44 7t34.5 17.5t24 23t13.5 23.5q11 28 21.5 45t17.5 22q1 1 3 1t4 -1.5t3 -2.5q-5 -8 -9 -26t-4 -34
q0 -33 17.5 -54t60.5 -21zM196 -408q10 -5 27.5 -21t28.5 -31v-4q-6 -5 -13.5 -12.5l-15.5 -15.5t-15 -15.5t-11 -11.5h-4q-9 12 -24 27t-31 23v4q0 1 8 10.5t18 19.5l18.5 18.5t9.5 8.5h4zM319 -408q10 -5 27.5 -21t28.5 -31v-4q-6 -5 -13.5 -12.5l-15.5 -15.5t-15 -15.5
t-11 -11.5h-4q-9 12 -24 27t-31 23v4q0 1 8 10.5t18 19.5l18.5 18.5t9.5 8.5h4z" />
    <glyph glyph-name="uniFD19" unicode="&#xfeb8;&#xfef0;" horiz-adv-x="1232" arabic-form="final" 
d="M998 84q26 0 45 14.5t29 31.5q-3 12 -4 23.5t-1 22.5q0 20 2.5 36t6.5 24q1 3 5 3t4 -2q3 -27 9 -54.5t22.5 -49.5t46 -35.5t79.5 -13.5q15 0 20.5 -9.5t5.5 -30.5v-5q0 -23 -12.5 -31t-33.5 -8q-93 0 -126 76q-8 -11 -18.5 -24.5t-24 -25t-31 -19t-41.5 -7.5
q-12 0 -25.5 3t-26.5 11.5t-23.5 23t-15.5 38.5q-29 -32 -63 -54t-72 -22q-30 0 -52.5 17.5t-43 38t-42.5 38t-51 17.5q-15 0 -32 -7.5t-32 -19.5t-25 -27t-10 -30q0 -9 13 -16.5t32.5 -14.5t42 -14.5t42 -17t32.5 -21.5t13 -28q0 -15 -11 -40t-33 -54t-56 -58.5t-79 -53
t-102.5 -38.5t-126.5 -15q-57 0 -96.5 11t-65 29.5t-39.5 42t-20.5 48t-8 48t-1.5 41.5q0 27 5.5 55t12.5 51.5t14 39.5t11 20q2 2 4 2q5 0 10 -5q-8 -20 -13.5 -51.5t-5.5 -64.5q0 -30 12 -60t38.5 -54t69 -39t102.5 -15q63 0 119.5 12t99.5 29.5t68 37.5t25 37
q0 7 -7 13.5t-18 12t-25 10.5t-27 9q-44 12 -58.5 25t-14.5 37q0 30 13.5 67t35.5 69.5t51 54.5t61 22q26 0 45.5 -16.5t39.5 -37t42.5 -37t54.5 -16.5q24 0 44 7t34.5 17.5t24 23t13.5 23.5q11 28 21.5 45t17.5 22q1 1 3 1t4 -1.5t3 -2.5q-5 -8 -9 -26t-4 -34
q0 -33 17.5 -54t60.5 -21zM884 487q10 -5 27.5 -21t28.5 -31v-4q-6 -5 -13.5 -12.5l-15.5 -15.5t-15 -15.5t-11 -11.5h-4q-9 12 -24 27t-31 23v4q0 1 8 10.5t18 19.5l18.5 18.5t9.5 8.5h4zM1007 487q10 -5 27.5 -21t28.5 -31v-4q-6 -5 -13.5 -12.5l-15.5 -15.5t-15 -15.5
t-11 -11.5h-4q-9 12 -24 27t-31 23v4q0 1 8 10.5t18 19.5l18.5 18.5t9.5 8.5h4zM940 614q10 -5 27.5 -21t28.5 -31v-4q-6 -5 -13.5 -12.5l-15.5 -15.5t-15 -15.5t-11 -11.5h-4q-9 12 -24 27t-31 23v4q0 1 8 10.5t18 19.5l18.5 18.5t9.5 8.5h4z" />
    <glyph glyph-name="uniFD1A" unicode="&#xfeb8;&#xfef2;" horiz-adv-x="1232" arabic-form="final" 
d="M998 84q26 0 45 14.5t29 31.5q-3 12 -4 23.5t-1 22.5q0 20 2.5 36t6.5 24q1 3 5 3t4 -2q3 -27 9 -54.5t22.5 -49.5t46 -35.5t79.5 -13.5q15 0 20.5 -9.5t5.5 -30.5v-5q0 -23 -12.5 -31t-33.5 -8q-93 0 -126 76q-8 -11 -18.5 -24.5t-24 -25t-31 -19t-41.5 -7.5
q-12 0 -25.5 3t-26.5 11.5t-23.5 23t-15.5 38.5q-29 -32 -63 -54t-72 -22q-30 0 -52.5 17.5t-43 38t-42.5 38t-51 17.5q-15 0 -32 -7.5t-32 -19.5t-25 -27t-10 -30q0 -9 13 -16.5t32.5 -14.5t42 -14.5t42 -17t32.5 -21.5t13 -28q0 -15 -11 -40t-33 -54t-56 -58.5t-79 -53
t-102.5 -38.5t-126.5 -15q-57 0 -96.5 11t-65 29.5t-39.5 42t-20.5 48t-8 48t-1.5 41.5q0 27 5.5 55t12.5 51.5t14 39.5t11 20q2 2 4 2q5 0 10 -5q-8 -20 -13.5 -51.5t-5.5 -64.5q0 -30 12 -60t38.5 -54t69 -39t102.5 -15q63 0 119.5 12t99.5 29.5t68 37.5t25 37
q0 7 -7 13.5t-18 12t-25 10.5t-27 9q-44 12 -58.5 25t-14.5 37q0 30 13.5 67t35.5 69.5t51 54.5t61 22q26 0 45.5 -16.5t39.5 -37t42.5 -37t54.5 -16.5q24 0 44 7t34.5 17.5t24 23t13.5 23.5q11 28 21.5 45t17.5 22q1 1 3 1t4 -1.5t3 -2.5q-5 -8 -9 -26t-4 -34
q0 -33 17.5 -54t60.5 -21zM903 487q10 -5 27.5 -21t28.5 -31v-4q-6 -5 -13.5 -12.5l-15.5 -15.5t-15 -15.5t-11 -11.5h-4q-9 12 -24 27t-31 23v4q0 1 8 10.5t18 19.5l18.5 18.5t9.5 8.5h4zM1026 487q10 -5 27.5 -21t28.5 -31v-4q-6 -5 -13.5 -12.5l-15.5 -15.5t-15 -15.5
t-11 -11.5h-4q-9 12 -24 27t-31 23v4q0 1 8 10.5t18 19.5l18.5 18.5t9.5 8.5h4zM959 614q10 -5 27.5 -21t28.5 -31v-4q-6 -5 -13.5 -12.5l-15.5 -15.5t-15 -15.5t-11 -11.5h-4q-9 12 -24 27t-31 23v4q0 1 8 10.5t18 19.5l18.5 18.5t9.5 8.5h4zM202 -408q10 -5 27.5 -21
t28.5 -31v-4q-6 -5 -13.5 -12.5l-15.5 -15.5t-15 -15.5t-11 -11.5h-4q-9 12 -24 27t-31 23v4q0 1 8 10.5t18 19.5l18.5 18.5t9.5 8.5h4zM325 -408q10 -5 27.5 -21t28.5 -31v-4q-6 -5 -13.5 -12.5l-15.5 -15.5t-15 -15.5t-11 -11.5h-4q-9 12 -24 27t-31 23v4q0 1 8 10.5
t18 19.5l18.5 18.5t9.5 8.5h4z" />
    <glyph glyph-name="uniFD21" unicode="&#xfebc;&#xfef0;" horiz-adv-x="1295" arabic-form="final" 
d="M891 -11q-61 0 -103 9t-71 22.5t-49 29.5t-36 29.5t-31 22.5t-35 9q-15 0 -32 -7.5t-32 -19.5t-25 -27t-10 -30q0 -9 13 -16.5t32.5 -14.5t42 -14.5t42 -17t32.5 -21.5t13 -28q0 -15 -11 -40t-33 -54t-56 -58.5t-79 -53t-102.5 -38.5t-126.5 -15q-57 0 -96.5 11t-65 29.5
t-39.5 42t-20.5 48t-8 48t-1.5 41.5q0 27 5.5 55t12.5 51.5t14 39.5t11 20q2 2 4 2q5 0 10 -5q-8 -20 -13.5 -51.5t-5.5 -64.5q0 -30 12 -60t38.5 -54t69 -39t102.5 -15q63 0 119.5 12t99.5 29.5t68 37.5t25 37q0 7 -7 13.5t-18 12t-25 10.5t-27 9q-44 12 -58.5 25t-14.5 37
q0 30 13.5 67t35.5 69.5t51 54.5t61 22q26 0 45.5 -14t39.5 -32t42.5 -35t54.5 -23q40 49 86 93.5t92.5 78.5t89.5 54t78 20q25 0 49 -11t42 -28t29 -38.5t11 -42.5q0 -15 -6.5 -36t-20.5 -47q1 -9 5 -17t13.5 -14.5t26 -10.5t42.5 -4q15 0 20.5 -9.5t5.5 -30.5v-5
q0 -23 -12.5 -31t-33.5 -8q-36 0 -61 21t-32 73l-16 -18q-44 -46 -111.5 -66.5t-173.5 -20.5zM804 77q9 -2 26 -4t37 -3.5t41.5 -2t39.5 -0.5q61 0 106.5 8.5t75.5 21t44.5 26.5t14.5 25q0 22 -11 41t-28 32t-39 20.5t-44 7.5q-57 0 -123.5 -47t-139.5 -125z" />
    <glyph glyph-name="uniFD22" unicode="&#xfebc;&#xfef2;" horiz-adv-x="1294" arabic-form="final" 
d="M202 -408q10 -5 27.5 -21t28.5 -31v-4q-6 -5 -13.5 -12.5l-15.5 -15.5t-15 -15.5t-11 -11.5h-4q-9 12 -24 27t-31 23v4q0 1 8 10.5t18 19.5l18.5 18.5t9.5 8.5h4zM325 -408q10 -5 27.5 -21t28.5 -31v-4q-6 -5 -13.5 -12.5l-15.5 -15.5t-15 -15.5t-11 -11.5h-4
q-9 12 -24 27t-31 23v4q0 1 8 10.5t18 19.5l18.5 18.5t9.5 8.5h4zM891 -11q-61 0 -103 9t-71 22.5t-49 29.5t-36 29.5t-31 22.5t-35 9q-15 0 -32 -7.5t-32 -19.5t-25 -27t-10 -30q0 -9 13 -16.5t32.5 -14.5t42 -14.5t42 -17t32.5 -21.5t13 -28q0 -15 -11 -40t-33 -54
t-56 -58.5t-79 -53t-102.5 -38.5t-126.5 -15q-57 0 -96.5 11t-65 29.5t-39.5 42t-20.5 48t-8 48t-1.5 41.5q0 27 5.5 55t12.5 51.5t14 39.5t11 20q2 2 4 2q5 0 10 -5q-8 -20 -13.5 -51.5t-5.5 -64.5q0 -30 12 -60t38.5 -54t69 -39t102.5 -15q63 0 119.5 12t99.5 29.5
t68 37.5t25 37q0 7 -7 13.5t-18 12t-25 10.5t-27 9q-44 12 -58.5 25t-14.5 37q0 30 13.5 67t35.5 69.5t51 54.5t61 22q26 0 45.5 -14t39.5 -32t42.5 -35t54.5 -23q40 49 86 93.5t92.5 78.5t89.5 54t78 20q25 0 49 -11t42 -28t29 -38.5t11 -42.5q0 -15 -6.5 -36t-20.5 -47
q1 -9 5 -17t13.5 -14.5t26 -10.5t42.5 -4q15 0 20.5 -9.5t5.5 -30.5v-5q0 -23 -12.5 -31t-33.5 -8q-36 0 -61 21t-32 73l-16 -18q-44 -46 -111.5 -66.5t-173.5 -20.5zM804 77q9 -2 26 -4t37 -3.5t41.5 -2t39.5 -0.5q61 0 106.5 8.5t75.5 21t44.5 26.5t14.5 25q0 22 -11 41
t-28 32t-39 20.5t-44 7.5q-57 0 -123.5 -47t-139.5 -125z" />
    <glyph glyph-name="uniFD23" unicode="&#xfec0;&#xfef0;" horiz-adv-x="1295" arabic-form="final" 
d="M965 586q10 -5 27.5 -21t28.5 -31v-4q-6 -5 -13.5 -12.5l-15.5 -15.5t-15 -15.5t-11 -11.5h-4q-9 12 -24 27t-31 23v4q0 1 8 10.5t18 19.5l18.5 18.5t9.5 8.5h4zM891 -11q-61 0 -103 9t-71 22.5t-49 29.5t-36 29.5t-31 22.5t-35 9q-15 0 -32 -7.5t-32 -19.5t-25 -27
t-10 -30q0 -9 13 -16.5t32.5 -14.5t42 -14.5t42 -17t32.5 -21.5t13 -28q0 -15 -11 -40t-33 -54t-56 -58.5t-79 -53t-102.5 -38.5t-126.5 -15q-57 0 -96.5 11t-65 29.5t-39.5 42t-20.5 48t-8 48t-1.5 41.5q0 27 5.5 55t12.5 51.5t14 39.5t11 20q2 2 4 2q5 0 10 -5
q-8 -20 -13.5 -51.5t-5.5 -64.5q0 -30 12 -60t38.5 -54t69 -39t102.5 -15q63 0 119.5 12t99.5 29.5t68 37.5t25 37q0 7 -7 13.5t-18 12t-25 10.5t-27 9q-44 12 -58.5 25t-14.5 37q0 30 13.5 67t35.5 69.5t51 54.5t61 22q26 0 45.5 -14t39.5 -32t42.5 -35t54.5 -23
q40 49 86 93.5t92.5 78.5t89.5 54t78 20q25 0 49 -11t42 -28t29 -38.5t11 -42.5q0 -15 -6.5 -36t-20.5 -47q1 -9 5 -17t13.5 -14.5t26 -10.5t42.5 -4q15 0 20.5 -9.5t5.5 -30.5v-5q0 -23 -12.5 -31t-33.5 -8q-36 0 -61 21t-32 73l-16 -18q-44 -46 -111.5 -66.5t-173.5 -20.5
zM804 77q9 -2 26 -4t37 -3.5t41.5 -2t39.5 -0.5q61 0 106.5 8.5t75.5 21t44.5 26.5t14.5 25q0 22 -11 41t-28 32t-39 20.5t-44 7.5q-57 0 -123.5 -47t-139.5 -125z" />
    <glyph glyph-name="uniFD24" unicode="&#xfec0;&#xfef2;" horiz-adv-x="1294" arabic-form="final" 
d="M965 586q10 -5 27.5 -21t28.5 -31v-4q-6 -5 -13.5 -12.5l-15.5 -15.5t-15 -15.5t-11 -11.5h-4q-9 12 -24 27t-31 23v4q0 1 8 10.5t18 19.5l18.5 18.5t9.5 8.5h4zM200 -408q10 -5 27.5 -21t28.5 -31v-4q-6 -5 -13.5 -12.5l-15.5 -15.5t-15 -15.5t-11 -11.5h-4
q-9 12 -24 27t-31 23v4q0 1 8 10.5t18 19.5l18.5 18.5t9.5 8.5h4zM323 -408q10 -5 27.5 -21t28.5 -31v-4q-6 -5 -13.5 -12.5l-15.5 -15.5t-15 -15.5t-11 -11.5h-4q-9 12 -24 27t-31 23v4q0 1 8 10.5t18 19.5l18.5 18.5t9.5 8.5h4zM891 -11q-61 0 -103 9t-71 22.5t-49 29.5
t-36 29.5t-31 22.5t-35 9q-15 0 -32 -7.5t-32 -19.5t-25 -27t-10 -30q0 -9 13 -16.5t32.5 -14.5t42 -14.5t42 -17t32.5 -21.5t13 -28q0 -15 -11 -40t-33 -54t-56 -58.5t-79 -53t-102.5 -38.5t-126.5 -15q-57 0 -96.5 11t-65 29.5t-39.5 42t-20.5 48t-8 48t-1.5 41.5
q0 27 5.5 55t12.5 51.5t14 39.5t11 20q2 2 4 2q5 0 10 -5q-8 -20 -13.5 -51.5t-5.5 -64.5q0 -30 12 -60t38.5 -54t69 -39t102.5 -15q63 0 119.5 12t99.5 29.5t68 37.5t25 37q0 7 -7 13.5t-18 12t-25 10.5t-27 9q-44 12 -58.5 25t-14.5 37q0 30 13.5 67t35.5 69.5t51 54.5
t61 22q26 0 45.5 -14t39.5 -32t42.5 -35t54.5 -23q40 49 86 93.5t92.5 78.5t89.5 54t78 20q25 0 49 -11t42 -28t29 -38.5t11 -42.5q0 -15 -6.5 -36t-20.5 -47q1 -9 5 -17t13.5 -14.5t26 -10.5t42.5 -4q15 0 20.5 -9.5t5.5 -30.5v-5q0 -23 -12.5 -31t-33.5 -8q-36 0 -61 21
t-32 73l-16 -18q-44 -46 -111.5 -66.5t-173.5 -20.5zM804 77q9 -2 26 -4t37 -3.5t41.5 -2t39.5 -0.5q61 0 106.5 8.5t75.5 21t44.5 26.5t14.5 25q0 22 -11 41t-28 32t-39 20.5t-44 7.5q-57 0 -123.5 -47t-139.5 -125z" />
    <glyph glyph-name="uniFD29" unicode="&#xfeb8;&#xfeae;" horiz-adv-x="998" arabic-form="final" 
d="M505 -3q-23 0 -45 6.5t-40.5 21.5t-31.5 39.5t-17 59.5l-136 -44q8 -12 16 -39t8 -55q0 -87 -21.5 -146.5t-51.5 -96.5t-61 -53.5t-50 -16.5q-25 0 -53.5 5t-53.5 12q-14 4 -29 8.5t-29 9.5l1 6q80 2 138.5 24t96.5 56t56.5 75.5t18.5 82.5q0 37 -18.5 65.5t-66.5 55.5
q31 82 40 84q17 4 38 7.5t45 8.5q32 7 54 12.5t37 11t24.5 11t17.5 13.5q10 9 16 19t12 16q2 2 4 2t4 -1.5t3 -2.5q-5 -8 -9 -26t-4 -34q0 -21 5.5 -41t18.5 -36t34 -25.5t53 -9.5q28 0 49 7.5t35.5 18.5t23.5 23.5t13 23.5q10 28 21 45t18 22q1 1 3 1t4 -1.5t3 -2.5
q-5 -8 -9 -26t-4 -34q0 -33 17.5 -54t60.5 -21q26 0 45 14.5t29 31.5q-3 12 -4 23.5t-1 22.5q0 20 2.5 36t6.5 24q1 3 5 3t4 -2q3 -27 9 -54.5t22.5 -49.5t46 -35.5t79.5 -13.5q15 0 20.5 -9.5t5.5 -30.5v-5q0 -23 -12.5 -31t-33.5 -8q-93 0 -126 76q-8 -11 -18.5 -24.5
t-24 -25t-31 -19t-41.5 -7.5q-12 0 -25.5 3t-26.5 11.5t-23.5 23t-15.5 38.5q-32 -38 -69 -58.5t-82 -20.5zM632 487q10 -5 27.5 -21t28.5 -31v-4q-6 -5 -13.5 -12.5l-15.5 -15.5t-15 -15.5t-11 -11.5h-4q-9 12 -24 27t-31 23v4q0 1 8 10.5t18 19.5l18.5 18.5t9.5 8.5h4z
M755 487q10 -5 27.5 -21t28.5 -31v-4q-6 -5 -13.5 -12.5l-15.5 -15.5t-15 -15.5t-11 -11.5h-4q-9 12 -24 27t-31 23v4q0 1 8 10.5t18 19.5l18.5 18.5t9.5 8.5h4zM688 614q10 -5 27.5 -21t28.5 -31v-4q-6 -5 -13.5 -12.5l-15.5 -15.5t-15 -15.5t-11 -11.5h-4q-9 12 -24 27
t-31 23v4q0 1 8 10.5t18 19.5l18.5 18.5t9.5 8.5h4z" />
    <glyph glyph-name="uniFD2A" unicode="&#xfeb4;&#xfeae;" horiz-adv-x="998" arabic-form="final" 
d="M505 -3q-23 0 -45 6.5t-40.5 21.5t-31.5 39.5t-17 59.5l-136 -44q8 -12 16 -39t8 -55q0 -87 -21.5 -146.5t-51.5 -96.5t-61 -53.5t-50 -16.5q-25 0 -53.5 5t-53.5 12q-14 4 -29 8.5t-29 9.5l1 6q80 2 138.5 24t96.5 56t56.5 75.5t18.5 82.5q0 37 -18.5 65.5t-66.5 55.5
q31 82 40 84q17 4 38 7.5t45 8.5q32 7 54 12.5t37 11t24.5 11t17.5 13.5q10 9 16 19t12 16q2 2 4 2t4 -1.5t3 -2.5q-5 -8 -9 -26t-4 -34q0 -21 5.5 -41t18.5 -36t34 -25.5t53 -9.5q28 0 49 7.5t35.5 18.5t23.5 23.5t13 23.5q10 28 21 45t18 22q1 1 3 1t4 -1.5t3 -2.5
q-5 -8 -9 -26t-4 -34q0 -33 17.5 -54t60.5 -21q26 0 45 14.5t29 31.5q-3 12 -4 23.5t-1 22.5q0 20 2.5 36t6.5 24q1 3 5 3t4 -2q3 -27 9 -54.5t22.5 -49.5t46 -35.5t79.5 -13.5q15 0 20.5 -9.5t5.5 -30.5v-5q0 -23 -12.5 -31t-33.5 -8q-93 0 -126 76q-8 -11 -18.5 -24.5
t-24 -25t-31 -19t-41.5 -7.5q-12 0 -25.5 3t-26.5 11.5t-23.5 23t-15.5 38.5q-32 -38 -69 -58.5t-82 -20.5z" />
    <glyph glyph-name="uniFD2B" unicode="&#xfebc;&#xfeae;" horiz-adv-x="1021" arabic-form="final" 
d="M235 80q8 -12 16 -39t8 -55q0 -87 -21.5 -146.5t-51.5 -96.5t-61 -53.5t-50 -16.5q-25 0 -53.5 5t-53.5 12q-14 4 -29 8.5t-29 9.5l1 6q80 2 138.5 24t96.5 56t56.5 75.5t18.5 82.5q0 37 -18.5 65.5t-66.5 55.5q31 82 40 84q17 4 38 7.5t45 8.5q32 7 54 12.5t37 11
t24.5 11t17.5 13.5q10 9 16 19t12 16q2 2 4 2t4 -1.5t3 -2.5q-5 -8 -9 -26t-4 -34q0 -11 2 -27.5t9.5 -33t22.5 -29.5t42 -17q40 49 86 93.5t92.5 78.5t89.5 54t78 20q25 0 49 -11t42 -28t29 -38.5t11 -42.5q0 -15 -6.5 -36t-20.5 -47q1 -9 5 -17t13.5 -14.5t26 -10.5
t42.5 -4q15 0 20.5 -9.5t5.5 -30.5v-5q0 -23 -12.5 -31t-33.5 -8q-36 0 -61 21t-32 73l-16 -18q-44 -46 -111.5 -66.5t-173.5 -20.5q-64 0 -109 7t-74 22.5t-44 41.5t-19 64zM530 77q9 -2 26 -4t37 -3.5t41.5 -2t39.5 -0.5q61 0 106.5 8.5t75.5 21t44.5 26.5t14.5 25
q0 22 -11 41t-28 32t-39 20.5t-44 7.5q-57 0 -123.5 -47t-139.5 -125z" />
    <glyph glyph-name="uniFD2C" unicode="&#xfec0;&#xfeae;" horiz-adv-x="1018" arabic-form="final" 
d="M665 586q10 -5 27.5 -21t28.5 -31v-4q-6 -5 -13.5 -12.5l-15.5 -15.5t-15 -15.5t-11 -11.5h-4q-9 12 -24 27t-31 23v4q0 1 8 10.5t18 19.5l18.5 18.5t9.5 8.5h4zM235 80q8 -12 16 -39t8 -55q0 -87 -21.5 -146.5t-51.5 -96.5t-61 -53.5t-50 -16.5q-25 0 -53.5 5t-53.5 12
q-14 4 -29 8.5t-29 9.5l1 6q80 2 138.5 24t96.5 56t56.5 75.5t18.5 82.5q0 37 -18.5 65.5t-66.5 55.5q31 82 40 84q17 4 38 7.5t45 8.5q32 7 54 12.5t37 11t24.5 11t17.5 13.5q10 9 16 19t12 16q2 2 4 2t4 -1.5t3 -2.5q-5 -8 -9 -26t-4 -34q0 -11 2 -27.5t9.5 -33
t22.5 -29.5t42 -17q40 49 86 93.5t92.5 78.5t89.5 54t78 20q25 0 49 -11t42 -28t29 -38.5t11 -42.5q0 -15 -6.5 -36t-20.5 -47q1 -9 5 -17t13.5 -14.5t26 -10.5t42.5 -4q15 0 20.5 -9.5t5.5 -30.5v-5q0 -23 -12.5 -31t-33.5 -8q-36 0 -61 21t-32 73l-16 -18
q-44 -46 -111.5 -66.5t-173.5 -20.5q-64 0 -109 7t-74 22.5t-44 41.5t-19 64zM530 77q9 -2 26 -4t37 -3.5t41.5 -2t39.5 -0.5q61 0 106.5 8.5t75.5 21t44.5 26.5t14.5 25q0 22 -11 41t-28 32t-39 20.5t-44 7.5q-57 0 -123.5 -47t-139.5 -125z" />
    <glyph glyph-name="uniFD31" unicode="&#xfeb3;&#xfeec;" horiz-adv-x="1036" arabic-form="initial" 
d="M563 -3q-39 0 -60 16.5t-40 57.5q-9 20 -20.5 28t-25.5 8q-21 0 -43.5 -12t-43 -31.5t-37 -44t-25.5 -49.5q-5 -14 -7 -32.5t-2 -38.5q0 -12 1 -26t2 -27.5t2 -25.5t1 -19q0 -21 -15 -46.5t-37 -50.5l-4 1q-11 21 -26.5 53t-29.5 67.5t-24 69.5t-10 59q0 27 5 47t13 41
q-68 -42 -147 -42q-10 0 -18 9t-8 29v6q0 21 13 30.5t33 9.5q21 0 51 4t54 13q38 14 57 31t31 50q8 -8 8 -23q0 -20 -11 -41.5t-19 -32.5q-23 -29 -23 -62q0 -8 3 -27t9 -44t16.5 -53.5t25.5 -55.5h4q0 97 28 163.5t70 114.5q33 38 66.5 55t59.5 17q23 0 35 -18t21 -44
q10 -29 31 -39t60 -10q24 0 44 7t34.5 17.5t24 23t13.5 23.5q11 28 21.5 45t17.5 22q1 1 3 1t4 -1.5t3 -2.5q-5 -8 -9 -26t-4 -34q0 -33 17.5 -54t60.5 -21q52 0 73 16t21 42q0 15 -8.5 40.5t-40.5 65.5q-6 7 -6 17q0 9 4 16l39 75h4q25 -46 37 -92.5t12 -86.5q0 -22 -6 -43
t-15 -39t-19.5 -32t-19.5 -22q-21 -20 -43.5 -30.5t-48.5 -10.5q-12 0 -25.5 3t-26.5 11.5t-23.5 23t-15.5 38.5q-29 -32 -64.5 -54t-81.5 -23z" />
    <glyph glyph-name="uniFD32" unicode="&#xfeb7;&#xfeec;" horiz-adv-x="1036" arabic-form="initial" 
d="M563 -3q-39 0 -60 16.5t-40 57.5q-9 20 -20.5 28t-25.5 8q-21 0 -43.5 -12t-43 -31.5t-37 -44t-25.5 -49.5q-5 -14 -7 -32.5t-2 -38.5q0 -12 1 -26t2 -27.5t2 -25.5t1 -19q0 -21 -15 -46.5t-37 -50.5l-4 1q-11 21 -26.5 53t-29.5 67.5t-24 69.5t-10 59q0 27 5 47t13 41
q-68 -42 -147 -42q-10 0 -18 9t-8 29v6q0 21 13 30.5t33 9.5q21 0 51 4t54 13q38 14 57 31t31 50q8 -8 8 -23q0 -20 -11 -41.5t-19 -32.5q-23 -29 -23 -62q0 -8 3 -27t9 -44t16.5 -53.5t25.5 -55.5h4q0 97 28 163.5t70 114.5q33 38 66.5 55t59.5 17q23 0 35 -18t21 -44
q10 -29 31 -39t60 -10q24 0 44 7t34.5 17.5t24 23t13.5 23.5q11 28 21.5 45t17.5 22q1 1 3 1t4 -1.5t3 -2.5q-5 -8 -9 -26t-4 -34q0 -33 17.5 -54t60.5 -21q52 0 73 16t21 42q0 15 -8.5 40.5t-40.5 65.5q-6 7 -6 17q0 9 4 16l39 75h4q25 -46 37 -92.5t12 -86.5q0 -22 -6 -43
t-15 -39t-19.5 -32t-19.5 -22q-21 -20 -43.5 -30.5t-48.5 -10.5q-12 0 -25.5 3t-26.5 11.5t-23.5 23t-15.5 38.5q-29 -32 -64.5 -54t-81.5 -23zM630 586q10 -5 27.5 -21t28.5 -31v-4q-6 -5 -13.5 -12.5l-15.5 -15.5t-15 -15.5t-11 -11.5h-4q-9 12 -24 27t-31 23v4
q0 1 8 10.5t18 19.5l18.5 18.5t9.5 8.5h4zM753 586q10 -5 27.5 -21t28.5 -31v-4q-6 -5 -13.5 -12.5l-15.5 -15.5t-15 -15.5t-11 -11.5h-4q-9 12 -24 27t-31 23v4q0 1 8 10.5t18 19.5l18.5 18.5t9.5 8.5h4zM686 713q10 -5 27.5 -21t28.5 -31v-4q-6 -5 -13.5 -12.5
l-15.5 -15.5t-15 -15.5t-11 -11.5h-4q-9 12 -24 27t-31 23v4q0 1 8 10.5t18 19.5l18.5 18.5t9.5 8.5h4z" />
    <glyph glyph-name="uniFEF5" unicode="&#xfedf;&#xfe82;" horiz-adv-x="524" arabic-form="isolated" 
d="M429 598q6 -45 8 -80.5t2 -73.5q0 -60 -13.5 -111t-38.5 -96q41 -68 41 -94q0 -21 -6.5 -42.5t-18.5 -40.5t-28 -32.5t-35 -18.5q-24 -6 -47 -7.5t-61 -1.5q-8 0 -30 1t-50 3l-4 82q8 -1 16 -1h15q13 0 32 10.5t40.5 29t43.5 45.5t40 60q-36 45 -101.5 113t-173.5 166
l-11 -24l-3 -1q-7 14 -13.5 26t-11.5 23q-10 19 -17.5 35t-7.5 20q0 2 4.5 12t10.5 21l15 28h6q121 -121 200.5 -212t125.5 -157q10 26 15.5 54.5t5.5 58.5q0 34 -3 64.5t-7.5 62t-10.5 65.5t-12 75q-1 1 -1 16q0 7 2 14.5t9 13.5l42 38h4q1 -5 7.5 -22.5t16 -39.5t21 -43.5
t23.5 -34.5l-3 -6h-21.5t-16.5 2zM242 84q16 -2 31 -2h41q51 0 70.5 10.5t19.5 16.5q0 4 -1 10t-5 16t-13 25t-24 36q-25 -34 -53 -61.5t-66 -50.5zM-112 700q5 16 15.5 31t23 26.5t26.5 18.5t26 7q11 0 26 -4.5t33.5 -9.5t39.5 -9.5t45 -4.5q26 0 49 5t44 16l3 -3
q-3 -9 -11.5 -22t-22.5 -25.5t-34 -21t-46 -8.5q-20 0 -37.5 3.5t-34 8t-32.5 8.5t-34 4q-32 0 -49 -8t-27 -15z" />
    <glyph glyph-name="uniFEF6" unicode="&#xfee0;&#xfe82;" horiz-adv-x="662" arabic-form="final" 
d="M537 634q2 -40 3 -91.5t1 -108.5v-67t-2 -67q0 -10 -0.5 -19.5t-0.5 -18.5q0 -43 5.5 -76t19.5 -55.5t38 -34.5t62 -12q15 0 20.5 -9.5t5.5 -30.5v-5q0 -23 -12.5 -31t-33.5 -8q-51 0 -81.5 14t-47.5 39t-22.5 57.5t-5.5 70.5v55q-47 -90 -91 -139.5t-83 -73.5t-72.5 -29
t-59.5 -5q-10 0 -26 1t-32.5 2.5t-30.5 3.5t-20 4q-10 3 -10 8q0 3 3 6q73 12 128.5 29t97.5 38.5t72.5 46.5t54.5 53q-11 20 -33.5 53t-56.5 71.5t-79 79t-102 75.5l-11 -24l-3 -1q-7 14 -13.5 26t-11.5 23q-10 19 -17.5 35t-7.5 20q0 2 3 11.5t8 19.5q2 5 4.5 11.5
t6.5 13.5h6q106 -85 189.5 -183t135.5 -207q17 23 30 44t21 38v53q0 46 -1.5 96t-5 94t-8.5 78t-12 48v4q8 6 17 16t17.5 20t15 18.5t9.5 11.5t7 3t6.5 -3t2.5 -6zM-48 700q5 16 15.5 31t23 26.5t26.5 18.5t26 7q11 0 26 -4.5t33.5 -9.5t39.5 -9.5t45 -4.5q26 0 49 5t44 16
l3 -3q-3 -9 -11.5 -22t-22.5 -25.5t-34 -21t-46 -8.5q-20 0 -37.5 3.5t-34 8t-32.5 8.5t-34 4q-32 0 -49 -8t-27 -15z" />
    <glyph glyph-name="uniFEF7" unicode="&#xfedf;&#xfe84;" horiz-adv-x="524" arabic-form="isolated" 
d="M429 598q6 -45 8 -80.5t2 -73.5q0 -60 -13.5 -111t-38.5 -96q41 -68 41 -94q0 -21 -6.5 -42.5t-18.5 -40.5t-28 -32.5t-35 -18.5q-24 -6 -47 -7.5t-61 -1.5q-8 0 -30 1t-50 3l-4 82q8 -1 16 -1h15q13 0 32 10.5t40.5 29t43.5 45.5t40 60q-36 45 -101.5 113t-173.5 166
l-11 -24l-3 -1q-7 14 -13.5 26t-11.5 23q-10 19 -17.5 35t-7.5 20q0 2 4.5 12t10.5 21l15 28h6q121 -121 200.5 -212t125.5 -157q10 26 15.5 54.5t5.5 58.5q0 34 -3 64.5t-7.5 62t-10.5 65.5t-12 75q-1 1 -1 16q0 7 2 14.5t9 13.5l42 38h4q1 -5 7.5 -22.5t16 -39.5t21 -43.5
t23.5 -34.5l-3 -6h-21.5t-16.5 2zM242 84q16 -2 31 -2h41q51 0 70.5 10.5t19.5 16.5q0 4 -1 10t-5 16t-13 25t-24 36q-25 -34 -53 -61.5t-66 -50.5zM100 792q-30 -9 -60.5 -22t-55.5 -24l-56 -28q0 8 2.5 23.5t14.5 22.5l26 14q-12 5 -21.5 15t-9.5 28q0 13 9.5 32.5
t25 36.5t35.5 29.5t41 12.5q11 0 22 -5t11 -18q0 -16 -9 -29q-14 12 -42 12q-9 0 -18.5 -2.5t-17.5 -8t-13.5 -14.5t-5.5 -21q0 -20 15 -28.5t35 -8.5q23 0 39 5t33 13l3 -1z" />
    <glyph glyph-name="uniFEF8" unicode="&#xfee0;&#xfe84;" horiz-adv-x="653" arabic-form="final" 
d="M537 634q2 -40 3 -91.5t1 -108.5v-67t-2 -67q0 -10 -0.5 -19.5t-0.5 -18.5q0 -43 5.5 -76t19.5 -55.5t38 -34.5t62 -12q15 0 20.5 -9.5t5.5 -30.5v-5q0 -23 -12.5 -31t-33.5 -8q-51 0 -81.5 14t-47.5 39t-22.5 57.5t-5.5 70.5v55q-47 -90 -91 -139.5t-83 -73.5t-72.5 -29
t-59.5 -5q-10 0 -26 1t-32.5 2.5t-30.5 3.5t-20 4q-10 3 -10 8q0 3 3 6q73 12 128.5 29t97.5 38.5t72.5 46.5t54.5 53q-11 20 -33.5 53t-56.5 71.5t-79 79t-102 75.5l-11 -24l-3 -1q-7 14 -13.5 26t-11.5 23q-10 19 -17.5 35t-7.5 20q0 2 3 11.5t8 19.5q2 5 4.5 11.5
t6.5 13.5h6q106 -85 189.5 -183t135.5 -207q17 23 30 44t21 38v53q0 46 -1.5 96t-5 94t-8.5 78t-12 48v4q8 6 17 16t17.5 20t15 18.5t9.5 11.5t7 3t6.5 -3t2.5 -6zM176 738q-30 -9 -60.5 -22t-55.5 -24l-56 -28q0 8 2.5 23.5t14.5 22.5l26 14q-12 5 -21.5 15t-9.5 28
q0 13 9.5 32.5t25 36.5t35.5 29.5t41 12.5q11 0 22 -5t11 -18q0 -16 -9 -29q-14 12 -42 12q-9 0 -18.5 -2.5t-17.5 -8t-13.5 -14.5t-5.5 -21q0 -20 15 -28.5t35 -8.5q23 0 39 5t33 13l3 -1z" />
    <glyph glyph-name="uniFEF9" unicode="&#xfedf;&#xfe88;" horiz-adv-x="524" arabic-form="isolated" 
d="M429 598q6 -45 8 -80.5t2 -73.5q0 -60 -13.5 -111t-38.5 -96q41 -68 41 -94q0 -21 -6.5 -42.5t-18.5 -40.5t-28 -32.5t-35 -18.5q-24 -6 -47 -7.5t-61 -1.5q-8 0 -30 1t-50 3l-4 82q8 -1 16 -1h15q13 0 32 10.5t40.5 29t43.5 45.5t40 60q-36 45 -101.5 113t-173.5 166
l-11 -24l-3 -1q-7 14 -13.5 26t-11.5 23q-10 19 -17.5 35t-7.5 20q0 2 4.5 12t10.5 21l15 28h6q121 -121 200.5 -212t125.5 -157q10 26 15.5 54.5t5.5 58.5q0 34 -3 64.5t-7.5 62t-10.5 65.5t-12 75q-1 1 -1 16q0 7 2 14.5t9 13.5l42 38h4q1 -5 7.5 -22.5t16 -39.5t21 -43.5
t23.5 -34.5l-3 -6h-21.5t-16.5 2zM242 84q16 -2 31 -2h41q51 0 70.5 10.5t19.5 16.5q0 4 -1 10t-5 16t-13 25t-24 36q-25 -34 -53 -61.5t-66 -50.5zM170 -187q-30 -9 -60.5 -22t-55.5 -24l-56 -28q0 8 2.5 23.5t14.5 22.5l26 14q-12 5 -21.5 15t-9.5 28q0 13 9.5 32.5
t25 36.5t35.5 29.5t41 12.5q11 0 22 -5t11 -18q0 -16 -9 -29q-14 12 -42 12q-9 0 -18.5 -2.5t-17.5 -8t-13.5 -14.5t-5.5 -21q0 -20 15 -28.5t35 -8.5q23 0 39 5t33 13l3 -1z" />
    <glyph glyph-name="uniFEFB" unicode="&#xfedf;&#xfe8e;" horiz-adv-x="524" arabic-form="isolated" 
d="M429 598q6 -45 8 -80.5t2 -73.5q0 -60 -13.5 -111t-38.5 -96q41 -68 41 -94q0 -21 -6.5 -42.5t-18.5 -40.5t-28 -32.5t-35 -18.5q-24 -6 -47 -7.5t-61 -1.5q-8 0 -30 1t-50 3l-4 82q8 -1 16 -1h15q13 0 32 10.5t40.5 29t43.5 45.5t40 60q-36 45 -101.5 113t-173.5 166
l-11 -24l-3 -1q-7 14 -13.5 26t-11.5 23q-10 19 -17.5 35t-7.5 20q0 2 4.5 12t10.5 21l15 28h6q121 -121 200.5 -212t125.5 -157q10 26 15.5 54.5t5.5 58.5q0 34 -3 64.5t-7.5 62t-10.5 65.5t-12 75q-1 1 -1 16q0 7 2 14.5t9 13.5l42 38h4q1 -5 7.5 -22.5t16 -39.5t21 -43.5
t23.5 -34.5l-3 -6h-21.5t-16.5 2zM242 84q16 -2 31 -2h41q51 0 70.5 10.5t19.5 16.5q0 4 -1 10t-5 16t-13 25t-24 36q-25 -34 -53 -61.5t-66 -50.5z" />
    <glyph glyph-name="uniFEFC" unicode="&#xfee0;&#xfe8e;" horiz-adv-x="653" arabic-form="final" 
d="M537 634q2 -40 3 -91.5t1 -108.5v-67t-2 -67q0 -10 -0.5 -19.5t-0.5 -18.5q0 -43 5.5 -76t19.5 -55.5t38 -34.5t62 -12q15 0 20.5 -9.5t5.5 -30.5v-5q0 -23 -12.5 -31t-33.5 -8q-51 0 -81.5 14t-47.5 39t-22.5 57.5t-5.5 70.5v55q-47 -90 -91 -139.5t-83 -73.5t-72.5 -29
t-59.5 -5q-10 0 -26 1t-32.5 2.5t-30.5 3.5t-20 4q-10 3 -10 8q0 3 3 6q73 12 128.5 29t97.5 38.5t72.5 46.5t54.5 53q-11 20 -33.5 53t-56.5 71.5t-79 79t-102 75.5l-11 -24l-3 -1q-7 14 -13.5 26t-11.5 23q-10 19 -17.5 35t-7.5 20q0 2 3 11.5t8 19.5q2 5 4.5 11.5
t6.5 13.5h6q106 -85 189.5 -183t135.5 -207q17 23 30 44t21 38v53q0 46 -1.5 96t-5 94t-8.5 78t-12 48v4q8 6 17 16t17.5 20t15 18.5t9.5 11.5t7 3t6.5 -3t2.5 -6z" />
    <glyph glyph-name="uniFE8B_uniFEA6.liga" unicode="&#xfe8b;&#xfea6;" horiz-adv-x="606" 
d="M441 166q-40 0 -86 -7t-85 -22q-44 -17 -81 -43.5t-64.5 -61t-43 -76t-15.5 -88.5q0 -65 26 -118t76.5 -90.5t123.5 -58t168 -20.5q35 0 78 4t75 12q2 -2 2 -6q0 -7 -6 -11q-7 -4 -28 -14t-45 -20.5t-46.5 -20.5t-32.5 -14q-13 -5 -36 -8t-49 -3q-71 0 -137 19t-117 58.5
t-81.5 100.5t-30.5 145q0 68 27 126.5t66 105t83.5 80t80.5 51.5q-10 4 -26.5 8t-35.5 7t-38 4.5t-34 1.5q-31 0 -64 -6.5t-59 -19.5l-4 5q6 6 12 14.5t12 18t12 18.5t11 15q20 26 64 32q46 11 83 32t66 46.5t50.5 52t36.5 48.5q18 26 34.5 42t33.5 16q12 0 21 -10.5
t14.5 -25.5t8 -32t2.5 -29q0 -3 -3 -12t-7.5 -19.5t-10.5 -21t-12 -17.5h-5q-4 28 -16.5 51.5t-31.5 23.5q-14 0 -26.5 -15.5t-28.5 -39t-38 -51t-55 -51.5q25 -5 52.5 -11t54.5 -11t52 -8.5t44 -3.5q30 0 47.5 0.5t44.5 2.5l2 -3l-37 -75q-14 3 -48 3zM123 586
q10 -5 27.5 -21t28.5 -31v-4q-6 -5 -13.5 -12.5l-15.5 -15.5t-15 -15.5t-11 -11.5h-4q-9 12 -24 27t-31 23v4q0 1 8 10.5t18 19.5l18.5 18.5t9.5 8.5h4zM469 645q-30 -9 -60.5 -22t-55.5 -24l-56 -28q0 8 2.5 23.5t14.5 22.5l26 14q-12 5 -21.5 15t-9.5 28q0 13 9.5 32.5
t25 36.5t35.5 29.5t41 12.5q11 0 22 -5t11 -18q0 -16 -9 -29q-14 12 -42 12q-9 0 -18.5 -2.5t-17.5 -8t-13.5 -14.5t-5.5 -21q0 -20 15 -28.5t35 -8.5q23 0 39 5t33 13l3 -1z" />
    <glyph glyph-name="uniFE8B_uniFB7B.liga" unicode="&#xfe8b;&#xfb7b;" horiz-adv-x="606" 
d="M441 166q-40 0 -86 -7t-85 -22q-44 -17 -81 -43.5t-64.5 -61t-43 -76t-15.5 -88.5q0 -65 26 -118t76.5 -90.5t123.5 -58t168 -20.5q35 0 78 4t75 12q2 -2 2 -6q0 -7 -6 -11q-7 -4 -28 -14t-45 -20.5t-46.5 -20.5t-32.5 -14q-13 -5 -36 -8t-49 -3q-71 0 -137 19t-117 58.5
t-81.5 100.5t-30.5 145q0 68 27 126.5t66 105t83.5 80t80.5 51.5q-10 4 -26.5 8t-35.5 7t-38 4.5t-34 1.5q-31 0 -64 -6.5t-59 -19.5l-4 5q6 6 12 14.5t12 18t12 18.5t11 15q20 26 64 32q46 11 83 32t66 46.5t50.5 52t36.5 48.5q18 26 34.5 42t33.5 16q12 0 21 -10.5
t14.5 -25.5t8 -32t2.5 -29q0 -3 -3 -12t-7.5 -19.5t-10.5 -21t-12 -17.5h-5q-4 28 -16.5 51.5t-31.5 23.5q-14 0 -26.5 -15.5t-28.5 -39t-38 -51t-55 -51.5q25 -5 52.5 -11t54.5 -11t52 -8.5t44 -3.5q30 0 47.5 0.5t44.5 2.5l2 -3l-37 -75q-14 3 -48 3zM469 645
q-30 -9 -60.5 -22t-55.5 -24l-56 -28q0 8 2.5 23.5t14.5 22.5l26 14q-12 5 -21.5 15t-9.5 28q0 13 9.5 32.5t25 36.5t35.5 29.5t41 12.5q11 0 22 -5t11 -18q0 -16 -9 -29q-14 12 -42 12q-9 0 -18.5 -2.5t-17.5 -8t-13.5 -14.5t-5.5 -21q0 -20 15 -28.5t35 -8.5q23 0 39 5
t33 13l3 -1zM290 -59q10 -5 27.5 -21t28.5 -31v-4q-6 -5 -13.5 -12.5l-15.5 -15.5t-15 -15.5t-11 -11.5h-4q-9 12 -24 27t-31 23v4q0 1 8 10.5t18 19.5l18.5 18.5t9.5 8.5h4zM413 -59q10 -5 27.5 -21t28.5 -31v-4q-6 -5 -13.5 -12.5l-15.5 -15.5t-15 -15.5t-11 -11.5h-4
q-9 12 -24 27t-31 23v4q0 1 8 10.5t18 19.5l18.5 18.5t9.5 8.5h4zM346 -190q10 -5 27.5 -21t28.5 -31v-4q-6 -5 -13.5 -12.5l-15.5 -15.5t-15 -15.5t-11 -11.5h-4q-9 12 -24 27t-31 23v4q0 1 8 10.5t18 19.5l18.5 18.5t9.5 8.5h4z" />
    <glyph glyph-name="uniFE8B_uniFB7D.liga" unicode="&#xfe8b;&#xfb7d;" horiz-adv-x="613" 
d="M76 251q15 16 26.5 37t22.5 38q3 5 12 8q3 2 7.5 2.5t9.5 2.5q49 9 88.5 26.5t70 39t53 45.5t38.5 46q18 26 34.5 42t33.5 16q12 0 21 -9.5t15 -23.5t8.5 -30t2.5 -28q0 -3 -3 -12t-7.5 -19.5t-10.5 -21t-12 -17.5h-5q-4 28 -17 48.5t-32 20.5q-15 0 -28.5 -14.5
t-31.5 -36t-43.5 -46.5t-63.5 -47q28 -9 59 -20t62.5 -20.5t63.5 -16t63 -6.5q14 0 34 1t35 3l2 -3q-4 -7 -9.5 -16.5t-10.5 -19t-9 -18.5t-5 -15q-33 0 -59.5 -3t-49.5 -10t-46 -19t-49 -30q-38 -27 -73 -50t-75 -39.5t-90 -26t-118 -9.5q-10 0 -18 9t-8 29v6
q0 21 12.5 30.5t32.5 9.5q82 1 133.5 13.5t88 30.5t65 38.5t64.5 38.5q-23 9 -49.5 18.5t-52.5 17t-49 12.5t-39 5q-38 0 -57.5 -3t-32.5 -9zM504 707q-30 -9 -60.5 -22t-55.5 -24l-56 -28q0 8 2.5 23.5t14.5 22.5l26 14q-12 5 -21.5 15t-9.5 28q0 13 9.5 32.5t25 36.5
t35.5 29.5t41 12.5q11 0 22 -5t11 -18q0 -16 -9 -29q-14 12 -42 12q-9 0 -18.5 -2.5t-17.5 -8t-13.5 -14.5t-5.5 -21q0 -20 15 -28.5t35 -8.5q23 0 39 5t33 13l3 -1zM214 -109q10 -5 27.5 -21t28.5 -31v-4q-6 -5 -13.5 -12.5l-15.5 -15.5t-15 -15.5t-11 -11.5h-4
q-9 12 -24 27t-31 23v4q0 1 8 10.5t18 19.5l18.5 18.5t9.5 8.5h4zM337 -109q10 -5 27.5 -21t28.5 -31v-4q-6 -5 -13.5 -12.5l-15.5 -15.5t-15 -15.5t-11 -11.5h-4q-9 12 -24 27t-31 23v4q0 1 8 10.5t18 19.5l18.5 18.5t9.5 8.5h4zM270 -240q10 -5 27.5 -21t28.5 -31v-4
q-6 -5 -13.5 -12.5l-15.5 -15.5t-15 -15.5t-11 -11.5h-4q-9 12 -24 27t-31 23v4q0 1 8 10.5t18 19.5l18.5 18.5t9.5 8.5h4z" />
    <glyph glyph-name="uniFE8C_uniFB9F.liga" unicode="&#xfe8c;&#xfb9f;" horiz-adv-x="726" 
d="M424 281q10 -20 19.5 -44.5t17.5 -50.5q15 -4 45 -4q33 0 54 11t39 28q10 9 16 19t12 16q2 2 4 2t4 -1.5t3 -2.5q-5 -8 -9 -26t-4 -34q0 -21 5.5 -41t18.5 -35t34 -24.5t53 -9.5q15 0 20.5 -9.5t5.5 -30.5v-5q0 -23 -12.5 -31t-33.5 -8q-23 0 -47 7t-44 23.5t-33.5 43.5
t-14.5 68q-23 -22 -49 -30.5t-49 -9.5q1 -8 1.5 -14.5t0.5 -12.5q0 -35 -17 -76.5t-42 -74.5q-15 -20 -36 -41t-49 -38.5t-64 -28.5t-81 -11q-88 0 -140 49t-52 143q0 20 3.5 43t9 45.5t13 42.5t16.5 35q3 4 4 4q2 0 4 -2l3 -3q-2 -3 -4.5 -15t-5 -27.5t-4.5 -33t-2 -32.5
q0 -24 8.5 -52t27 -51t49.5 -38.5t76 -15.5q61 0 106 17t74 40t43.5 48t14.5 42q0 41 -15.5 70t-34.5 55q-10 13 -10 22l5 15l39 75h4zM699 412q-30 -9 -60.5 -22t-55.5 -24l-56 -28q0 8 2.5 23.5t14.5 22.5l26 14q-12 5 -21.5 15t-9.5 28q0 13 9.5 32.5t25 36.5t35.5 29.5
t41 12.5q11 0 22 -5t11 -18q0 -16 -9 -29q-14 12 -42 12q-9 0 -18.5 -2.5t-17.5 -8t-13.5 -14.5t-5.5 -21q0 -20 15 -28.5t35 -8.5q23 0 39 5t33 13l3 -1z" />
    <glyph glyph-name="uniFE8B_uniFBA9.liga" unicode="&#xfe8b;&#xfba9;" horiz-adv-x="567" 
d="M491 78q-11 20 -24 27.5t-27 7.5q-21 0 -47 -13t-51 -33.5t-45 -45.5t-29 -50q-10 -24 -10 -69q0 -19 1 -30.5t2.5 -21.5t2.5 -21t1 -28q0 -21 -15 -46t-37 -51l-4 1q-11 21 -26.5 53t-29.5 67.5t-24 69.5t-10 59q0 27 5 47t13 41q-68 -42 -147 -42q-10 0 -18 9t-8 29v6
q0 21 13 30.5t33 9.5q21 0 51 4t54 13q38 14 57 31t31 50q8 -8 8 -23q0 -20 -11 -41.5t-19 -32.5q-23 -29 -23 -62q0 -12 3.5 -33t10.5 -46t17 -51.5t23 -49.5h4q0 5 -0.5 9.5t-0.5 9.5q0 46 12 87t30 75t39 60t40 43q75 66 127 66q23 0 36.5 -13.5t13.5 -39.5
q0 -12 -5.5 -31t-11.5 -31h-5zM512 449q-30 -9 -60.5 -22t-55.5 -24l-56 -28q0 8 2.5 23.5t14.5 22.5l26 14q-12 5 -21.5 15t-9.5 28q0 13 9.5 32.5t25 36.5t35.5 29.5t41 12.5q11 0 22 -5t11 -18q0 -16 -9 -29q-14 12 -42 12q-9 0 -18.5 -2.5t-17.5 -8t-13.5 -14.5
t-5.5 -21q0 -20 15 -28.5t35 -8.5q23 0 39 5t33 13l3 -1z" />
    <glyph glyph-name="uniFE8C_uniFBA9.liga" unicode="&#xfe8c;&#xfba9;" horiz-adv-x="559" 
d="M569 84q15 0 20.5 -9.5t5.5 -30.5v-5q0 -23 -12.5 -31t-33.5 -8q-28 0 -47.5 14.5t-38.5 56.5q-9 20 -20.5 28t-25.5 8q-21 0 -43.5 -12t-43 -31.5t-37 -44t-25.5 -49.5q-5 -14 -7 -32.5t-2 -38.5q0 -12 1 -26t2 -27.5t2 -25.5t1 -19q0 -21 -15 -46.5t-37 -50.5l-4 1
q-11 21 -26.5 53t-29.5 67.5t-24 69.5t-10 59q0 27 5 47t13 41q-68 -42 -147 -42q-10 0 -18 9t-8 29v6q0 21 13 30.5t33 9.5q21 0 51 4t54 13q38 14 57 31t31 50q8 -8 8 -23q0 -20 -11 -41.5t-19 -32.5q-23 -29 -23 -62q0 -8 3 -27t9 -44t16.5 -53.5t25.5 -55.5h4
q0 97 28 163.5t70 114.5q33 38 66.5 55t59.5 17q23 0 35 -18t21 -44q10 -29 29 -38t44 -9zM526 397q-30 -9 -60.5 -22t-55.5 -24l-56 -28q0 8 2.5 23.5t14.5 22.5l26 14q-12 5 -21.5 15t-9.5 28q0 13 9.5 32.5t25 36.5t35.5 29.5t41 12.5q11 0 22 -5t11 -18q0 -16 -9 -29
q-14 12 -42 12q-9 0 -18.5 -2.5t-17.5 -8t-13.5 -14.5t-5.5 -21q0 -20 15 -28.5t35 -8.5q23 0 39 5t33 13l3 -1z" />
    <glyph glyph-name="uniFE8B_uniFBFD.liga" unicode="&#xfe8b;&#xfbfd;" horiz-adv-x="684" 
d="M496 180q26 -9 51 -21t44.5 -27.5t31 -34t11.5 -39.5q0 -15 -10.5 -40t-32.5 -53.5t-55 -57t-77.5 -52t-101.5 -38t-126 -14.5q-57 0 -96.5 11t-65 29.5t-39.5 42t-20.5 48t-8 48t-1.5 41.5q0 27 5.5 55t12.5 51.5t14 39.5t11 20q2 2 4 2q5 0 10 -5q-8 -20 -13.5 -51.5
t-5.5 -64.5q0 -30 12 -60t38.5 -54t69 -39t102.5 -15q63 0 119.5 12t99.5 29.5t68 37.5t25 37q0 18 -22.5 36.5t-58 35t-78 30.5t-81.5 22q11 24 25.5 41t27.5 19q37 7 66.5 18.5t50.5 24.5t32 27t11 27q0 15 -8.5 40.5t-40.5 65.5q-6 7 -6 17q0 9 4 16l39 75h4
q25 -46 37 -92.5t12 -86.5q0 -45 -26.5 -86t-63.5 -68zM566 613q-30 -9 -60.5 -22t-55.5 -24l-56 -28q0 8 2.5 23.5t14.5 22.5l26 14q-12 5 -21.5 15t-9.5 28q0 13 9.5 32.5t25 36.5t35.5 29.5t41 12.5q11 0 22 -5t11 -18q0 -16 -9 -29q-14 12 -42 12q-9 0 -18.5 -2.5
t-17.5 -8t-13.5 -14.5t-5.5 -21q0 -20 15 -28.5t35 -8.5q23 0 39 5t33 13l3 -1zM150 -308q10 -5 27.5 -21t28.5 -31v-4q-6 -5 -13.5 -12.5l-15.5 -15.5t-15 -15.5t-11 -11.5h-4q-9 12 -24 27t-31 23v4q0 1 8 10.5t18 19.5l18.5 18.5t9.5 8.5h4zM273 -308q10 -5 27.5 -21
t28.5 -31v-4q-6 -5 -13.5 -12.5l-15.5 -15.5t-15 -15.5t-11 -11.5h-4q-9 12 -24 27t-31 23v4q0 1 8 10.5t18 19.5l18.5 18.5t9.5 8.5h4z" />
    <glyph glyph-name="uniFE8C_uniFBFD.liga" unicode="&#xfe8c;&#xfbfd;" horiz-adv-x="751" 
d="M639 -85q0 -15 -11 -40t-33 -54t-56 -58.5t-79 -53t-102.5 -38.5t-126.5 -15q-57 0 -96.5 11t-65 29.5t-39.5 42t-20.5 48t-8 48t-1.5 41.5q0 27 5.5 55t12.5 51.5t14 39.5t11 20q2 2 4 2q5 0 10 -5q-8 -20 -13.5 -51.5t-5.5 -64.5q0 -30 12 -60t38.5 -54t69 -39
t102.5 -15q63 0 119.5 12t99.5 29.5t68 37.5t25 37q0 7 -7 13.5t-18 12t-25 10.5t-27 9q-44 12 -58.5 25t-14.5 37q0 30 13.5 67t35.5 69.5t51 54.5t61 22q26 0 45.5 -16.5t39 -37t41.5 -37t52 -16.5q15 0 20.5 -9.5t5.5 -30.5v-5q0 -23 -12.5 -31t-33.5 -8
q-26 0 -46.5 17.5t-40 38t-41 38t-50.5 17.5q-15 0 -32 -7.5t-32 -19.5t-25 -27t-10 -30q0 -9 13 -16.5t32.5 -14.5t42 -14.5t42 -17t32.5 -21.5t13 -28zM183 -408q10 -5 27.5 -21t28.5 -31v-4q-6 -5 -13.5 -12.5l-15.5 -15.5t-15 -15.5t-11 -11.5h-4q-9 12 -24 27t-31 23v4
q0 1 8 10.5t18 19.5l18.5 18.5t9.5 8.5h4zM306 -408q10 -5 27.5 -21t28.5 -31v-4q-6 -5 -13.5 -12.5l-15.5 -15.5t-15 -15.5t-11 -11.5h-4q-9 12 -24 27t-31 23v4q0 1 8 10.5t18 19.5l18.5 18.5t9.5 8.5h4zM634 328q-30 -9 -60.5 -22t-55.5 -24l-56 -28q0 8 2.5 23.5
t14.5 22.5l26 14q-12 5 -21.5 15t-9.5 28q0 13 9.5 32.5t25 36.5t35.5 29.5t41 12.5q11 0 22 -5t11 -18q0 -16 -9 -29q-14 12 -42 12q-9 0 -18.5 -2.5t-17.5 -8t-13.5 -14.5t-5.5 -21q0 -20 15 -28.5t35 -8.5q23 0 39 5t33 13l3 -1z" />
    <glyph glyph-name="uniFE92_uniFB9F.liga" unicode="&#xfe92;&#xfb9f;" horiz-adv-x="726" 
d="M424 281q10 -20 19.5 -44.5t17.5 -50.5q15 -4 45 -4q33 0 54 11t39 28q10 9 16 19t12 16q2 2 4 2t4 -1.5t3 -2.5q-5 -8 -9 -26t-4 -34q0 -21 5.5 -41t18.5 -35t34 -24.5t53 -9.5q15 0 20.5 -9.5t5.5 -30.5v-5q0 -23 -12.5 -31t-33.5 -8q-23 0 -47 7t-44 23.5t-33.5 43.5
t-14.5 68q-23 -22 -49 -30.5t-49 -9.5q1 -8 1.5 -14.5t0.5 -12.5q0 -35 -17 -76.5t-42 -74.5q-15 -20 -36 -41t-49 -38.5t-64 -28.5t-81 -11q-88 0 -140 49t-52 143q0 20 3.5 43t9 45.5t13 42.5t16.5 35q3 4 4 4q2 0 4 -2l3 -3q-2 -3 -4.5 -15t-5 -27.5t-4.5 -33t-2 -32.5
q0 -24 8.5 -52t27 -51t49.5 -38.5t76 -15.5q61 0 106 17t74 40t43.5 48t14.5 42q0 41 -15.5 70t-34.5 55q-10 13 -10 22l5 15l39 75h4zM551 -109q10 -5 27.5 -21t28.5 -31v-4q-6 -5 -13.5 -12.5l-15.5 -15.5t-15 -15.5t-11 -11.5h-4q-9 12 -24 27t-31 23v4q0 1 8 10.5
t18 19.5l18.5 18.5t9.5 8.5h4z" />
    <glyph glyph-name="uniFE91_uniFBA9.liga" unicode="&#xfe91;&#xfba9;" horiz-adv-x="567" 
d="M491 78q-11 20 -24 27.5t-27 7.5q-21 0 -47 -13t-51 -33.5t-45 -45.5t-29 -50q-10 -24 -10 -69q0 -19 1 -30.5t2.5 -21.5t2.5 -21t1 -28q0 -21 -15 -46t-37 -51l-4 1q-11 21 -26.5 53t-29.5 67.5t-24 69.5t-10 59q0 27 5 47t13 41q-68 -42 -147 -42q-10 0 -18 9t-8 29v6
q0 21 13 30.5t33 9.5q21 0 51 4t54 13q38 14 57 31t31 50q8 -8 8 -23q0 -20 -11 -41.5t-19 -32.5q-23 -29 -23 -62q0 -12 3.5 -33t10.5 -46t17 -51.5t23 -49.5h4q0 5 -0.5 9.5t-0.5 9.5q0 46 12 87t30 75t39 60t40 43q75 66 127 66q23 0 36.5 -13.5t13.5 -39.5
q0 -12 -5.5 -31t-11.5 -31h-5zM427 -109q10 -5 27.5 -21t28.5 -31v-4q-6 -5 -13.5 -12.5l-15.5 -15.5t-15 -15.5t-11 -11.5h-4q-9 12 -24 27t-31 23v4q0 1 8 10.5t18 19.5l18.5 18.5t9.5 8.5h4z" />
    <glyph glyph-name="uniFE92_uniFBA9.liga" unicode="&#xfe92;&#xfba9;" horiz-adv-x="559" 
d="M569 84q15 0 20.5 -9.5t5.5 -30.5v-5q0 -23 -12.5 -31t-33.5 -8q-28 0 -47.5 14.5t-38.5 56.5q-9 20 -20.5 28t-25.5 8q-21 0 -43.5 -12t-43 -31.5t-37 -44t-25.5 -49.5q-5 -14 -7 -32.5t-2 -38.5q0 -12 1 -26t2 -27.5t2 -25.5t1 -19q0 -21 -15 -46.5t-37 -50.5l-4 1
q-11 21 -26.5 53t-29.5 67.5t-24 69.5t-10 59q0 27 5 47t13 41q-68 -42 -147 -42q-10 0 -18 9t-8 29v6q0 21 13 30.5t33 9.5q21 0 51 4t54 13q38 14 57 31t31 50q8 -8 8 -23q0 -20 -11 -41.5t-19 -32.5q-23 -29 -23 -62q0 -8 3 -27t9 -44t16.5 -53.5t25.5 -55.5h4
q0 97 28 163.5t70 114.5q33 38 66.5 55t59.5 17q23 0 35 -18t21 -44q10 -29 29 -38t44 -9zM425 -109q10 -5 27.5 -21t28.5 -31v-4q-6 -5 -13.5 -12.5l-15.5 -15.5t-15 -15.5t-11 -11.5h-4q-9 12 -24 27t-31 23v4q0 1 8 10.5t18 19.5l18.5 18.5t9.5 8.5h4z" />
    <glyph glyph-name="uniFE91_uniFBFD.liga" unicode="&#xfe91;&#xfbfd;" horiz-adv-x="684" 
d="M496 180q26 -9 51 -21t44.5 -27.5t31 -34t11.5 -39.5q0 -15 -10.5 -40t-32.5 -53.5t-55 -57t-77.5 -52t-101.5 -38t-126 -14.5q-57 0 -96.5 11t-65 29.5t-39.5 42t-20.5 48t-8 48t-1.5 41.5q0 27 5.5 55t12.5 51.5t14 39.5t11 20q2 2 4 2q5 0 10 -5q-8 -20 -13.5 -51.5
t-5.5 -64.5q0 -30 12 -60t38.5 -54t69 -39t102.5 -15q63 0 119.5 12t99.5 29.5t68 37.5t25 37q0 18 -22.5 36.5t-58 35t-78 30.5t-81.5 22q11 24 25.5 41t27.5 19q37 7 66.5 18.5t50.5 24.5t32 27t11 27q0 15 -8.5 40.5t-40.5 65.5q-6 7 -6 17q0 9 4 16l39 75h4
q25 -46 37 -92.5t12 -86.5q0 -45 -26.5 -86t-63.5 -68zM540 -208q10 -5 27.5 -21t28.5 -31v-4q-6 -5 -13.5 -12.5l-15.5 -15.5t-15 -15.5t-11 -11.5h-4q-9 12 -24 27t-31 23v4q0 1 8 10.5t18 19.5l18.5 18.5t9.5 8.5h4zM150 -308q10 -5 27.5 -21t28.5 -31v-4
q-6 -5 -13.5 -12.5l-15.5 -15.5t-15 -15.5t-11 -11.5h-4q-9 12 -24 27t-31 23v4q0 1 8 10.5t18 19.5l18.5 18.5t9.5 8.5h4zM273 -308q10 -5 27.5 -21t28.5 -31v-4q-6 -5 -13.5 -12.5l-15.5 -15.5t-15 -15.5t-11 -11.5h-4q-9 12 -24 27t-31 23v4q0 1 8 10.5t18 19.5
l18.5 18.5t9.5 8.5h4z" />
    <glyph glyph-name="uniFE92_uniFBFD.liga" unicode="&#xfe92;&#xfbfd;" horiz-adv-x="751" 
d="M639 -85q0 -15 -11 -40t-33 -54t-56 -58.5t-79 -53t-102.5 -38.5t-126.5 -15q-57 0 -96.5 11t-65 29.5t-39.5 42t-20.5 48t-8 48t-1.5 41.5q0 27 5.5 55t12.5 51.5t14 39.5t11 20q2 2 4 2q5 0 10 -5q-8 -20 -13.5 -51.5t-5.5 -64.5q0 -30 12 -60t38.5 -54t69 -39
t102.5 -15q63 0 119.5 12t99.5 29.5t68 37.5t25 37q0 7 -7 13.5t-18 12t-25 10.5t-27 9q-44 12 -58.5 25t-14.5 37q0 30 13.5 67t35.5 69.5t51 54.5t61 22q26 0 45.5 -16.5t39 -37t41.5 -37t52 -16.5q15 0 20.5 -9.5t5.5 -30.5v-5q0 -23 -12.5 -31t-33.5 -8
q-26 0 -46.5 17.5t-40 38t-41 38t-50.5 17.5q-15 0 -32 -7.5t-32 -19.5t-25 -27t-10 -30q0 -9 13 -16.5t32.5 -14.5t42 -14.5t42 -17t32.5 -21.5t13 -28zM183 -408q10 -5 27.5 -21t28.5 -31v-4q-6 -5 -13.5 -12.5l-15.5 -15.5t-15 -15.5t-11 -11.5h-4q-9 12 -24 27t-31 23v4
q0 1 8 10.5t18 19.5l18.5 18.5t9.5 8.5h4zM306 -408q10 -5 27.5 -21t28.5 -31v-4q-6 -5 -13.5 -12.5l-15.5 -15.5t-15 -15.5t-11 -11.5h-4q-9 12 -24 27t-31 23v4q0 1 8 10.5t18 19.5l18.5 18.5t9.5 8.5h4zM675 -240q10 -5 27.5 -21t28.5 -31v-4q-6 -5 -13.5 -12.5
l-15.5 -15.5t-15 -15.5t-11 -11.5h-4q-9 12 -24 27t-31 23v4q0 1 8 10.5t18 19.5l18.5 18.5t9.5 8.5h4z" />
    <glyph glyph-name="uniFE97_uniFB7B.liga" unicode="&#xfe97;&#xfb7b;" horiz-adv-x="606" 
d="M441 166q-40 0 -86 -7t-85 -22q-44 -17 -81 -43.5t-64.5 -61t-43 -76t-15.5 -88.5q0 -65 26 -118t76.5 -90.5t123.5 -58t168 -20.5q35 0 78 4t75 12q2 -2 2 -6q0 -7 -6 -11q-7 -4 -28 -14t-45 -20.5t-46.5 -20.5t-32.5 -14q-13 -5 -36 -8t-49 -3q-71 0 -137 19t-117 58.5
t-81.5 100.5t-30.5 145q0 68 27 126.5t66 105t83.5 80t80.5 51.5q-10 4 -26.5 8t-35.5 7t-38 4.5t-34 1.5q-31 0 -64 -6.5t-59 -19.5l-4 5q6 6 12 14.5t12 18t12 18.5t11 15q20 26 64 32q46 11 83 32t66 46.5t50.5 52t36.5 48.5q18 26 34.5 42t33.5 16q12 0 21 -10.5
t14.5 -25.5t8 -32t2.5 -29q0 -3 -3 -12t-7.5 -19.5t-10.5 -21t-12 -17.5h-5q-4 28 -16.5 51.5t-31.5 23.5q-14 0 -26.5 -15.5t-28.5 -39t-38 -51t-55 -51.5q25 -5 52.5 -11t54.5 -11t52 -8.5t44 -3.5q30 0 47.5 0.5t44.5 2.5l2 -3l-37 -75q-14 3 -48 3zM290 -59
q10 -5 27.5 -21t28.5 -31v-4q-6 -5 -13.5 -12.5l-15.5 -15.5t-15 -15.5t-11 -11.5h-4q-9 12 -24 27t-31 23v4q0 1 8 10.5t18 19.5l18.5 18.5t9.5 8.5h4zM413 -59q10 -5 27.5 -21t28.5 -31v-4q-6 -5 -13.5 -12.5l-15.5 -15.5t-15 -15.5t-11 -11.5h-4q-9 12 -24 27t-31 23v4
q0 1 8 10.5t18 19.5l18.5 18.5t9.5 8.5h4zM346 -190q10 -5 27.5 -21t28.5 -31v-4q-6 -5 -13.5 -12.5l-15.5 -15.5t-15 -15.5t-11 -11.5h-4q-9 12 -24 27t-31 23v4q0 1 8 10.5t18 19.5l18.5 18.5t9.5 8.5h4zM333 736q10 -5 27.5 -21t28.5 -31v-4q-6 -5 -13.5 -12.5
l-15.5 -15.5t-15 -15.5t-11 -11.5h-4q-9 12 -24 27t-31 23v4q0 1 8 10.5t18 19.5l18.5 18.5t9.5 8.5h4zM456 736q10 -5 27.5 -21t28.5 -31v-4q-6 -5 -13.5 -12.5l-15.5 -15.5t-15 -15.5t-11 -11.5h-4q-9 12 -24 27t-31 23v4q0 1 8 10.5t18 19.5l18.5 18.5t9.5 8.5h4z" />
    <glyph glyph-name="uniFE97_uniFB7D.liga" unicode="&#xfe97;&#xfb7d;" horiz-adv-x="613" 
d="M76 251q15 16 26.5 37t22.5 38q3 5 12 8q3 2 7.5 2.5t9.5 2.5q49 9 88.5 26.5t70 39t53 45.5t38.5 46q18 26 34.5 42t33.5 16q12 0 21 -9.5t15 -23.5t8.5 -30t2.5 -28q0 -3 -3 -12t-7.5 -19.5t-10.5 -21t-12 -17.5h-5q-4 28 -17 48.5t-32 20.5q-15 0 -28.5 -14.5
t-31.5 -36t-43.5 -46.5t-63.5 -47q28 -9 59 -20t62.5 -20.5t63.5 -16t63 -6.5q14 0 34 1t35 3l2 -3q-4 -7 -9.5 -16.5t-10.5 -19t-9 -18.5t-5 -15q-33 0 -59.5 -3t-49.5 -10t-46 -19t-49 -30q-38 -27 -73 -50t-75 -39.5t-90 -26t-118 -9.5q-10 0 -18 9t-8 29v6
q0 21 12.5 30.5t32.5 9.5q82 1 133.5 13.5t88 30.5t65 38.5t64.5 38.5q-23 9 -49.5 18.5t-52.5 17t-49 12.5t-39 5q-38 0 -57.5 -3t-32.5 -9zM214 -109q10 -5 27.5 -21t28.5 -31v-4q-6 -5 -13.5 -12.5l-15.5 -15.5t-15 -15.5t-11 -11.5h-4q-9 12 -24 27t-31 23v4q0 1 8 10.5
t18 19.5l18.5 18.5t9.5 8.5h4zM337 -109q10 -5 27.5 -21t28.5 -31v-4q-6 -5 -13.5 -12.5l-15.5 -15.5t-15 -15.5t-11 -11.5h-4q-9 12 -24 27t-31 23v4q0 1 8 10.5t18 19.5l18.5 18.5t9.5 8.5h4zM270 -240q10 -5 27.5 -21t28.5 -31v-4q-6 -5 -13.5 -12.5l-15.5 -15.5
t-15 -15.5t-11 -11.5h-4q-9 12 -24 27t-31 23v4q0 1 8 10.5t18 19.5l18.5 18.5t9.5 8.5h4zM407 786q10 -5 27.5 -21t28.5 -31v-4q-6 -5 -13.5 -12.5l-15.5 -15.5t-15 -15.5t-11 -11.5h-4q-9 12 -24 27t-31 23v4q0 1 8 10.5t18 19.5l18.5 18.5t9.5 8.5h4zM530 786
q10 -5 27.5 -21t28.5 -31v-4q-6 -5 -13.5 -12.5l-15.5 -15.5t-15 -15.5t-11 -11.5h-4q-9 12 -24 27t-31 23v4q0 1 8 10.5t18 19.5l18.5 18.5t9.5 8.5h4z" />
    <glyph glyph-name="uniFE98_uniFB9F.liga" unicode="&#xfe98;&#xfb9f;" horiz-adv-x="726" 
d="M424 281q10 -20 19.5 -44.5t17.5 -50.5q15 -4 45 -4q33 0 54 11t39 28q10 9 16 19t12 16q2 2 4 2t4 -1.5t3 -2.5q-5 -8 -9 -26t-4 -34q0 -21 5.5 -41t18.5 -35t34 -24.5t53 -9.5q15 0 20.5 -9.5t5.5 -30.5v-5q0 -23 -12.5 -31t-33.5 -8q-23 0 -47 7t-44 23.5t-33.5 43.5
t-14.5 68q-23 -22 -49 -30.5t-49 -9.5q1 -8 1.5 -14.5t0.5 -12.5q0 -35 -17 -76.5t-42 -74.5q-15 -20 -36 -41t-49 -38.5t-64 -28.5t-81 -11q-88 0 -140 49t-52 143q0 20 3.5 43t9 45.5t13 42.5t16.5 35q3 4 4 4q2 0 4 -2l3 -3q-2 -3 -4.5 -15t-5 -27.5t-4.5 -33t-2 -32.5
q0 -24 8.5 -52t27 -51t49.5 -38.5t76 -15.5q61 0 106 17t74 40t43.5 48t14.5 42q0 41 -15.5 70t-34.5 55q-10 13 -10 22l5 15l39 75h4zM517 586q10 -5 27.5 -21t28.5 -31v-4q-6 -5 -13.5 -12.5l-15.5 -15.5t-15 -15.5t-11 -11.5h-4q-9 12 -24 27t-31 23v4q0 1 8 10.5
t18 19.5l18.5 18.5t9.5 8.5h4zM640 586q10 -5 27.5 -21t28.5 -31v-4q-6 -5 -13.5 -12.5l-15.5 -15.5t-15 -15.5t-11 -11.5h-4q-9 12 -24 27t-31 23v4q0 1 8 10.5t18 19.5l18.5 18.5t9.5 8.5h4z" />
    <glyph glyph-name="uniFE97_uniFBA9.liga" unicode="&#xfe97;&#xfba9;" horiz-adv-x="543" 
d="M491 78q-11 20 -24 27.5t-27 7.5q-21 0 -47 -13t-51 -33.5t-45 -45.5t-29 -50q-10 -24 -10 -69q0 -19 1 -30.5t2.5 -21.5t2.5 -21t1 -28q0 -21 -15 -46t-37 -51l-4 1q-11 21 -26.5 53t-29.5 67.5t-24 69.5t-10 59q0 27 5 47t13 41q-68 -42 -147 -42q-10 0 -18 9t-8 29v6
q0 21 13 30.5t33 9.5q21 0 51 4t54 13q38 14 57 31t31 50q8 -8 8 -23q0 -20 -11 -41.5t-19 -32.5q-23 -29 -23 -62q0 -12 3.5 -33t10.5 -46t17 -51.5t23 -49.5h4q0 5 -0.5 9.5t-0.5 9.5q0 46 12 87t30 75t39 60t40 43q75 66 127 66q23 0 36.5 -13.5t13.5 -39.5
q0 -12 -5.5 -31t-11.5 -31h-5zM346 487q10 -5 27.5 -21t28.5 -31v-4q-6 -5 -13.5 -12.5l-15.5 -15.5t-15 -15.5t-11 -11.5h-4q-9 12 -24 27t-31 23v4q0 1 8 10.5t18 19.5l18.5 18.5t9.5 8.5h4zM469 487q10 -5 27.5 -21t28.5 -31v-4q-6 -5 -13.5 -12.5l-15.5 -15.5t-15 -15.5
t-11 -11.5h-4q-9 12 -24 27t-31 23v4q0 1 8 10.5t18 19.5l18.5 18.5t9.5 8.5h4z" />
    <glyph glyph-name="uniFE98_uniFBA9.liga" unicode="&#xfe98;&#xfba9;" horiz-adv-x="559" 
d="M569 84q15 0 20.5 -9.5t5.5 -30.5v-5q0 -23 -12.5 -31t-33.5 -8q-28 0 -47.5 14.5t-38.5 56.5q-9 20 -20.5 28t-25.5 8q-21 0 -43.5 -12t-43 -31.5t-37 -44t-25.5 -49.5q-5 -14 -7 -32.5t-2 -38.5q0 -12 1 -26t2 -27.5t2 -25.5t1 -19q0 -21 -15 -46.5t-37 -50.5l-4 1
q-11 21 -26.5 53t-29.5 67.5t-24 69.5t-10 59q0 27 5 47t13 41q-68 -42 -147 -42q-10 0 -18 9t-8 29v6q0 21 13 30.5t33 9.5q21 0 51 4t54 13q38 14 57 31t31 50q8 -8 8 -23q0 -20 -11 -41.5t-19 -32.5q-23 -29 -23 -62q0 -8 3 -27t9 -44t16.5 -53.5t25.5 -55.5h4
q0 97 28 163.5t70 114.5q33 38 66.5 55t59.5 17q23 0 35 -18t21 -44q10 -29 29 -38t44 -9zM351 487q10 -5 27.5 -21t28.5 -31v-4q-6 -5 -13.5 -12.5l-15.5 -15.5t-15 -15.5t-11 -11.5h-4q-9 12 -24 27t-31 23v4q0 1 8 10.5t18 19.5l18.5 18.5t9.5 8.5h4zM474 487
q10 -5 27.5 -21t28.5 -31v-4q-6 -5 -13.5 -12.5l-15.5 -15.5t-15 -15.5t-11 -11.5h-4q-9 12 -24 27t-31 23v4q0 1 8 10.5t18 19.5l18.5 18.5t9.5 8.5h4z" />
    <glyph glyph-name="uniFE97_uniFBFD.liga" unicode="&#xfe97;&#xfbfd;" horiz-adv-x="684" 
d="M496 180q26 -9 51 -21t44.5 -27.5t31 -34t11.5 -39.5q0 -15 -10.5 -40t-32.5 -53.5t-55 -57t-77.5 -52t-101.5 -38t-126 -14.5q-57 0 -96.5 11t-65 29.5t-39.5 42t-20.5 48t-8 48t-1.5 41.5q0 27 5.5 55t12.5 51.5t14 39.5t11 20q2 2 4 2q5 0 10 -5q-8 -20 -13.5 -51.5
t-5.5 -64.5q0 -30 12 -60t38.5 -54t69 -39t102.5 -15q63 0 119.5 12t99.5 29.5t68 37.5t25 37q0 18 -22.5 36.5t-58 35t-78 30.5t-81.5 22q11 24 25.5 41t27.5 19q37 7 66.5 18.5t50.5 24.5t32 27t11 27q0 15 -8.5 40.5t-40.5 65.5q-6 7 -6 17q0 9 4 16l39 75h4
q25 -46 37 -92.5t12 -86.5q0 -45 -26.5 -86t-63.5 -68zM447 686q10 -5 27.5 -21t28.5 -31v-4q-6 -5 -13.5 -12.5l-15.5 -15.5t-15 -15.5t-11 -11.5h-4q-9 12 -24 27t-31 23v4q0 1 8 10.5t18 19.5l18.5 18.5t9.5 8.5h4zM570 686q10 -5 27.5 -21t28.5 -31v-4
q-6 -5 -13.5 -12.5l-15.5 -15.5t-15 -15.5t-11 -11.5h-4q-9 12 -24 27t-31 23v4q0 1 8 10.5t18 19.5l18.5 18.5t9.5 8.5h4zM150 -308q10 -5 27.5 -21t28.5 -31v-4q-6 -5 -13.5 -12.5l-15.5 -15.5t-15 -15.5t-11 -11.5h-4q-9 12 -24 27t-31 23v4q0 1 8 10.5t18 19.5
l18.5 18.5t9.5 8.5h4zM273 -308q10 -5 27.5 -21t28.5 -31v-4q-6 -5 -13.5 -12.5l-15.5 -15.5t-15 -15.5t-11 -11.5h-4q-9 12 -24 27t-31 23v4q0 1 8 10.5t18 19.5l18.5 18.5t9.5 8.5h4z" />
    <glyph glyph-name="uniFE98_uniFBFD.liga" unicode="&#xfe98;&#xfbfd;" horiz-adv-x="751" 
d="M639 -85q0 -15 -11 -40t-33 -54t-56 -58.5t-79 -53t-102.5 -38.5t-126.5 -15q-57 0 -96.5 11t-65 29.5t-39.5 42t-20.5 48t-8 48t-1.5 41.5q0 27 5.5 55t12.5 51.5t14 39.5t11 20q2 2 4 2q5 0 10 -5q-8 -20 -13.5 -51.5t-5.5 -64.5q0 -30 12 -60t38.5 -54t69 -39
t102.5 -15q63 0 119.5 12t99.5 29.5t68 37.5t25 37q0 7 -7 13.5t-18 12t-25 10.5t-27 9q-44 12 -58.5 25t-14.5 37q0 30 13.5 67t35.5 69.5t51 54.5t61 22q26 0 45.5 -16.5t39 -37t41.5 -37t52 -16.5q15 0 20.5 -9.5t5.5 -30.5v-5q0 -23 -12.5 -31t-33.5 -8
q-26 0 -46.5 17.5t-40 38t-41 38t-50.5 17.5q-15 0 -32 -7.5t-32 -19.5t-25 -27t-10 -30q0 -9 13 -16.5t32.5 -14.5t42 -14.5t42 -17t32.5 -21.5t13 -28zM183 -408q10 -5 27.5 -21t28.5 -31v-4q-6 -5 -13.5 -12.5l-15.5 -15.5t-15 -15.5t-11 -11.5h-4q-9 12 -24 27t-31 23v4
q0 1 8 10.5t18 19.5l18.5 18.5t9.5 8.5h4zM306 -408q10 -5 27.5 -21t28.5 -31v-4q-6 -5 -13.5 -12.5l-15.5 -15.5t-15 -15.5t-11 -11.5h-4q-9 12 -24 27t-31 23v4q0 1 8 10.5t18 19.5l18.5 18.5t9.5 8.5h4zM517 487q10 -5 27.5 -21t28.5 -31v-4q-6 -5 -13.5 -12.5
l-15.5 -15.5t-15 -15.5t-11 -11.5h-4q-9 12 -24 27t-31 23v4q0 1 8 10.5t18 19.5l18.5 18.5t9.5 8.5h4zM640 487q10 -5 27.5 -21t28.5 -31v-4q-6 -5 -13.5 -12.5l-15.5 -15.5t-15 -15.5t-11 -11.5h-4q-9 12 -24 27t-31 23v4q0 1 8 10.5t18 19.5l18.5 18.5t9.5 8.5h4z" />
    <glyph glyph-name="uniFE9B_uniFEA0.liga" unicode="&#xfe9b;&#xfea0;" horiz-adv-x="613" 
d="M76 251q15 16 26.5 37t22.5 38q3 5 12 8q3 2 7.5 2.5t9.5 2.5q49 9 88.5 26.5t70 39t53 45.5t38.5 46q18 26 34.5 42t33.5 16q12 0 21 -9.5t15 -23.5t8.5 -30t2.5 -28q0 -3 -3 -12t-7.5 -19.5t-10.5 -21t-12 -17.5h-5q-4 28 -17 48.5t-32 20.5q-15 0 -28.5 -14.5
t-31.5 -36t-43.5 -46.5t-63.5 -47q28 -9 59 -20t62.5 -20.5t63.5 -16t63 -6.5q14 0 34 1t35 3l2 -3q-4 -7 -9.5 -16.5t-10.5 -19t-9 -18.5t-5 -15q-33 0 -59.5 -3t-49.5 -10t-46 -19t-49 -30q-38 -27 -73 -50t-75 -39.5t-90 -26t-118 -9.5q-10 0 -18 9t-8 29v6
q0 21 12.5 30.5t32.5 9.5q82 1 133.5 13.5t88 30.5t65 38.5t64.5 38.5q-23 9 -49.5 18.5t-52.5 17t-49 12.5t-39 5q-38 0 -57.5 -3t-32.5 -9zM403 786q10 -5 27.5 -21t28.5 -31v-4q-6 -5 -13.5 -12.5l-15.5 -15.5t-15 -15.5t-11 -11.5h-4q-9 12 -24 27t-31 23v4q0 1 8 10.5
t18 19.5l18.5 18.5t9.5 8.5h4zM526 786q10 -5 27.5 -21t28.5 -31v-4q-6 -5 -13.5 -12.5l-15.5 -15.5t-15 -15.5t-11 -11.5h-4q-9 12 -24 27t-31 23v4q0 1 8 10.5t18 19.5l18.5 18.5t9.5 8.5h4zM459 913q10 -5 27.5 -21t28.5 -31v-4q-6 -5 -13.5 -12.5l-15.5 -15.5t-15 -15.5
t-11 -11.5h-4q-9 12 -24 27t-31 23v4q0 1 8 10.5t18 19.5l18.5 18.5t9.5 8.5h4zM278 -109q10 -5 27.5 -21t28.5 -31v-4q-6 -5 -13.5 -12.5l-15.5 -15.5t-15 -15.5t-11 -11.5h-4q-9 12 -24 27t-31 23v4q0 1 8 10.5t18 19.5l18.5 18.5t9.5 8.5h4z" />
    <glyph glyph-name="uniFE9B_uniFEA2.liga" unicode="&#xfe9b;&#xfea2;" horiz-adv-x="606" 
d="M441 166q-40 0 -86 -7t-85 -22q-44 -17 -81 -43.5t-64.5 -61t-43 -76t-15.5 -88.5q0 -65 26 -118t76.5 -90.5t123.5 -58t168 -20.5q35 0 78 4t75 12q2 -2 2 -6q0 -7 -6 -11q-7 -4 -28 -14t-45 -20.5t-46.5 -20.5t-32.5 -14q-13 -5 -36 -8t-49 -3q-71 0 -137 19t-117 58.5
t-81.5 100.5t-30.5 145q0 68 27 126.5t66 105t83.5 80t80.5 51.5q-10 4 -26.5 8t-35.5 7t-38 4.5t-34 1.5q-31 0 -64 -6.5t-59 -19.5l-4 5q6 6 12 14.5t12 18t12 18.5t11 15q20 26 64 32q46 11 83 32t66 46.5t50.5 52t36.5 48.5q18 26 34.5 42t33.5 16q12 0 21 -10.5
t14.5 -25.5t8 -32t2.5 -29q0 -3 -3 -12t-7.5 -19.5t-10.5 -21t-12 -17.5h-5q-4 28 -16.5 51.5t-31.5 23.5q-14 0 -26.5 -15.5t-28.5 -39t-38 -51t-55 -51.5q25 -5 52.5 -11t54.5 -11t52 -8.5t44 -3.5q30 0 47.5 0.5t44.5 2.5l2 -3l-37 -75q-14 3 -48 3zM326 736
q10 -5 27.5 -21t28.5 -31v-4q-6 -5 -13.5 -12.5l-15.5 -15.5t-15 -15.5t-11 -11.5h-4q-9 12 -24 27t-31 23v4q0 1 8 10.5t18 19.5l18.5 18.5t9.5 8.5h4zM449 736q10 -5 27.5 -21t28.5 -31v-4q-6 -5 -13.5 -12.5l-15.5 -15.5t-15 -15.5t-11 -11.5h-4q-9 12 -24 27t-31 23v4
q0 1 8 10.5t18 19.5l18.5 18.5t9.5 8.5h4zM382 863q10 -5 27.5 -21t28.5 -31v-4q-6 -5 -13.5 -12.5l-15.5 -15.5t-15 -15.5t-11 -11.5h-4q-9 12 -24 27t-31 23v4q0 1 8 10.5t18 19.5l18.5 18.5t9.5 8.5h4z" />
    <glyph glyph-name="uniFE9B_uniFEA4.liga" unicode="&#xfe9b;&#xfea4;" horiz-adv-x="613" 
d="M76 251q15 16 26.5 37t22.5 38q3 5 12 8q3 2 7.5 2.5t9.5 2.5q49 9 88.5 26.5t70 39t53 45.5t38.5 46q18 26 34.5 42t33.5 16q12 0 21 -9.5t15 -23.5t8.5 -30t2.5 -28q0 -3 -3 -12t-7.5 -19.5t-10.5 -21t-12 -17.5h-5q-4 28 -17 48.5t-32 20.5q-15 0 -28.5 -14.5
t-31.5 -36t-43.5 -46.5t-63.5 -47q28 -9 59 -20t62.5 -20.5t63.5 -16t63 -6.5q14 0 34 1t35 3l2 -3q-4 -7 -9.5 -16.5t-10.5 -19t-9 -18.5t-5 -15q-33 0 -59.5 -3t-49.5 -10t-46 -19t-49 -30q-38 -27 -73 -50t-75 -39.5t-90 -26t-118 -9.5q-10 0 -18 9t-8 29v6
q0 21 12.5 30.5t32.5 9.5q82 1 133.5 13.5t88 30.5t65 38.5t64.5 38.5q-23 9 -49.5 18.5t-52.5 17t-49 12.5t-39 5q-38 0 -57.5 -3t-32.5 -9zM403 786q10 -5 27.5 -21t28.5 -31v-4q-6 -5 -13.5 -12.5l-15.5 -15.5t-15 -15.5t-11 -11.5h-4q-9 12 -24 27t-31 23v4q0 1 8 10.5
t18 19.5l18.5 18.5t9.5 8.5h4zM526 786q10 -5 27.5 -21t28.5 -31v-4q-6 -5 -13.5 -12.5l-15.5 -15.5t-15 -15.5t-11 -11.5h-4q-9 12 -24 27t-31 23v4q0 1 8 10.5t18 19.5l18.5 18.5t9.5 8.5h4zM459 913q10 -5 27.5 -21t28.5 -31v-4q-6 -5 -13.5 -12.5l-15.5 -15.5t-15 -15.5
t-11 -11.5h-4q-9 12 -24 27t-31 23v4q0 1 8 10.5t18 19.5l18.5 18.5t9.5 8.5h4z" />
    <glyph glyph-name="uniFE9B_uniFEA6.liga" unicode="&#xfe9b;&#xfea6;" horiz-adv-x="606" 
d="M441 166q-40 0 -86 -7t-85 -22q-44 -17 -81 -43.5t-64.5 -61t-43 -76t-15.5 -88.5q0 -65 26 -118t76.5 -90.5t123.5 -58t168 -20.5q35 0 78 4t75 12q2 -2 2 -6q0 -7 -6 -11q-7 -4 -28 -14t-45 -20.5t-46.5 -20.5t-32.5 -14q-13 -5 -36 -8t-49 -3q-71 0 -137 19t-117 58.5
t-81.5 100.5t-30.5 145q0 68 27 126.5t66 105t83.5 80t80.5 51.5q-10 4 -26.5 8t-35.5 7t-38 4.5t-34 1.5q-31 0 -64 -6.5t-59 -19.5l-4 5q6 6 12 14.5t12 18t12 18.5t11 15q20 26 64 32q46 11 83 32t66 46.5t50.5 52t36.5 48.5q18 26 34.5 42t33.5 16q12 0 21 -10.5
t14.5 -25.5t8 -32t2.5 -29q0 -3 -3 -12t-7.5 -19.5t-10.5 -21t-12 -17.5h-5q-4 28 -16.5 51.5t-31.5 23.5q-14 0 -26.5 -15.5t-28.5 -39t-38 -51t-55 -51.5q25 -5 52.5 -11t54.5 -11t52 -8.5t44 -3.5q30 0 47.5 0.5t44.5 2.5l2 -3l-37 -75q-14 3 -48 3zM123 586
q10 -5 27.5 -21t28.5 -31v-4q-6 -5 -13.5 -12.5l-15.5 -15.5t-15 -15.5t-11 -11.5h-4q-9 12 -24 27t-31 23v4q0 1 8 10.5t18 19.5l18.5 18.5t9.5 8.5h4zM326 736q10 -5 27.5 -21t28.5 -31v-4q-6 -5 -13.5 -12.5l-15.5 -15.5t-15 -15.5t-11 -11.5h-4q-9 12 -24 27t-31 23v4
q0 1 8 10.5t18 19.5l18.5 18.5t9.5 8.5h4zM449 736q10 -5 27.5 -21t28.5 -31v-4q-6 -5 -13.5 -12.5l-15.5 -15.5t-15 -15.5t-11 -11.5h-4q-9 12 -24 27t-31 23v4q0 1 8 10.5t18 19.5l18.5 18.5t9.5 8.5h4zM382 863q10 -5 27.5 -21t28.5 -31v-4q-6 -5 -13.5 -12.5
l-15.5 -15.5t-15 -15.5t-11 -11.5h-4q-9 12 -24 27t-31 23v4q0 1 8 10.5t18 19.5l18.5 18.5t9.5 8.5h4z" />
    <glyph glyph-name="uniFE9B_uniFEA8.liga" unicode="&#xfe9b;&#xfea8;" horiz-adv-x="613" 
d="M76 251q15 16 26.5 37t22.5 38q3 5 12 8q3 2 7.5 2.5t9.5 2.5q49 9 88.5 26.5t70 39t53 45.5t38.5 46q18 26 34.5 42t33.5 16q12 0 21 -9.5t15 -23.5t8.5 -30t2.5 -28q0 -3 -3 -12t-7.5 -19.5t-10.5 -21t-12 -17.5h-5q-4 28 -17 48.5t-32 20.5q-15 0 -28.5 -14.5
t-31.5 -36t-43.5 -46.5t-63.5 -47q28 -9 59 -20t62.5 -20.5t63.5 -16t63 -6.5q14 0 34 1t35 3l2 -3q-4 -7 -9.5 -16.5t-10.5 -19t-9 -18.5t-5 -15q-33 0 -59.5 -3t-49.5 -10t-46 -19t-49 -30q-38 -27 -73 -50t-75 -39.5t-90 -26t-118 -9.5q-10 0 -18 9t-8 29v6
q0 21 12.5 30.5t32.5 9.5q82 1 133.5 13.5t88 30.5t65 38.5t64.5 38.5q-23 9 -49.5 18.5t-52.5 17t-49 12.5t-39 5q-38 0 -57.5 -3t-32.5 -9zM400 786q10 -5 27.5 -21t28.5 -31v-4q-6 -5 -13.5 -12.5l-15.5 -15.5t-15 -15.5t-11 -11.5h-4q-9 12 -24 27t-31 23v4q0 1 8 10.5
t18 19.5l18.5 18.5t9.5 8.5h4zM523 786q10 -5 27.5 -21t28.5 -31v-4q-6 -5 -13.5 -12.5l-15.5 -15.5t-15 -15.5t-11 -11.5h-4q-9 12 -24 27t-31 23v4q0 1 8 10.5t18 19.5l18.5 18.5t9.5 8.5h4zM456 913q10 -5 27.5 -21t28.5 -31v-4q-6 -5 -13.5 -12.5l-15.5 -15.5t-15 -15.5
t-11 -11.5h-4q-9 12 -24 27t-31 23v4q0 1 8 10.5t18 19.5l18.5 18.5t9.5 8.5h4zM126 586q10 -5 27.5 -21t28.5 -31v-4q-6 -5 -13.5 -12.5l-15.5 -15.5t-15 -15.5t-11 -11.5h-4q-9 12 -24 27t-31 23v4q0 1 8 10.5t18 19.5l18.5 18.5t9.5 8.5h4z" />
    <glyph glyph-name="uniFE9B_uniFEEC.liga" unicode="&#xfe9b;&#xfeec;" horiz-adv-x="543" 
d="M491 78q-11 20 -24 27.5t-27 7.5q-21 0 -47 -13t-51 -33.5t-45 -45.5t-29 -50q-10 -24 -10 -69q0 -19 1 -30.5t2.5 -21.5t2.5 -21t1 -28q0 -21 -15 -46t-37 -51l-4 1q-11 21 -26.5 53t-29.5 67.5t-24 69.5t-10 59q0 27 5 47t13 41q-68 -42 -147 -42q-10 0 -18 9t-8 29v6
q0 21 13 30.5t33 9.5q21 0 51 4t54 13q38 14 57 31t31 50q8 -8 8 -23q0 -20 -11 -41.5t-19 -32.5q-23 -29 -23 -62q0 -12 3.5 -33t10.5 -46t17 -51.5t23 -49.5h4q0 5 -0.5 9.5t-0.5 9.5q0 46 12 87t30 75t39 60t40 43q75 66 127 66q23 0 36.5 -13.5t13.5 -39.5
q0 -12 -5.5 -31t-11.5 -31h-5zM339 487q10 -5 27.5 -21t28.5 -31v-4q-6 -5 -13.5 -12.5l-15.5 -15.5t-15 -15.5t-11 -11.5h-4q-9 12 -24 27t-31 23v4q0 1 8 10.5t18 19.5l18.5 18.5t9.5 8.5h4zM462 487q10 -5 27.5 -21t28.5 -31v-4q-6 -5 -13.5 -12.5l-15.5 -15.5t-15 -15.5
t-11 -11.5h-4q-9 12 -24 27t-31 23v4q0 1 8 10.5t18 19.5l18.5 18.5t9.5 8.5h4zM395 614q10 -5 27.5 -21t28.5 -31v-4q-6 -5 -13.5 -12.5l-15.5 -15.5t-15 -15.5t-11 -11.5h-4q-9 12 -24 27t-31 23v4q0 1 8 10.5t18 19.5l18.5 18.5t9.5 8.5h4z" />
    <glyph glyph-name="uniFE9B_uniFB7B.liga" unicode="&#xfe9b;&#xfb7b;" horiz-adv-x="606" 
d="M441 166q-40 0 -86 -7t-85 -22q-44 -17 -81 -43.5t-64.5 -61t-43 -76t-15.5 -88.5q0 -65 26 -118t76.5 -90.5t123.5 -58t168 -20.5q35 0 78 4t75 12q2 -2 2 -6q0 -7 -6 -11q-7 -4 -28 -14t-45 -20.5t-46.5 -20.5t-32.5 -14q-13 -5 -36 -8t-49 -3q-71 0 -137 19t-117 58.5
t-81.5 100.5t-30.5 145q0 68 27 126.5t66 105t83.5 80t80.5 51.5q-10 4 -26.5 8t-35.5 7t-38 4.5t-34 1.5q-31 0 -64 -6.5t-59 -19.5l-4 5q6 6 12 14.5t12 18t12 18.5t11 15q20 26 64 32q46 11 83 32t66 46.5t50.5 52t36.5 48.5q18 26 34.5 42t33.5 16q12 0 21 -10.5
t14.5 -25.5t8 -32t2.5 -29q0 -3 -3 -12t-7.5 -19.5t-10.5 -21t-12 -17.5h-5q-4 28 -16.5 51.5t-31.5 23.5q-14 0 -26.5 -15.5t-28.5 -39t-38 -51t-55 -51.5q25 -5 52.5 -11t54.5 -11t52 -8.5t44 -3.5q30 0 47.5 0.5t44.5 2.5l2 -3l-37 -75q-14 3 -48 3zM326 736
q10 -5 27.5 -21t28.5 -31v-4q-6 -5 -13.5 -12.5l-15.5 -15.5t-15 -15.5t-11 -11.5h-4q-9 12 -24 27t-31 23v4q0 1 8 10.5t18 19.5l18.5 18.5t9.5 8.5h4zM449 736q10 -5 27.5 -21t28.5 -31v-4q-6 -5 -13.5 -12.5l-15.5 -15.5t-15 -15.5t-11 -11.5h-4q-9 12 -24 27t-31 23v4
q0 1 8 10.5t18 19.5l18.5 18.5t9.5 8.5h4zM382 863q10 -5 27.5 -21t28.5 -31v-4q-6 -5 -13.5 -12.5l-15.5 -15.5t-15 -15.5t-11 -11.5h-4q-9 12 -24 27t-31 23v4q0 1 8 10.5t18 19.5l18.5 18.5t9.5 8.5h4zM290 -59q10 -5 27.5 -21t28.5 -31v-4q-6 -5 -13.5 -12.5
l-15.5 -15.5t-15 -15.5t-11 -11.5h-4q-9 12 -24 27t-31 23v4q0 1 8 10.5t18 19.5l18.5 18.5t9.5 8.5h4zM413 -59q10 -5 27.5 -21t28.5 -31v-4q-6 -5 -13.5 -12.5l-15.5 -15.5t-15 -15.5t-11 -11.5h-4q-9 12 -24 27t-31 23v4q0 1 8 10.5t18 19.5l18.5 18.5t9.5 8.5h4z
M346 -190q10 -5 27.5 -21t28.5 -31v-4q-6 -5 -13.5 -12.5l-15.5 -15.5t-15 -15.5t-11 -11.5h-4q-9 12 -24 27t-31 23v4q0 1 8 10.5t18 19.5l18.5 18.5t9.5 8.5h4z" />
    <glyph glyph-name="uniFE9B_uniFB7D.liga" unicode="&#xfe9b;&#xfb7d;" horiz-adv-x="613" 
d="M76 251q15 16 26.5 37t22.5 38q3 5 12 8q3 2 7.5 2.5t9.5 2.5q49 9 88.5 26.5t70 39t53 45.5t38.5 46q18 26 34.5 42t33.5 16q12 0 21 -9.5t15 -23.5t8.5 -30t2.5 -28q0 -3 -3 -12t-7.5 -19.5t-10.5 -21t-12 -17.5h-5q-4 28 -17 48.5t-32 20.5q-15 0 -28.5 -14.5
t-31.5 -36t-43.5 -46.5t-63.5 -47q28 -9 59 -20t62.5 -20.5t63.5 -16t63 -6.5q14 0 34 1t35 3l2 -3q-4 -7 -9.5 -16.5t-10.5 -19t-9 -18.5t-5 -15q-33 0 -59.5 -3t-49.5 -10t-46 -19t-49 -30q-38 -27 -73 -50t-75 -39.5t-90 -26t-118 -9.5q-10 0 -18 9t-8 29v6
q0 21 12.5 30.5t32.5 9.5q82 1 133.5 13.5t88 30.5t65 38.5t64.5 38.5q-23 9 -49.5 18.5t-52.5 17t-49 12.5t-39 5q-38 0 -57.5 -3t-32.5 -9zM403 786q10 -5 27.5 -21t28.5 -31v-4q-6 -5 -13.5 -12.5l-15.5 -15.5t-15 -15.5t-11 -11.5h-4q-9 12 -24 27t-31 23v4q0 1 8 10.5
t18 19.5l18.5 18.5t9.5 8.5h4zM526 786q10 -5 27.5 -21t28.5 -31v-4q-6 -5 -13.5 -12.5l-15.5 -15.5t-15 -15.5t-11 -11.5h-4q-9 12 -24 27t-31 23v4q0 1 8 10.5t18 19.5l18.5 18.5t9.5 8.5h4zM459 913q10 -5 27.5 -21t28.5 -31v-4q-6 -5 -13.5 -12.5l-15.5 -15.5t-15 -15.5
t-11 -11.5h-4q-9 12 -24 27t-31 23v4q0 1 8 10.5t18 19.5l18.5 18.5t9.5 8.5h4zM214 -109q10 -5 27.5 -21t28.5 -31v-4q-6 -5 -13.5 -12.5l-15.5 -15.5t-15 -15.5t-11 -11.5h-4q-9 12 -24 27t-31 23v4q0 1 8 10.5t18 19.5l18.5 18.5t9.5 8.5h4zM337 -109q10 -5 27.5 -21
t28.5 -31v-4q-6 -5 -13.5 -12.5l-15.5 -15.5t-15 -15.5t-11 -11.5h-4q-9 12 -24 27t-31 23v4q0 1 8 10.5t18 19.5l18.5 18.5t9.5 8.5h4zM270 -240q10 -5 27.5 -21t28.5 -31v-4q-6 -5 -13.5 -12.5l-15.5 -15.5t-15 -15.5t-11 -11.5h-4q-9 12 -24 27t-31 23v4q0 1 8 10.5
t18 19.5l18.5 18.5t9.5 8.5h4z" />
    <glyph glyph-name="uniFE9C_uniFB9F.liga" unicode="&#xfe9c;&#xfb9f;" horiz-adv-x="726" 
d="M424 281q10 -20 19.5 -44.5t17.5 -50.5q15 -4 45 -4q33 0 54 11t39 28q10 9 16 19t12 16q2 2 4 2t4 -1.5t3 -2.5q-5 -8 -9 -26t-4 -34q0 -21 5.5 -41t18.5 -35t34 -24.5t53 -9.5q15 0 20.5 -9.5t5.5 -30.5v-5q0 -23 -12.5 -31t-33.5 -8q-23 0 -47 7t-44 23.5t-33.5 43.5
t-14.5 68q-23 -22 -49 -30.5t-49 -9.5q1 -8 1.5 -14.5t0.5 -12.5q0 -35 -17 -76.5t-42 -74.5q-15 -20 -36 -41t-49 -38.5t-64 -28.5t-81 -11q-88 0 -140 49t-52 143q0 20 3.5 43t9 45.5t13 42.5t16.5 35q3 4 4 4q2 0 4 -2l3 -3q-2 -3 -4.5 -15t-5 -27.5t-4.5 -33t-2 -32.5
q0 -24 8.5 -52t27 -51t49.5 -38.5t76 -15.5q61 0 106 17t74 40t43.5 48t14.5 42q0 41 -15.5 70t-34.5 55q-10 13 -10 22l5 15l39 75h4zM519 586q10 -5 27.5 -21t28.5 -31v-4q-6 -5 -13.5 -12.5l-15.5 -15.5t-15 -15.5t-11 -11.5h-4q-9 12 -24 27t-31 23v4q0 1 8 10.5
t18 19.5l18.5 18.5t9.5 8.5h4zM642 586q10 -5 27.5 -21t28.5 -31v-4q-6 -5 -13.5 -12.5l-15.5 -15.5t-15 -15.5t-11 -11.5h-4q-9 12 -24 27t-31 23v4q0 1 8 10.5t18 19.5l18.5 18.5t9.5 8.5h4zM575 713q10 -5 27.5 -21t28.5 -31v-4q-6 -5 -13.5 -12.5l-15.5 -15.5t-15 -15.5
t-11 -11.5h-4q-9 12 -24 27t-31 23v4q0 1 8 10.5t18 19.5l18.5 18.5t9.5 8.5h4z" />
    <glyph glyph-name="uniFE9B_uniFBA9.liga" unicode="&#xfe9b;&#xfba9;" horiz-adv-x="543" 
d="M491 78q-11 20 -24 27.5t-27 7.5q-21 0 -47 -13t-51 -33.5t-45 -45.5t-29 -50q-10 -24 -10 -69q0 -19 1 -30.5t2.5 -21.5t2.5 -21t1 -28q0 -21 -15 -46t-37 -51l-4 1q-11 21 -26.5 53t-29.5 67.5t-24 69.5t-10 59q0 27 5 47t13 41q-68 -42 -147 -42q-10 0 -18 9t-8 29v6
q0 21 13 30.5t33 9.5q21 0 51 4t54 13q38 14 57 31t31 50q8 -8 8 -23q0 -20 -11 -41.5t-19 -32.5q-23 -29 -23 -62q0 -12 3.5 -33t10.5 -46t17 -51.5t23 -49.5h4q0 5 -0.5 9.5t-0.5 9.5q0 46 12 87t30 75t39 60t40 43q75 66 127 66q23 0 36.5 -13.5t13.5 -39.5
q0 -12 -5.5 -31t-11.5 -31h-5zM339 487q10 -5 27.5 -21t28.5 -31v-4q-6 -5 -13.5 -12.5l-15.5 -15.5t-15 -15.5t-11 -11.5h-4q-9 12 -24 27t-31 23v4q0 1 8 10.5t18 19.5l18.5 18.5t9.5 8.5h4zM462 487q10 -5 27.5 -21t28.5 -31v-4q-6 -5 -13.5 -12.5l-15.5 -15.5t-15 -15.5
t-11 -11.5h-4q-9 12 -24 27t-31 23v4q0 1 8 10.5t18 19.5l18.5 18.5t9.5 8.5h4zM395 614q10 -5 27.5 -21t28.5 -31v-4q-6 -5 -13.5 -12.5l-15.5 -15.5t-15 -15.5t-11 -11.5h-4q-9 12 -24 27t-31 23v4q0 1 8 10.5t18 19.5l18.5 18.5t9.5 8.5h4z" />
    <glyph glyph-name="uniFE9C_uniFBA9.liga" unicode="&#xfe9c;&#xfba9;" horiz-adv-x="559" 
d="M569 84q15 0 20.5 -9.5t5.5 -30.5v-5q0 -23 -12.5 -31t-33.5 -8q-28 0 -47.5 14.5t-38.5 56.5q-9 20 -20.5 28t-25.5 8q-21 0 -43.5 -12t-43 -31.5t-37 -44t-25.5 -49.5q-5 -14 -7 -32.5t-2 -38.5q0 -12 1 -26t2 -27.5t2 -25.5t1 -19q0 -21 -15 -46.5t-37 -50.5l-4 1
q-11 21 -26.5 53t-29.5 67.5t-24 69.5t-10 59q0 27 5 47t13 41q-68 -42 -147 -42q-10 0 -18 9t-8 29v6q0 21 13 30.5t33 9.5q21 0 51 4t54 13q38 14 57 31t31 50q8 -8 8 -23q0 -20 -11 -41.5t-19 -32.5q-23 -29 -23 -62q0 -8 3 -27t9 -44t16.5 -53.5t25.5 -55.5h4
q0 97 28 163.5t70 114.5q33 38 66.5 55t59.5 17q23 0 35 -18t21 -44q10 -29 29 -38t44 -9zM355 487q10 -5 27.5 -21t28.5 -31v-4q-6 -5 -13.5 -12.5l-15.5 -15.5t-15 -15.5t-11 -11.5h-4q-9 12 -24 27t-31 23v4q0 1 8 10.5t18 19.5l18.5 18.5t9.5 8.5h4zM478 487
q10 -5 27.5 -21t28.5 -31v-4q-6 -5 -13.5 -12.5l-15.5 -15.5t-15 -15.5t-11 -11.5h-4q-9 12 -24 27t-31 23v4q0 1 8 10.5t18 19.5l18.5 18.5t9.5 8.5h4zM411 614q10 -5 27.5 -21t28.5 -31v-4q-6 -5 -13.5 -12.5l-15.5 -15.5t-15 -15.5t-11 -11.5h-4q-9 12 -24 27t-31 23v4
q0 1 8 10.5t18 19.5l18.5 18.5t9.5 8.5h4z" />
    <glyph glyph-name="uniFE9B_uniFBFD.liga" unicode="&#xfe9b;&#xfbfd;" horiz-adv-x="684" 
d="M496 180q26 -9 51 -21t44.5 -27.5t31 -34t11.5 -39.5q0 -15 -10.5 -40t-32.5 -53.5t-55 -57t-77.5 -52t-101.5 -38t-126 -14.5q-57 0 -96.5 11t-65 29.5t-39.5 42t-20.5 48t-8 48t-1.5 41.5q0 27 5.5 55t12.5 51.5t14 39.5t11 20q2 2 4 2q5 0 10 -5q-8 -20 -13.5 -51.5
t-5.5 -64.5q0 -30 12 -60t38.5 -54t69 -39t102.5 -15q63 0 119.5 12t99.5 29.5t68 37.5t25 37q0 18 -22.5 36.5t-58 35t-78 30.5t-81.5 22q11 24 25.5 41t27.5 19q37 7 66.5 18.5t50.5 24.5t32 27t11 27q0 15 -8.5 40.5t-40.5 65.5q-6 7 -6 17q0 9 4 16l39 75h4
q25 -46 37 -92.5t12 -86.5q0 -45 -26.5 -86t-63.5 -68zM416 686q10 -5 27.5 -21t28.5 -31v-4q-6 -5 -13.5 -12.5l-15.5 -15.5t-15 -15.5t-11 -11.5h-4q-9 12 -24 27t-31 23v4q0 1 8 10.5t18 19.5l18.5 18.5t9.5 8.5h4zM539 686q10 -5 27.5 -21t28.5 -31v-4
q-6 -5 -13.5 -12.5l-15.5 -15.5t-15 -15.5t-11 -11.5h-4q-9 12 -24 27t-31 23v4q0 1 8 10.5t18 19.5l18.5 18.5t9.5 8.5h4zM472 813q10 -5 27.5 -21t28.5 -31v-4q-6 -5 -13.5 -12.5l-15.5 -15.5t-15 -15.5t-11 -11.5h-4q-9 12 -24 27t-31 23v4q0 1 8 10.5t18 19.5l18.5 18.5
t9.5 8.5h4zM150 -308q10 -5 27.5 -21t28.5 -31v-4q-6 -5 -13.5 -12.5l-15.5 -15.5t-15 -15.5t-11 -11.5h-4q-9 12 -24 27t-31 23v4q0 1 8 10.5t18 19.5l18.5 18.5t9.5 8.5h4zM273 -308q10 -5 27.5 -21t28.5 -31v-4q-6 -5 -13.5 -12.5l-15.5 -15.5t-15 -15.5t-11 -11.5h-4
q-9 12 -24 27t-31 23v4q0 1 8 10.5t18 19.5l18.5 18.5t9.5 8.5h4z" />
    <glyph glyph-name="uniFE9C_uniFBFD.liga" unicode="&#xfe9c;&#xfbfd;" horiz-adv-x="751" 
d="M639 -85q0 -15 -11 -40t-33 -54t-56 -58.5t-79 -53t-102.5 -38.5t-126.5 -15q-57 0 -96.5 11t-65 29.5t-39.5 42t-20.5 48t-8 48t-1.5 41.5q0 27 5.5 55t12.5 51.5t14 39.5t11 20q2 2 4 2q5 0 10 -5q-8 -20 -13.5 -51.5t-5.5 -64.5q0 -30 12 -60t38.5 -54t69 -39
t102.5 -15q63 0 119.5 12t99.5 29.5t68 37.5t25 37q0 7 -7 13.5t-18 12t-25 10.5t-27 9q-44 12 -58.5 25t-14.5 37q0 30 13.5 67t35.5 69.5t51 54.5t61 22q26 0 45.5 -16.5t39 -37t41.5 -37t52 -16.5q15 0 20.5 -9.5t5.5 -30.5v-5q0 -23 -12.5 -31t-33.5 -8
q-26 0 -46.5 17.5t-40 38t-41 38t-50.5 17.5q-15 0 -32 -7.5t-32 -19.5t-25 -27t-10 -30q0 -9 13 -16.5t32.5 -14.5t42 -14.5t42 -17t32.5 -21.5t13 -28zM183 -408q10 -5 27.5 -21t28.5 -31v-4q-6 -5 -13.5 -12.5l-15.5 -15.5t-15 -15.5t-11 -11.5h-4q-9 12 -24 27t-31 23v4
q0 1 8 10.5t18 19.5l18.5 18.5t9.5 8.5h4zM306 -408q10 -5 27.5 -21t28.5 -31v-4q-6 -5 -13.5 -12.5l-15.5 -15.5t-15 -15.5t-11 -11.5h-4q-9 12 -24 27t-31 23v4q0 1 8 10.5t18 19.5l18.5 18.5t9.5 8.5h4zM509 487q10 -5 27.5 -21t28.5 -31v-4q-6 -5 -13.5 -12.5
l-15.5 -15.5t-15 -15.5t-11 -11.5h-4q-9 12 -24 27t-31 23v4q0 1 8 10.5t18 19.5l18.5 18.5t9.5 8.5h4zM632 487q10 -5 27.5 -21t28.5 -31v-4q-6 -5 -13.5 -12.5l-15.5 -15.5t-15 -15.5t-11 -11.5h-4q-9 12 -24 27t-31 23v4q0 1 8 10.5t18 19.5l18.5 18.5t9.5 8.5h4z
M565 614q10 -5 27.5 -21t28.5 -31v-4q-6 -5 -13.5 -12.5l-15.5 -15.5t-15 -15.5t-11 -11.5h-4q-9 12 -24 27t-31 23v4q0 1 8 10.5t18 19.5l18.5 18.5t9.5 8.5h4z" />
    <glyph glyph-name="uniFEB3_uniFE82.liga" unicode="&#xfeb3;&#xfe82;" horiz-adv-x="1108" 
d="M276 -16q-56 0 -91 16.5t-54.5 44.5t-26.5 63t-7 73v159q0 46 -1.5 96.5t-5 95.5t-8.5 79t-12 47q8 7 17 17.5t17.5 20.5t15 18.5t9.5 11.5t7 3t6.5 -3t2.5 -6l3 -86q2 -40 3 -91.5t1 -108.5v-67t-2 -67q-1 -12 -1 -23v-22q0 -46 7.5 -81t26.5 -58.5t51 -35.5t81 -12
q91 0 144 24t69 63q11 27 21.5 44.5t17.5 22.5q1 1 3 1t4 -1.5t3 -2.5q-5 -8 -9 -26t-4 -34q0 -42 24.5 -58.5t70.5 -16.5q24 0 44 7t34.5 17.5t24 23t13.5 23.5q11 28 21.5 45t17.5 22q1 1 3 1t4 -1.5t3 -2.5q-5 -8 -9 -26t-4 -34q0 -33 17.5 -54t60.5 -21q52 0 73 16
t21 42q0 15 -8.5 40.5t-40.5 65.5q-6 7 -6 17q0 9 4 16l39 75h4q25 -46 37 -92.5t12 -86.5q0 -22 -6 -43t-15 -39t-19.5 -32t-19.5 -22q-21 -20 -43.5 -30.5t-48.5 -10.5q-12 0 -25.5 3t-26.5 11.5t-23.5 23t-15.5 38.5q-29 -32 -64.5 -54t-81.5 -22q-32 0 -61 16t-40 60
q-60 -46 -121.5 -69t-136.5 -23zM-53 775q5 16 15.5 31t23 26.5t26.5 18.5t26 7q11 0 26 -4.5t33.5 -9.5t39.5 -9.5t45 -4.5q26 0 49 5t44 16l3 -3q-3 -9 -11.5 -22t-22.5 -25.5t-34 -21t-46 -8.5q-20 0 -37.5 3.5t-34 8t-32.5 8.5t-34 4q-32 0 -49 -8t-27 -15z" />
    <glyph glyph-name="uniFEB4_uniFE82.liga" unicode="&#xfeb4;&#xfe82;" horiz-adv-x="1128" 
d="M635 0q-32 0 -61 16t-40 60q-60 -46 -121.5 -69t-136.5 -23q-56 0 -91 16.5t-54.5 44.5t-26.5 63t-7 73v159q0 46 -1.5 96.5t-5 95.5t-8.5 79t-12 47q8 7 17 17.5t17.5 20.5t15 18.5t9.5 11.5t7 3t6.5 -3t2.5 -6l3 -86q2 -40 3 -91.5t1 -108.5v-67t-2 -67q-1 -12 -1 -23
v-22q0 -46 7.5 -81t26.5 -58.5t51 -35.5t81 -12q91 0 144 24t69 63q11 27 21.5 44.5t17.5 22.5q1 1 3 1t4 -1.5t3 -2.5q-5 -8 -9 -26t-4 -34q0 -42 24.5 -58.5t70.5 -16.5q28 0 49 7t35.5 18t23.5 23t13 23q10 28 21 45t18 22q1 1 3 1t4 -1.5t3 -2.5q-5 -8 -9 -26t-4 -34
q0 -33 17.5 -54t60.5 -21q26 0 45 14.5t29 31.5q-3 12 -4 23.5t-1 22.5q0 20 2.5 36t6.5 24q1 3 5 3t4 -2q3 -27 9 -54.5t22.5 -49.5t46 -35.5t79.5 -13.5q15 0 20.5 -9.5t5.5 -30.5v-5q0 -23 -12.5 -31t-33.5 -8q-93 0 -126 76q-8 -11 -18.5 -24.5t-24 -25t-31 -19
t-41.5 -7.5q-12 0 -25.5 3t-26.5 11.5t-23.5 23t-15.5 38.5q-32 -38 -69 -57t-82 -19zM-53 775q5 16 15.5 31t23 26.5t26.5 18.5t26 7q11 0 26 -4.5t33.5 -9.5t39.5 -9.5t45 -4.5q26 0 49 5t44 16l3 -3q-3 -9 -11.5 -22t-22.5 -25.5t-34 -21t-46 -8.5q-20 0 -37.5 3.5t-34 8
t-32.5 8.5t-34 4q-32 0 -49 -8t-27 -15z" />
    </font>
</defs>
</svg>
